M48
; DRILL file {KiCad (6.0.9)} date Fri Dec 16 01:28:00 2022
; FORMAT={-:-/ absolute / inch / decimal}
; #@! TF.CreationDate,2022-12-16T01:28:00-08:00
; #@! TF.GenerationSoftware,Kicad,Pcbnew,(6.0.9)
; #@! TF.FileFunction,NonPlated,1,2,NPTH
FMAT,2
INCH
; #@! TA.AperFunction,NonPlated,NPTH,ComponentDrill
T1C0.0310
; #@! TA.AperFunction,NonPlated,NPTH,ComponentDrill
T2C0.0630
; #@! TA.AperFunction,NonPlated,NPTH,ComponentDrill
T3C0.0709
; #@! TA.AperFunction,NonPlated,NPTH,ComponentDrill
T4C0.0787
; #@! TA.AperFunction,NonPlated,NPTH,ComponentDrill
T5C0.0866
; #@! TA.AperFunction,NonPlated,NPTH,ComponentDrill
T6C0.0945
; #@! TA.AperFunction,NonPlated,NPTH,ComponentDrill
T7C0.2047
%
G90
G05
T1
X4.276Y-2.2176
X4.276Y-2.5247
X4.326Y-2.2176
X4.326Y-2.5247
X4.376Y-2.2176
X4.376Y-2.5247
X4.468Y-2.2157
X4.468Y-2.2957
X4.518Y-2.2157
X4.518Y-2.2957
X4.568Y-2.2157
X4.568Y-2.2957
T2
X2.7371Y-2.2183
X2.7586Y-1.8075
X4.6651Y-3.8821
X5.0765Y-3.8821
T3
X4.1098Y-2.013
X4.3009Y-3.9136
X4.6295Y-2.013
T4
X2.2043Y-2.387
X2.7422Y-2.121
X2.7535Y-1.9048
X4.7626Y-3.8821
X4.8708Y-3.7049
X4.8708Y-4.0592
X4.9791Y-3.8821
X6.535Y-2.387
T5
X2.3231Y-1.5884
X3.1722Y-2.4375
T6
X6.2201Y-1.6193
T7
X2.913Y-2.8004
X4.4771Y-3.2974
T5
G00X6.7122Y-2.9972
M15
G01X6.7358Y-2.9972
M16
G05
T0
M30
