G04 #@! TF.GenerationSoftware,KiCad,Pcbnew,(6.0.9)*
G04 #@! TF.CreationDate,2022-12-16T01:27:57-08:00*
G04 #@! TF.ProjectId,PhobGCC_2_0_0_proto_1,50686f62-4743-4435-9f32-5f305f305f70,rev?*
G04 #@! TF.SameCoordinates,Original*
G04 #@! TF.FileFunction,Legend,Top*
G04 #@! TF.FilePolarity,Positive*
%FSLAX46Y46*%
G04 Gerber Fmt 4.6, Leading zero omitted, Abs format (unit mm)*
G04 Created by KiCad (PCBNEW (6.0.9)) date 2022-12-16 01:27:57*
%MOMM*%
%LPD*%
G01*
G04 APERTURE LIST*
G04 Aperture macros list*
%AMRoundRect*
0 Rectangle with rounded corners*
0 $1 Rounding radius*
0 $2 $3 $4 $5 $6 $7 $8 $9 X,Y pos of 4 corners*
0 Add a 4 corners polygon primitive as box body*
4,1,4,$2,$3,$4,$5,$6,$7,$8,$9,$2,$3,0*
0 Add four circle primitives for the rounded corners*
1,1,$1+$1,$2,$3*
1,1,$1+$1,$4,$5*
1,1,$1+$1,$6,$7*
1,1,$1+$1,$8,$9*
0 Add four rect primitives between the rounded corners*
20,1,$1+$1,$2,$3,$4,$5,0*
20,1,$1+$1,$4,$5,$6,$7,0*
20,1,$1+$1,$6,$7,$8,$9,0*
20,1,$1+$1,$8,$9,$2,$3,0*%
%AMHorizOval*
0 Thick line with rounded ends*
0 $1 width*
0 $2 $3 position (X,Y) of the first rounded end (center of the circle)*
0 $4 $5 position (X,Y) of the second rounded end (center of the circle)*
0 Add line between two ends*
20,1,$1,$2,$3,$4,$5,0*
0 Add two circle primitives to create the rounded ends*
1,1,$1,$2,$3*
1,1,$1,$4,$5*%
%AMFreePoly0*
4,1,397,1.800000,-0.940000,0.408673,-0.940000,0.403277,-1.027235,0.401356,-1.133531,0.402945,-1.281398,0.411246,-1.393555,0.428015,-1.476550,0.454895,-1.537030,0.493756,-1.582129,0.534103,-1.611203,0.615558,-1.643348,0.697633,-1.653926,0.796329,-1.665641,0.796818,-1.665915,0.797379,-1.665882,0.885602,-1.696499,0.886085,-1.696929,0.886718,-1.697051,0.953945,-1.741469,0.954506,-1.742299,
0.955336,-1.742850,0.991086,-1.795975,0.991245,-1.796757,0.991743,-1.797383,0.992100,-1.798622,0.992059,-1.798988,0.992245,-1.799304,0.998244,-1.841600,0.998195,-1.841790,0.998283,-1.841968,1.003319,-1.917100,1.003293,-1.917176,1.003327,-1.917249,1.006969,-2.015726,1.006949,-2.015779,1.006971,-2.015830,1.008789,-2.128157,1.008776,-2.128189,1.008790,-2.128221,1.008917,-2.166485,
1.009242,-2.278465,1.009223,-2.278512,1.009241,-2.278558,1.007796,-2.371336,1.007717,-2.371520,1.007776,-2.371710,1.000931,-2.447096,1.000725,-2.447490,1.000783,-2.447927,0.984905,-2.507730,0.984444,-2.508334,0.984321,-2.509082,0.955778,-2.555109,0.955023,-2.555652,0.954554,-2.556455,0.909717,-2.590517,0.908982,-2.590710,0.908423,-2.591227,0.843661,-2.615132,0.843193,-2.615114,
0.842798,-2.615365,0.754478,-2.630921,0.754229,-2.630866,0.754000,-2.630982,0.638493,-2.639998,0.638370,-2.639958,0.638251,-2.640011,0.491924,-2.644296,0.491870,-2.644275,0.491816,-2.644298,0.311040,-2.645661,0.311024,-2.645654,0.311008,-2.645661,0.092153,-2.645911,0.051430,-2.645971,-0.178230,-2.646549,-0.178242,-2.646544,-0.178254,-2.646549,-0.369163,-2.646129,-0.369210,-2.646109,
-0.369258,-2.646128,-0.524988,-2.642817,-0.525096,-2.642769,-0.525207,-2.642807,-0.649331,-2.634711,-0.649539,-2.634608,-0.649766,-2.634664,-0.745858,-2.619891,-0.746222,-2.619670,-0.746647,-2.619703,-0.818278,-2.596360,-0.818812,-2.595903,-0.819501,-2.595767,-0.870245,-2.561959,-0.870750,-2.561206,-0.871523,-2.560730,-0.904952,-2.514566,-0.905138,-2.513788,-0.905656,-2.513182,-0.925342,-2.452766,
-0.925303,-2.452268,-0.925550,-2.451833,-0.935068,-2.375274,-0.935002,-2.375036,-0.935104,-2.374811,-0.938024,-2.280213,-0.937994,-2.280133,-0.938026,-2.280055,-0.937923,-2.165521,-0.937833,-2.119370,-0.937834,-1.803410,-0.936369,-1.799874,-0.877066,-1.740572,-0.876576,-1.740369,-0.876278,-1.739930,-0.793514,-1.685525,-0.792729,-1.685375,-0.792098,-1.684883,-0.726694,-1.666833,-0.726373,-1.666873,
-0.726096,-1.666707,-0.548823,-1.640469,-0.453663,-1.607693,-0.402766,-1.569117,-0.345169,-1.511522,-0.345631,-1.136259,-0.347252,-0.974299,-0.348989,-0.940000,-0.800000,-0.940000,-0.800000,-0.215041,-0.836656,-0.193977,-0.946948,-0.164784,-1.072629,-0.163822,-1.220285,-0.190343,-1.370229,-0.234730,-1.737574,-0.379606,-2.090998,-0.562564,-2.427441,-0.780837,-2.743769,-1.031620,-3.036902,-1.312144,
-3.303709,-1.619597,-3.541085,-1.951188,-3.745975,-2.304202,-3.804811,-2.422589,-3.960839,-2.791719,-4.077792,-3.164945,-4.156752,-3.547344,-4.198758,-3.943898,-4.205358,-4.339194,-4.201969,-4.463252,-4.197628,-4.553434,-4.191104,-4.618114,-4.181212,-4.665718,-4.166709,-4.704984,-4.146174,-4.744742,-4.145984,-4.745080,-4.060578,-4.856101,-3.946974,-4.942083,-3.814392,-4.996270,-3.798578,-5.000082,
-3.761170,-5.007830,-3.726466,-5.012262,-3.688540,-5.012498,-3.641363,-5.007587,-3.579075,-4.996539,-3.495925,-4.978393,-3.386079,-4.952190,-3.243882,-4.917022,-3.160107,-4.896099,-3.160090,-4.896102,-3.160075,-4.896091,-2.825551,-4.814926,-2.825504,-4.814933,-2.825465,-4.814906,-2.520338,-4.746536,-2.520279,-4.746546,-2.520229,-4.746513,-2.234186,-4.689082,-2.234119,-4.689095,-2.234060,-4.689058,
-1.956778,-4.640707,-1.956708,-4.640723,-1.956649,-4.640687,-1.677813,-4.599558,-1.677751,-4.599574,-1.677695,-4.599542,-1.386988,-4.563779,-1.386947,-4.563790,-1.386909,-4.563770,-1.208530,-4.544727,-1.208456,-4.544749,-1.208387,-4.544714,-0.788972,-4.512186,-0.788865,-4.512221,-0.788763,-4.512174,-0.344963,-4.496401,-0.344871,-4.496435,-0.344780,-4.496398,0.114330,-4.496895,0.114414,-4.496930,
0.114500,-4.496898,0.579843,-4.513179,0.579925,-4.513216,0.580009,-4.513188,1.042509,-4.544767,1.042591,-4.544808,1.042680,-4.544781,1.493263,-4.591174,1.493353,-4.591222,1.493451,-4.591197,1.923040,-4.651918,1.923142,-4.651978,1.923257,-4.651954,2.322776,-4.726517,2.322840,-4.726559,2.322917,-4.726545,2.366542,-4.735989,2.366779,-4.736153,2.367068,-4.736133,2.514152,-4.785220,
2.514595,-4.785604,2.515171,-4.785694,2.638100,-4.860626,2.638477,-4.861143,2.639066,-4.861393,2.733566,-4.957707,2.733832,-4.958367,2.734386,-4.958814,2.796184,-5.072043,2.796268,-5.072821,2.796700,-5.073470,2.821521,-5.199153,2.821433,-5.199595,2.821615,-5.200009,2.821893,-5.212292,2.821745,-5.212674,2.821850,-5.213070,2.804925,-5.339172,2.804595,-5.339741,2.804598,-5.340396,
2.756011,-5.459423,2.755587,-5.459851,2.755451,-5.460439,2.681433,-5.564066,2.680901,-5.564398,2.680618,-5.564956,2.587399,-5.644860,2.586701,-5.645088,2.586199,-5.645622,2.480009,-5.693477,2.479486,-5.693493,2.479057,-5.693796,2.457728,-5.698617,2.457323,-5.698547,2.456955,-5.698729,2.387087,-5.703343,2.386780,-5.703239,2.386474,-5.703346,2.280533,-5.697312,2.280388,-5.697242,
2.280234,-5.697286,2.136975,-5.680464,2.136894,-5.680419,2.136804,-5.680441,1.954985,-5.652688,1.954937,-5.652659,1.954885,-5.652671,1.775715,-5.621580,1.422750,-5.567304,1.038613,-5.525452,0.632604,-5.496232,0.214024,-5.479852,-0.207803,-5.476527,-0.623559,-5.486465,-1.023796,-5.509873,-1.399392,-5.546974,-1.418991,-5.549396,-1.773556,-5.601353,-2.152156,-5.670741,-2.541796,-5.754671,
-2.929412,-5.850236,-3.301917,-5.954528,-3.460779,-6.003419,-3.460810,-6.003416,-3.460833,-6.003435,-3.663945,-6.063458,-3.664094,-6.063442,-3.664216,-6.063530,-3.834344,-6.103619,-3.834572,-6.103582,-3.834770,-6.103700,-3.976058,-6.124270,-3.976395,-6.124185,-3.976715,-6.124322,-4.093298,-6.125789,-4.093760,-6.125604,-4.094244,-6.125710,-4.190263,-6.108489,-4.190728,-6.108191,-4.191282,-6.108192,
-4.253671,-6.082532,-4.254052,-6.082153,-4.254578,-6.082044,-4.390550,-5.989695,-4.390910,-5.989147,-4.391500,-5.988856,-4.490511,-5.875964,-4.490746,-5.875273,-4.491284,-5.874779,-4.553881,-5.740424,-4.553911,-5.739735,-4.554278,-5.739152,-4.581011,-5.582417,-4.580926,-5.582043,-4.581081,-5.581691,-4.582207,-5.532634,-4.585052,-5.448410,-4.593539,-5.336992,-4.606346,-5.213085,-4.621904,-5.092970,
-4.660414,-4.793081,-4.660386,-4.792977,-4.660436,-4.792880,-4.684051,-4.523303,-4.684011,-4.523176,-4.684067,-4.523053,-4.693275,-4.274662,-4.693222,-4.274518,-4.693277,-4.274377,-4.688570,-4.038046,-4.688527,-4.037948,-4.688562,-4.037846,-4.683262,-3.949808,-4.683212,-3.949705,-4.683245,-3.949595,-4.643853,-3.567529,-4.643760,-3.567356,-4.643802,-3.567164,-4.580385,-3.211057,-4.580266,-3.210871,
-4.580295,-3.210654,-4.490070,-2.869846,-4.489936,-2.869670,-4.489947,-2.869447,-4.370127,-2.533281,-4.369996,-2.533136,-4.369991,-2.532939,-4.230649,-2.217397,-4.230522,-2.217276,-4.230507,-2.217102,-4.055517,-1.882177,-4.055357,-1.882043,-4.055322,-1.881838,-3.864133,-1.576577,-3.863949,-1.576446,-3.863893,-1.576229,-3.648848,-1.289829,-3.648663,-1.289720,-3.648593,-1.289516,-3.402039,-1.011177,
-3.401923,-1.011121,-3.401875,-1.011000,-3.307079,-0.913845,-3.306971,-0.913799,-3.306923,-0.913692,-3.042008,-0.664949,-3.041821,-0.664878,-3.041726,-0.664704,-2.773401,-0.448059,-2.773192,-0.447997,-2.773072,-0.447815,-2.490391,-0.255508,-2.490186,-0.255465,-2.490057,-0.255299,-2.182072,-0.079569,-2.181932,-0.079551,-2.181839,-0.079444,-2.003995,0.009919,-2.003897,0.009926,-2.003830,0.009998,
-1.798346,0.104003,-1.798219,0.104008,-1.798129,0.104096,-1.595978,0.185244,-1.595842,0.185243,-1.595741,0.185332,-1.384936,0.257810,-1.384815,0.257803,-1.384720,0.257879,-1.153282,0.325873,-1.153197,0.325864,-1.153128,0.325916,-0.944671,0.379992,-0.800000,0.417724,-0.800000,1.660000,1.800000,1.660000,1.800000,-0.940000,1.800000,-0.940000,$1*%
%AMFreePoly1*
4,1,466,4.128268,6.138208,4.128693,6.138340,4.221084,6.129783,4.221580,6.129522,4.222136,6.129569,4.303090,6.103861,4.303514,6.103504,4.304063,6.103433,4.379090,6.060442,4.379347,6.060109,4.379750,6.059990,4.454357,5.999588,4.454443,5.999429,4.454613,5.999366,4.475155,5.980289,4.475217,5.980153,4.475355,5.980093,4.535551,5.917527,4.535693,5.917166,4.536021,5.916960,
4.580360,5.854677,4.580476,5.854173,4.580852,5.853817,4.612519,5.782932,4.612532,5.782477,4.612804,5.782110,4.634982,5.693736,4.634940,5.693452,4.635085,5.693204,4.650959,5.578454,4.650926,5.578326,4.650987,5.578209,4.661229,5.462209,4.672755,5.333438,4.687835,5.196765,4.704385,5.069757,4.718284,4.981170,4.718280,4.981155,4.718288,4.981143,4.730835,4.898185,
4.730804,4.898058,4.730865,4.897944,4.740372,4.804730,4.740342,4.804628,4.740389,4.804531,4.747181,4.694391,4.747155,4.694317,4.747187,4.694247,4.751588,4.560508,4.751570,4.560460,4.751590,4.560414,4.753927,4.396403,4.753917,4.396378,4.753928,4.396351,4.754530,4.238019,4.754524,4.238004,4.754530,4.237990,4.754205,4.062905,4.754196,4.062883,4.754205,4.062861,
4.752711,3.922460,4.752693,3.922418,4.752709,3.922376,4.749589,3.809017,4.749559,3.808949,4.749583,3.808879,4.744385,3.714921,4.744340,3.714828,4.744371,3.714729,4.736640,3.632530,4.736587,3.632429,4.736616,3.632318,4.725898,3.554235,4.725849,3.554152,4.725870,3.554060,4.711710,3.472450,4.711689,3.472416,4.711697,3.472376,4.707744,3.451457,4.707678,3.451356,
4.707697,3.451237,4.601013,2.998814,4.600876,2.998624,4.600893,2.998393,4.458156,2.566588,4.458000,2.566407,4.457996,2.566166,4.280044,2.156216,4.279867,2.156045,4.279840,2.155801,4.067508,1.768941,4.067314,1.768785,4.067263,1.768540,3.821388,1.406007,3.821178,1.405869,3.821104,1.405627,3.542521,1.068654,3.542298,1.068536,3.542201,1.068303,3.231746,0.758128,
3.231514,0.758032,3.231397,0.757811,2.889906,0.475668,2.889672,0.475596,2.889538,0.475392,2.527847,0.228688,2.527654,0.228648,2.527534,0.228491,2.274813,0.082318,2.274645,0.082296,2.274533,0.082167,2.015739,-0.046296,2.015564,-0.046308,2.015442,-0.046431,1.742981,-0.160145,1.742817,-0.160145,1.742694,-0.160255,1.448971,-0.262176,1.448830,-0.262168,1.448719,-0.262256,
1.126139,-0.355343,1.126038,-0.355332,1.125956,-0.355392,0.859132,-0.421512,0.715035,-0.463160,0.589378,-0.519345,0.518465,-0.560591,0.493893,-0.575351,0.460705,-0.606956,0.314786,-0.693941,0.200000,-0.731237,0.200000,-1.240000,1.800000,-1.240000,1.800000,-3.840000,-0.800000,-3.840000,-0.800000,-1.240000,-0.200000,-1.240000,-0.200000,-0.733543,-0.343569,-0.680150,-0.485717,-0.587131,
-0.603725,-0.464931,-0.691726,-0.319622,-0.745348,-0.158429,-0.761926,0.010639,-0.740634,0.179178,-0.682532,0.338812,-0.590508,0.481606,-0.469134,0.600464,-0.402247,0.641613,-0.381218,0.685926,-0.363081,0.750183,-0.352297,0.829119,-0.346998,0.930789,-0.345283,1.063231,-0.345166,1.138528,-0.345166,1.509656,-0.412391,1.576650,-0.453385,1.613052,-0.494509,1.635166,-0.550419,1.648609,
-0.633798,1.658206,-0.633815,1.658216,-0.633835,1.658210,-0.735724,1.670718,-0.736025,1.670888,-0.736368,1.670840,-0.813236,1.690732,-0.813815,1.691168,-0.814532,1.691271,-0.869861,1.724049,-0.870477,1.724870,-0.871355,1.725407,-0.908627,1.776578,-0.908828,1.777413,-0.909371,1.778075,-0.932068,1.853142,-0.932021,1.853619,-0.932251,1.854037,-0.943855,1.958506,-0.943794,1.958715,
-0.943884,1.958915,-0.947876,2.098289,-0.947853,2.098349,-0.947878,2.098409,-0.948119,2.153061,-0.948110,2.153083,-0.948119,2.153106,-0.947572,2.274538,-0.947546,2.274600,-0.947570,2.274663,-0.944996,2.362151,-0.944930,2.362299,-0.944978,2.362453,-0.939399,2.424372,-0.939251,2.424654,-0.939309,2.424968,-0.929749,2.469691,-0.929490,2.470067,-0.929494,2.470520,-0.914977,2.506423,
-0.914758,2.506646,-0.914724,2.506956,-0.904316,2.525907,-0.904043,2.526126,-0.903959,2.526465,-0.866993,2.576658,-0.866099,2.577198,-0.865462,2.578026,-0.819733,2.604357,-0.818946,2.604460,-0.818294,2.604911,-0.763406,2.616776,-0.763058,2.616713,-0.762741,2.616874,-0.720082,2.620218,-0.719983,2.620186,-0.719889,2.620229,-0.640375,2.623383,-0.640340,2.623370,-0.640306,2.623385,
-0.529412,2.626248,-0.529393,2.626241,-0.529373,2.626249,-0.392576,2.628720,-0.392563,2.628715,-0.392548,2.628721,-0.235325,2.630702,-0.235313,2.630697,-0.235302,2.630702,-0.063130,2.632091,-0.063120,2.632087,-0.063110,2.632091,0.105645,2.632764,0.105650,2.632762,0.105655,2.632764,0.879570,2.634333,0.879626,2.634310,0.879685,2.634333,0.881406,2.633577,0.883109,2.632876,
0.883133,2.632819,0.883189,2.632794,1.007526,2.503131,1.008191,2.501427,1.008916,2.499764,1.022193,1.790384,1.022004,1.789903,1.022114,1.789397,1.021327,1.788175,1.020796,1.786821,1.020322,1.786614,1.020042,1.786180,0.938079,1.729380,0.937775,1.729314,0.937578,1.729075,0.862966,1.689426,0.862399,1.689371,0.861949,1.689021,0.767087,1.662862,0.766783,1.662900,
0.766522,1.662741,0.611235,1.638723,0.553188,1.621632,0.510108,1.595836,0.482248,1.570604,0.451531,1.536342,0.431798,1.501011,0.419069,1.452589,0.409893,1.379223,0.405065,1.323546,0.398833,1.188821,0.400588,1.050678,0.409490,0.919076,0.424679,0.804120,0.445263,0.715900,0.458644,0.682236,0.496745,0.618693,0.553496,0.536915,0.619501,0.449262,0.685420,0.367950,
0.741929,0.305155,0.760753,0.287115,0.851531,0.220540,0.948976,0.178302,1.058036,0.160336,1.183624,0.166832,1.330474,0.198084,1.503196,0.254343,1.661846,0.316964,2.044001,0.499136,2.404894,0.716821,2.742004,0.967905,3.052698,1.250222,3.334373,1.561614,3.584498,1.900027,3.592635,1.912312,3.804036,2.270847,3.978612,2.648258,4.115389,3.041009,4.213329,3.445469,
4.271390,3.857989,4.288538,4.275045,4.287307,4.346125,4.283718,4.467132,4.279281,4.554489,4.272589,4.616802,4.262257,4.662916,4.246852,4.701835,4.224760,4.742619,4.221734,4.747801,4.145181,4.845771,4.044803,4.927645,3.932151,4.986330,3.818836,5.014661,3.789188,5.016151,3.746621,5.011074,3.669589,4.996666,3.565277,4.974452,3.440528,4.945921,3.302195,4.912567,
3.214437,4.890585,3.214420,4.890587,3.214406,4.890577,2.815024,4.793254,2.814959,4.793264,2.814906,4.793227,2.443760,4.712213,2.443681,4.712227,2.443613,4.712183,2.091318,4.646311,2.091228,4.646330,2.091148,4.646282,1.748319,4.594385,1.748224,4.594409,1.748138,4.594361,1.405393,4.555272,1.405301,4.555298,1.405215,4.555255,1.053168,4.527805,1.053086,4.527832,
1.053008,4.527795,0.682274,4.510818,0.682206,4.510842,0.682141,4.510814,0.283338,4.503143,0.283299,4.503158,0.283261,4.503142,0.093769,4.502415,0.093747,4.502424,0.093725,4.502415,-0.186213,4.503810,-0.186246,4.503824,-0.186279,4.503811,-0.433122,4.508277,-0.433167,4.508297,-0.433215,4.508279,-0.656131,4.516457,-0.656189,4.516484,-0.656249,4.516463,-0.864407,4.528998,
-0.864471,4.529029,-0.864538,4.529008,-1.067106,4.546542,-1.067166,4.546573,-1.067233,4.546554,-1.273381,4.569731,-1.273433,4.569760,-1.273489,4.569745,-1.492384,4.599206,-1.492418,4.599226,-1.492457,4.599216,-1.674406,4.626426,-1.674433,4.626442,-1.674463,4.626435,-1.904357,4.663529,-1.904406,4.663559,-1.904462,4.663547,-2.096151,4.698659,-2.096235,4.698714,-2.096335,4.698696,
-2.253773,4.733682,-2.253909,4.733778,-2.254075,4.733759,-2.381216,4.770476,-2.381422,4.770640,-2.381685,4.770637,-2.482483,4.810940,-2.482761,4.811211,-2.483147,4.811264,-2.561556,4.857008,-2.561866,4.857416,-2.562349,4.857582,-2.622321,4.910623,-2.622566,4.911125,-2.623044,4.911416,-2.668538,4.973609,-2.668653,4.974081,-2.669014,4.974406,-2.703980,5.047608,-2.703997,5.047928,
-2.704208,5.048170,-2.729354,5.122980,-2.729326,5.123385,-2.729544,5.123731,-2.747077,5.226339,-2.746909,5.227077,-2.747109,5.227807,-2.734722,5.326017,-2.734366,5.326642,-2.734357,5.327359,-2.689766,5.431502,-2.689483,5.431778,-2.689419,5.432169,-2.646003,5.502175,-2.645625,5.502446,-2.645470,5.502885,-2.553430,5.605135,-2.552738,5.605466,-2.552280,5.606081,-2.440413,5.672988,
-2.439614,5.673106,-2.438956,5.673572,-2.312193,5.702410,-2.311704,5.702327,-2.311251,5.702532,-2.282333,5.703497,-2.282091,5.703406,-2.281845,5.703490,-2.225873,5.699891,-2.225756,5.699834,-2.225633,5.699869,-2.137511,5.689915,-2.137459,5.689886,-2.137399,5.689902,-2.026618,5.674855,-2.026580,5.674833,-2.026538,5.674843,-1.902592,5.655964,-1.902563,5.655946,-1.902529,5.655954,
-1.813769,5.641264,-1.274400,5.560469,-0.752528,5.506712,-0.233836,5.478924,0.296010,5.476047,0.389909,5.478003,0.903842,5.499723,1.389863,5.540027,1.858776,5.600707,2.321288,5.683551,2.788090,5.790347,3.269958,5.922906,3.532645,6.003440,3.532650,6.003439,3.532656,6.003444,3.725889,6.062200,3.725988,6.062190,3.726068,6.062251,3.885827,6.104373,3.886006,6.104349,
3.886156,6.104448,4.017949,6.129806,4.018242,6.129746,4.018508,6.129881,4.127846,6.138346,4.128268,6.138208,4.128268,6.138208,$1*%
%AMFreePoly2*
4,1,109,2.423048,2.892512,2.446920,2.888310,2.451927,2.883128,2.458779,2.880902,2.473024,2.861296,2.489866,2.843866,2.490871,2.836731,2.495106,2.830902,2.495106,2.806663,2.498486,2.782666,2.471432,2.628953,2.468694,2.623799,2.468851,2.617962,2.380444,2.318632,2.376698,2.313172,2.376028,2.306587,2.250031,2.021036,2.245617,2.016101,2.244110,2.009656,2.203805,1.943010,
2.482545,2.046854,2.491614,2.046526,2.500000,2.050000,4.200000,2.050000,4.235355,2.035355,4.250000,2.000000,4.250000,0.900000,4.235355,0.864645,4.200000,0.850000,2.500000,0.850000,2.491234,0.853631,2.481746,0.853451,1.980546,1.050000,1.361999,1.050000,1.105862,0.905567,1.099374,0.904257,1.094308,0.899996,0.805051,0.782755,0.798448,0.782286,0.792878,0.778709,
0.500000,0.701823,0.500000,0.571170,0.597174,0.473315,0.687196,0.329249,0.743064,0.168820,0.762000,0.000000,0.761703,-0.021276,0.738060,-0.189502,0.677735,-0.348309,0.583726,-0.489804,0.460705,-0.606956,0.314786,-0.693941,0.153221,-0.746436,-0.015958,-0.761833,-0.184344,-0.739365,-0.343569,-0.680150,-0.485717,-0.587131,-0.603725,-0.464931,-0.691726,-0.319622,-0.745348,-0.158429,
-0.761926,0.010639,-0.740634,0.179178,-0.682532,0.338812,-0.590508,0.481606,-0.500000,0.570238,-0.500000,0.701823,-0.792878,0.778709,-0.798448,0.782286,-0.805050,0.782755,-1.094308,0.899996,-1.099374,0.904257,-1.105862,0.905567,-1.344265,1.040000,-1.980989,1.040000,-2.482545,0.853146,-2.491614,0.853474,-2.500000,0.850000,-4.200000,0.850000,-4.235355,0.864645,-4.250000,0.900000,
-4.250000,2.000000,-4.235355,2.035355,-4.200000,2.050000,-2.500000,2.050000,-2.491234,2.046369,-2.481746,2.046549,-2.199479,1.935856,-2.244110,2.009656,-2.245617,2.016101,-2.250031,2.021036,-2.376029,2.306588,-2.376699,2.313174,-2.380443,2.318631,-2.468851,2.617962,-2.468694,2.623799,-2.471432,2.628953,-2.498486,2.782666,-2.495106,2.806663,-2.495106,2.830902,-2.490871,2.836731,
-2.489866,2.843866,-2.473024,2.861296,-2.458779,2.880902,-2.451927,2.883128,-2.446920,2.888310,-2.423048,2.892512,-2.400000,2.900000,2.400000,2.900000,2.423048,2.892512,2.423048,2.892512,$1*%
%AMFreePoly3*
4,1,109,0.174003,0.741867,0.334039,0.684881,0.477472,0.593856,0.597174,0.473315,0.687196,0.329249,0.743064,0.168820,0.762000,0.000000,0.761703,-0.021276,0.738060,-0.189502,0.677735,-0.348309,0.583726,-0.489804,0.500000,-0.569536,0.500000,-0.701823,0.792878,-0.778709,0.798448,-0.782286,0.805051,-0.782755,1.094308,-0.899996,1.099374,-0.904257,1.105862,-0.905567,1.346039,-1.041000,
1.979990,-1.041000,2.481545,-0.854146,2.490614,-0.854474,2.499000,-0.851000,4.200000,-0.851000,4.235355,-0.865645,4.250000,-0.901000,4.250000,-2.001000,4.235355,-2.036355,4.200000,-2.051000,2.499000,-2.051000,2.490234,-2.047369,2.480746,-2.047549,2.200583,-1.937681,2.244110,-2.009656,2.245617,-2.016101,2.250031,-2.021036,2.376028,-2.306587,2.376698,-2.313172,2.380444,-2.318632,
2.468851,-2.617962,2.468694,-2.623799,2.471432,-2.628953,2.498486,-2.782666,2.495106,-2.806663,2.495106,-2.830902,2.490871,-2.836731,2.489866,-2.843866,2.473024,-2.861296,2.458779,-2.880902,2.451927,-2.883128,2.446920,-2.888310,2.423048,-2.892512,2.400000,-2.900000,-2.400000,-2.900000,-2.423048,-2.892512,-2.446920,-2.888310,-2.451927,-2.883128,-2.458779,-2.880902,-2.473024,-2.861296,
-2.489866,-2.843866,-2.490871,-2.836731,-2.495106,-2.830902,-2.495106,-2.806663,-2.498486,-2.782666,-2.471432,-2.628953,-2.468694,-2.623799,-2.468851,-2.617962,-2.380443,-2.318631,-2.376699,-2.313174,-2.376029,-2.306588,-2.250031,-2.021036,-2.245617,-2.016101,-2.244110,-2.009656,-2.203805,-1.943010,-2.482545,-2.046854,-2.491614,-2.046526,-2.500000,-2.050000,-4.200000,-2.050000,-4.235355,-2.035355,
-4.250000,-2.000000,-4.250000,-0.900000,-4.235355,-0.864645,-4.200000,-0.850000,-2.500000,-0.850000,-2.491234,-0.853631,-2.481746,-0.853451,-1.980545,-1.050000,-1.361999,-1.050000,-1.105862,-0.905567,-1.099374,-0.904257,-1.094308,-0.899996,-0.805050,-0.782755,-0.798448,-0.782286,-0.792878,-0.778709,-0.500000,-0.701823,-0.500000,-0.572341,-0.603725,-0.464931,-0.691726,-0.319622,-0.745348,-0.158429,
-0.761926,0.010639,-0.740634,0.179178,-0.682532,0.338812,-0.590508,0.481606,-0.469134,0.600464,-0.324444,0.689478,-0.163628,0.744224,0.005320,0.761981,0.174003,0.741867,0.174003,0.741867,$1*%
%AMFreePoly4*
4,1,52,0.073905,0.494508,0.209726,0.453889,0.328688,0.376782,0.421226,0.269385,0.479903,0.140333,0.500000,0.000000,0.499851,-0.012216,0.493270,-0.051334,2.240667,-0.051334,2.244203,-0.052798,2.245667,-0.056334,2.245667,-5.115167,2.244203,-5.118703,2.240667,-5.120167,1.669167,-5.120167,1.665631,-5.118703,1.664167,-5.115167,1.664167,-0.632834,0.213667,-0.632834,0.213667,-5.115167,
0.212203,-5.118703,0.208667,-5.120167,-0.384000,-5.120167,-0.387536,-5.118703,-0.389000,-5.115167,-0.389000,-0.632834,-1.860666,-0.632834,-1.860666,-5.115167,-1.862130,-5.118703,-1.865666,-5.120167,-2.437166,-5.120167,-2.440702,-5.118703,-2.442166,-5.115167,-2.442166,-0.056334,-2.440702,-0.052798,-2.437166,-0.051334,-0.540331,-0.051334,-0.516310,0.048800,-0.516081,0.049116,-0.516084,0.049507,
-0.478875,0.141542,-0.478152,0.146186,-0.469840,0.163891,-0.466788,0.171439,-0.466264,0.171972,-0.466055,0.172692,-0.465216,0.173739,-0.417904,0.274511,-0.324060,0.380769,-0.204165,0.456417,-0.067858,0.495374,0.073905,0.494508,0.073905,0.494508,$1*%
%AMFreePoly5*
4,1,69,2.426383,5.069651,2.428131,5.068968,2.428153,5.068918,2.428203,5.068897,2.428915,5.067177,2.429666,5.065462,2.429646,5.065411,2.429667,5.065361,2.429667,0.026500,2.428203,0.022964,2.424667,0.021500,1.697721,0.021500,1.514570,0.021092,1.334660,0.019937,1.164978,0.018135,1.012624,0.015784,0.884488,0.012987,0.787775,0.009847,0.749088,0.007927,0.530743,-0.005432,
0.508394,-0.088993,0.508170,-0.089285,0.508167,-0.089653,0.458855,-0.205995,0.458401,-0.206442,0.458241,-0.207057,0.434305,-0.238758,0.414519,-0.279596,0.319384,-0.384700,0.198574,-0.458877,0.061801,-0.496166,-0.079941,-0.493568,-0.215256,-0.451293,-0.333266,-0.372738,-0.424486,-0.264219,-0.481581,-0.134460,-0.499963,0.006109,-0.498457,0.015784,-0.497567,0.021500,-2.253166,0.021500,
-2.256702,0.022964,-2.258166,0.026500,-2.258166,5.064166,-2.256702,5.067702,-2.253166,5.069166,-1.681666,5.069166,-1.678130,5.067702,-1.676666,5.064166,-1.676666,0.581833,-0.205000,0.581833,-0.205000,5.064166,-0.203536,5.067702,-0.200000,5.069166,0.371500,5.069166,0.375036,5.067702,0.376500,5.064166,0.376500,0.581833,1.826819,0.581833,1.837584,5.053595,1.838292,5.055293,
1.838977,5.057047,1.839034,5.057072,1.839057,5.057127,1.840742,5.057820,1.842483,5.058582,2.424566,5.070360,2.424617,5.070340,2.424667,5.070361,2.426383,5.069651,2.426383,5.069651,$1*%
G04 Aperture macros list end*
%ADD10C,0.120000*%
%ADD11C,0.150000*%
%ADD12C,0.100000*%
%ADD13C,0.110000*%
%ADD14C,0.127000*%
%ADD15C,0.200000*%
%ADD16C,3.560000*%
%ADD17C,3.560001*%
%ADD18C,0.810267*%
%ADD19C,0.814255*%
%ADD20C,2.590494*%
%ADD21C,0.010000*%
%ADD22FreePoly0,0.000000*%
%ADD23FreePoly1,0.000000*%
%ADD24C,0.800000*%
%ADD25FreePoly0,41.000000*%
%ADD26FreePoly1,41.000000*%
%ADD27HorizOval,1.700000X0.259808X-0.150000X-0.259808X0.150000X0*%
%ADD28C,2.500000*%
%ADD29FreePoly2,180.000000*%
%ADD30FreePoly3,180.000000*%
%ADD31FreePoly2,270.000000*%
%ADD32FreePoly3,270.000000*%
%ADD33FreePoly2,90.000000*%
%ADD34FreePoly3,90.000000*%
%ADD35C,2.000000*%
%ADD36C,1.600000*%
%ADD37HorizOval,2.800000X-0.568661X0.191376X0.568661X-0.191376X0*%
%ADD38HorizOval,1.600000X0.026168X0.499315X-0.026168X-0.499315X0*%
%ADD39R,0.750000X1.200000*%
%ADD40FreePoly4,0.000000*%
%ADD41C,1.000000*%
%ADD42FreePoly5,0.000000*%
%ADD43FreePoly0,297.000000*%
%ADD44FreePoly1,297.000000*%
%ADD45C,5.200000*%
%ADD46C,1.800000*%
%ADD47C,2.400000*%
%ADD48C,2.200000*%
%ADD49FreePoly0,12.000000*%
%ADD50FreePoly1,12.000000*%
%ADD51O,2.800000X2.200000*%
%ADD52RoundRect,0.250000X-0.375000X-0.625000X0.375000X-0.625000X0.375000X0.625000X-0.375000X0.625000X0*%
%ADD53RoundRect,0.237500X-0.250000X-0.237500X0.250000X-0.237500X0.250000X0.237500X-0.250000X0.237500X0*%
%ADD54RoundRect,0.150000X0.150000X-0.650000X0.150000X0.650000X-0.150000X0.650000X-0.150000X-0.650000X0*%
%ADD55RoundRect,0.135000X-0.135000X-0.185000X0.135000X-0.185000X0.135000X0.185000X-0.135000X0.185000X0*%
%ADD56RoundRect,0.135000X0.135000X0.185000X-0.135000X0.185000X-0.135000X-0.185000X0.135000X-0.185000X0*%
%ADD57RoundRect,0.140000X0.140000X0.170000X-0.140000X0.170000X-0.140000X-0.170000X0.140000X-0.170000X0*%
%ADD58R,2.000000X1.500000*%
%ADD59R,2.000000X3.800000*%
%ADD60RoundRect,0.140000X-0.170000X0.140000X-0.170000X-0.140000X0.170000X-0.140000X0.170000X0.140000X0*%
%ADD61R,1.400000X1.200000*%
%ADD62RoundRect,0.140000X-0.140000X-0.170000X0.140000X-0.170000X0.140000X0.170000X-0.140000X0.170000X0*%
%ADD63RoundRect,0.135000X0.185000X-0.135000X0.185000X0.135000X-0.185000X0.135000X-0.185000X-0.135000X0*%
%ADD64R,1.200000X0.750000*%
%ADD65R,0.750000X1.000000*%
%ADD66RoundRect,0.140000X0.170000X-0.140000X0.170000X0.140000X-0.170000X0.140000X-0.170000X-0.140000X0*%
%ADD67RoundRect,0.150000X0.587500X0.150000X-0.587500X0.150000X-0.587500X-0.150000X0.587500X-0.150000X0*%
%ADD68RoundRect,0.150000X-0.150000X0.587500X-0.150000X-0.587500X0.150000X-0.587500X0.150000X0.587500X0*%
%ADD69HorizOval,1.700000X0.259808X0.150000X-0.259808X-0.150000X0*%
%ADD70RoundRect,0.250000X-0.475000X0.250000X-0.475000X-0.250000X0.475000X-0.250000X0.475000X0.250000X0*%
%ADD71RoundRect,0.135000X-0.185000X0.135000X-0.185000X-0.135000X0.185000X-0.135000X0.185000X0.135000X0*%
%ADD72RoundRect,0.150000X0.150000X-0.825000X0.150000X0.825000X-0.150000X0.825000X-0.150000X-0.825000X0*%
%ADD73RoundRect,0.050000X0.050000X-0.387500X0.050000X0.387500X-0.050000X0.387500X-0.050000X-0.387500X0*%
%ADD74RoundRect,0.050000X0.387500X-0.050000X0.387500X0.050000X-0.387500X0.050000X-0.387500X-0.050000X0*%
%ADD75RoundRect,0.144000X1.456000X-1.456000X1.456000X1.456000X-1.456000X1.456000X-1.456000X-1.456000X0*%
%ADD76RoundRect,0.237500X0.250000X0.237500X-0.250000X0.237500X-0.250000X-0.237500X0.250000X-0.237500X0*%
%ADD77R,1.700000X1.700000*%
%ADD78C,0.787400*%
%ADD79RoundRect,0.237500X-0.237500X0.250000X-0.237500X-0.250000X0.237500X-0.250000X0.237500X0.250000X0*%
%ADD80RoundRect,0.237500X0.237500X-0.250000X0.237500X0.250000X-0.237500X0.250000X-0.237500X-0.250000X0*%
%ADD81RoundRect,0.150000X0.594545X0.119047X-0.578844X0.180542X-0.594545X-0.119047X0.578844X-0.180542X0*%
%ADD82O,2.600000X1.600000*%
%ADD83HorizOval,2.800000X-0.161352X-0.577898X0.161352X0.577898X0*%
%ADD84RoundRect,0.150000X0.119047X-0.594545X0.180542X0.578844X-0.119047X0.594545X-0.180542X-0.578844X0*%
%ADD85R,1.200000X0.900000*%
%ADD86O,1.350000X2.000000*%
%ADD87R,0.900000X1.200000*%
%ADD88R,0.400000X1.350000*%
%ADD89R,1.200000X1.550000*%
%ADD90R,1.500000X1.550000*%
%ADD91O,1.250000X0.950000*%
%ADD92O,0.890000X1.550000*%
%ADD93RoundRect,0.150000X-0.825000X-0.150000X0.825000X-0.150000X0.825000X0.150000X-0.825000X0.150000X0*%
%ADD94RoundRect,0.250000X-0.250000X-0.475000X0.250000X-0.475000X0.250000X0.475000X-0.250000X0.475000X0*%
%ADD95O,2.250000X1.700000*%
%ADD96R,2.250000X1.700000*%
%ADD97O,1.600000X2.500000*%
%ADD98O,1.250000X2.500000*%
%ADD99O,1.400000X2.000000*%
%ADD100R,1.400000X2.000000*%
%ADD101R,2.000000X1.350000*%
%ADD102O,2.000000X1.350000*%
%ADD103R,2.200000X1.350000*%
%ADD104O,2.200000X1.350000*%
%ADD105R,1.350000X2.000000*%
G04 APERTURE END LIST*
D10*
X160121600Y-71120000D02*
X160121600Y-72085200D01*
X166522400Y-71120000D02*
X166522400Y-72085200D01*
X160121600Y-71120000D02*
X166522400Y-71120000D01*
D11*
X123960000Y-50148666D02*
X123912380Y-50243904D01*
X123912380Y-50386761D01*
X123960000Y-50529619D01*
X124055238Y-50624857D01*
X124150476Y-50672476D01*
X124340952Y-50720095D01*
X124483809Y-50720095D01*
X124674285Y-50672476D01*
X124769523Y-50624857D01*
X124864761Y-50529619D01*
X124912380Y-50386761D01*
X124912380Y-50291523D01*
X124864761Y-50148666D01*
X124817142Y-50101047D01*
X124483809Y-50101047D01*
X124483809Y-50291523D01*
X124912380Y-49672476D02*
X123912380Y-49672476D01*
X123912380Y-49291523D01*
X123960000Y-49196285D01*
X124007619Y-49148666D01*
X124102857Y-49101047D01*
X124245714Y-49101047D01*
X124340952Y-49148666D01*
X124388571Y-49196285D01*
X124436190Y-49291523D01*
X124436190Y-49672476D01*
X124912380Y-48672476D02*
X123912380Y-48672476D01*
X123912380Y-48005809D02*
X123912380Y-47815333D01*
X123960000Y-47720095D01*
X124055238Y-47624857D01*
X124245714Y-47577238D01*
X124579047Y-47577238D01*
X124769523Y-47624857D01*
X124864761Y-47720095D01*
X124912380Y-47815333D01*
X124912380Y-48005809D01*
X124864761Y-48101047D01*
X124769523Y-48196285D01*
X124579047Y-48243904D01*
X124245714Y-48243904D01*
X124055238Y-48196285D01*
X123960000Y-48101047D01*
X123912380Y-48005809D01*
X124388571Y-46053428D02*
X124436190Y-45910571D01*
X124483809Y-45862952D01*
X124579047Y-45815333D01*
X124721904Y-45815333D01*
X124817142Y-45862952D01*
X124864761Y-45910571D01*
X124912380Y-46005809D01*
X124912380Y-46386761D01*
X123912380Y-46386761D01*
X123912380Y-46053428D01*
X123960000Y-45958190D01*
X124007619Y-45910571D01*
X124102857Y-45862952D01*
X124198095Y-45862952D01*
X124293333Y-45910571D01*
X124340952Y-45958190D01*
X124388571Y-46053428D01*
X124388571Y-46386761D01*
X124912380Y-45386761D02*
X124245714Y-45386761D01*
X124436190Y-45386761D02*
X124340952Y-45339142D01*
X124293333Y-45291523D01*
X124245714Y-45196285D01*
X124245714Y-45101047D01*
X124864761Y-44386761D02*
X124912380Y-44482000D01*
X124912380Y-44672476D01*
X124864761Y-44767714D01*
X124769523Y-44815333D01*
X124388571Y-44815333D01*
X124293333Y-44767714D01*
X124245714Y-44672476D01*
X124245714Y-44482000D01*
X124293333Y-44386761D01*
X124388571Y-44339142D01*
X124483809Y-44339142D01*
X124579047Y-44815333D01*
X124912380Y-43482000D02*
X124388571Y-43482000D01*
X124293333Y-43529619D01*
X124245714Y-43624857D01*
X124245714Y-43815333D01*
X124293333Y-43910571D01*
X124864761Y-43482000D02*
X124912380Y-43577238D01*
X124912380Y-43815333D01*
X124864761Y-43910571D01*
X124769523Y-43958190D01*
X124674285Y-43958190D01*
X124579047Y-43910571D01*
X124531428Y-43815333D01*
X124531428Y-43577238D01*
X124483809Y-43482000D01*
X124912380Y-43005809D02*
X123912380Y-43005809D01*
X124531428Y-42910571D02*
X124912380Y-42624857D01*
X124245714Y-42624857D02*
X124626666Y-43005809D01*
X124912380Y-42053428D02*
X124864761Y-42148666D01*
X124817142Y-42196285D01*
X124721904Y-42243904D01*
X124436190Y-42243904D01*
X124340952Y-42196285D01*
X124293333Y-42148666D01*
X124245714Y-42053428D01*
X124245714Y-41910571D01*
X124293333Y-41815333D01*
X124340952Y-41767714D01*
X124436190Y-41720095D01*
X124721904Y-41720095D01*
X124817142Y-41767714D01*
X124864761Y-41815333D01*
X124912380Y-41910571D01*
X124912380Y-42053428D01*
X124245714Y-40862952D02*
X124912380Y-40862952D01*
X124245714Y-41291523D02*
X124769523Y-41291523D01*
X124864761Y-41243904D01*
X124912380Y-41148666D01*
X124912380Y-41005809D01*
X124864761Y-40910571D01*
X124817142Y-40862952D01*
X124245714Y-40529619D02*
X124245714Y-40148666D01*
X123912380Y-40386761D02*
X124769523Y-40386761D01*
X124864761Y-40339142D01*
X124912380Y-40243904D01*
X124912380Y-40148666D01*
D12*
X135534457Y-33939200D02*
X135477314Y-33910628D01*
X135391600Y-33910628D01*
X135305885Y-33939200D01*
X135248742Y-33996342D01*
X135220171Y-34053485D01*
X135191600Y-34167771D01*
X135191600Y-34253485D01*
X135220171Y-34367771D01*
X135248742Y-34424914D01*
X135305885Y-34482057D01*
X135391600Y-34510628D01*
X135448742Y-34510628D01*
X135534457Y-34482057D01*
X135563028Y-34453485D01*
X135563028Y-34253485D01*
X135448742Y-34253485D01*
X135820171Y-34510628D02*
X135820171Y-33910628D01*
X136163028Y-34510628D01*
X136163028Y-33910628D01*
X136448742Y-34510628D02*
X136448742Y-33910628D01*
X136591600Y-33910628D01*
X136677314Y-33939200D01*
X136734457Y-33996342D01*
X136763028Y-34053485D01*
X136791600Y-34167771D01*
X136791600Y-34253485D01*
X136763028Y-34367771D01*
X136734457Y-34424914D01*
X136677314Y-34482057D01*
X136591600Y-34510628D01*
X136448742Y-34510628D01*
D11*
X110270980Y-28030847D02*
X110270980Y-27380847D01*
X110425742Y-27380847D01*
X110518600Y-27411800D01*
X110580504Y-27473704D01*
X110611457Y-27535609D01*
X110642409Y-27659419D01*
X110642409Y-27752276D01*
X110611457Y-27876085D01*
X110580504Y-27937990D01*
X110518600Y-27999895D01*
X110425742Y-28030847D01*
X110270980Y-28030847D01*
X110920980Y-27783228D02*
X111416219Y-27783228D01*
X161793180Y-77236004D02*
X160793180Y-77236004D01*
X161507466Y-76902671D01*
X160793180Y-76569338D01*
X161793180Y-76569338D01*
X161697942Y-75521719D02*
X161745561Y-75569338D01*
X161793180Y-75712195D01*
X161793180Y-75807433D01*
X161745561Y-75950290D01*
X161650323Y-76045528D01*
X161555085Y-76093147D01*
X161364609Y-76140766D01*
X161221752Y-76140766D01*
X161031276Y-76093147D01*
X160936038Y-76045528D01*
X160840800Y-75950290D01*
X160793180Y-75807433D01*
X160793180Y-75712195D01*
X160840800Y-75569338D01*
X160888419Y-75521719D01*
X160793180Y-75093147D02*
X161602704Y-75093147D01*
X161697942Y-75045528D01*
X161745561Y-74997909D01*
X161793180Y-74902671D01*
X161793180Y-74712195D01*
X161745561Y-74616957D01*
X161697942Y-74569338D01*
X161602704Y-74521719D01*
X160793180Y-74521719D01*
X160793180Y-73426480D02*
X160793180Y-72855052D01*
X161793180Y-73140766D02*
X160793180Y-73140766D01*
X160793180Y-72616957D02*
X161793180Y-71950290D01*
X160793180Y-71950290D02*
X161793180Y-72616957D01*
X108240980Y-28030847D02*
X108240980Y-27380847D01*
X108395742Y-27380847D01*
X108488600Y-27411800D01*
X108550504Y-27473704D01*
X108581457Y-27535609D01*
X108612409Y-27659419D01*
X108612409Y-27752276D01*
X108581457Y-27876085D01*
X108550504Y-27937990D01*
X108488600Y-27999895D01*
X108395742Y-28030847D01*
X108240980Y-28030847D01*
X108890980Y-27783228D02*
X109386219Y-27783228D01*
X109138600Y-28030847D02*
X109138600Y-27535609D01*
X153822400Y-32996190D02*
X153822400Y-33472380D01*
X153489066Y-32472380D02*
X153822400Y-32996190D01*
X154155733Y-32472380D01*
D12*
X83502514Y-34510628D02*
X83502514Y-34196342D01*
X83473942Y-34139200D01*
X83416800Y-34110628D01*
X83302514Y-34110628D01*
X83245371Y-34139200D01*
X83502514Y-34482057D02*
X83445371Y-34510628D01*
X83302514Y-34510628D01*
X83245371Y-34482057D01*
X83216800Y-34424914D01*
X83216800Y-34367771D01*
X83245371Y-34310628D01*
X83302514Y-34282057D01*
X83445371Y-34282057D01*
X83502514Y-34253485D01*
X84073942Y-34510628D02*
X83788228Y-34510628D01*
X83788228Y-33910628D01*
D11*
X163774380Y-77236004D02*
X162774380Y-77236004D01*
X163488666Y-76902671D01*
X162774380Y-76569338D01*
X163774380Y-76569338D01*
X163679142Y-75521719D02*
X163726761Y-75569338D01*
X163774380Y-75712195D01*
X163774380Y-75807433D01*
X163726761Y-75950290D01*
X163631523Y-76045528D01*
X163536285Y-76093147D01*
X163345809Y-76140766D01*
X163202952Y-76140766D01*
X163012476Y-76093147D01*
X162917238Y-76045528D01*
X162822000Y-75950290D01*
X162774380Y-75807433D01*
X162774380Y-75712195D01*
X162822000Y-75569338D01*
X162869619Y-75521719D01*
X162774380Y-75093147D02*
X163583904Y-75093147D01*
X163679142Y-75045528D01*
X163726761Y-74997909D01*
X163774380Y-74902671D01*
X163774380Y-74712195D01*
X163726761Y-74616957D01*
X163679142Y-74569338D01*
X163583904Y-74521719D01*
X162774380Y-74521719D01*
X163774380Y-72712195D02*
X163298190Y-73045528D01*
X163774380Y-73283623D02*
X162774380Y-73283623D01*
X162774380Y-72902671D01*
X162822000Y-72807433D01*
X162869619Y-72759814D01*
X162964857Y-72712195D01*
X163107714Y-72712195D01*
X163202952Y-72759814D01*
X163250571Y-72807433D01*
X163298190Y-72902671D01*
X163298190Y-73283623D01*
X162774380Y-72378861D02*
X163774380Y-71712195D01*
X162774380Y-71712195D02*
X163774380Y-72378861D01*
X168170266Y-65136780D02*
X168836933Y-65136780D01*
X168170266Y-66136780D01*
X168836933Y-66136780D01*
D12*
X137522057Y-33910628D02*
X137893485Y-33910628D01*
X137693485Y-34139200D01*
X137779200Y-34139200D01*
X137836342Y-34167771D01*
X137864914Y-34196342D01*
X137893485Y-34253485D01*
X137893485Y-34396342D01*
X137864914Y-34453485D01*
X137836342Y-34482057D01*
X137779200Y-34510628D01*
X137607771Y-34510628D01*
X137550628Y-34482057D01*
X137522057Y-34453485D01*
X138150628Y-34453485D02*
X138179200Y-34482057D01*
X138150628Y-34510628D01*
X138122057Y-34482057D01*
X138150628Y-34453485D01*
X138150628Y-34510628D01*
X138379200Y-33910628D02*
X138750628Y-33910628D01*
X138550628Y-34139200D01*
X138636342Y-34139200D01*
X138693485Y-34167771D01*
X138722057Y-34196342D01*
X138750628Y-34253485D01*
X138750628Y-34396342D01*
X138722057Y-34453485D01*
X138693485Y-34482057D01*
X138636342Y-34510628D01*
X138464914Y-34510628D01*
X138407771Y-34482057D01*
X138379200Y-34453485D01*
X138950628Y-34110628D02*
X139093485Y-34510628D01*
X139236342Y-34110628D01*
D11*
X165711142Y-76664576D02*
X165758761Y-76712195D01*
X165806380Y-76855052D01*
X165806380Y-76950290D01*
X165758761Y-77093147D01*
X165663523Y-77188385D01*
X165568285Y-77236004D01*
X165377809Y-77283623D01*
X165234952Y-77283623D01*
X165044476Y-77236004D01*
X164949238Y-77188385D01*
X164854000Y-77093147D01*
X164806380Y-76950290D01*
X164806380Y-76855052D01*
X164854000Y-76712195D01*
X164901619Y-76664576D01*
X165806380Y-75759814D02*
X165806380Y-76236004D01*
X164806380Y-76236004D01*
X165806380Y-75426480D02*
X164806380Y-75426480D01*
X165806380Y-74855052D02*
X165234952Y-75283623D01*
X164806380Y-74855052D02*
X165377809Y-75426480D01*
D12*
X133432571Y-34510628D02*
X133432571Y-34196342D01*
X133404000Y-34139200D01*
X133346857Y-34110628D01*
X133232571Y-34110628D01*
X133175428Y-34139200D01*
X133432571Y-34482057D02*
X133375428Y-34510628D01*
X133232571Y-34510628D01*
X133175428Y-34482057D01*
X133146857Y-34424914D01*
X133146857Y-34367771D01*
X133175428Y-34310628D01*
X133232571Y-34282057D01*
X133375428Y-34282057D01*
X133432571Y-34253485D01*
X134061142Y-34510628D02*
X133861142Y-34224914D01*
X133718285Y-34510628D02*
X133718285Y-33910628D01*
X133946857Y-33910628D01*
X134004000Y-33939200D01*
X134032571Y-33967771D01*
X134061142Y-34024914D01*
X134061142Y-34110628D01*
X134032571Y-34167771D01*
X134004000Y-34196342D01*
X133946857Y-34224914D01*
X133718285Y-34224914D01*
D11*
X128443633Y-45116000D02*
X128376966Y-45082666D01*
X128276966Y-45082666D01*
X128176966Y-45116000D01*
X128110300Y-45182666D01*
X128076966Y-45249333D01*
X128043633Y-45382666D01*
X128043633Y-45482666D01*
X128076966Y-45616000D01*
X128110300Y-45682666D01*
X128176966Y-45749333D01*
X128276966Y-45782666D01*
X128343633Y-45782666D01*
X128443633Y-45749333D01*
X128476966Y-45716000D01*
X128476966Y-45482666D01*
X128343633Y-45482666D01*
X128776966Y-45782666D02*
X128776966Y-45082666D01*
X129043633Y-45082666D01*
X129110300Y-45116000D01*
X129143633Y-45149333D01*
X129176966Y-45216000D01*
X129176966Y-45316000D01*
X129143633Y-45382666D01*
X129110300Y-45416000D01*
X129043633Y-45449333D01*
X128776966Y-45449333D01*
X129843633Y-45782666D02*
X129443633Y-45782666D01*
X129643633Y-45782666D02*
X129643633Y-45082666D01*
X129576966Y-45182666D01*
X129510300Y-45249333D01*
X129443633Y-45282666D01*
X130443633Y-45316000D02*
X130443633Y-45782666D01*
X130276966Y-45049333D02*
X130110300Y-45549333D01*
X130543633Y-45549333D01*
D12*
X85547257Y-33939200D02*
X85490114Y-33910628D01*
X85404400Y-33910628D01*
X85318685Y-33939200D01*
X85261542Y-33996342D01*
X85232971Y-34053485D01*
X85204400Y-34167771D01*
X85204400Y-34253485D01*
X85232971Y-34367771D01*
X85261542Y-34424914D01*
X85318685Y-34482057D01*
X85404400Y-34510628D01*
X85461542Y-34510628D01*
X85547257Y-34482057D01*
X85575828Y-34453485D01*
X85575828Y-34253485D01*
X85461542Y-34253485D01*
X85832971Y-34510628D02*
X85832971Y-33910628D01*
X86175828Y-34510628D01*
X86175828Y-33910628D01*
X86461542Y-34510628D02*
X86461542Y-33910628D01*
X86604400Y-33910628D01*
X86690114Y-33939200D01*
X86747257Y-33996342D01*
X86775828Y-34053485D01*
X86804400Y-34167771D01*
X86804400Y-34253485D01*
X86775828Y-34367771D01*
X86747257Y-34424914D01*
X86690114Y-34482057D01*
X86604400Y-34510628D01*
X86461542Y-34510628D01*
X87534857Y-33910628D02*
X87906285Y-33910628D01*
X87706285Y-34139200D01*
X87792000Y-34139200D01*
X87849142Y-34167771D01*
X87877714Y-34196342D01*
X87906285Y-34253485D01*
X87906285Y-34396342D01*
X87877714Y-34453485D01*
X87849142Y-34482057D01*
X87792000Y-34510628D01*
X87620571Y-34510628D01*
X87563428Y-34482057D01*
X87534857Y-34453485D01*
X88163428Y-34453485D02*
X88192000Y-34482057D01*
X88163428Y-34510628D01*
X88134857Y-34482057D01*
X88163428Y-34453485D01*
X88163428Y-34510628D01*
X88392000Y-33910628D02*
X88763428Y-33910628D01*
X88563428Y-34139200D01*
X88649142Y-34139200D01*
X88706285Y-34167771D01*
X88734857Y-34196342D01*
X88763428Y-34253485D01*
X88763428Y-34396342D01*
X88734857Y-34453485D01*
X88706285Y-34482057D01*
X88649142Y-34510628D01*
X88477714Y-34510628D01*
X88420571Y-34482057D01*
X88392000Y-34453485D01*
X88963428Y-34110628D02*
X89106285Y-34510628D01*
X89249142Y-34110628D01*
D13*
X108794685Y-57995600D02*
X108880400Y-58028933D01*
X108908971Y-58062266D01*
X108937542Y-58128933D01*
X108937542Y-58228933D01*
X108908971Y-58295600D01*
X108880400Y-58328933D01*
X108823257Y-58362266D01*
X108594685Y-58362266D01*
X108594685Y-57662266D01*
X108794685Y-57662266D01*
X108851828Y-57695600D01*
X108880400Y-57728933D01*
X108908971Y-57795600D01*
X108908971Y-57862266D01*
X108880400Y-57928933D01*
X108851828Y-57962266D01*
X108794685Y-57995600D01*
X108594685Y-57995600D01*
X109537542Y-58362266D02*
X109337542Y-58028933D01*
X109194685Y-58362266D02*
X109194685Y-57662266D01*
X109423257Y-57662266D01*
X109480400Y-57695600D01*
X109508971Y-57728933D01*
X109537542Y-57795600D01*
X109537542Y-57895600D01*
X109508971Y-57962266D01*
X109480400Y-57995600D01*
X109423257Y-58028933D01*
X109194685Y-58028933D01*
X109794685Y-57995600D02*
X109994685Y-57995600D01*
X110080400Y-58362266D02*
X109794685Y-58362266D01*
X109794685Y-57662266D01*
X110080400Y-57662266D01*
X110308971Y-58162266D02*
X110594685Y-58162266D01*
X110251828Y-58362266D02*
X110451828Y-57662266D01*
X110651828Y-58362266D01*
X110851828Y-58362266D02*
X110851828Y-57662266D01*
X111194685Y-58362266D02*
X110937542Y-57962266D01*
X111194685Y-57662266D02*
X110851828Y-58062266D01*
X108951828Y-58789266D02*
X109294685Y-58789266D01*
X109123257Y-59489266D02*
X109123257Y-58789266D01*
X109608971Y-58789266D02*
X109723257Y-58789266D01*
X109780400Y-58822600D01*
X109837542Y-58889266D01*
X109866114Y-59022600D01*
X109866114Y-59255933D01*
X109837542Y-59389266D01*
X109780400Y-59455933D01*
X109723257Y-59489266D01*
X109608971Y-59489266D01*
X109551828Y-59455933D01*
X109494685Y-59389266D01*
X109466114Y-59255933D01*
X109466114Y-59022600D01*
X109494685Y-58889266D01*
X109551828Y-58822600D01*
X109608971Y-58789266D01*
X110123257Y-59489266D02*
X110123257Y-58789266D01*
X110351828Y-58789266D01*
X110408971Y-58822600D01*
X110437542Y-58855933D01*
X110466114Y-58922600D01*
X110466114Y-59022600D01*
X110437542Y-59089266D01*
X110408971Y-59122600D01*
X110351828Y-59155933D01*
X110123257Y-59155933D01*
X110751828Y-59455933D02*
X110751828Y-59489266D01*
X110723257Y-59555933D01*
X110694685Y-59589266D01*
X108808971Y-59916266D02*
X109151828Y-59916266D01*
X108980400Y-60616266D02*
X108980400Y-59916266D01*
X109351828Y-60616266D02*
X109351828Y-59916266D01*
X109351828Y-60249600D02*
X109694685Y-60249600D01*
X109694685Y-60616266D02*
X109694685Y-59916266D01*
X109980400Y-60249600D02*
X110180400Y-60249600D01*
X110266114Y-60616266D02*
X109980400Y-60616266D01*
X109980400Y-59916266D01*
X110266114Y-59916266D01*
X110523257Y-60616266D02*
X110523257Y-59916266D01*
X110866114Y-60616266D01*
X110866114Y-59916266D01*
X108608971Y-61743266D02*
X108408971Y-61409933D01*
X108266114Y-61743266D02*
X108266114Y-61043266D01*
X108494685Y-61043266D01*
X108551828Y-61076600D01*
X108580400Y-61109933D01*
X108608971Y-61176600D01*
X108608971Y-61276600D01*
X108580400Y-61343266D01*
X108551828Y-61376600D01*
X108494685Y-61409933D01*
X108266114Y-61409933D01*
X108866114Y-61376600D02*
X109066114Y-61376600D01*
X109151828Y-61743266D02*
X108866114Y-61743266D01*
X108866114Y-61043266D01*
X109151828Y-61043266D01*
X109408971Y-61743266D02*
X109408971Y-61043266D01*
X109608971Y-61543266D01*
X109808971Y-61043266D01*
X109808971Y-61743266D01*
X110208971Y-61043266D02*
X110323257Y-61043266D01*
X110380400Y-61076600D01*
X110437542Y-61143266D01*
X110466114Y-61276600D01*
X110466114Y-61509933D01*
X110437542Y-61643266D01*
X110380400Y-61709933D01*
X110323257Y-61743266D01*
X110208971Y-61743266D01*
X110151828Y-61709933D01*
X110094685Y-61643266D01*
X110066114Y-61509933D01*
X110066114Y-61276600D01*
X110094685Y-61143266D01*
X110151828Y-61076600D01*
X110208971Y-61043266D01*
X110637542Y-61043266D02*
X110837542Y-61743266D01*
X111037542Y-61043266D01*
X111237542Y-61376600D02*
X111437542Y-61376600D01*
X111523257Y-61743266D02*
X111237542Y-61743266D01*
X111237542Y-61043266D01*
X111523257Y-61043266D01*
X108451828Y-62870266D02*
X108451828Y-62170266D01*
X108680400Y-62170266D01*
X108737542Y-62203600D01*
X108766114Y-62236933D01*
X108794685Y-62303600D01*
X108794685Y-62403600D01*
X108766114Y-62470266D01*
X108737542Y-62503600D01*
X108680400Y-62536933D01*
X108451828Y-62536933D01*
X109051828Y-62870266D02*
X109051828Y-62170266D01*
X109337542Y-62503600D02*
X109537542Y-62503600D01*
X109623257Y-62870266D02*
X109337542Y-62870266D01*
X109337542Y-62170266D01*
X109623257Y-62170266D01*
X110223257Y-62803600D02*
X110194685Y-62836933D01*
X110108971Y-62870266D01*
X110051828Y-62870266D01*
X109966114Y-62836933D01*
X109908971Y-62770266D01*
X109880400Y-62703600D01*
X109851828Y-62570266D01*
X109851828Y-62470266D01*
X109880400Y-62336933D01*
X109908971Y-62270266D01*
X109966114Y-62203600D01*
X110051828Y-62170266D01*
X110108971Y-62170266D01*
X110194685Y-62203600D01*
X110223257Y-62236933D01*
X110480400Y-62503600D02*
X110680400Y-62503600D01*
X110766114Y-62870266D02*
X110480400Y-62870266D01*
X110480400Y-62170266D01*
X110766114Y-62170266D01*
X110994685Y-62836933D02*
X111080400Y-62870266D01*
X111223257Y-62870266D01*
X111280400Y-62836933D01*
X111308971Y-62803600D01*
X111337542Y-62736933D01*
X111337542Y-62670266D01*
X111308971Y-62603600D01*
X111280400Y-62570266D01*
X111223257Y-62536933D01*
X111108971Y-62503600D01*
X111051828Y-62470266D01*
X111023257Y-62436933D01*
X110994685Y-62370266D01*
X110994685Y-62303600D01*
X111023257Y-62236933D01*
X111051828Y-62203600D01*
X111108971Y-62170266D01*
X111251828Y-62170266D01*
X111337542Y-62203600D01*
D11*
X156240266Y-38314380D02*
X156906933Y-38314380D01*
X156240266Y-39314380D01*
X156906933Y-39314380D01*
X157859314Y-39314380D02*
X157525980Y-38838190D01*
X157287885Y-39314380D02*
X157287885Y-38314380D01*
X157668838Y-38314380D01*
X157764076Y-38362000D01*
X157811695Y-38409619D01*
X157859314Y-38504857D01*
X157859314Y-38647714D01*
X157811695Y-38742952D01*
X157764076Y-38790571D01*
X157668838Y-38838190D01*
X157287885Y-38838190D01*
X132608628Y-53116171D02*
X132751485Y-53163790D01*
X132799104Y-53211409D01*
X132846723Y-53306647D01*
X132846723Y-53449504D01*
X132799104Y-53544742D01*
X132751485Y-53592361D01*
X132656247Y-53639980D01*
X132275295Y-53639980D01*
X132275295Y-52639980D01*
X132608628Y-52639980D01*
X132703866Y-52687600D01*
X132751485Y-52735219D01*
X132799104Y-52830457D01*
X132799104Y-52925695D01*
X132751485Y-53020933D01*
X132703866Y-53068552D01*
X132608628Y-53116171D01*
X132275295Y-53116171D01*
X128443633Y-47148000D02*
X128376966Y-47114666D01*
X128276966Y-47114666D01*
X128176966Y-47148000D01*
X128110300Y-47214666D01*
X128076966Y-47281333D01*
X128043633Y-47414666D01*
X128043633Y-47514666D01*
X128076966Y-47648000D01*
X128110300Y-47714666D01*
X128176966Y-47781333D01*
X128276966Y-47814666D01*
X128343633Y-47814666D01*
X128443633Y-47781333D01*
X128476966Y-47748000D01*
X128476966Y-47514666D01*
X128343633Y-47514666D01*
X128776966Y-47814666D02*
X128776966Y-47114666D01*
X129043633Y-47114666D01*
X129110300Y-47148000D01*
X129143633Y-47181333D01*
X129176966Y-47248000D01*
X129176966Y-47348000D01*
X129143633Y-47414666D01*
X129110300Y-47448000D01*
X129043633Y-47481333D01*
X128776966Y-47481333D01*
X129843633Y-47814666D02*
X129443633Y-47814666D01*
X129643633Y-47814666D02*
X129643633Y-47114666D01*
X129576966Y-47214666D01*
X129510300Y-47281333D01*
X129443633Y-47314666D01*
X130076966Y-47114666D02*
X130510300Y-47114666D01*
X130276966Y-47381333D01*
X130376966Y-47381333D01*
X130443633Y-47414666D01*
X130476966Y-47448000D01*
X130510300Y-47514666D01*
X130510300Y-47681333D01*
X130476966Y-47748000D01*
X130443633Y-47781333D01*
X130376966Y-47814666D01*
X130176966Y-47814666D01*
X130110300Y-47781333D01*
X130076966Y-47748000D01*
X128010300Y-49095866D02*
X128443633Y-49095866D01*
X128210300Y-49362533D01*
X128310300Y-49362533D01*
X128376966Y-49395866D01*
X128410300Y-49429200D01*
X128443633Y-49495866D01*
X128443633Y-49662533D01*
X128410300Y-49729200D01*
X128376966Y-49762533D01*
X128310300Y-49795866D01*
X128110300Y-49795866D01*
X128043633Y-49762533D01*
X128010300Y-49729200D01*
X128743633Y-49729200D02*
X128776966Y-49762533D01*
X128743633Y-49795866D01*
X128710300Y-49762533D01*
X128743633Y-49729200D01*
X128743633Y-49795866D01*
X129010300Y-49095866D02*
X129443633Y-49095866D01*
X129210300Y-49362533D01*
X129310300Y-49362533D01*
X129376966Y-49395866D01*
X129410300Y-49429200D01*
X129443633Y-49495866D01*
X129443633Y-49662533D01*
X129410300Y-49729200D01*
X129376966Y-49762533D01*
X129310300Y-49795866D01*
X129110300Y-49795866D01*
X129043633Y-49762533D01*
X129010300Y-49729200D01*
X129676966Y-49329200D02*
X129843633Y-49795866D01*
X130010300Y-49329200D01*
X60601904Y-37512380D02*
X61268571Y-37512380D01*
X60601904Y-38512380D01*
X61268571Y-38512380D01*
X62125714Y-38512380D02*
X61649523Y-38512380D01*
X61649523Y-37512380D01*
X165223866Y-40143180D02*
X165890533Y-41143180D01*
X165890533Y-40143180D02*
X165223866Y-41143180D01*
X128443633Y-43134800D02*
X128376966Y-43101466D01*
X128276966Y-43101466D01*
X128176966Y-43134800D01*
X128110300Y-43201466D01*
X128076966Y-43268133D01*
X128043633Y-43401466D01*
X128043633Y-43501466D01*
X128076966Y-43634800D01*
X128110300Y-43701466D01*
X128176966Y-43768133D01*
X128276966Y-43801466D01*
X128343633Y-43801466D01*
X128443633Y-43768133D01*
X128476966Y-43734800D01*
X128476966Y-43501466D01*
X128343633Y-43501466D01*
X128776966Y-43801466D02*
X128776966Y-43101466D01*
X129043633Y-43101466D01*
X129110300Y-43134800D01*
X129143633Y-43168133D01*
X129176966Y-43234800D01*
X129176966Y-43334800D01*
X129143633Y-43401466D01*
X129110300Y-43434800D01*
X129043633Y-43468133D01*
X128776966Y-43468133D01*
X129843633Y-43801466D02*
X129443633Y-43801466D01*
X129643633Y-43801466D02*
X129643633Y-43101466D01*
X129576966Y-43201466D01*
X129510300Y-43268133D01*
X129443633Y-43301466D01*
X130476966Y-43101466D02*
X130143633Y-43101466D01*
X130110300Y-43434800D01*
X130143633Y-43401466D01*
X130210300Y-43368133D01*
X130376966Y-43368133D01*
X130443633Y-43401466D01*
X130476966Y-43434800D01*
X130510300Y-43501466D01*
X130510300Y-43668133D01*
X130476966Y-43734800D01*
X130443633Y-43768133D01*
X130376966Y-43801466D01*
X130210300Y-43801466D01*
X130143633Y-43768133D01*
X130110300Y-43734800D01*
X117195676Y-27438400D02*
X117119485Y-27400304D01*
X117005200Y-27400304D01*
X116890914Y-27438400D01*
X116814723Y-27514590D01*
X116776628Y-27590780D01*
X116738533Y-27743161D01*
X116738533Y-27857447D01*
X116776628Y-28009828D01*
X116814723Y-28086019D01*
X116890914Y-28162209D01*
X117005200Y-28200304D01*
X117081390Y-28200304D01*
X117195676Y-28162209D01*
X117233771Y-28124114D01*
X117233771Y-27857447D01*
X117081390Y-27857447D01*
X117576628Y-28200304D02*
X117576628Y-27400304D01*
X118033771Y-28200304D01*
X118033771Y-27400304D01*
X118414723Y-28200304D02*
X118414723Y-27400304D01*
X118605200Y-27400304D01*
X118719485Y-27438400D01*
X118795676Y-27514590D01*
X118833771Y-27590780D01*
X118871866Y-27743161D01*
X118871866Y-27857447D01*
X118833771Y-28009828D01*
X118795676Y-28086019D01*
X118719485Y-28162209D01*
X118605200Y-28200304D01*
X118414723Y-28200304D01*
X168711523Y-60548780D02*
X168378190Y-60072590D01*
X168140095Y-60548780D02*
X168140095Y-59548780D01*
X168521047Y-59548780D01*
X168616285Y-59596400D01*
X168663904Y-59644019D01*
X168711523Y-59739257D01*
X168711523Y-59882114D01*
X168663904Y-59977352D01*
X168616285Y-60024971D01*
X168521047Y-60072590D01*
X168140095Y-60072590D01*
X152466704Y-44261066D02*
X152942895Y-44261066D01*
X152371466Y-44546780D02*
X152704800Y-43546780D01*
X153038133Y-44546780D01*
X53090723Y-58821580D02*
X52614533Y-58821580D01*
X52614533Y-57821580D01*
X108769276Y-23336304D02*
X108769276Y-23983923D01*
X108807371Y-24060114D01*
X108845466Y-24098209D01*
X108921657Y-24136304D01*
X109074038Y-24136304D01*
X109150228Y-24098209D01*
X109188323Y-24060114D01*
X109226419Y-23983923D01*
X109226419Y-23336304D01*
X109569276Y-24098209D02*
X109683561Y-24136304D01*
X109874038Y-24136304D01*
X109950228Y-24098209D01*
X109988323Y-24060114D01*
X110026419Y-23983923D01*
X110026419Y-23907733D01*
X109988323Y-23831542D01*
X109950228Y-23793447D01*
X109874038Y-23755352D01*
X109721657Y-23717257D01*
X109645466Y-23679161D01*
X109607371Y-23641066D01*
X109569276Y-23564876D01*
X109569276Y-23488685D01*
X109607371Y-23412495D01*
X109645466Y-23374400D01*
X109721657Y-23336304D01*
X109912133Y-23336304D01*
X110026419Y-23374400D01*
X110635942Y-23717257D02*
X110750228Y-23755352D01*
X110788323Y-23793447D01*
X110826419Y-23869638D01*
X110826419Y-23983923D01*
X110788323Y-24060114D01*
X110750228Y-24098209D01*
X110674038Y-24136304D01*
X110369276Y-24136304D01*
X110369276Y-23336304D01*
X110635942Y-23336304D01*
X110712133Y-23374400D01*
X110750228Y-23412495D01*
X110788323Y-23488685D01*
X110788323Y-23564876D01*
X110750228Y-23641066D01*
X110712133Y-23679161D01*
X110635942Y-23717257D01*
X110369276Y-23717257D01*
X162298190Y-70610361D02*
X162441047Y-70657980D01*
X162679142Y-70657980D01*
X162774380Y-70610361D01*
X162822000Y-70562742D01*
X162869619Y-70467504D01*
X162869619Y-70372266D01*
X162822000Y-70277028D01*
X162774380Y-70229409D01*
X162679142Y-70181790D01*
X162488666Y-70134171D01*
X162393428Y-70086552D01*
X162345809Y-70038933D01*
X162298190Y-69943695D01*
X162298190Y-69848457D01*
X162345809Y-69753219D01*
X162393428Y-69705600D01*
X162488666Y-69657980D01*
X162726761Y-69657980D01*
X162869619Y-69705600D01*
X163298190Y-70657980D02*
X163298190Y-69657980D01*
X163679142Y-69657980D01*
X163774380Y-69705600D01*
X163822000Y-69753219D01*
X163869619Y-69848457D01*
X163869619Y-69991314D01*
X163822000Y-70086552D01*
X163774380Y-70134171D01*
X163679142Y-70181790D01*
X163298190Y-70181790D01*
X164298190Y-70657980D02*
X164298190Y-69657980D01*
X128443633Y-41150000D02*
X128376966Y-41116666D01*
X128276966Y-41116666D01*
X128176966Y-41150000D01*
X128110300Y-41216666D01*
X128076966Y-41283333D01*
X128043633Y-41416666D01*
X128043633Y-41516666D01*
X128076966Y-41650000D01*
X128110300Y-41716666D01*
X128176966Y-41783333D01*
X128276966Y-41816666D01*
X128343633Y-41816666D01*
X128443633Y-41783333D01*
X128476966Y-41750000D01*
X128476966Y-41516666D01*
X128343633Y-41516666D01*
X128776966Y-41816666D02*
X128776966Y-41116666D01*
X129176966Y-41816666D01*
X129176966Y-41116666D01*
X129510300Y-41816666D02*
X129510300Y-41116666D01*
X129676966Y-41116666D01*
X129776966Y-41150000D01*
X129843633Y-41216666D01*
X129876966Y-41283333D01*
X129910300Y-41416666D01*
X129910300Y-41516666D01*
X129876966Y-41650000D01*
X129843633Y-41716666D01*
X129776966Y-41783333D01*
X129676966Y-41816666D01*
X129510300Y-41816666D01*
X81764142Y-37504666D02*
X81811761Y-37552285D01*
X81859380Y-37695142D01*
X81859380Y-37790380D01*
X81811761Y-37933238D01*
X81716523Y-38028476D01*
X81621285Y-38076095D01*
X81430809Y-38123714D01*
X81287952Y-38123714D01*
X81097476Y-38076095D01*
X81002238Y-38028476D01*
X80907000Y-37933238D01*
X80859380Y-37790380D01*
X80859380Y-37695142D01*
X80907000Y-37552285D01*
X80954619Y-37504666D01*
X80859380Y-37171333D02*
X80859380Y-36504666D01*
X81859380Y-36933238D01*
X130405142Y-36234666D02*
X130452761Y-36282285D01*
X130500380Y-36425142D01*
X130500380Y-36520380D01*
X130452761Y-36663238D01*
X130357523Y-36758476D01*
X130262285Y-36806095D01*
X130071809Y-36853714D01*
X129928952Y-36853714D01*
X129738476Y-36806095D01*
X129643238Y-36758476D01*
X129548000Y-36663238D01*
X129500380Y-36520380D01*
X129500380Y-36425142D01*
X129548000Y-36282285D01*
X129595619Y-36234666D01*
X129500380Y-35901333D02*
X129500380Y-35282285D01*
X129881333Y-35615619D01*
X129881333Y-35472761D01*
X129928952Y-35377523D01*
X129976571Y-35329904D01*
X130071809Y-35282285D01*
X130309904Y-35282285D01*
X130405142Y-35329904D01*
X130452761Y-35377523D01*
X130500380Y-35472761D01*
X130500380Y-35758476D01*
X130452761Y-35853714D01*
X130405142Y-35901333D01*
X75866666Y-29519571D02*
X75533333Y-29519571D01*
X75533333Y-30043380D02*
X75533333Y-29043380D01*
X76009523Y-29043380D01*
X76914285Y-30043380D02*
X76342857Y-30043380D01*
X76628571Y-30043380D02*
X76628571Y-29043380D01*
X76533333Y-29186238D01*
X76438095Y-29281476D01*
X76342857Y-29329095D01*
X90547142Y-34072380D02*
X90213809Y-33596190D01*
X89975714Y-34072380D02*
X89975714Y-33072380D01*
X90356666Y-33072380D01*
X90451904Y-33120000D01*
X90499523Y-33167619D01*
X90547142Y-33262857D01*
X90547142Y-33405714D01*
X90499523Y-33500952D01*
X90451904Y-33548571D01*
X90356666Y-33596190D01*
X89975714Y-33596190D01*
X91499523Y-34072380D02*
X90928095Y-34072380D01*
X91213809Y-34072380D02*
X91213809Y-33072380D01*
X91118571Y-33215238D01*
X91023333Y-33310476D01*
X90928095Y-33358095D01*
X92356666Y-33405714D02*
X92356666Y-34072380D01*
X92118571Y-33024761D02*
X91880476Y-33739047D01*
X92499523Y-33739047D01*
X100137980Y-50596704D02*
X100947504Y-50596704D01*
X101042742Y-50549085D01*
X101090361Y-50501466D01*
X101137980Y-50406228D01*
X101137980Y-50215752D01*
X101090361Y-50120514D01*
X101042742Y-50072895D01*
X100947504Y-50025276D01*
X100137980Y-50025276D01*
X100137980Y-49644323D02*
X100137980Y-48977657D01*
X101137980Y-49406228D01*
X91625000Y-51878666D02*
X91391666Y-51545333D01*
X91225000Y-51878666D02*
X91225000Y-51178666D01*
X91491666Y-51178666D01*
X91558333Y-51212000D01*
X91591666Y-51245333D01*
X91625000Y-51312000D01*
X91625000Y-51412000D01*
X91591666Y-51478666D01*
X91558333Y-51512000D01*
X91491666Y-51545333D01*
X91225000Y-51545333D01*
X92291666Y-51878666D02*
X91891666Y-51878666D01*
X92091666Y-51878666D02*
X92091666Y-51178666D01*
X92025000Y-51278666D01*
X91958333Y-51345333D01*
X91891666Y-51378666D01*
X92625000Y-51878666D02*
X92758333Y-51878666D01*
X92825000Y-51845333D01*
X92858333Y-51812000D01*
X92925000Y-51712000D01*
X92958333Y-51578666D01*
X92958333Y-51312000D01*
X92925000Y-51245333D01*
X92891666Y-51212000D01*
X92825000Y-51178666D01*
X92691666Y-51178666D01*
X92625000Y-51212000D01*
X92591666Y-51245333D01*
X92558333Y-51312000D01*
X92558333Y-51478666D01*
X92591666Y-51545333D01*
X92625000Y-51578666D01*
X92691666Y-51612000D01*
X92825000Y-51612000D01*
X92891666Y-51578666D01*
X92925000Y-51545333D01*
X92958333Y-51478666D01*
X86497333Y-49592666D02*
X86264000Y-49259333D01*
X86097333Y-49592666D02*
X86097333Y-48892666D01*
X86364000Y-48892666D01*
X86430666Y-48926000D01*
X86464000Y-48959333D01*
X86497333Y-49026000D01*
X86497333Y-49126000D01*
X86464000Y-49192666D01*
X86430666Y-49226000D01*
X86364000Y-49259333D01*
X86097333Y-49259333D01*
X86764000Y-48959333D02*
X86797333Y-48926000D01*
X86864000Y-48892666D01*
X87030666Y-48892666D01*
X87097333Y-48926000D01*
X87130666Y-48959333D01*
X87164000Y-49026000D01*
X87164000Y-49092666D01*
X87130666Y-49192666D01*
X86730666Y-49592666D01*
X87164000Y-49592666D01*
X102166000Y-40001000D02*
X102132666Y-40034333D01*
X102032666Y-40067666D01*
X101966000Y-40067666D01*
X101866000Y-40034333D01*
X101799333Y-39967666D01*
X101766000Y-39901000D01*
X101732666Y-39767666D01*
X101732666Y-39667666D01*
X101766000Y-39534333D01*
X101799333Y-39467666D01*
X101866000Y-39401000D01*
X101966000Y-39367666D01*
X102032666Y-39367666D01*
X102132666Y-39401000D01*
X102166000Y-39434333D01*
X102832666Y-40067666D02*
X102432666Y-40067666D01*
X102632666Y-40067666D02*
X102632666Y-39367666D01*
X102566000Y-39467666D01*
X102499333Y-39534333D01*
X102432666Y-39567666D01*
X103066000Y-39367666D02*
X103532666Y-39367666D01*
X103232666Y-40067666D01*
X57277095Y-71334380D02*
X57277095Y-72143904D01*
X57324714Y-72239142D01*
X57372333Y-72286761D01*
X57467571Y-72334380D01*
X57658047Y-72334380D01*
X57753285Y-72286761D01*
X57800904Y-72239142D01*
X57848523Y-72143904D01*
X57848523Y-71334380D01*
X58753285Y-71334380D02*
X58562809Y-71334380D01*
X58467571Y-71382000D01*
X58419952Y-71429619D01*
X58324714Y-71572476D01*
X58277095Y-71762952D01*
X58277095Y-72143904D01*
X58324714Y-72239142D01*
X58372333Y-72286761D01*
X58467571Y-72334380D01*
X58658047Y-72334380D01*
X58753285Y-72286761D01*
X58800904Y-72239142D01*
X58848523Y-72143904D01*
X58848523Y-71905809D01*
X58800904Y-71810571D01*
X58753285Y-71762952D01*
X58658047Y-71715333D01*
X58467571Y-71715333D01*
X58372333Y-71762952D01*
X58324714Y-71810571D01*
X58277095Y-71905809D01*
X54515600Y-55571200D02*
X54482266Y-55604533D01*
X54382266Y-55637866D01*
X54315600Y-55637866D01*
X54215600Y-55604533D01*
X54148933Y-55537866D01*
X54115600Y-55471200D01*
X54082266Y-55337866D01*
X54082266Y-55237866D01*
X54115600Y-55104533D01*
X54148933Y-55037866D01*
X54215600Y-54971200D01*
X54315600Y-54937866D01*
X54382266Y-54937866D01*
X54482266Y-54971200D01*
X54515600Y-55004533D01*
X54782266Y-55004533D02*
X54815600Y-54971200D01*
X54882266Y-54937866D01*
X55048933Y-54937866D01*
X55115600Y-54971200D01*
X55148933Y-55004533D01*
X55182266Y-55071200D01*
X55182266Y-55137866D01*
X55148933Y-55237866D01*
X54748933Y-55637866D01*
X55182266Y-55637866D01*
X55515600Y-55637866D02*
X55648933Y-55637866D01*
X55715600Y-55604533D01*
X55748933Y-55571200D01*
X55815600Y-55471200D01*
X55848933Y-55337866D01*
X55848933Y-55071200D01*
X55815600Y-55004533D01*
X55782266Y-54971200D01*
X55715600Y-54937866D01*
X55582266Y-54937866D01*
X55515600Y-54971200D01*
X55482266Y-55004533D01*
X55448933Y-55071200D01*
X55448933Y-55237866D01*
X55482266Y-55304533D01*
X55515600Y-55337866D01*
X55582266Y-55371200D01*
X55715600Y-55371200D01*
X55782266Y-55337866D01*
X55815600Y-55304533D01*
X55848933Y-55237866D01*
X120423809Y-43076190D02*
X120423809Y-43552380D01*
X120090476Y-42552380D02*
X120423809Y-43076190D01*
X120757142Y-42552380D01*
X121614285Y-43552380D02*
X121042857Y-43552380D01*
X121328571Y-43552380D02*
X121328571Y-42552380D01*
X121233333Y-42695238D01*
X121138095Y-42790476D01*
X121042857Y-42838095D01*
X104452000Y-37400666D02*
X104218666Y-37067333D01*
X104052000Y-37400666D02*
X104052000Y-36700666D01*
X104318666Y-36700666D01*
X104385333Y-36734000D01*
X104418666Y-36767333D01*
X104452000Y-36834000D01*
X104452000Y-36934000D01*
X104418666Y-37000666D01*
X104385333Y-37034000D01*
X104318666Y-37067333D01*
X104052000Y-37067333D01*
X104718666Y-36767333D02*
X104752000Y-36734000D01*
X104818666Y-36700666D01*
X104985333Y-36700666D01*
X105052000Y-36734000D01*
X105085333Y-36767333D01*
X105118666Y-36834000D01*
X105118666Y-36900666D01*
X105085333Y-37000666D01*
X104685333Y-37400666D01*
X105118666Y-37400666D01*
X105785333Y-37400666D02*
X105385333Y-37400666D01*
X105585333Y-37400666D02*
X105585333Y-36700666D01*
X105518666Y-36800666D01*
X105452000Y-36867333D01*
X105385333Y-36900666D01*
X88708666Y-49265666D02*
X88375333Y-49499000D01*
X88708666Y-49665666D02*
X88008666Y-49665666D01*
X88008666Y-49399000D01*
X88042000Y-49332333D01*
X88075333Y-49299000D01*
X88142000Y-49265666D01*
X88242000Y-49265666D01*
X88308666Y-49299000D01*
X88342000Y-49332333D01*
X88375333Y-49399000D01*
X88375333Y-49665666D01*
X88008666Y-49032333D02*
X88008666Y-48565666D01*
X88708666Y-48865666D01*
X104452000Y-38416666D02*
X104218666Y-38083333D01*
X104052000Y-38416666D02*
X104052000Y-37716666D01*
X104318666Y-37716666D01*
X104385333Y-37750000D01*
X104418666Y-37783333D01*
X104452000Y-37850000D01*
X104452000Y-37950000D01*
X104418666Y-38016666D01*
X104385333Y-38050000D01*
X104318666Y-38083333D01*
X104052000Y-38083333D01*
X104718666Y-37783333D02*
X104752000Y-37750000D01*
X104818666Y-37716666D01*
X104985333Y-37716666D01*
X105052000Y-37750000D01*
X105085333Y-37783333D01*
X105118666Y-37850000D01*
X105118666Y-37916666D01*
X105085333Y-38016666D01*
X104685333Y-38416666D01*
X105118666Y-38416666D01*
X105552000Y-37716666D02*
X105618666Y-37716666D01*
X105685333Y-37750000D01*
X105718666Y-37783333D01*
X105752000Y-37850000D01*
X105785333Y-37983333D01*
X105785333Y-38150000D01*
X105752000Y-38283333D01*
X105718666Y-38350000D01*
X105685333Y-38383333D01*
X105618666Y-38416666D01*
X105552000Y-38416666D01*
X105485333Y-38383333D01*
X105452000Y-38350000D01*
X105418666Y-38283333D01*
X105385333Y-38150000D01*
X105385333Y-37983333D01*
X105418666Y-37850000D01*
X105452000Y-37783333D01*
X105485333Y-37750000D01*
X105552000Y-37716666D01*
X121626333Y-108815142D02*
X121578714Y-108862761D01*
X121435857Y-108910380D01*
X121340619Y-108910380D01*
X121197761Y-108862761D01*
X121102523Y-108767523D01*
X121054904Y-108672285D01*
X121007285Y-108481809D01*
X121007285Y-108338952D01*
X121054904Y-108148476D01*
X121102523Y-108053238D01*
X121197761Y-107958000D01*
X121340619Y-107910380D01*
X121435857Y-107910380D01*
X121578714Y-107958000D01*
X121626333Y-108005619D01*
X122531095Y-107910380D02*
X122054904Y-107910380D01*
X122007285Y-108386571D01*
X122054904Y-108338952D01*
X122150142Y-108291333D01*
X122388238Y-108291333D01*
X122483476Y-108338952D01*
X122531095Y-108386571D01*
X122578714Y-108481809D01*
X122578714Y-108719904D01*
X122531095Y-108815142D01*
X122483476Y-108862761D01*
X122388238Y-108910380D01*
X122150142Y-108910380D01*
X122054904Y-108862761D01*
X122007285Y-108815142D01*
X101369761Y-33654904D02*
X101417380Y-33512047D01*
X101417380Y-33273952D01*
X101369761Y-33178714D01*
X101322142Y-33131095D01*
X101226904Y-33083476D01*
X101131666Y-33083476D01*
X101036428Y-33131095D01*
X100988809Y-33178714D01*
X100941190Y-33273952D01*
X100893571Y-33464428D01*
X100845952Y-33559666D01*
X100798333Y-33607285D01*
X100703095Y-33654904D01*
X100607857Y-33654904D01*
X100512619Y-33607285D01*
X100465000Y-33559666D01*
X100417380Y-33464428D01*
X100417380Y-33226333D01*
X100465000Y-33083476D01*
X101417380Y-32131095D02*
X101417380Y-32702523D01*
X101417380Y-32416809D02*
X100417380Y-32416809D01*
X100560238Y-32512047D01*
X100655476Y-32607285D01*
X100703095Y-32702523D01*
X107057000Y-33650000D02*
X107090333Y-33683333D01*
X107123666Y-33783333D01*
X107123666Y-33850000D01*
X107090333Y-33950000D01*
X107023666Y-34016666D01*
X106957000Y-34050000D01*
X106823666Y-34083333D01*
X106723666Y-34083333D01*
X106590333Y-34050000D01*
X106523666Y-34016666D01*
X106457000Y-33950000D01*
X106423666Y-33850000D01*
X106423666Y-33783333D01*
X106457000Y-33683333D01*
X106490333Y-33650000D01*
X106490333Y-33383333D02*
X106457000Y-33350000D01*
X106423666Y-33283333D01*
X106423666Y-33116666D01*
X106457000Y-33050000D01*
X106490333Y-33016666D01*
X106557000Y-32983333D01*
X106623666Y-32983333D01*
X106723666Y-33016666D01*
X107123666Y-33416666D01*
X107123666Y-32983333D01*
X106423666Y-32383333D02*
X106423666Y-32516666D01*
X106457000Y-32583333D01*
X106490333Y-32616666D01*
X106590333Y-32683333D01*
X106723666Y-32716666D01*
X106990333Y-32716666D01*
X107057000Y-32683333D01*
X107090333Y-32650000D01*
X107123666Y-32583333D01*
X107123666Y-32450000D01*
X107090333Y-32383333D01*
X107057000Y-32350000D01*
X106990333Y-32316666D01*
X106823666Y-32316666D01*
X106757000Y-32350000D01*
X106723666Y-32383333D01*
X106690333Y-32450000D01*
X106690333Y-32583333D01*
X106723666Y-32650000D01*
X106757000Y-32683333D01*
X106823666Y-32716666D01*
X131656095Y-100462380D02*
X131656095Y-101271904D01*
X131703714Y-101367142D01*
X131751333Y-101414761D01*
X131846571Y-101462380D01*
X132037047Y-101462380D01*
X132132285Y-101414761D01*
X132179904Y-101367142D01*
X132227523Y-101271904D01*
X132227523Y-100462380D01*
X132751333Y-101462380D02*
X132941809Y-101462380D01*
X133037047Y-101414761D01*
X133084666Y-101367142D01*
X133179904Y-101224285D01*
X133227523Y-101033809D01*
X133227523Y-100652857D01*
X133179904Y-100557619D01*
X133132285Y-100510000D01*
X133037047Y-100462380D01*
X132846571Y-100462380D01*
X132751333Y-100510000D01*
X132703714Y-100557619D01*
X132656095Y-100652857D01*
X132656095Y-100890952D01*
X132703714Y-100986190D01*
X132751333Y-101033809D01*
X132846571Y-101081428D01*
X133037047Y-101081428D01*
X133132285Y-101033809D01*
X133179904Y-100986190D01*
X133227523Y-100890952D01*
X101703142Y-47378857D02*
X101750761Y-47426476D01*
X101798380Y-47569333D01*
X101798380Y-47664571D01*
X101750761Y-47807428D01*
X101655523Y-47902666D01*
X101560285Y-47950285D01*
X101369809Y-47997904D01*
X101226952Y-47997904D01*
X101036476Y-47950285D01*
X100941238Y-47902666D01*
X100846000Y-47807428D01*
X100798380Y-47664571D01*
X100798380Y-47569333D01*
X100846000Y-47426476D01*
X100893619Y-47378857D01*
X100893619Y-46997904D02*
X100846000Y-46950285D01*
X100798380Y-46855047D01*
X100798380Y-46616952D01*
X100846000Y-46521714D01*
X100893619Y-46474095D01*
X100988857Y-46426476D01*
X101084095Y-46426476D01*
X101226952Y-46474095D01*
X101798380Y-47045523D01*
X101798380Y-46426476D01*
X101131714Y-45569333D02*
X101798380Y-45569333D01*
X100750761Y-45807428D02*
X101465047Y-46045523D01*
X101465047Y-45426476D01*
X90801000Y-36772000D02*
X90834333Y-36805333D01*
X90867666Y-36905333D01*
X90867666Y-36972000D01*
X90834333Y-37072000D01*
X90767666Y-37138666D01*
X90701000Y-37172000D01*
X90567666Y-37205333D01*
X90467666Y-37205333D01*
X90334333Y-37172000D01*
X90267666Y-37138666D01*
X90201000Y-37072000D01*
X90167666Y-36972000D01*
X90167666Y-36905333D01*
X90201000Y-36805333D01*
X90234333Y-36772000D01*
X90167666Y-36538666D02*
X90167666Y-36105333D01*
X90434333Y-36338666D01*
X90434333Y-36238666D01*
X90467666Y-36172000D01*
X90501000Y-36138666D01*
X90567666Y-36105333D01*
X90734333Y-36105333D01*
X90801000Y-36138666D01*
X90834333Y-36172000D01*
X90867666Y-36238666D01*
X90867666Y-36438666D01*
X90834333Y-36505333D01*
X90801000Y-36538666D01*
X90167666Y-35672000D02*
X90167666Y-35605333D01*
X90201000Y-35538666D01*
X90234333Y-35505333D01*
X90301000Y-35472000D01*
X90434333Y-35438666D01*
X90601000Y-35438666D01*
X90734333Y-35472000D01*
X90801000Y-35505333D01*
X90834333Y-35538666D01*
X90867666Y-35605333D01*
X90867666Y-35672000D01*
X90834333Y-35738666D01*
X90801000Y-35772000D01*
X90734333Y-35805333D01*
X90601000Y-35838666D01*
X90434333Y-35838666D01*
X90301000Y-35805333D01*
X90234333Y-35772000D01*
X90201000Y-35738666D01*
X90167666Y-35672000D01*
X125568380Y-90671904D02*
X126377904Y-90671904D01*
X126473142Y-90624285D01*
X126520761Y-90576666D01*
X126568380Y-90481428D01*
X126568380Y-90290952D01*
X126520761Y-90195714D01*
X126473142Y-90148095D01*
X126377904Y-90100476D01*
X125568380Y-90100476D01*
X125901714Y-89195714D02*
X126568380Y-89195714D01*
X125520761Y-89433809D02*
X126235047Y-89671904D01*
X126235047Y-89052857D01*
X91625000Y-50608666D02*
X91391666Y-50275333D01*
X91225000Y-50608666D02*
X91225000Y-49908666D01*
X91491666Y-49908666D01*
X91558333Y-49942000D01*
X91591666Y-49975333D01*
X91625000Y-50042000D01*
X91625000Y-50142000D01*
X91591666Y-50208666D01*
X91558333Y-50242000D01*
X91491666Y-50275333D01*
X91225000Y-50275333D01*
X92291666Y-50608666D02*
X91891666Y-50608666D01*
X92091666Y-50608666D02*
X92091666Y-49908666D01*
X92025000Y-50008666D01*
X91958333Y-50075333D01*
X91891666Y-50108666D01*
X92725000Y-49908666D02*
X92791666Y-49908666D01*
X92858333Y-49942000D01*
X92891666Y-49975333D01*
X92925000Y-50042000D01*
X92958333Y-50175333D01*
X92958333Y-50342000D01*
X92925000Y-50475333D01*
X92891666Y-50542000D01*
X92858333Y-50575333D01*
X92791666Y-50608666D01*
X92725000Y-50608666D01*
X92658333Y-50575333D01*
X92625000Y-50542000D01*
X92591666Y-50475333D01*
X92558333Y-50342000D01*
X92558333Y-50175333D01*
X92591666Y-50042000D01*
X92625000Y-49975333D01*
X92658333Y-49942000D01*
X92725000Y-49908666D01*
X118233000Y-42487000D02*
X118266333Y-42520333D01*
X118299666Y-42620333D01*
X118299666Y-42687000D01*
X118266333Y-42787000D01*
X118199666Y-42853666D01*
X118133000Y-42887000D01*
X117999666Y-42920333D01*
X117899666Y-42920333D01*
X117766333Y-42887000D01*
X117699666Y-42853666D01*
X117633000Y-42787000D01*
X117599666Y-42687000D01*
X117599666Y-42620333D01*
X117633000Y-42520333D01*
X117666333Y-42487000D01*
X118299666Y-41820333D02*
X118299666Y-42220333D01*
X118299666Y-42020333D02*
X117599666Y-42020333D01*
X117699666Y-42087000D01*
X117766333Y-42153666D01*
X117799666Y-42220333D01*
X117833000Y-41220333D02*
X118299666Y-41220333D01*
X117566333Y-41387000D02*
X118066333Y-41553666D01*
X118066333Y-41120333D01*
X109221542Y-72499457D02*
X109269161Y-72547076D01*
X109316780Y-72689933D01*
X109316780Y-72785171D01*
X109269161Y-72928028D01*
X109173923Y-73023266D01*
X109078685Y-73070885D01*
X108888209Y-73118504D01*
X108745352Y-73118504D01*
X108554876Y-73070885D01*
X108459638Y-73023266D01*
X108364400Y-72928028D01*
X108316780Y-72785171D01*
X108316780Y-72689933D01*
X108364400Y-72547076D01*
X108412019Y-72499457D01*
X108316780Y-72166123D02*
X108316780Y-71547076D01*
X108697733Y-71880409D01*
X108697733Y-71737552D01*
X108745352Y-71642314D01*
X108792971Y-71594695D01*
X108888209Y-71547076D01*
X109126304Y-71547076D01*
X109221542Y-71594695D01*
X109269161Y-71642314D01*
X109316780Y-71737552D01*
X109316780Y-72023266D01*
X109269161Y-72118504D01*
X109221542Y-72166123D01*
X108412019Y-71166123D02*
X108364400Y-71118504D01*
X108316780Y-71023266D01*
X108316780Y-70785171D01*
X108364400Y-70689933D01*
X108412019Y-70642314D01*
X108507257Y-70594695D01*
X108602495Y-70594695D01*
X108745352Y-70642314D01*
X109316780Y-71213742D01*
X109316780Y-70594695D01*
X87438666Y-56377666D02*
X87105333Y-56611000D01*
X87438666Y-56777666D02*
X86738666Y-56777666D01*
X86738666Y-56511000D01*
X86772000Y-56444333D01*
X86805333Y-56411000D01*
X86872000Y-56377666D01*
X86972000Y-56377666D01*
X87038666Y-56411000D01*
X87072000Y-56444333D01*
X87105333Y-56511000D01*
X87105333Y-56777666D01*
X87438666Y-56044333D02*
X87438666Y-55911000D01*
X87405333Y-55844333D01*
X87372000Y-55811000D01*
X87272000Y-55744333D01*
X87138666Y-55711000D01*
X86872000Y-55711000D01*
X86805333Y-55744333D01*
X86772000Y-55777666D01*
X86738666Y-55844333D01*
X86738666Y-55977666D01*
X86772000Y-56044333D01*
X86805333Y-56077666D01*
X86872000Y-56111000D01*
X87038666Y-56111000D01*
X87105333Y-56077666D01*
X87138666Y-56044333D01*
X87172000Y-55977666D01*
X87172000Y-55844333D01*
X87138666Y-55777666D01*
X87105333Y-55744333D01*
X87038666Y-55711000D01*
X52808142Y-54236857D02*
X52855761Y-54284476D01*
X52903380Y-54427333D01*
X52903380Y-54522571D01*
X52855761Y-54665428D01*
X52760523Y-54760666D01*
X52665285Y-54808285D01*
X52474809Y-54855904D01*
X52331952Y-54855904D01*
X52141476Y-54808285D01*
X52046238Y-54760666D01*
X51951000Y-54665428D01*
X51903380Y-54522571D01*
X51903380Y-54427333D01*
X51951000Y-54284476D01*
X51998619Y-54236857D01*
X52903380Y-53284476D02*
X52903380Y-53855904D01*
X52903380Y-53570190D02*
X51903380Y-53570190D01*
X52046238Y-53665428D01*
X52141476Y-53760666D01*
X52189095Y-53855904D01*
X51903380Y-52427333D02*
X51903380Y-52617809D01*
X51951000Y-52713047D01*
X51998619Y-52760666D01*
X52141476Y-52855904D01*
X52331952Y-52903523D01*
X52712904Y-52903523D01*
X52808142Y-52855904D01*
X52855761Y-52808285D01*
X52903380Y-52713047D01*
X52903380Y-52522571D01*
X52855761Y-52427333D01*
X52808142Y-52379714D01*
X52712904Y-52332095D01*
X52474809Y-52332095D01*
X52379571Y-52379714D01*
X52331952Y-52427333D01*
X52284333Y-52522571D01*
X52284333Y-52713047D01*
X52331952Y-52808285D01*
X52379571Y-52855904D01*
X52474809Y-52903523D01*
X85406666Y-52059666D02*
X85073333Y-52293000D01*
X85406666Y-52459666D02*
X84706666Y-52459666D01*
X84706666Y-52193000D01*
X84740000Y-52126333D01*
X84773333Y-52093000D01*
X84840000Y-52059666D01*
X84940000Y-52059666D01*
X85006666Y-52093000D01*
X85040000Y-52126333D01*
X85073333Y-52193000D01*
X85073333Y-52459666D01*
X85406666Y-51393000D02*
X85406666Y-51793000D01*
X85406666Y-51593000D02*
X84706666Y-51593000D01*
X84806666Y-51659666D01*
X84873333Y-51726333D01*
X84906666Y-51793000D01*
X112482380Y-76707904D02*
X113291904Y-76707904D01*
X113387142Y-76660285D01*
X113434761Y-76612666D01*
X113482380Y-76517428D01*
X113482380Y-76326952D01*
X113434761Y-76231714D01*
X113387142Y-76184095D01*
X113291904Y-76136476D01*
X112482380Y-76136476D01*
X112482380Y-75755523D02*
X112482380Y-75136476D01*
X112863333Y-75469809D01*
X112863333Y-75326952D01*
X112910952Y-75231714D01*
X112958571Y-75184095D01*
X113053809Y-75136476D01*
X113291904Y-75136476D01*
X113387142Y-75184095D01*
X113434761Y-75231714D01*
X113482380Y-75326952D01*
X113482380Y-75612666D01*
X113434761Y-75707904D01*
X113387142Y-75755523D01*
X118803000Y-38477000D02*
X118769666Y-38510333D01*
X118669666Y-38543666D01*
X118603000Y-38543666D01*
X118503000Y-38510333D01*
X118436333Y-38443666D01*
X118403000Y-38377000D01*
X118369666Y-38243666D01*
X118369666Y-38143666D01*
X118403000Y-38010333D01*
X118436333Y-37943666D01*
X118503000Y-37877000D01*
X118603000Y-37843666D01*
X118669666Y-37843666D01*
X118769666Y-37877000D01*
X118803000Y-37910333D01*
X119069666Y-37910333D02*
X119103000Y-37877000D01*
X119169666Y-37843666D01*
X119336333Y-37843666D01*
X119403000Y-37877000D01*
X119436333Y-37910333D01*
X119469666Y-37977000D01*
X119469666Y-38043666D01*
X119436333Y-38143666D01*
X119036333Y-38543666D01*
X119469666Y-38543666D01*
X119736333Y-37910333D02*
X119769666Y-37877000D01*
X119836333Y-37843666D01*
X120003000Y-37843666D01*
X120069666Y-37877000D01*
X120103000Y-37910333D01*
X120136333Y-37977000D01*
X120136333Y-38043666D01*
X120103000Y-38143666D01*
X119703000Y-38543666D01*
X120136333Y-38543666D01*
X109220095Y-33615380D02*
X109220095Y-34424904D01*
X109267714Y-34520142D01*
X109315333Y-34567761D01*
X109410571Y-34615380D01*
X109601047Y-34615380D01*
X109696285Y-34567761D01*
X109743904Y-34520142D01*
X109791523Y-34424904D01*
X109791523Y-33615380D01*
X110410571Y-34043952D02*
X110315333Y-33996333D01*
X110267714Y-33948714D01*
X110220095Y-33853476D01*
X110220095Y-33805857D01*
X110267714Y-33710619D01*
X110315333Y-33663000D01*
X110410571Y-33615380D01*
X110601047Y-33615380D01*
X110696285Y-33663000D01*
X110743904Y-33710619D01*
X110791523Y-33805857D01*
X110791523Y-33853476D01*
X110743904Y-33948714D01*
X110696285Y-33996333D01*
X110601047Y-34043952D01*
X110410571Y-34043952D01*
X110315333Y-34091571D01*
X110267714Y-34139190D01*
X110220095Y-34234428D01*
X110220095Y-34424904D01*
X110267714Y-34520142D01*
X110315333Y-34567761D01*
X110410571Y-34615380D01*
X110601047Y-34615380D01*
X110696285Y-34567761D01*
X110743904Y-34520142D01*
X110791523Y-34424904D01*
X110791523Y-34234428D01*
X110743904Y-34139190D01*
X110696285Y-34091571D01*
X110601047Y-34043952D01*
X102166000Y-41017000D02*
X102132666Y-41050333D01*
X102032666Y-41083666D01*
X101966000Y-41083666D01*
X101866000Y-41050333D01*
X101799333Y-40983666D01*
X101766000Y-40917000D01*
X101732666Y-40783666D01*
X101732666Y-40683666D01*
X101766000Y-40550333D01*
X101799333Y-40483666D01*
X101866000Y-40417000D01*
X101966000Y-40383666D01*
X102032666Y-40383666D01*
X102132666Y-40417000D01*
X102166000Y-40450333D01*
X102432666Y-40450333D02*
X102466000Y-40417000D01*
X102532666Y-40383666D01*
X102699333Y-40383666D01*
X102766000Y-40417000D01*
X102799333Y-40450333D01*
X102832666Y-40517000D01*
X102832666Y-40583666D01*
X102799333Y-40683666D01*
X102399333Y-41083666D01*
X102832666Y-41083666D01*
X103266000Y-40383666D02*
X103332666Y-40383666D01*
X103399333Y-40417000D01*
X103432666Y-40450333D01*
X103466000Y-40517000D01*
X103499333Y-40650333D01*
X103499333Y-40817000D01*
X103466000Y-40950333D01*
X103432666Y-41017000D01*
X103399333Y-41050333D01*
X103332666Y-41083666D01*
X103266000Y-41083666D01*
X103199333Y-41050333D01*
X103166000Y-41017000D01*
X103132666Y-40950333D01*
X103099333Y-40817000D01*
X103099333Y-40650333D01*
X103132666Y-40517000D01*
X103166000Y-40450333D01*
X103199333Y-40417000D01*
X103266000Y-40383666D01*
X81311761Y-30519619D02*
X81216523Y-30472000D01*
X81121285Y-30376761D01*
X80978428Y-30233904D01*
X80883190Y-30186285D01*
X80787952Y-30186285D01*
X80835571Y-30424380D02*
X80740333Y-30376761D01*
X80645095Y-30281523D01*
X80597476Y-30091047D01*
X80597476Y-29757714D01*
X80645095Y-29567238D01*
X80740333Y-29472000D01*
X80835571Y-29424380D01*
X81026047Y-29424380D01*
X81121285Y-29472000D01*
X81216523Y-29567238D01*
X81264142Y-29757714D01*
X81264142Y-30091047D01*
X81216523Y-30281523D01*
X81121285Y-30376761D01*
X81026047Y-30424380D01*
X80835571Y-30424380D01*
X81597476Y-29424380D02*
X82216523Y-29424380D01*
X81883190Y-29805333D01*
X82026047Y-29805333D01*
X82121285Y-29852952D01*
X82168904Y-29900571D01*
X82216523Y-29995809D01*
X82216523Y-30233904D01*
X82168904Y-30329142D01*
X82121285Y-30376761D01*
X82026047Y-30424380D01*
X81740333Y-30424380D01*
X81645095Y-30376761D01*
X81597476Y-30329142D01*
X91625000Y-54164666D02*
X91391666Y-53831333D01*
X91225000Y-54164666D02*
X91225000Y-53464666D01*
X91491666Y-53464666D01*
X91558333Y-53498000D01*
X91591666Y-53531333D01*
X91625000Y-53598000D01*
X91625000Y-53698000D01*
X91591666Y-53764666D01*
X91558333Y-53798000D01*
X91491666Y-53831333D01*
X91225000Y-53831333D01*
X91891666Y-53531333D02*
X91925000Y-53498000D01*
X91991666Y-53464666D01*
X92158333Y-53464666D01*
X92225000Y-53498000D01*
X92258333Y-53531333D01*
X92291666Y-53598000D01*
X92291666Y-53664666D01*
X92258333Y-53764666D01*
X91858333Y-54164666D01*
X92291666Y-54164666D01*
X92925000Y-53464666D02*
X92591666Y-53464666D01*
X92558333Y-53798000D01*
X92591666Y-53764666D01*
X92658333Y-53731333D01*
X92825000Y-53731333D01*
X92891666Y-53764666D01*
X92925000Y-53798000D01*
X92958333Y-53864666D01*
X92958333Y-54031333D01*
X92925000Y-54098000D01*
X92891666Y-54131333D01*
X92825000Y-54164666D01*
X92658333Y-54164666D01*
X92591666Y-54131333D01*
X92558333Y-54098000D01*
X67250000Y-36232266D02*
X67016666Y-35898933D01*
X66850000Y-36232266D02*
X66850000Y-35532266D01*
X67116666Y-35532266D01*
X67183333Y-35565600D01*
X67216666Y-35598933D01*
X67250000Y-35665600D01*
X67250000Y-35765600D01*
X67216666Y-35832266D01*
X67183333Y-35865600D01*
X67116666Y-35898933D01*
X66850000Y-35898933D01*
X67916666Y-36232266D02*
X67516666Y-36232266D01*
X67716666Y-36232266D02*
X67716666Y-35532266D01*
X67650000Y-35632266D01*
X67583333Y-35698933D01*
X67516666Y-35732266D01*
X68150000Y-35532266D02*
X68583333Y-35532266D01*
X68350000Y-35798933D01*
X68450000Y-35798933D01*
X68516666Y-35832266D01*
X68550000Y-35865600D01*
X68583333Y-35932266D01*
X68583333Y-36098933D01*
X68550000Y-36165600D01*
X68516666Y-36198933D01*
X68450000Y-36232266D01*
X68250000Y-36232266D01*
X68183333Y-36198933D01*
X68150000Y-36165600D01*
X114982666Y-24979380D02*
X114982666Y-25693666D01*
X114935047Y-25836523D01*
X114839809Y-25931761D01*
X114696952Y-25979380D01*
X114601714Y-25979380D01*
X115887428Y-25312714D02*
X115887428Y-25979380D01*
X115649333Y-24931761D02*
X115411238Y-25646047D01*
X116030285Y-25646047D01*
X114403142Y-100626666D02*
X114450761Y-100674285D01*
X114498380Y-100817142D01*
X114498380Y-100912380D01*
X114450761Y-101055238D01*
X114355523Y-101150476D01*
X114260285Y-101198095D01*
X114069809Y-101245714D01*
X113926952Y-101245714D01*
X113736476Y-101198095D01*
X113641238Y-101150476D01*
X113546000Y-101055238D01*
X113498380Y-100912380D01*
X113498380Y-100817142D01*
X113546000Y-100674285D01*
X113593619Y-100626666D01*
X113831714Y-99769523D02*
X114498380Y-99769523D01*
X113450761Y-100007619D02*
X114165047Y-100245714D01*
X114165047Y-99626666D01*
X68333333Y-41507142D02*
X68285714Y-41554761D01*
X68142857Y-41602380D01*
X68047619Y-41602380D01*
X67904761Y-41554761D01*
X67809523Y-41459523D01*
X67761904Y-41364285D01*
X67714285Y-41173809D01*
X67714285Y-41030952D01*
X67761904Y-40840476D01*
X67809523Y-40745238D01*
X67904761Y-40650000D01*
X68047619Y-40602380D01*
X68142857Y-40602380D01*
X68285714Y-40650000D01*
X68333333Y-40697619D01*
X69190476Y-40602380D02*
X69000000Y-40602380D01*
X68904761Y-40650000D01*
X68857142Y-40697619D01*
X68761904Y-40840476D01*
X68714285Y-41030952D01*
X68714285Y-41411904D01*
X68761904Y-41507142D01*
X68809523Y-41554761D01*
X68904761Y-41602380D01*
X69095238Y-41602380D01*
X69190476Y-41554761D01*
X69238095Y-41507142D01*
X69285714Y-41411904D01*
X69285714Y-41173809D01*
X69238095Y-41078571D01*
X69190476Y-41030952D01*
X69095238Y-40983333D01*
X68904761Y-40983333D01*
X68809523Y-41030952D01*
X68761904Y-41078571D01*
X68714285Y-41173809D01*
X92813142Y-44584857D02*
X92860761Y-44632476D01*
X92908380Y-44775333D01*
X92908380Y-44870571D01*
X92860761Y-45013428D01*
X92765523Y-45108666D01*
X92670285Y-45156285D01*
X92479809Y-45203904D01*
X92336952Y-45203904D01*
X92146476Y-45156285D01*
X92051238Y-45108666D01*
X91956000Y-45013428D01*
X91908380Y-44870571D01*
X91908380Y-44775333D01*
X91956000Y-44632476D01*
X92003619Y-44584857D01*
X91908380Y-44251523D02*
X91908380Y-43632476D01*
X92289333Y-43965809D01*
X92289333Y-43822952D01*
X92336952Y-43727714D01*
X92384571Y-43680095D01*
X92479809Y-43632476D01*
X92717904Y-43632476D01*
X92813142Y-43680095D01*
X92860761Y-43727714D01*
X92908380Y-43822952D01*
X92908380Y-44108666D01*
X92860761Y-44203904D01*
X92813142Y-44251523D01*
X92908380Y-42680095D02*
X92908380Y-43251523D01*
X92908380Y-42965809D02*
X91908380Y-42965809D01*
X92051238Y-43061047D01*
X92146476Y-43156285D01*
X92194095Y-43251523D01*
X91121666Y-27247000D02*
X90788333Y-27480333D01*
X91121666Y-27647000D02*
X90421666Y-27647000D01*
X90421666Y-27380333D01*
X90455000Y-27313666D01*
X90488333Y-27280333D01*
X90555000Y-27247000D01*
X90655000Y-27247000D01*
X90721666Y-27280333D01*
X90755000Y-27313666D01*
X90788333Y-27380333D01*
X90788333Y-27647000D01*
X91121666Y-26580333D02*
X91121666Y-26980333D01*
X91121666Y-26780333D02*
X90421666Y-26780333D01*
X90521666Y-26847000D01*
X90588333Y-26913666D01*
X90621666Y-26980333D01*
X90421666Y-25947000D02*
X90421666Y-26280333D01*
X90755000Y-26313666D01*
X90721666Y-26280333D01*
X90688333Y-26213666D01*
X90688333Y-26047000D01*
X90721666Y-25980333D01*
X90755000Y-25947000D01*
X90821666Y-25913666D01*
X90988333Y-25913666D01*
X91055000Y-25947000D01*
X91088333Y-25980333D01*
X91121666Y-26047000D01*
X91121666Y-26213666D01*
X91088333Y-26280333D01*
X91055000Y-26313666D01*
X114498380Y-96686666D02*
X114022190Y-97020000D01*
X114498380Y-97258095D02*
X113498380Y-97258095D01*
X113498380Y-96877142D01*
X113546000Y-96781904D01*
X113593619Y-96734285D01*
X113688857Y-96686666D01*
X113831714Y-96686666D01*
X113926952Y-96734285D01*
X113974571Y-96781904D01*
X114022190Y-96877142D01*
X114022190Y-97258095D01*
X113498380Y-96353333D02*
X113498380Y-95734285D01*
X113879333Y-96067619D01*
X113879333Y-95924761D01*
X113926952Y-95829523D01*
X113974571Y-95781904D01*
X114069809Y-95734285D01*
X114307904Y-95734285D01*
X114403142Y-95781904D01*
X114450761Y-95829523D01*
X114498380Y-95924761D01*
X114498380Y-96210476D01*
X114450761Y-96305714D01*
X114403142Y-96353333D01*
X116771000Y-40702666D02*
X116537666Y-40369333D01*
X116371000Y-40702666D02*
X116371000Y-40002666D01*
X116637666Y-40002666D01*
X116704333Y-40036000D01*
X116737666Y-40069333D01*
X116771000Y-40136000D01*
X116771000Y-40236000D01*
X116737666Y-40302666D01*
X116704333Y-40336000D01*
X116637666Y-40369333D01*
X116371000Y-40369333D01*
X117437666Y-40702666D02*
X117037666Y-40702666D01*
X117237666Y-40702666D02*
X117237666Y-40002666D01*
X117171000Y-40102666D01*
X117104333Y-40169333D01*
X117037666Y-40202666D01*
X117837666Y-40302666D02*
X117771000Y-40269333D01*
X117737666Y-40236000D01*
X117704333Y-40169333D01*
X117704333Y-40136000D01*
X117737666Y-40069333D01*
X117771000Y-40036000D01*
X117837666Y-40002666D01*
X117971000Y-40002666D01*
X118037666Y-40036000D01*
X118071000Y-40069333D01*
X118104333Y-40136000D01*
X118104333Y-40169333D01*
X118071000Y-40236000D01*
X118037666Y-40269333D01*
X117971000Y-40302666D01*
X117837666Y-40302666D01*
X117771000Y-40336000D01*
X117737666Y-40369333D01*
X117704333Y-40436000D01*
X117704333Y-40569333D01*
X117737666Y-40636000D01*
X117771000Y-40669333D01*
X117837666Y-40702666D01*
X117971000Y-40702666D01*
X118037666Y-40669333D01*
X118071000Y-40636000D01*
X118104333Y-40569333D01*
X118104333Y-40436000D01*
X118071000Y-40369333D01*
X118037666Y-40336000D01*
X117971000Y-40302666D01*
X91625000Y-53021666D02*
X91391666Y-52688333D01*
X91225000Y-53021666D02*
X91225000Y-52321666D01*
X91491666Y-52321666D01*
X91558333Y-52355000D01*
X91591666Y-52388333D01*
X91625000Y-52455000D01*
X91625000Y-52555000D01*
X91591666Y-52621666D01*
X91558333Y-52655000D01*
X91491666Y-52688333D01*
X91225000Y-52688333D01*
X91891666Y-52388333D02*
X91925000Y-52355000D01*
X91991666Y-52321666D01*
X92158333Y-52321666D01*
X92225000Y-52355000D01*
X92258333Y-52388333D01*
X92291666Y-52455000D01*
X92291666Y-52521666D01*
X92258333Y-52621666D01*
X91858333Y-53021666D01*
X92291666Y-53021666D01*
X92891666Y-52555000D02*
X92891666Y-53021666D01*
X92725000Y-52288333D02*
X92558333Y-52788333D01*
X92991666Y-52788333D01*
X79693738Y-54586665D02*
X79736105Y-53778251D01*
X79693536Y-53680651D01*
X79648474Y-53630605D01*
X79555859Y-53578067D01*
X79365643Y-53568098D01*
X79268044Y-53610667D01*
X79217998Y-53655729D01*
X79165460Y-53748344D01*
X79123092Y-54556759D01*
X78176799Y-53505793D02*
X78747444Y-53535699D01*
X78462122Y-53520746D02*
X78409786Y-54519376D01*
X78512370Y-54381699D01*
X78612462Y-54291576D01*
X78710061Y-54249006D01*
X77225723Y-53455949D02*
X77796368Y-53485856D01*
X77511046Y-53470903D02*
X77458710Y-54469532D01*
X77561294Y-54331855D01*
X77661386Y-54241732D01*
X77758986Y-54199163D01*
X66317334Y-61024738D02*
X67125748Y-61067105D01*
X67223348Y-61024536D01*
X67273394Y-60979474D01*
X67325932Y-60886859D01*
X67335901Y-60696643D01*
X67293332Y-60599044D01*
X67248270Y-60548998D01*
X67155655Y-60496460D01*
X66347240Y-60454092D01*
X67398206Y-59507799D02*
X67368300Y-60078444D01*
X67383253Y-59793122D02*
X66384623Y-59740786D01*
X66522300Y-59843370D01*
X66612423Y-59943462D01*
X66654993Y-60041061D01*
X66431975Y-58837264D02*
X66436959Y-58742156D01*
X66489497Y-58649541D01*
X66539543Y-58604479D01*
X66637143Y-58561910D01*
X66829850Y-58524325D01*
X67067619Y-58536786D01*
X67255342Y-58594308D01*
X67347958Y-58646846D01*
X67393019Y-58696892D01*
X67435589Y-58794492D01*
X67430604Y-58889600D01*
X67378066Y-58982215D01*
X67328020Y-59027277D01*
X67230420Y-59069846D01*
X67037713Y-59107431D01*
X66799944Y-59094970D01*
X66612221Y-59037447D01*
X66519606Y-58984909D01*
X66474544Y-58934863D01*
X66431975Y-58837264D01*
X125436333Y-108910380D02*
X125103000Y-108434190D01*
X124864904Y-108910380D02*
X124864904Y-107910380D01*
X125245857Y-107910380D01*
X125341095Y-107958000D01*
X125388714Y-108005619D01*
X125436333Y-108100857D01*
X125436333Y-108243714D01*
X125388714Y-108338952D01*
X125341095Y-108386571D01*
X125245857Y-108434190D01*
X124864904Y-108434190D01*
X126293476Y-108243714D02*
X126293476Y-108910380D01*
X126055380Y-107862761D02*
X125817285Y-108577047D01*
X126436333Y-108577047D01*
X60015380Y-52617666D02*
X59539190Y-52951000D01*
X60015380Y-53189095D02*
X59015380Y-53189095D01*
X59015380Y-52808142D01*
X59063000Y-52712904D01*
X59110619Y-52665285D01*
X59205857Y-52617666D01*
X59348714Y-52617666D01*
X59443952Y-52665285D01*
X59491571Y-52712904D01*
X59539190Y-52808142D01*
X59539190Y-53189095D01*
X59015380Y-51760523D02*
X59015380Y-51951000D01*
X59063000Y-52046238D01*
X59110619Y-52093857D01*
X59253476Y-52189095D01*
X59443952Y-52236714D01*
X59824904Y-52236714D01*
X59920142Y-52189095D01*
X59967761Y-52141476D01*
X60015380Y-52046238D01*
X60015380Y-51855761D01*
X59967761Y-51760523D01*
X59920142Y-51712904D01*
X59824904Y-51665285D01*
X59586809Y-51665285D01*
X59491571Y-51712904D01*
X59443952Y-51760523D01*
X59396333Y-51855761D01*
X59396333Y-52046238D01*
X59443952Y-52141476D01*
X59491571Y-52189095D01*
X59586809Y-52236714D01*
X63652380Y-68838095D02*
X62652380Y-68838095D01*
X62652380Y-68600000D01*
X62700000Y-68457142D01*
X62795238Y-68361904D01*
X62890476Y-68314285D01*
X63080952Y-68266666D01*
X63223809Y-68266666D01*
X63414285Y-68314285D01*
X63509523Y-68361904D01*
X63604761Y-68457142D01*
X63652380Y-68600000D01*
X63652380Y-68838095D01*
X63652380Y-67314285D02*
X63652380Y-67885714D01*
X63652380Y-67600000D02*
X62652380Y-67600000D01*
X62795238Y-67695238D01*
X62890476Y-67790476D01*
X62938095Y-67885714D01*
X88708666Y-54726666D02*
X88375333Y-54960000D01*
X88708666Y-55126666D02*
X88008666Y-55126666D01*
X88008666Y-54860000D01*
X88042000Y-54793333D01*
X88075333Y-54760000D01*
X88142000Y-54726666D01*
X88242000Y-54726666D01*
X88308666Y-54760000D01*
X88342000Y-54793333D01*
X88375333Y-54860000D01*
X88375333Y-55126666D01*
X88308666Y-54326666D02*
X88275333Y-54393333D01*
X88242000Y-54426666D01*
X88175333Y-54460000D01*
X88142000Y-54460000D01*
X88075333Y-54426666D01*
X88042000Y-54393333D01*
X88008666Y-54326666D01*
X88008666Y-54193333D01*
X88042000Y-54126666D01*
X88075333Y-54093333D01*
X88142000Y-54060000D01*
X88175333Y-54060000D01*
X88242000Y-54093333D01*
X88275333Y-54126666D01*
X88308666Y-54193333D01*
X88308666Y-54326666D01*
X88342000Y-54393333D01*
X88375333Y-54426666D01*
X88442000Y-54460000D01*
X88575333Y-54460000D01*
X88642000Y-54426666D01*
X88675333Y-54393333D01*
X88708666Y-54326666D01*
X88708666Y-54193333D01*
X88675333Y-54126666D01*
X88642000Y-54093333D01*
X88575333Y-54060000D01*
X88442000Y-54060000D01*
X88375333Y-54093333D01*
X88342000Y-54126666D01*
X88308666Y-54193333D01*
X103882000Y-33650000D02*
X103915333Y-33683333D01*
X103948666Y-33783333D01*
X103948666Y-33850000D01*
X103915333Y-33950000D01*
X103848666Y-34016666D01*
X103782000Y-34050000D01*
X103648666Y-34083333D01*
X103548666Y-34083333D01*
X103415333Y-34050000D01*
X103348666Y-34016666D01*
X103282000Y-33950000D01*
X103248666Y-33850000D01*
X103248666Y-33783333D01*
X103282000Y-33683333D01*
X103315333Y-33650000D01*
X103315333Y-33383333D02*
X103282000Y-33350000D01*
X103248666Y-33283333D01*
X103248666Y-33116666D01*
X103282000Y-33050000D01*
X103315333Y-33016666D01*
X103382000Y-32983333D01*
X103448666Y-32983333D01*
X103548666Y-33016666D01*
X103948666Y-33416666D01*
X103948666Y-32983333D01*
X103548666Y-32583333D02*
X103515333Y-32650000D01*
X103482000Y-32683333D01*
X103415333Y-32716666D01*
X103382000Y-32716666D01*
X103315333Y-32683333D01*
X103282000Y-32650000D01*
X103248666Y-32583333D01*
X103248666Y-32450000D01*
X103282000Y-32383333D01*
X103315333Y-32350000D01*
X103382000Y-32316666D01*
X103415333Y-32316666D01*
X103482000Y-32350000D01*
X103515333Y-32383333D01*
X103548666Y-32450000D01*
X103548666Y-32583333D01*
X103582000Y-32650000D01*
X103615333Y-32683333D01*
X103682000Y-32716666D01*
X103815333Y-32716666D01*
X103882000Y-32683333D01*
X103915333Y-32650000D01*
X103948666Y-32583333D01*
X103948666Y-32450000D01*
X103915333Y-32383333D01*
X103882000Y-32350000D01*
X103815333Y-32316666D01*
X103682000Y-32316666D01*
X103615333Y-32350000D01*
X103582000Y-32383333D01*
X103548666Y-32450000D01*
X104452000Y-36318000D02*
X104418666Y-36351333D01*
X104318666Y-36384666D01*
X104252000Y-36384666D01*
X104152000Y-36351333D01*
X104085333Y-36284666D01*
X104052000Y-36218000D01*
X104018666Y-36084666D01*
X104018666Y-35984666D01*
X104052000Y-35851333D01*
X104085333Y-35784666D01*
X104152000Y-35718000D01*
X104252000Y-35684666D01*
X104318666Y-35684666D01*
X104418666Y-35718000D01*
X104452000Y-35751333D01*
X104718666Y-35751333D02*
X104752000Y-35718000D01*
X104818666Y-35684666D01*
X104985333Y-35684666D01*
X105052000Y-35718000D01*
X105085333Y-35751333D01*
X105118666Y-35818000D01*
X105118666Y-35884666D01*
X105085333Y-35984666D01*
X104685333Y-36384666D01*
X105118666Y-36384666D01*
X105785333Y-36384666D02*
X105385333Y-36384666D01*
X105585333Y-36384666D02*
X105585333Y-35684666D01*
X105518666Y-35784666D01*
X105452000Y-35851333D01*
X105385333Y-35884666D01*
X106192380Y-26409523D02*
X106906666Y-26409523D01*
X107049523Y-26457142D01*
X107144761Y-26552380D01*
X107192380Y-26695238D01*
X107192380Y-26790476D01*
X107192380Y-25409523D02*
X107192380Y-25980952D01*
X107192380Y-25695238D02*
X106192380Y-25695238D01*
X106335238Y-25790476D01*
X106430476Y-25885714D01*
X106478095Y-25980952D01*
X107192380Y-24457142D02*
X107192380Y-25028571D01*
X107192380Y-24742857D02*
X106192380Y-24742857D01*
X106335238Y-24838095D01*
X106430476Y-24933333D01*
X106478095Y-25028571D01*
X76231761Y-38012619D02*
X76136523Y-37965000D01*
X76041285Y-37869761D01*
X75898428Y-37726904D01*
X75803190Y-37679285D01*
X75707952Y-37679285D01*
X75755571Y-37917380D02*
X75660333Y-37869761D01*
X75565095Y-37774523D01*
X75517476Y-37584047D01*
X75517476Y-37250714D01*
X75565095Y-37060238D01*
X75660333Y-36965000D01*
X75755571Y-36917380D01*
X75946047Y-36917380D01*
X76041285Y-36965000D01*
X76136523Y-37060238D01*
X76184142Y-37250714D01*
X76184142Y-37584047D01*
X76136523Y-37774523D01*
X76041285Y-37869761D01*
X75946047Y-37917380D01*
X75755571Y-37917380D01*
X77136523Y-37917380D02*
X76565095Y-37917380D01*
X76850809Y-37917380D02*
X76850809Y-36917380D01*
X76755571Y-37060238D01*
X76660333Y-37155476D01*
X76565095Y-37203095D01*
X94686380Y-38488857D02*
X94210190Y-38822190D01*
X94686380Y-39060285D02*
X93686380Y-39060285D01*
X93686380Y-38679333D01*
X93734000Y-38584095D01*
X93781619Y-38536476D01*
X93876857Y-38488857D01*
X94019714Y-38488857D01*
X94114952Y-38536476D01*
X94162571Y-38584095D01*
X94210190Y-38679333D01*
X94210190Y-39060285D01*
X94686380Y-37536476D02*
X94686380Y-38107904D01*
X94686380Y-37822190D02*
X93686380Y-37822190D01*
X93829238Y-37917428D01*
X93924476Y-38012666D01*
X93972095Y-38107904D01*
X93686380Y-36679333D02*
X93686380Y-36869809D01*
X93734000Y-36965047D01*
X93781619Y-37012666D01*
X93924476Y-37107904D01*
X94114952Y-37155523D01*
X94495904Y-37155523D01*
X94591142Y-37107904D01*
X94638761Y-37060285D01*
X94686380Y-36965047D01*
X94686380Y-36774571D01*
X94638761Y-36679333D01*
X94591142Y-36631714D01*
X94495904Y-36584095D01*
X94257809Y-36584095D01*
X94162571Y-36631714D01*
X94114952Y-36679333D01*
X94067333Y-36774571D01*
X94067333Y-36965047D01*
X94114952Y-37060285D01*
X94162571Y-37107904D01*
X94257809Y-37155523D01*
X122994000Y-37969000D02*
X122960666Y-38002333D01*
X122860666Y-38035666D01*
X122794000Y-38035666D01*
X122694000Y-38002333D01*
X122627333Y-37935666D01*
X122594000Y-37869000D01*
X122560666Y-37735666D01*
X122560666Y-37635666D01*
X122594000Y-37502333D01*
X122627333Y-37435666D01*
X122694000Y-37369000D01*
X122794000Y-37335666D01*
X122860666Y-37335666D01*
X122960666Y-37369000D01*
X122994000Y-37402333D01*
X123660666Y-38035666D02*
X123260666Y-38035666D01*
X123460666Y-38035666D02*
X123460666Y-37335666D01*
X123394000Y-37435666D01*
X123327333Y-37502333D01*
X123260666Y-37535666D01*
X124294000Y-37335666D02*
X123960666Y-37335666D01*
X123927333Y-37669000D01*
X123960666Y-37635666D01*
X124027333Y-37602333D01*
X124194000Y-37602333D01*
X124260666Y-37635666D01*
X124294000Y-37669000D01*
X124327333Y-37735666D01*
X124327333Y-37902333D01*
X124294000Y-37969000D01*
X124260666Y-38002333D01*
X124194000Y-38035666D01*
X124027333Y-38035666D01*
X123960666Y-38002333D01*
X123927333Y-37969000D01*
X78255904Y-67889380D02*
X78255904Y-66889380D01*
X78494000Y-66889380D01*
X78636857Y-66937000D01*
X78732095Y-67032238D01*
X78779714Y-67127476D01*
X78827333Y-67317952D01*
X78827333Y-67460809D01*
X78779714Y-67651285D01*
X78732095Y-67746523D01*
X78636857Y-67841761D01*
X78494000Y-67889380D01*
X78255904Y-67889380D01*
X79208285Y-66984619D02*
X79255904Y-66937000D01*
X79351142Y-66889380D01*
X79589238Y-66889380D01*
X79684476Y-66937000D01*
X79732095Y-66984619D01*
X79779714Y-67079857D01*
X79779714Y-67175095D01*
X79732095Y-67317952D01*
X79160666Y-67889380D01*
X79779714Y-67889380D01*
X104452000Y-35302000D02*
X104418666Y-35335333D01*
X104318666Y-35368666D01*
X104252000Y-35368666D01*
X104152000Y-35335333D01*
X104085333Y-35268666D01*
X104052000Y-35202000D01*
X104018666Y-35068666D01*
X104018666Y-34968666D01*
X104052000Y-34835333D01*
X104085333Y-34768666D01*
X104152000Y-34702000D01*
X104252000Y-34668666D01*
X104318666Y-34668666D01*
X104418666Y-34702000D01*
X104452000Y-34735333D01*
X104718666Y-34735333D02*
X104752000Y-34702000D01*
X104818666Y-34668666D01*
X104985333Y-34668666D01*
X105052000Y-34702000D01*
X105085333Y-34735333D01*
X105118666Y-34802000D01*
X105118666Y-34868666D01*
X105085333Y-34968666D01*
X104685333Y-35368666D01*
X105118666Y-35368666D01*
X105352000Y-34668666D02*
X105785333Y-34668666D01*
X105552000Y-34935333D01*
X105652000Y-34935333D01*
X105718666Y-34968666D01*
X105752000Y-35002000D01*
X105785333Y-35068666D01*
X105785333Y-35235333D01*
X105752000Y-35302000D01*
X105718666Y-35335333D01*
X105652000Y-35368666D01*
X105452000Y-35368666D01*
X105385333Y-35335333D01*
X105352000Y-35302000D01*
X59356666Y-76287380D02*
X59356666Y-77001666D01*
X59309047Y-77144523D01*
X59213809Y-77239761D01*
X59070952Y-77287380D01*
X58975714Y-77287380D01*
X59975714Y-76715952D02*
X59880476Y-76668333D01*
X59832857Y-76620714D01*
X59785238Y-76525476D01*
X59785238Y-76477857D01*
X59832857Y-76382619D01*
X59880476Y-76335000D01*
X59975714Y-76287380D01*
X60166190Y-76287380D01*
X60261428Y-76335000D01*
X60309047Y-76382619D01*
X60356666Y-76477857D01*
X60356666Y-76525476D01*
X60309047Y-76620714D01*
X60261428Y-76668333D01*
X60166190Y-76715952D01*
X59975714Y-76715952D01*
X59880476Y-76763571D01*
X59832857Y-76811190D01*
X59785238Y-76906428D01*
X59785238Y-77096904D01*
X59832857Y-77192142D01*
X59880476Y-77239761D01*
X59975714Y-77287380D01*
X60166190Y-77287380D01*
X60261428Y-77239761D01*
X60309047Y-77192142D01*
X60356666Y-77096904D01*
X60356666Y-76906428D01*
X60309047Y-76811190D01*
X60261428Y-76763571D01*
X60166190Y-76715952D01*
X87547142Y-29282380D02*
X87213809Y-28806190D01*
X86975714Y-29282380D02*
X86975714Y-28282380D01*
X87356666Y-28282380D01*
X87451904Y-28330000D01*
X87499523Y-28377619D01*
X87547142Y-28472857D01*
X87547142Y-28615714D01*
X87499523Y-28710952D01*
X87451904Y-28758571D01*
X87356666Y-28806190D01*
X86975714Y-28806190D01*
X88499523Y-29282380D02*
X87928095Y-29282380D01*
X88213809Y-29282380D02*
X88213809Y-28282380D01*
X88118571Y-28425238D01*
X88023333Y-28520476D01*
X87928095Y-28568095D01*
X89451904Y-29282380D02*
X88880476Y-29282380D01*
X89166190Y-29282380D02*
X89166190Y-28282380D01*
X89070952Y-28425238D01*
X88975714Y-28520476D01*
X88880476Y-28568095D01*
X114296000Y-45270000D02*
X114329333Y-45303333D01*
X114362666Y-45403333D01*
X114362666Y-45470000D01*
X114329333Y-45570000D01*
X114262666Y-45636666D01*
X114196000Y-45670000D01*
X114062666Y-45703333D01*
X113962666Y-45703333D01*
X113829333Y-45670000D01*
X113762666Y-45636666D01*
X113696000Y-45570000D01*
X113662666Y-45470000D01*
X113662666Y-45403333D01*
X113696000Y-45303333D01*
X113729333Y-45270000D01*
X113729333Y-45003333D02*
X113696000Y-44970000D01*
X113662666Y-44903333D01*
X113662666Y-44736666D01*
X113696000Y-44670000D01*
X113729333Y-44636666D01*
X113796000Y-44603333D01*
X113862666Y-44603333D01*
X113962666Y-44636666D01*
X114362666Y-45036666D01*
X114362666Y-44603333D01*
X113662666Y-43970000D02*
X113662666Y-44303333D01*
X113996000Y-44336666D01*
X113962666Y-44303333D01*
X113929333Y-44236666D01*
X113929333Y-44070000D01*
X113962666Y-44003333D01*
X113996000Y-43970000D01*
X114062666Y-43936666D01*
X114229333Y-43936666D01*
X114296000Y-43970000D01*
X114329333Y-44003333D01*
X114362666Y-44070000D01*
X114362666Y-44236666D01*
X114329333Y-44303333D01*
X114296000Y-44336666D01*
X72223333Y-41600380D02*
X71890000Y-41124190D01*
X71651904Y-41600380D02*
X71651904Y-40600380D01*
X72032857Y-40600380D01*
X72128095Y-40648000D01*
X72175714Y-40695619D01*
X72223333Y-40790857D01*
X72223333Y-40933714D01*
X72175714Y-41028952D01*
X72128095Y-41076571D01*
X72032857Y-41124190D01*
X71651904Y-41124190D01*
X73128095Y-40600380D02*
X72651904Y-40600380D01*
X72604285Y-41076571D01*
X72651904Y-41028952D01*
X72747142Y-40981333D01*
X72985238Y-40981333D01*
X73080476Y-41028952D01*
X73128095Y-41076571D01*
X73175714Y-41171809D01*
X73175714Y-41409904D01*
X73128095Y-41505142D01*
X73080476Y-41552761D01*
X72985238Y-41600380D01*
X72747142Y-41600380D01*
X72651904Y-41552761D01*
X72604285Y-41505142D01*
X85344095Y-43775380D02*
X85344095Y-44584904D01*
X85391714Y-44680142D01*
X85439333Y-44727761D01*
X85534571Y-44775380D01*
X85725047Y-44775380D01*
X85820285Y-44727761D01*
X85867904Y-44680142D01*
X85915523Y-44584904D01*
X85915523Y-43775380D01*
X86915523Y-44775380D02*
X86344095Y-44775380D01*
X86629809Y-44775380D02*
X86629809Y-43775380D01*
X86534571Y-43918238D01*
X86439333Y-44013476D01*
X86344095Y-44061095D01*
X59920142Y-48553666D02*
X59967761Y-48601285D01*
X60015380Y-48744142D01*
X60015380Y-48839380D01*
X59967761Y-48982238D01*
X59872523Y-49077476D01*
X59777285Y-49125095D01*
X59586809Y-49172714D01*
X59443952Y-49172714D01*
X59253476Y-49125095D01*
X59158238Y-49077476D01*
X59063000Y-48982238D01*
X59015380Y-48839380D01*
X59015380Y-48744142D01*
X59063000Y-48601285D01*
X59110619Y-48553666D01*
X59443952Y-47982238D02*
X59396333Y-48077476D01*
X59348714Y-48125095D01*
X59253476Y-48172714D01*
X59205857Y-48172714D01*
X59110619Y-48125095D01*
X59063000Y-48077476D01*
X59015380Y-47982238D01*
X59015380Y-47791761D01*
X59063000Y-47696523D01*
X59110619Y-47648904D01*
X59205857Y-47601285D01*
X59253476Y-47601285D01*
X59348714Y-47648904D01*
X59396333Y-47696523D01*
X59443952Y-47791761D01*
X59443952Y-47982238D01*
X59491571Y-48077476D01*
X59539190Y-48125095D01*
X59634428Y-48172714D01*
X59824904Y-48172714D01*
X59920142Y-48125095D01*
X59967761Y-48077476D01*
X60015380Y-47982238D01*
X60015380Y-47791761D01*
X59967761Y-47696523D01*
X59920142Y-47648904D01*
X59824904Y-47601285D01*
X59634428Y-47601285D01*
X59539190Y-47648904D01*
X59491571Y-47696523D01*
X59443952Y-47791761D01*
X111447142Y-31642857D02*
X111494761Y-31690476D01*
X111542380Y-31833333D01*
X111542380Y-31928571D01*
X111494761Y-32071428D01*
X111399523Y-32166666D01*
X111304285Y-32214285D01*
X111113809Y-32261904D01*
X110970952Y-32261904D01*
X110780476Y-32214285D01*
X110685238Y-32166666D01*
X110590000Y-32071428D01*
X110542380Y-31928571D01*
X110542380Y-31833333D01*
X110590000Y-31690476D01*
X110637619Y-31642857D01*
X110637619Y-31261904D02*
X110590000Y-31214285D01*
X110542380Y-31119047D01*
X110542380Y-30880952D01*
X110590000Y-30785714D01*
X110637619Y-30738095D01*
X110732857Y-30690476D01*
X110828095Y-30690476D01*
X110970952Y-30738095D01*
X111542380Y-31309523D01*
X111542380Y-30690476D01*
X110542380Y-30357142D02*
X110542380Y-29690476D01*
X111542380Y-30119047D01*
X65757142Y-69445142D02*
X65709523Y-69492761D01*
X65566666Y-69540380D01*
X65471428Y-69540380D01*
X65328571Y-69492761D01*
X65233333Y-69397523D01*
X65185714Y-69302285D01*
X65138095Y-69111809D01*
X65138095Y-68968952D01*
X65185714Y-68778476D01*
X65233333Y-68683238D01*
X65328571Y-68588000D01*
X65471428Y-68540380D01*
X65566666Y-68540380D01*
X65709523Y-68588000D01*
X65757142Y-68635619D01*
X66709523Y-69540380D02*
X66138095Y-69540380D01*
X66423809Y-69540380D02*
X66423809Y-68540380D01*
X66328571Y-68683238D01*
X66233333Y-68778476D01*
X66138095Y-68826095D01*
X67280952Y-68968952D02*
X67185714Y-68921333D01*
X67138095Y-68873714D01*
X67090476Y-68778476D01*
X67090476Y-68730857D01*
X67138095Y-68635619D01*
X67185714Y-68588000D01*
X67280952Y-68540380D01*
X67471428Y-68540380D01*
X67566666Y-68588000D01*
X67614285Y-68635619D01*
X67661904Y-68730857D01*
X67661904Y-68778476D01*
X67614285Y-68873714D01*
X67566666Y-68921333D01*
X67471428Y-68968952D01*
X67280952Y-68968952D01*
X67185714Y-69016571D01*
X67138095Y-69064190D01*
X67090476Y-69159428D01*
X67090476Y-69349904D01*
X67138095Y-69445142D01*
X67185714Y-69492761D01*
X67280952Y-69540380D01*
X67471428Y-69540380D01*
X67566666Y-69492761D01*
X67614285Y-69445142D01*
X67661904Y-69349904D01*
X67661904Y-69159428D01*
X67614285Y-69064190D01*
X67566666Y-69016571D01*
X67471428Y-68968952D01*
X71532761Y-36869619D02*
X71437523Y-36822000D01*
X71342285Y-36726761D01*
X71199428Y-36583904D01*
X71104190Y-36536285D01*
X71008952Y-36536285D01*
X71056571Y-36774380D02*
X70961333Y-36726761D01*
X70866095Y-36631523D01*
X70818476Y-36441047D01*
X70818476Y-36107714D01*
X70866095Y-35917238D01*
X70961333Y-35822000D01*
X71056571Y-35774380D01*
X71247047Y-35774380D01*
X71342285Y-35822000D01*
X71437523Y-35917238D01*
X71485142Y-36107714D01*
X71485142Y-36441047D01*
X71437523Y-36631523D01*
X71342285Y-36726761D01*
X71247047Y-36774380D01*
X71056571Y-36774380D01*
X71866095Y-35869619D02*
X71913714Y-35822000D01*
X72008952Y-35774380D01*
X72247047Y-35774380D01*
X72342285Y-35822000D01*
X72389904Y-35869619D01*
X72437523Y-35964857D01*
X72437523Y-36060095D01*
X72389904Y-36202952D01*
X71818476Y-36774380D01*
X72437523Y-36774380D01*
X87547142Y-30982380D02*
X87213809Y-30506190D01*
X86975714Y-30982380D02*
X86975714Y-29982380D01*
X87356666Y-29982380D01*
X87451904Y-30030000D01*
X87499523Y-30077619D01*
X87547142Y-30172857D01*
X87547142Y-30315714D01*
X87499523Y-30410952D01*
X87451904Y-30458571D01*
X87356666Y-30506190D01*
X86975714Y-30506190D01*
X88499523Y-30982380D02*
X87928095Y-30982380D01*
X88213809Y-30982380D02*
X88213809Y-29982380D01*
X88118571Y-30125238D01*
X88023333Y-30220476D01*
X87928095Y-30268095D01*
X88880476Y-30077619D02*
X88928095Y-30030000D01*
X89023333Y-29982380D01*
X89261428Y-29982380D01*
X89356666Y-30030000D01*
X89404285Y-30077619D01*
X89451904Y-30172857D01*
X89451904Y-30268095D01*
X89404285Y-30410952D01*
X88832857Y-30982380D01*
X89451904Y-30982380D01*
X118803000Y-37334000D02*
X118769666Y-37367333D01*
X118669666Y-37400666D01*
X118603000Y-37400666D01*
X118503000Y-37367333D01*
X118436333Y-37300666D01*
X118403000Y-37234000D01*
X118369666Y-37100666D01*
X118369666Y-37000666D01*
X118403000Y-36867333D01*
X118436333Y-36800666D01*
X118503000Y-36734000D01*
X118603000Y-36700666D01*
X118669666Y-36700666D01*
X118769666Y-36734000D01*
X118803000Y-36767333D01*
X119469666Y-37400666D02*
X119069666Y-37400666D01*
X119269666Y-37400666D02*
X119269666Y-36700666D01*
X119203000Y-36800666D01*
X119136333Y-36867333D01*
X119069666Y-36900666D01*
X119803000Y-37400666D02*
X119936333Y-37400666D01*
X120003000Y-37367333D01*
X120036333Y-37334000D01*
X120103000Y-37234000D01*
X120136333Y-37100666D01*
X120136333Y-36834000D01*
X120103000Y-36767333D01*
X120069666Y-36734000D01*
X120003000Y-36700666D01*
X119869666Y-36700666D01*
X119803000Y-36734000D01*
X119769666Y-36767333D01*
X119736333Y-36834000D01*
X119736333Y-37000666D01*
X119769666Y-37067333D01*
X119803000Y-37100666D01*
X119869666Y-37134000D01*
X120003000Y-37134000D01*
X120069666Y-37100666D01*
X120103000Y-37067333D01*
X120136333Y-37000666D01*
D14*
X156132723Y-37070358D02*
X162290163Y-40625358D01*
X163652029Y-38268537D02*
X164855163Y-36182648D01*
X158697723Y-32627648D02*
X157496223Y-34708707D01*
D12*
X76552664Y-44472775D02*
X64279507Y-43829566D01*
X62580155Y-55046001D02*
X63027627Y-46507718D01*
X76564109Y-55718787D02*
X77009488Y-47220449D01*
X75201857Y-58401168D02*
X62978631Y-57760576D01*
D10*
X79400000Y-37600000D02*
X79400000Y-36900000D01*
X80600000Y-36900000D02*
X80600000Y-37600000D01*
X130718000Y-35590000D02*
X130718000Y-34890000D01*
X131918000Y-34890000D02*
X131918000Y-35590000D01*
X75397936Y-32410000D02*
X76602064Y-32410000D01*
X75397936Y-30590000D02*
X76602064Y-30590000D01*
X90935276Y-31707500D02*
X91444724Y-31707500D01*
X90935276Y-32752500D02*
X91444724Y-32752500D01*
X99725000Y-48000000D02*
X99725000Y-45275000D01*
X94275000Y-45275000D02*
X94535000Y-45275000D01*
X99725000Y-50725000D02*
X99465000Y-50725000D01*
X94535000Y-50725000D02*
X94535000Y-52400000D01*
X94275000Y-48000000D02*
X94275000Y-45275000D01*
X94275000Y-50725000D02*
X94535000Y-50725000D01*
X99725000Y-45275000D02*
X99465000Y-45275000D01*
X94275000Y-48000000D02*
X94275000Y-50725000D01*
X99725000Y-48000000D02*
X99725000Y-50725000D01*
X89952359Y-51880000D02*
X90259641Y-51880000D01*
X89952359Y-51120000D02*
X90259641Y-51120000D01*
X86759641Y-50680000D02*
X86452359Y-50680000D01*
X86759641Y-49920000D02*
X86452359Y-49920000D01*
X100807836Y-39340000D02*
X100592164Y-39340000D01*
X100807836Y-40060000D02*
X100592164Y-40060000D01*
X53050000Y-72210000D02*
X56810000Y-72210000D01*
X56810000Y-72210000D02*
X56810000Y-70950000D01*
X50800000Y-65390000D02*
X56810000Y-65390000D01*
X56810000Y-65390000D02*
X56810000Y-66650000D01*
X52890000Y-55912164D02*
X52890000Y-56127836D01*
X53610000Y-55912164D02*
X53610000Y-56127836D01*
X122900000Y-42300000D02*
X122900000Y-39000000D01*
X122900000Y-39000000D02*
X118900000Y-39000000D01*
X102892164Y-37360000D02*
X103107836Y-37360000D01*
X102892164Y-36640000D02*
X103107836Y-36640000D01*
X87976000Y-50953641D02*
X87976000Y-50646359D01*
X88736000Y-50953641D02*
X88736000Y-50646359D01*
X102892164Y-37640000D02*
X103107836Y-37640000D01*
X102892164Y-38360000D02*
X103107836Y-38360000D01*
X121218000Y-106410000D02*
X121918000Y-106410000D01*
X121918000Y-107610000D02*
X121218000Y-107610000D01*
D14*
X94950000Y-34750000D02*
X94950000Y-30250000D01*
X100050000Y-34750000D02*
X100050000Y-30250000D01*
X98680000Y-29950000D02*
X96320000Y-29950000D01*
X96320000Y-35050000D02*
X98680000Y-35050000D01*
D15*
X99475000Y-28250000D02*
G75*
G03*
X99475000Y-28250000I-100000J0D01*
G01*
D10*
X105440000Y-33307836D02*
X105440000Y-33092164D01*
X106160000Y-33307836D02*
X106160000Y-33092164D01*
X132418000Y-100170000D02*
X134093000Y-100170000D01*
X132418000Y-97050000D02*
X131768000Y-97050000D01*
X132418000Y-100170000D02*
X131768000Y-100170000D01*
X132418000Y-97050000D02*
X133068000Y-97050000D01*
X102860000Y-46142164D02*
X102860000Y-46357836D01*
X102140000Y-46142164D02*
X102140000Y-46357836D01*
X90911000Y-38461836D02*
X90911000Y-38246164D01*
X90191000Y-38461836D02*
X90191000Y-38246164D01*
X125276000Y-89910000D02*
X125276000Y-88235000D01*
X122156000Y-89910000D02*
X122156000Y-90560000D01*
X122156000Y-89910000D02*
X122156000Y-89260000D01*
X125276000Y-89910000D02*
X125276000Y-90560000D01*
D14*
X57139050Y-36182648D02*
X58340550Y-38263707D01*
X64501356Y-34712537D02*
X63296490Y-32627648D01*
X58343916Y-38267537D02*
X64501356Y-34712537D01*
D10*
X89952359Y-49920000D02*
X90259641Y-49920000D01*
X89952359Y-50680000D02*
X90259641Y-50680000D01*
X117260000Y-41892164D02*
X117260000Y-42107836D01*
X116540000Y-41892164D02*
X116540000Y-42107836D01*
X107234400Y-72472436D02*
X107234400Y-72256764D01*
X107954400Y-72472436D02*
X107954400Y-72256764D01*
X87436000Y-54653641D02*
X87436000Y-54346359D01*
X86676000Y-54653641D02*
X86676000Y-54346359D01*
X49965000Y-53338748D02*
X49965000Y-53861252D01*
X51435000Y-53338748D02*
X51435000Y-53861252D01*
X85726000Y-51846359D02*
X85726000Y-52153641D01*
X86486000Y-51846359D02*
X86486000Y-52153641D01*
X106958000Y-77410000D02*
X106958000Y-80860000D01*
X112078000Y-77410000D02*
X112078000Y-75460000D01*
X106958000Y-77410000D02*
X106958000Y-75460000D01*
X112078000Y-77410000D02*
X112078000Y-79360000D01*
X117192164Y-38560000D02*
X117407836Y-38560000D01*
X117192164Y-37840000D02*
X117407836Y-37840000D01*
X106390000Y-36040000D02*
X106390000Y-35390000D01*
X113610000Y-41960000D02*
X113610000Y-42610000D01*
X106390000Y-35390000D02*
X107040000Y-35390000D01*
X113610000Y-42610000D02*
X112960000Y-42610000D01*
X106390000Y-41960000D02*
X106390000Y-42610000D01*
X113610000Y-36040000D02*
X113610000Y-35390000D01*
X113610000Y-35390000D02*
X112960000Y-35390000D01*
X100807836Y-41160000D02*
X100592164Y-41160000D01*
X100807836Y-40440000D02*
X100592164Y-40440000D01*
X82350000Y-32750000D02*
X82350000Y-31075000D01*
X79230000Y-32750000D02*
X79230000Y-33400000D01*
X79230000Y-32750000D02*
X79230000Y-32100000D01*
X82350000Y-32750000D02*
X82350000Y-33400000D01*
X89952359Y-53520000D02*
X90259641Y-53520000D01*
X89952359Y-54280000D02*
X90259641Y-54280000D01*
X67954724Y-34177500D02*
X67445276Y-34177500D01*
X67954724Y-35222500D02*
X67445276Y-35222500D01*
X116470000Y-26870000D02*
X116470000Y-26930000D01*
X116470000Y-24270000D02*
X117800000Y-24270000D01*
X116470000Y-26870000D02*
X119130000Y-26870000D01*
X116470000Y-26930000D02*
X119130000Y-26930000D01*
X119130000Y-26870000D02*
X119130000Y-26930000D01*
X116470000Y-25600000D02*
X116470000Y-24270000D01*
X116118000Y-100110000D02*
X116118000Y-100810000D01*
X114918000Y-100810000D02*
X114918000Y-100110000D01*
X68150000Y-41900000D02*
X68850000Y-41900000D01*
X68850000Y-43100000D02*
X68150000Y-43100000D01*
X93239000Y-44977164D02*
X93239000Y-45192836D01*
X93959000Y-44977164D02*
X93959000Y-45192836D01*
X92422500Y-26045276D02*
X92422500Y-26554724D01*
X91377500Y-26045276D02*
X91377500Y-26554724D01*
X116040500Y-96764724D02*
X116040500Y-96255276D01*
X114995500Y-96764724D02*
X114995500Y-96255276D01*
X117192164Y-39040000D02*
X117407836Y-39040000D01*
X117192164Y-39760000D02*
X117407836Y-39760000D01*
X89952359Y-52320000D02*
X90259641Y-52320000D01*
X89952359Y-53080000D02*
X90259641Y-53080000D01*
X78556644Y-50017138D02*
X79205753Y-50051156D01*
X78556644Y-50017138D02*
X77907535Y-49983120D01*
X78393356Y-53132862D02*
X80066060Y-53220525D01*
X78393356Y-53132862D02*
X77744247Y-53098844D01*
D12*
X130699000Y-92824552D02*
X130699000Y-105064552D01*
X127949000Y-91604552D02*
X119439000Y-91604552D01*
X128009000Y-105604552D02*
X119459000Y-105604552D01*
X116719000Y-92204552D02*
X116719000Y-104494552D01*
D10*
X67793073Y-59729571D02*
X67705410Y-61402275D01*
X70908797Y-59892859D02*
X70874779Y-60541968D01*
X70908797Y-59892859D02*
X70942815Y-59243750D01*
X67793073Y-59729571D02*
X67827091Y-59080462D01*
X125350776Y-106487500D02*
X125860224Y-106487500D01*
X125350776Y-107532500D02*
X125860224Y-107532500D01*
X61522500Y-52245276D02*
X61522500Y-52754724D01*
X60477500Y-52245276D02*
X60477500Y-52754724D01*
X60200000Y-65850000D02*
X60200000Y-69750000D01*
X62200000Y-65850000D02*
X60200000Y-65850000D01*
X62200000Y-65850000D02*
X62200000Y-69750000D01*
X87976000Y-53053641D02*
X87976000Y-52746359D01*
X88736000Y-53053641D02*
X88736000Y-52746359D01*
X104240000Y-33307836D02*
X104240000Y-33092164D01*
X104960000Y-33307836D02*
X104960000Y-33092164D01*
X103107836Y-36360000D02*
X102892164Y-36360000D01*
X103107836Y-35640000D02*
X102892164Y-35640000D01*
X107740000Y-26950000D02*
X107740000Y-25890000D01*
X109800000Y-24540000D02*
X111860000Y-24540000D01*
X108800000Y-26950000D02*
X107740000Y-26950000D01*
X109800000Y-26950000D02*
X109800000Y-24540000D01*
X109800000Y-26950000D02*
X111860000Y-26950000D01*
X111860000Y-26950000D02*
X111860000Y-24540000D01*
X76500000Y-33440000D02*
X75850000Y-33440000D01*
X76500000Y-36560000D02*
X75850000Y-36560000D01*
X76500000Y-36560000D02*
X78175000Y-36560000D01*
X76500000Y-33440000D02*
X77150000Y-33440000D01*
X93360000Y-38107836D02*
X93360000Y-37892164D01*
X92640000Y-38107836D02*
X92640000Y-37892164D01*
X121304164Y-37359000D02*
X121519836Y-37359000D01*
X121304164Y-38079000D02*
X121519836Y-38079000D01*
X81250000Y-64510000D02*
X77350000Y-64510000D01*
X81250000Y-66510000D02*
X77350000Y-66510000D01*
X81250000Y-66510000D02*
X81250000Y-64510000D01*
X103107836Y-34640000D02*
X102892164Y-34640000D01*
X103107836Y-35360000D02*
X102892164Y-35360000D01*
X52640000Y-75510000D02*
X52640000Y-75060000D01*
X50640000Y-75740000D02*
X51060000Y-75740000D01*
X58160000Y-79690000D02*
X58160000Y-80090000D01*
X50640000Y-80090000D02*
X50640000Y-79690000D01*
X50640000Y-77720000D02*
X50640000Y-75740000D01*
X58160000Y-75740000D02*
X57740000Y-75740000D01*
X53090000Y-75060000D02*
X52640000Y-75060000D01*
X58160000Y-77720000D02*
X58160000Y-75740000D01*
X91444724Y-29352500D02*
X90935276Y-29352500D01*
X91444724Y-28307500D02*
X90935276Y-28307500D01*
X114740000Y-44712164D02*
X114740000Y-44927836D01*
X115460000Y-44712164D02*
X115460000Y-44927836D01*
X72157776Y-41977500D02*
X72667224Y-41977500D01*
X72157776Y-43022500D02*
X72667224Y-43022500D01*
X86200000Y-43360000D02*
X88150000Y-43360000D01*
X86200000Y-38240000D02*
X82750000Y-38240000D01*
X86200000Y-43360000D02*
X84250000Y-43360000D01*
X86200000Y-38240000D02*
X88150000Y-38240000D01*
X60400000Y-48850000D02*
X60400000Y-48150000D01*
X61600000Y-48150000D02*
X61600000Y-48850000D01*
X111890000Y-31107836D02*
X111890000Y-30892164D01*
X112610000Y-31107836D02*
X112610000Y-30892164D01*
X66138748Y-67935000D02*
X66661252Y-67935000D01*
X66138748Y-66465000D02*
X66661252Y-66465000D01*
X70140000Y-33600000D02*
X70140000Y-34250000D01*
X73260000Y-33600000D02*
X73260000Y-31925000D01*
X73260000Y-33600000D02*
X73260000Y-34250000D01*
X70140000Y-33600000D02*
X70140000Y-32950000D01*
X91444724Y-30007500D02*
X90935276Y-30007500D01*
X91444724Y-31052500D02*
X90935276Y-31052500D01*
X117192164Y-36640000D02*
X117407836Y-36640000D01*
X117192164Y-37360000D02*
X117407836Y-37360000D01*
%LPC*%
G36*
X151440000Y-56620000D02*
G01*
X154040000Y-56620000D01*
X154040000Y-59220000D01*
X151440000Y-59220000D01*
X151440000Y-56620000D01*
G37*
G36*
X151440000Y-45220000D02*
G01*
X154040000Y-45220000D01*
X154040000Y-47820000D01*
X151440000Y-47820000D01*
X151440000Y-45220000D01*
G37*
D16*
X154020000Y-51080000D02*
G75*
G03*
X154020000Y-51080000I-1780000J0D01*
G01*
G36*
X132591726Y-54882249D02*
G01*
X134553971Y-53176496D01*
X136259725Y-55138741D01*
X134297480Y-56844494D01*
X132591726Y-54882249D01*
G37*
G36*
X140070799Y-63485938D02*
G01*
X142033044Y-61780185D01*
X143738798Y-63742430D01*
X141776553Y-65448183D01*
X140070799Y-63485938D01*
G37*
D17*
X138820000Y-58780000D02*
G75*
G03*
X138820000Y-58780000I-1780000J0D01*
G01*
D18*
X81145133Y-84330000D02*
G75*
G03*
X81145133Y-84330000I-405133J0D01*
G01*
D19*
X81147127Y-77930000D02*
G75*
G03*
X81147127Y-77930000I-407127J0D01*
G01*
D20*
X82035247Y-81130000D02*
G75*
G03*
X82035247Y-81130000I-1295247J0D01*
G01*
X89985247Y-73180000D02*
G75*
G03*
X89985247Y-73180000I-1295247J0D01*
G01*
D18*
X92295133Y-73180000D02*
G75*
G03*
X92295133Y-73180000I-405133J0D01*
G01*
D19*
X85897127Y-73180000D02*
G75*
G03*
X85897127Y-73180000I-407127J0D01*
G01*
D20*
X97935247Y-81130000D02*
G75*
G03*
X97935247Y-81130000I-1295247J0D01*
G01*
D18*
X97045133Y-84330000D02*
G75*
G03*
X97045133Y-84330000I-405133J0D01*
G01*
D19*
X97047127Y-77930000D02*
G75*
G03*
X97047127Y-77930000I-407127J0D01*
G01*
D20*
X89985247Y-89080000D02*
G75*
G03*
X89985247Y-89080000I-1295247J0D01*
G01*
D19*
X92297127Y-89080000D02*
G75*
G03*
X92297127Y-89080000I-407127J0D01*
G01*
D18*
X85895133Y-89080000D02*
G75*
G03*
X85895133Y-89080000I-405133J0D01*
G01*
G36*
X113746000Y-54211167D02*
G01*
X110997861Y-54211167D01*
X110660182Y-54211060D01*
X110334207Y-54210749D01*
X110022441Y-54210245D01*
X109727387Y-54209562D01*
X109451550Y-54208713D01*
X109197435Y-54207710D01*
X108967544Y-54206566D01*
X108764382Y-54205295D01*
X108590453Y-54203907D01*
X108448261Y-54202418D01*
X108340310Y-54200838D01*
X108269105Y-54199182D01*
X108237149Y-54197462D01*
X108235611Y-54197056D01*
X108233949Y-54174602D01*
X108232342Y-54112214D01*
X108230802Y-54012290D01*
X108229341Y-53877229D01*
X108227969Y-53709430D01*
X108226697Y-53511290D01*
X108225538Y-53285210D01*
X108224502Y-53033587D01*
X108223600Y-52758820D01*
X108222844Y-52463308D01*
X108222246Y-52149450D01*
X108221815Y-51819644D01*
X108221564Y-51476290D01*
X108221500Y-51191389D01*
X108221500Y-48199834D01*
X113746000Y-48199834D01*
X113746000Y-54211167D01*
G37*
D21*
X113746000Y-54211167D02*
X110997861Y-54211167D01*
X110660182Y-54211060D01*
X110334207Y-54210749D01*
X110022441Y-54210245D01*
X109727387Y-54209562D01*
X109451550Y-54208713D01*
X109197435Y-54207710D01*
X108967544Y-54206566D01*
X108764382Y-54205295D01*
X108590453Y-54203907D01*
X108448261Y-54202418D01*
X108340310Y-54200838D01*
X108269105Y-54199182D01*
X108237149Y-54197462D01*
X108235611Y-54197056D01*
X108233949Y-54174602D01*
X108232342Y-54112214D01*
X108230802Y-54012290D01*
X108229341Y-53877229D01*
X108227969Y-53709430D01*
X108226697Y-53511290D01*
X108225538Y-53285210D01*
X108224502Y-53033587D01*
X108223600Y-52758820D01*
X108222844Y-52463308D01*
X108222246Y-52149450D01*
X108221815Y-51819644D01*
X108221564Y-51476290D01*
X108221500Y-51191389D01*
X108221500Y-48199834D01*
X113746000Y-48199834D01*
X113746000Y-54211167D01*
G36*
X142940631Y-38782302D02*
G01*
X144121007Y-41098919D01*
X141804390Y-42279294D01*
X140624014Y-39962677D01*
X142940631Y-38782302D01*
G37*
G36*
X153098106Y-33606810D02*
G01*
X154278481Y-35923427D01*
X151961864Y-37103803D01*
X150781489Y-34787186D01*
X153098106Y-33606810D01*
G37*
D16*
X150020000Y-36980000D02*
G75*
G03*
X150020000Y-36980000I-1780000J0D01*
G01*
G36*
X166909313Y-53265267D02*
G01*
X169452496Y-52724697D01*
X169993067Y-55267880D01*
X167449883Y-55808451D01*
X166909313Y-53265267D01*
G37*
G36*
X164539119Y-42114384D02*
G01*
X167082303Y-41573814D01*
X167622874Y-44116998D01*
X165079690Y-44657568D01*
X164539119Y-42114384D01*
G37*
X168320000Y-47680000D02*
G75*
G03*
X168320000Y-47680000I-1780000J0D01*
G01*
D22*
X152240000Y-46880000D03*
D23*
X152240000Y-55380000D03*
D24*
X152240000Y-55380000D03*
D25*
X134284552Y-55610220D03*
D24*
X139861054Y-62025251D03*
D26*
X139861054Y-62025251D03*
D27*
X159452694Y-34530000D03*
X162830192Y-36480000D03*
D28*
X162922532Y-39420064D03*
X156860354Y-35920064D03*
D29*
X80740000Y-77930000D03*
D30*
X80740000Y-84330000D03*
D31*
X85490000Y-73180000D03*
D32*
X91890000Y-73180000D03*
D29*
X96640000Y-77930000D03*
D30*
X96640000Y-84330000D03*
D33*
X91890000Y-89080000D03*
D34*
X85490000Y-89080000D03*
D35*
X69651159Y-53874463D03*
D36*
X70068538Y-45910393D03*
D37*
X64160011Y-45345390D03*
X75430155Y-56911074D03*
D38*
X76831531Y-45839243D03*
D36*
X69521628Y-56346071D03*
D38*
X62758635Y-56417221D03*
D35*
X69939007Y-48382001D03*
D24*
X70508581Y-61780172D03*
D39*
X80000000Y-36300000D03*
X80000000Y-38200000D03*
X131318000Y-36190000D03*
X131318000Y-34290000D03*
D40*
X111590000Y-48080000D03*
D41*
X110390000Y-54280000D03*
D42*
X110390000Y-54280000D03*
D43*
X151982227Y-35073240D03*
D44*
X144408672Y-38932159D03*
D24*
X144408672Y-38932159D03*
D45*
X73990000Y-71130000D03*
D35*
X55990000Y-60630000D03*
D46*
X104390000Y-51130000D03*
X117590000Y-51130000D03*
D47*
X157990000Y-41130000D03*
D35*
X165990000Y-60630000D03*
D48*
X59006622Y-40346621D03*
D49*
X165666771Y-43571780D03*
D50*
X167434020Y-51886035D03*
D24*
X167434020Y-51886035D03*
D51*
X170790000Y-76130000D03*
D48*
X80573378Y-61913378D03*
D52*
X74600000Y-31500000D03*
X77400000Y-31500000D03*
D53*
X90277500Y-32230000D03*
X92102500Y-32230000D03*
D54*
X95095000Y-51600000D03*
X96365000Y-51600000D03*
X97635000Y-51600000D03*
X98905000Y-51600000D03*
X98905000Y-44400000D03*
X97635000Y-44400000D03*
X96365000Y-44400000D03*
X95095000Y-44400000D03*
D55*
X89596000Y-51500000D03*
X90616000Y-51500000D03*
D56*
X87116000Y-50300000D03*
X86096000Y-50300000D03*
D57*
X101180000Y-39700000D03*
X100220000Y-39700000D03*
D58*
X51750000Y-66500000D03*
D59*
X58050000Y-68800000D03*
D58*
X51750000Y-68800000D03*
X51750000Y-71100000D03*
D60*
X53250000Y-55540000D03*
X53250000Y-56500000D03*
D61*
X122000000Y-39800000D03*
X119800000Y-39800000D03*
X119800000Y-41500000D03*
X122000000Y-41500000D03*
D62*
X102520000Y-37000000D03*
X103480000Y-37000000D03*
D63*
X88356000Y-51310000D03*
X88356000Y-50290000D03*
D62*
X102520000Y-38000000D03*
X103480000Y-38000000D03*
D64*
X122518000Y-107010000D03*
X120618000Y-107010000D03*
D65*
X99375000Y-29500000D03*
X99375000Y-35500000D03*
X95625000Y-29500000D03*
X95625000Y-35500000D03*
D66*
X105800000Y-33680000D03*
X105800000Y-32720000D03*
D67*
X133268000Y-99560000D03*
X133268000Y-97660000D03*
X131480500Y-98610000D03*
D60*
X102500000Y-45770000D03*
X102500000Y-46730000D03*
D66*
X90551000Y-38834000D03*
X90551000Y-37874000D03*
D68*
X124666000Y-89060000D03*
X122766000Y-89060000D03*
X123716000Y-90847500D03*
D69*
X59164021Y-36480000D03*
X62541519Y-34530000D03*
D55*
X89596000Y-50300000D03*
X90616000Y-50300000D03*
D60*
X116900000Y-41520000D03*
X116900000Y-42480000D03*
D66*
X107594400Y-72844600D03*
X107594400Y-71884600D03*
D63*
X87056000Y-55010000D03*
X87056000Y-53990000D03*
D70*
X50700000Y-52650000D03*
X50700000Y-54550000D03*
D71*
X86106000Y-51490000D03*
X86106000Y-52510000D03*
D72*
X107613000Y-79885000D03*
X108883000Y-79885000D03*
X110153000Y-79885000D03*
X111423000Y-79885000D03*
X111423000Y-74935000D03*
X110153000Y-74935000D03*
X108883000Y-74935000D03*
X107613000Y-74935000D03*
D62*
X116820000Y-38200000D03*
X117780000Y-38200000D03*
D73*
X107400000Y-42437500D03*
X107800000Y-42437500D03*
X108200000Y-42437500D03*
X108600000Y-42437500D03*
X109000000Y-42437500D03*
X109400000Y-42437500D03*
X109800000Y-42437500D03*
X110200000Y-42437500D03*
X110600000Y-42437500D03*
X111000000Y-42437500D03*
X111400000Y-42437500D03*
X111800000Y-42437500D03*
X112200000Y-42437500D03*
X112600000Y-42437500D03*
D74*
X113437500Y-41600000D03*
X113437500Y-41200000D03*
X113437500Y-40800000D03*
X113437500Y-40400000D03*
X113437500Y-40000000D03*
X113437500Y-39600000D03*
X113437500Y-39200000D03*
X113437500Y-38800000D03*
X113437500Y-38400000D03*
X113437500Y-38000000D03*
X113437500Y-37600000D03*
X113437500Y-37200000D03*
X113437500Y-36800000D03*
X113437500Y-36400000D03*
D73*
X112600000Y-35562500D03*
X112200000Y-35562500D03*
X111800000Y-35562500D03*
X111400000Y-35562500D03*
X111000000Y-35562500D03*
X110600000Y-35562500D03*
X110200000Y-35562500D03*
X109800000Y-35562500D03*
X109400000Y-35562500D03*
X109000000Y-35562500D03*
X108600000Y-35562500D03*
X108200000Y-35562500D03*
X107800000Y-35562500D03*
X107400000Y-35562500D03*
D74*
X106562500Y-36400000D03*
X106562500Y-36800000D03*
X106562500Y-37200000D03*
X106562500Y-37600000D03*
X106562500Y-38000000D03*
X106562500Y-38400000D03*
X106562500Y-38800000D03*
X106562500Y-39200000D03*
X106562500Y-39600000D03*
X106562500Y-40000000D03*
X106562500Y-40400000D03*
X106562500Y-40800000D03*
X106562500Y-41200000D03*
X106562500Y-41600000D03*
D75*
X110000000Y-39000000D03*
D57*
X101180000Y-40800000D03*
X100220000Y-40800000D03*
D68*
X81740000Y-31812500D03*
X79840000Y-31812500D03*
X80790000Y-33687500D03*
D55*
X89596000Y-53900000D03*
X90616000Y-53900000D03*
D76*
X68612500Y-34700000D03*
X66787500Y-34700000D03*
D77*
X117800000Y-25600000D03*
D39*
X115518000Y-99510000D03*
X115518000Y-101410000D03*
D78*
X114757200Y-56279325D03*
X113487200Y-56279325D03*
X116027200Y-58310175D03*
X114757200Y-58310175D03*
X116027200Y-56279325D03*
X113487200Y-58310175D03*
D64*
X69450000Y-42500000D03*
X67550000Y-42500000D03*
D60*
X93599000Y-44605000D03*
X93599000Y-45565000D03*
D79*
X91900000Y-25387500D03*
X91900000Y-27212500D03*
D80*
X115518000Y-97422500D03*
X115518000Y-95597500D03*
D62*
X116820000Y-39400000D03*
X117780000Y-39400000D03*
D55*
X89596000Y-52700000D03*
X90616000Y-52700000D03*
D81*
X79274116Y-52568184D03*
X79373554Y-50670788D03*
X77538785Y-51525935D03*
D36*
X128944000Y-98604552D03*
D82*
X129369000Y-105354552D03*
D35*
X120969000Y-98604552D03*
X126469000Y-98604552D03*
D82*
X118069000Y-91854552D03*
D83*
X129199000Y-92674552D03*
D36*
X118494000Y-98604552D03*
D83*
X118239000Y-104534552D03*
D84*
X68357751Y-60610331D03*
X70255147Y-60709769D03*
X69400000Y-58875000D03*
D53*
X124693000Y-107010000D03*
X126518000Y-107010000D03*
D78*
X111150400Y-56326850D03*
X111150400Y-64126850D03*
X108610400Y-56326850D03*
X109880400Y-64126850D03*
X108610400Y-64126850D03*
X109880400Y-56326850D03*
D79*
X61000000Y-51587500D03*
X61000000Y-53412500D03*
D85*
X61200000Y-66450000D03*
X61200000Y-69750000D03*
D45*
X113719000Y-83754552D03*
D63*
X88356000Y-53410000D03*
X88356000Y-52390000D03*
D66*
X104600000Y-33680000D03*
X104600000Y-32720000D03*
D57*
X103480000Y-36000000D03*
X102520000Y-36000000D03*
D86*
X108800000Y-25800000D03*
X110800000Y-25800000D03*
D67*
X77437500Y-35950000D03*
X77437500Y-34050000D03*
X75562500Y-35000000D03*
D66*
X93000000Y-38480000D03*
X93000000Y-37520000D03*
D62*
X120932000Y-37719000D03*
X121892000Y-37719000D03*
D87*
X80650000Y-65510000D03*
X77350000Y-65510000D03*
D57*
X103480000Y-35000000D03*
X102520000Y-35000000D03*
D35*
X123719000Y-94104552D03*
D88*
X53100000Y-76000000D03*
X53750000Y-76000000D03*
X54400000Y-76000000D03*
X55050000Y-76000000D03*
X55700000Y-76000000D03*
D89*
X51500000Y-78700000D03*
D90*
X55400000Y-78700000D03*
D89*
X57300000Y-78700000D03*
D91*
X56900000Y-76000000D03*
D92*
X50900000Y-78700000D03*
X57900000Y-78700000D03*
D91*
X51900000Y-76000000D03*
D90*
X53400000Y-78700000D03*
D76*
X92102500Y-28830000D03*
X90277500Y-28830000D03*
D60*
X115100000Y-44340000D03*
X115100000Y-45300000D03*
D53*
X71500000Y-42500000D03*
X73325000Y-42500000D03*
D35*
X123719000Y-103104552D03*
D93*
X83725000Y-38895000D03*
X83725000Y-40165000D03*
X83725000Y-41435000D03*
X83725000Y-42705000D03*
X88675000Y-42705000D03*
X88675000Y-41435000D03*
X88675000Y-40165000D03*
X88675000Y-38895000D03*
D46*
X109244000Y-99404552D03*
D39*
X61000000Y-49450000D03*
X61000000Y-47550000D03*
D66*
X112250000Y-31480000D03*
X112250000Y-30520000D03*
D94*
X65450000Y-67200000D03*
X67350000Y-67200000D03*
D68*
X72650000Y-32662500D03*
X70750000Y-32662500D03*
X71700000Y-34537500D03*
D76*
X92102500Y-30530000D03*
X90277500Y-30530000D03*
D62*
X116820000Y-37000000D03*
X117780000Y-37000000D03*
D95*
X50750000Y-60000000D03*
D96*
X50750000Y-57460000D03*
D95*
X170815000Y-61595000D03*
D96*
X170815000Y-59055000D03*
D97*
X131640000Y-47630000D03*
X140340000Y-47630000D03*
D98*
X138390000Y-36130000D03*
X135990000Y-36130000D03*
X133590000Y-36130000D03*
D97*
X81640000Y-47630000D03*
X90340000Y-47630000D03*
D98*
X88390000Y-36130000D03*
X85990000Y-36130000D03*
X83590000Y-36130000D03*
D99*
X103990000Y-25830000D03*
X101990000Y-25830000D03*
X99990000Y-25830000D03*
D100*
X97990000Y-25830000D03*
X95990000Y-25830000D03*
X93990000Y-25830000D03*
D101*
X170815000Y-64761000D03*
D102*
X170815000Y-66761000D03*
X126500000Y-49500000D03*
X126500000Y-47500000D03*
X126500000Y-45500000D03*
X126500000Y-43500000D03*
D101*
X126500000Y-41500000D03*
D103*
X115366800Y-60410000D03*
D104*
X115366800Y-62410000D03*
X115366800Y-64410000D03*
X115366800Y-66410000D03*
X115366800Y-68410000D03*
X115366800Y-70410000D03*
D105*
X171319200Y-79222600D03*
D86*
X169319200Y-79222600D03*
X167319200Y-79222600D03*
X165319200Y-79222600D03*
X163319200Y-79222600D03*
X161319200Y-79222600D03*
D105*
X83226400Y-64871600D03*
D86*
X85226400Y-64871600D03*
M02*
