G04 #@! TF.GenerationSoftware,KiCad,Pcbnew,(6.0.9)*
G04 #@! TF.CreationDate,2022-12-16T01:27:57-08:00*
G04 #@! TF.ProjectId,PhobGCC_2_0_0_proto_1,50686f62-4743-4435-9f32-5f305f305f70,rev?*
G04 #@! TF.SameCoordinates,Original*
G04 #@! TF.FileFunction,Legend,Bot*
G04 #@! TF.FilePolarity,Positive*
%FSLAX46Y46*%
G04 Gerber Fmt 4.6, Leading zero omitted, Abs format (unit mm)*
G04 Created by KiCad (PCBNEW (6.0.9)) date 2022-12-16 01:27:57*
%MOMM*%
%LPD*%
G01*
G04 APERTURE LIST*
G04 Aperture macros list*
%AMHorizOval*
0 Thick line with rounded ends*
0 $1 width*
0 $2 $3 position (X,Y) of the first rounded end (center of the circle)*
0 $4 $5 position (X,Y) of the second rounded end (center of the circle)*
0 Add line between two ends*
20,1,$1,$2,$3,$4,$5,0*
0 Add two circle primitives to create the rounded ends*
1,1,$1,$2,$3*
1,1,$1,$4,$5*%
%AMFreePoly0*
4,1,57,0.276537,0.684776,0.341421,0.641421,0.384776,0.576537,0.400000,0.500000,0.400000,-0.300961,0.458548,-0.402369,0.578106,-0.535153,0.722659,-0.640176,0.885889,-0.712851,1.060661,-0.750001,1.239339,-0.750000,1.414112,-0.712851,1.577341,-0.640176,1.721894,-0.535153,1.841452,-0.402369,1.900000,-0.300961,1.900000,0.500000,1.915224,0.576537,1.958579,0.641421,2.023463,0.684776,
2.100000,0.700000,2.500000,0.700000,2.576537,0.684776,2.641421,0.641421,2.684776,0.576537,2.700000,0.500000,2.700001,-0.500000,2.684776,-0.576537,2.641421,-0.641421,2.576537,-0.684776,2.500001,-0.700000,2.234409,-0.700000,2.215340,-0.729187,2.064330,-0.893227,1.888381,-1.030175,1.692289,-1.136294,1.481405,-1.208690,1.261482,-1.245389,1.038518,-1.245390,0.818595,-1.208690,
0.607711,-1.136294,0.411620,-1.030175,0.235670,-0.893227,0.084660,-0.729187,0.065590,-0.700000,-0.200000,-0.700000,-0.276537,-0.684776,-0.341421,-0.641421,-0.384776,-0.576537,-0.400000,-0.500000,-0.400000,0.500000,-0.384776,0.576537,-0.341421,0.641421,-0.276537,0.684776,-0.200000,0.700000,0.200000,0.700000,0.276537,0.684776,0.276537,0.684776,$1*%
G04 Aperture macros list end*
%ADD10C,0.200000*%
%ADD11C,0.120000*%
%ADD12C,0.150000*%
%ADD13C,0.280000*%
%ADD14C,0.090000*%
%ADD15C,0.100000*%
%ADD16C,0.300000*%
%ADD17C,0.350000*%
%ADD18C,0.800000*%
%ADD19HorizOval,1.700000X0.259808X-0.150000X-0.259808X0.150000X0*%
%ADD20FreePoly0,330.000000*%
%ADD21C,2.500000*%
%ADD22C,2.000000*%
%ADD23C,1.600000*%
%ADD24HorizOval,2.800000X-0.568661X0.191376X0.568661X-0.191376X0*%
%ADD25HorizOval,1.600000X0.026168X0.499315X-0.026168X-0.499315X0*%
%ADD26HorizOval,0.800000X0.031402X0.599178X-0.031402X-0.599178X0*%
%ADD27HorizOval,0.800000X0.057570X1.098492X-0.057570X-1.098492X0*%
%ADD28HorizOval,0.800000X-0.599178X0.031402X0.599178X-0.031402X0*%
%ADD29HorizOval,0.800000X-1.098492X0.057570X1.098492X-0.057570X0*%
%ADD30C,1.000000*%
%ADD31C,5.200000*%
%ADD32C,1.800000*%
%ADD33C,2.400000*%
%ADD34C,2.200000*%
%ADD35O,2.800000X2.200000*%
%ADD36HorizOval,1.700000X0.259808X0.150000X-0.259808X-0.150000X0*%
%ADD37FreePoly0,30.000000*%
%ADD38R,1.700000X1.700000*%
%ADD39C,0.787400*%
%ADD40O,2.600000X1.600000*%
%ADD41HorizOval,2.800000X-0.161352X-0.577898X0.161352X0.577898X0*%
%ADD42O,2.000000X0.800000*%
%ADD43O,3.000000X0.800000*%
%ADD44O,0.800000X2.000000*%
%ADD45O,0.800000X3.000000*%
%ADD46O,1.350000X2.000000*%
%ADD47O,1.250000X0.950000*%
%ADD48O,0.890000X1.550000*%
%ADD49O,2.250000X1.700000*%
%ADD50R,2.250000X1.700000*%
%ADD51O,1.600000X2.500000*%
%ADD52O,1.250000X2.500000*%
%ADD53O,1.400000X2.000000*%
%ADD54R,1.400000X2.000000*%
%ADD55R,2.000000X1.350000*%
%ADD56O,2.000000X1.350000*%
%ADD57R,2.200000X1.350000*%
%ADD58O,2.200000X1.350000*%
%ADD59O,2.250000X3.250000*%
%ADD60R,1.350000X2.000000*%
G04 APERTURE END LIST*
D10*
X106172000Y-26314400D02*
X105765600Y-25908000D01*
X106883200Y-24688800D02*
X106883200Y-25908000D01*
D11*
X94538800Y-28041600D02*
X93980000Y-28041600D01*
X97536000Y-28041600D02*
X97993200Y-28041600D01*
X110388400Y-65074800D02*
X110388400Y-80111600D01*
X97993200Y-28041600D02*
X97993200Y-27533600D01*
D10*
X105765600Y-25908000D02*
X106172000Y-25501600D01*
X106883200Y-25908000D02*
X105765600Y-25908000D01*
D11*
X93980000Y-28041600D02*
X93980000Y-27533600D01*
D12*
X132288900Y-96949466D02*
X131822233Y-97649466D01*
X131822233Y-96949466D02*
X132288900Y-97649466D01*
D13*
X170819714Y-49628457D02*
X170819714Y-50599885D01*
X170876857Y-50714171D01*
X170934000Y-50771314D01*
X171048285Y-50828457D01*
X171219714Y-50828457D01*
X171334000Y-50771314D01*
X170819714Y-50371314D02*
X170934000Y-50428457D01*
X171162571Y-50428457D01*
X171276857Y-50371314D01*
X171334000Y-50314171D01*
X171391142Y-50199885D01*
X171391142Y-49857028D01*
X171334000Y-49742742D01*
X171276857Y-49685600D01*
X171162571Y-49628457D01*
X170934000Y-49628457D01*
X170819714Y-49685600D01*
X170248285Y-50428457D02*
X170248285Y-49628457D01*
X170248285Y-49228457D02*
X170305428Y-49285600D01*
X170248285Y-49342742D01*
X170191142Y-49285600D01*
X170248285Y-49228457D01*
X170248285Y-49342742D01*
X169848285Y-49628457D02*
X169391142Y-49628457D01*
X169676857Y-49228457D02*
X169676857Y-50257028D01*
X169619714Y-50371314D01*
X169505428Y-50428457D01*
X169391142Y-50428457D01*
X168991142Y-50428457D02*
X168991142Y-49228457D01*
X168476857Y-50428457D02*
X168476857Y-49799885D01*
X168534000Y-49685600D01*
X168648285Y-49628457D01*
X168819714Y-49628457D01*
X168934000Y-49685600D01*
X168991142Y-49742742D01*
X167391142Y-49628457D02*
X167391142Y-50428457D01*
X167905428Y-49628457D02*
X167905428Y-50257028D01*
X167848285Y-50371314D01*
X167734000Y-50428457D01*
X167562571Y-50428457D01*
X167448285Y-50371314D01*
X167391142Y-50314171D01*
X166819714Y-50428457D02*
X166819714Y-49228457D01*
X166819714Y-49685600D02*
X166705428Y-49628457D01*
X166476857Y-49628457D01*
X166362571Y-49685600D01*
X166305428Y-49742742D01*
X166248285Y-49857028D01*
X166248285Y-50199885D01*
X166305428Y-50314171D01*
X166362571Y-50371314D01*
X166476857Y-50428457D01*
X166705428Y-50428457D01*
X166819714Y-50371314D01*
X165733999Y-50314171D02*
X165676857Y-50371314D01*
X165733999Y-50428457D01*
X165791142Y-50371314D01*
X165733999Y-50314171D01*
X165733999Y-50428457D01*
X164648285Y-50371314D02*
X164762571Y-50428457D01*
X164991142Y-50428457D01*
X165105428Y-50371314D01*
X165162571Y-50314171D01*
X165219714Y-50199885D01*
X165219714Y-49857028D01*
X165162571Y-49742742D01*
X165105428Y-49685600D01*
X164991142Y-49628457D01*
X164762571Y-49628457D01*
X164648285Y-49685600D01*
X163962571Y-50428457D02*
X164076857Y-50371314D01*
X164133999Y-50314171D01*
X164191142Y-50199885D01*
X164191142Y-49857028D01*
X164133999Y-49742742D01*
X164076857Y-49685600D01*
X163962571Y-49628457D01*
X163791142Y-49628457D01*
X163676857Y-49685600D01*
X163619714Y-49742742D01*
X163562571Y-49857028D01*
X163562571Y-50199885D01*
X163619714Y-50314171D01*
X163676857Y-50371314D01*
X163791142Y-50428457D01*
X163962571Y-50428457D01*
X163048285Y-50428457D02*
X163048285Y-49628457D01*
X163048285Y-49742742D02*
X162991142Y-49685600D01*
X162876857Y-49628457D01*
X162705428Y-49628457D01*
X162591142Y-49685600D01*
X162533999Y-49799885D01*
X162533999Y-50428457D01*
X162533999Y-49799885D02*
X162476857Y-49685600D01*
X162362571Y-49628457D01*
X162191142Y-49628457D01*
X162076857Y-49685600D01*
X162019714Y-49799885D01*
X162019714Y-50428457D01*
X160591142Y-49171314D02*
X161619714Y-50714171D01*
X160248285Y-50371314D02*
X160133999Y-50428457D01*
X159905428Y-50428457D01*
X159791142Y-50371314D01*
X159733999Y-50257028D01*
X159733999Y-50199885D01*
X159791142Y-50085600D01*
X159905428Y-50028457D01*
X160076857Y-50028457D01*
X160191142Y-49971314D01*
X160248285Y-49857028D01*
X160248285Y-49799885D01*
X160191142Y-49685600D01*
X160076857Y-49628457D01*
X159905428Y-49628457D01*
X159791142Y-49685600D01*
X158762571Y-50371314D02*
X158876857Y-50428457D01*
X159105428Y-50428457D01*
X159219714Y-50371314D01*
X159276857Y-50257028D01*
X159276857Y-49799885D01*
X159219714Y-49685600D01*
X159105428Y-49628457D01*
X158876857Y-49628457D01*
X158762571Y-49685600D01*
X158705428Y-49799885D01*
X158705428Y-49914171D01*
X159276857Y-50028457D01*
X157676857Y-50428457D02*
X157676857Y-49799885D01*
X157733999Y-49685600D01*
X157848285Y-49628457D01*
X158076857Y-49628457D01*
X158191142Y-49685600D01*
X157676857Y-50371314D02*
X157791142Y-50428457D01*
X158076857Y-50428457D01*
X158191142Y-50371314D01*
X158248285Y-50257028D01*
X158248285Y-50142742D01*
X158191142Y-50028457D01*
X158076857Y-49971314D01*
X157791142Y-49971314D01*
X157676857Y-49914171D01*
X157105428Y-49628457D02*
X157105428Y-50428457D01*
X157105428Y-49742742D02*
X157048285Y-49685600D01*
X156933999Y-49628457D01*
X156762571Y-49628457D01*
X156648285Y-49685600D01*
X156591142Y-49799885D01*
X156591142Y-50428457D01*
X155505428Y-49628457D02*
X155505428Y-50428457D01*
X155791142Y-49171314D02*
X156076857Y-50028457D01*
X155333999Y-50028457D01*
X154362571Y-49628457D02*
X154362571Y-50428457D01*
X154648285Y-49171314D02*
X154933999Y-50028457D01*
X154191142Y-50028457D01*
X153105428Y-50428457D02*
X153791142Y-50428457D01*
X153448285Y-50428457D02*
X153448285Y-49228457D01*
X153562571Y-49399885D01*
X153676857Y-49514171D01*
X153791142Y-49571314D01*
X152362571Y-49228457D02*
X152248285Y-49228457D01*
X152133999Y-49285600D01*
X152076857Y-49342742D01*
X152019714Y-49457028D01*
X151962571Y-49685600D01*
X151962571Y-49971314D01*
X152019714Y-50199885D01*
X152076857Y-50314171D01*
X152133999Y-50371314D01*
X152248285Y-50428457D01*
X152362571Y-50428457D01*
X152476857Y-50371314D01*
X152533999Y-50314171D01*
X152591142Y-50199885D01*
X152648285Y-49971314D01*
X152648285Y-49685600D01*
X152591142Y-49457028D01*
X152533999Y-49342742D01*
X152476857Y-49285600D01*
X152362571Y-49228457D01*
X150933999Y-49628457D02*
X150933999Y-50428457D01*
X151219714Y-49171314D02*
X151505428Y-50028457D01*
X150762571Y-50028457D01*
X149448285Y-49171314D02*
X150476857Y-50714171D01*
X149048285Y-50428457D02*
X149048285Y-49228457D01*
X148591142Y-49228457D01*
X148476857Y-49285600D01*
X148419714Y-49342742D01*
X148362571Y-49457028D01*
X148362571Y-49628457D01*
X148419714Y-49742742D01*
X148476857Y-49799885D01*
X148591142Y-49857028D01*
X149048285Y-49857028D01*
X147848285Y-50428457D02*
X147848285Y-49228457D01*
X147333999Y-50428457D02*
X147333999Y-49799885D01*
X147391142Y-49685600D01*
X147505428Y-49628457D01*
X147676857Y-49628457D01*
X147791142Y-49685600D01*
X147848285Y-49742742D01*
X146591142Y-50428457D02*
X146705428Y-50371314D01*
X146762571Y-50314171D01*
X146819714Y-50199885D01*
X146819714Y-49857028D01*
X146762571Y-49742742D01*
X146705428Y-49685600D01*
X146591142Y-49628457D01*
X146419714Y-49628457D01*
X146305428Y-49685600D01*
X146248285Y-49742742D01*
X146191142Y-49857028D01*
X146191142Y-50199885D01*
X146248285Y-50314171D01*
X146305428Y-50371314D01*
X146419714Y-50428457D01*
X146591142Y-50428457D01*
X145791142Y-49228457D02*
X144991142Y-49228457D01*
X145791142Y-50428457D01*
X144991142Y-50428457D01*
X143962571Y-50428457D02*
X144533999Y-50428457D01*
X144533999Y-49228457D01*
D14*
X112495028Y-65290100D02*
X112980742Y-65290100D01*
X113037885Y-65264385D01*
X113066457Y-65238671D01*
X113095028Y-65187242D01*
X113095028Y-65110100D01*
X113066457Y-65058671D01*
X112866457Y-65290100D02*
X112895028Y-65238671D01*
X112895028Y-65135814D01*
X112866457Y-65084385D01*
X112837885Y-65058671D01*
X112780742Y-65032957D01*
X112609314Y-65032957D01*
X112552171Y-65058671D01*
X112523600Y-65084385D01*
X112495028Y-65135814D01*
X112495028Y-65238671D01*
X112523600Y-65290100D01*
X112895028Y-65547242D02*
X112495028Y-65547242D01*
X112295028Y-65547242D02*
X112323600Y-65521528D01*
X112352171Y-65547242D01*
X112323600Y-65572957D01*
X112295028Y-65547242D01*
X112352171Y-65547242D01*
X112495028Y-65727242D02*
X112495028Y-65932957D01*
X112295028Y-65804385D02*
X112809314Y-65804385D01*
X112866457Y-65830100D01*
X112895028Y-65881528D01*
X112895028Y-65932957D01*
X112895028Y-66112957D02*
X112295028Y-66112957D01*
X112895028Y-66344385D02*
X112580742Y-66344385D01*
X112523600Y-66318671D01*
X112495028Y-66267242D01*
X112495028Y-66190100D01*
X112523600Y-66138671D01*
X112552171Y-66112957D01*
X112495028Y-66832957D02*
X112895028Y-66832957D01*
X112495028Y-66601528D02*
X112809314Y-66601528D01*
X112866457Y-66627242D01*
X112895028Y-66678671D01*
X112895028Y-66755814D01*
X112866457Y-66807242D01*
X112837885Y-66832957D01*
X112895028Y-67090100D02*
X112295028Y-67090100D01*
X112523600Y-67090100D02*
X112495028Y-67141528D01*
X112495028Y-67244385D01*
X112523600Y-67295814D01*
X112552171Y-67321528D01*
X112609314Y-67347242D01*
X112780742Y-67347242D01*
X112837885Y-67321528D01*
X112866457Y-67295814D01*
X112895028Y-67244385D01*
X112895028Y-67141528D01*
X112866457Y-67090100D01*
X112837885Y-67578671D02*
X112866457Y-67604385D01*
X112895028Y-67578671D01*
X112866457Y-67552957D01*
X112837885Y-67578671D01*
X112895028Y-67578671D01*
X112866457Y-68067242D02*
X112895028Y-68015814D01*
X112895028Y-67912957D01*
X112866457Y-67861528D01*
X112837885Y-67835814D01*
X112780742Y-67810100D01*
X112609314Y-67810100D01*
X112552171Y-67835814D01*
X112523600Y-67861528D01*
X112495028Y-67912957D01*
X112495028Y-68015814D01*
X112523600Y-68067242D01*
X112895028Y-68375814D02*
X112866457Y-68324385D01*
X112837885Y-68298671D01*
X112780742Y-68272957D01*
X112609314Y-68272957D01*
X112552171Y-68298671D01*
X112523600Y-68324385D01*
X112495028Y-68375814D01*
X112495028Y-68452957D01*
X112523600Y-68504385D01*
X112552171Y-68530100D01*
X112609314Y-68555814D01*
X112780742Y-68555814D01*
X112837885Y-68530100D01*
X112866457Y-68504385D01*
X112895028Y-68452957D01*
X112895028Y-68375814D01*
X112895028Y-68787242D02*
X112495028Y-68787242D01*
X112552171Y-68787242D02*
X112523600Y-68812957D01*
X112495028Y-68864385D01*
X112495028Y-68941528D01*
X112523600Y-68992957D01*
X112580742Y-69018671D01*
X112895028Y-69018671D01*
X112580742Y-69018671D02*
X112523600Y-69044385D01*
X112495028Y-69095814D01*
X112495028Y-69172957D01*
X112523600Y-69224385D01*
X112580742Y-69250100D01*
X112895028Y-69250100D01*
X112266457Y-69892957D02*
X113037885Y-69430100D01*
X112866457Y-70047242D02*
X112895028Y-70098671D01*
X112895028Y-70201528D01*
X112866457Y-70252957D01*
X112809314Y-70278671D01*
X112780742Y-70278671D01*
X112723600Y-70252957D01*
X112695028Y-70201528D01*
X112695028Y-70124385D01*
X112666457Y-70072957D01*
X112609314Y-70047242D01*
X112580742Y-70047242D01*
X112523600Y-70072957D01*
X112495028Y-70124385D01*
X112495028Y-70201528D01*
X112523600Y-70252957D01*
X112866457Y-70715814D02*
X112895028Y-70664385D01*
X112895028Y-70561528D01*
X112866457Y-70510100D01*
X112809314Y-70484385D01*
X112580742Y-70484385D01*
X112523600Y-70510100D01*
X112495028Y-70561528D01*
X112495028Y-70664385D01*
X112523600Y-70715814D01*
X112580742Y-70741528D01*
X112637885Y-70741528D01*
X112695028Y-70484385D01*
X112895028Y-71204385D02*
X112580742Y-71204385D01*
X112523600Y-71178671D01*
X112495028Y-71127242D01*
X112495028Y-71024385D01*
X112523600Y-70972957D01*
X112866457Y-71204385D02*
X112895028Y-71152957D01*
X112895028Y-71024385D01*
X112866457Y-70972957D01*
X112809314Y-70947242D01*
X112752171Y-70947242D01*
X112695028Y-70972957D01*
X112666457Y-71024385D01*
X112666457Y-71152957D01*
X112637885Y-71204385D01*
X112495028Y-71461528D02*
X112895028Y-71461528D01*
X112552171Y-71461528D02*
X112523600Y-71487242D01*
X112495028Y-71538671D01*
X112495028Y-71615814D01*
X112523600Y-71667242D01*
X112580742Y-71692957D01*
X112895028Y-71692957D01*
X112495028Y-72181528D02*
X112895028Y-72181528D01*
X112266457Y-72052957D02*
X112695028Y-71924385D01*
X112695028Y-72258671D01*
X112495028Y-72695814D02*
X112895028Y-72695814D01*
X112266457Y-72567242D02*
X112695028Y-72438671D01*
X112695028Y-72772957D01*
X112895028Y-73261528D02*
X112895028Y-72952957D01*
X112895028Y-73107242D02*
X112295028Y-73107242D01*
X112380742Y-73055814D01*
X112437885Y-73004385D01*
X112466457Y-72952957D01*
X112295028Y-73595814D02*
X112295028Y-73647242D01*
X112323600Y-73698671D01*
X112352171Y-73724385D01*
X112409314Y-73750100D01*
X112523600Y-73775814D01*
X112666457Y-73775814D01*
X112780742Y-73750100D01*
X112837885Y-73724385D01*
X112866457Y-73698671D01*
X112895028Y-73647242D01*
X112895028Y-73595814D01*
X112866457Y-73544385D01*
X112837885Y-73518671D01*
X112780742Y-73492957D01*
X112666457Y-73467242D01*
X112523600Y-73467242D01*
X112409314Y-73492957D01*
X112352171Y-73518671D01*
X112323600Y-73544385D01*
X112295028Y-73595814D01*
X112495028Y-74238671D02*
X112895028Y-74238671D01*
X112266457Y-74110100D02*
X112695028Y-73981528D01*
X112695028Y-74315814D01*
X112266457Y-74907242D02*
X113037885Y-74444385D01*
X112895028Y-75087242D02*
X112295028Y-75087242D01*
X112295028Y-75292957D01*
X112323600Y-75344385D01*
X112352171Y-75370100D01*
X112409314Y-75395814D01*
X112495028Y-75395814D01*
X112552171Y-75370100D01*
X112580742Y-75344385D01*
X112609314Y-75292957D01*
X112609314Y-75087242D01*
X112895028Y-75627242D02*
X112295028Y-75627242D01*
X112895028Y-75858671D02*
X112580742Y-75858671D01*
X112523600Y-75832957D01*
X112495028Y-75781528D01*
X112495028Y-75704385D01*
X112523600Y-75652957D01*
X112552171Y-75627242D01*
X112895028Y-76192957D02*
X112866457Y-76141528D01*
X112837885Y-76115814D01*
X112780742Y-76090100D01*
X112609314Y-76090100D01*
X112552171Y-76115814D01*
X112523600Y-76141528D01*
X112495028Y-76192957D01*
X112495028Y-76270100D01*
X112523600Y-76321528D01*
X112552171Y-76347242D01*
X112609314Y-76372957D01*
X112780742Y-76372957D01*
X112837885Y-76347242D01*
X112866457Y-76321528D01*
X112895028Y-76270100D01*
X112895028Y-76192957D01*
X112295028Y-76552957D02*
X112295028Y-76912957D01*
X112895028Y-76552957D01*
X112895028Y-76912957D01*
X112895028Y-77375814D02*
X112895028Y-77118671D01*
X112295028Y-77118671D01*
D12*
X168092476Y-60548780D02*
X168425809Y-60072590D01*
X168663904Y-60548780D02*
X168663904Y-59548780D01*
X168282952Y-59548780D01*
X168187714Y-59596400D01*
X168140095Y-59644019D01*
X168092476Y-59739257D01*
X168092476Y-59882114D01*
X168140095Y-59977352D01*
X168187714Y-60024971D01*
X168282952Y-60072590D01*
X168663904Y-60072590D01*
D15*
X111657171Y-65079457D02*
X111692885Y-65186600D01*
X111692885Y-65365171D01*
X111657171Y-65436600D01*
X111621457Y-65472314D01*
X111550028Y-65508028D01*
X111478600Y-65508028D01*
X111407171Y-65472314D01*
X111371457Y-65436600D01*
X111335742Y-65365171D01*
X111300028Y-65222314D01*
X111264314Y-65150885D01*
X111228600Y-65115171D01*
X111157171Y-65079457D01*
X111085742Y-65079457D01*
X111014314Y-65115171D01*
X110978600Y-65150885D01*
X110942885Y-65222314D01*
X110942885Y-65400885D01*
X110978600Y-65508028D01*
X111692885Y-65936600D02*
X111657171Y-65865171D01*
X111621457Y-65829457D01*
X111550028Y-65793742D01*
X111335742Y-65793742D01*
X111264314Y-65829457D01*
X111228600Y-65865171D01*
X111192885Y-65936600D01*
X111192885Y-66043742D01*
X111228600Y-66115171D01*
X111264314Y-66150885D01*
X111335742Y-66186600D01*
X111550028Y-66186600D01*
X111621457Y-66150885D01*
X111657171Y-66115171D01*
X111692885Y-66043742D01*
X111692885Y-65936600D01*
X111192885Y-66829457D02*
X111692885Y-66829457D01*
X111192885Y-66508028D02*
X111585742Y-66508028D01*
X111657171Y-66543742D01*
X111692885Y-66615171D01*
X111692885Y-66722314D01*
X111657171Y-66793742D01*
X111621457Y-66829457D01*
X111692885Y-67186600D02*
X111192885Y-67186600D01*
X111335742Y-67186600D02*
X111264314Y-67222314D01*
X111228600Y-67258028D01*
X111192885Y-67329457D01*
X111192885Y-67400885D01*
X111657171Y-67972314D02*
X111692885Y-67900885D01*
X111692885Y-67758028D01*
X111657171Y-67686600D01*
X111621457Y-67650885D01*
X111550028Y-67615171D01*
X111335742Y-67615171D01*
X111264314Y-67650885D01*
X111228600Y-67686600D01*
X111192885Y-67758028D01*
X111192885Y-67900885D01*
X111228600Y-67972314D01*
X111657171Y-68579457D02*
X111692885Y-68508028D01*
X111692885Y-68365171D01*
X111657171Y-68293742D01*
X111585742Y-68258028D01*
X111300028Y-68258028D01*
X111228600Y-68293742D01*
X111192885Y-68365171D01*
X111192885Y-68508028D01*
X111228600Y-68579457D01*
X111300028Y-68615171D01*
X111371457Y-68615171D01*
X111442885Y-68258028D01*
X111192885Y-69400885D02*
X111192885Y-69686600D01*
X111692885Y-69508028D02*
X111050028Y-69508028D01*
X110978600Y-69543742D01*
X110942885Y-69615171D01*
X110942885Y-69686600D01*
X111692885Y-69936600D02*
X111192885Y-69936600D01*
X110942885Y-69936600D02*
X110978600Y-69900885D01*
X111014314Y-69936600D01*
X110978600Y-69972314D01*
X110942885Y-69936600D01*
X111014314Y-69936600D01*
X111692885Y-70400885D02*
X111657171Y-70329457D01*
X111585742Y-70293742D01*
X110942885Y-70293742D01*
X111657171Y-70972314D02*
X111692885Y-70900885D01*
X111692885Y-70758028D01*
X111657171Y-70686600D01*
X111585742Y-70650885D01*
X111300028Y-70650885D01*
X111228600Y-70686600D01*
X111192885Y-70758028D01*
X111192885Y-70900885D01*
X111228600Y-70972314D01*
X111300028Y-71008028D01*
X111371457Y-71008028D01*
X111442885Y-70650885D01*
X111657171Y-71293742D02*
X111692885Y-71365171D01*
X111692885Y-71508028D01*
X111657171Y-71579457D01*
X111585742Y-71615171D01*
X111550028Y-71615171D01*
X111478600Y-71579457D01*
X111442885Y-71508028D01*
X111442885Y-71400885D01*
X111407171Y-71329457D01*
X111335742Y-71293742D01*
X111300028Y-71293742D01*
X111228600Y-71329457D01*
X111192885Y-71400885D01*
X111192885Y-71508028D01*
X111228600Y-71579457D01*
D12*
X81541133Y-65357723D02*
X81541133Y-64507723D01*
X81217323Y-64507723D01*
X81136371Y-64548200D01*
X81095895Y-64588676D01*
X81055419Y-64669628D01*
X81055419Y-64791057D01*
X81095895Y-64872009D01*
X81136371Y-64912485D01*
X81217323Y-64952961D01*
X81541133Y-64952961D01*
X80691133Y-65357723D02*
X80691133Y-64507723D01*
X80326847Y-65357723D02*
X80326847Y-64912485D01*
X80367323Y-64831533D01*
X80448276Y-64791057D01*
X80569704Y-64791057D01*
X80650657Y-64831533D01*
X80691133Y-64872009D01*
X79800657Y-65357723D02*
X79881609Y-65317247D01*
X79922085Y-65276771D01*
X79962561Y-65195819D01*
X79962561Y-64952961D01*
X79922085Y-64872009D01*
X79881609Y-64831533D01*
X79800657Y-64791057D01*
X79679228Y-64791057D01*
X79598276Y-64831533D01*
X79557800Y-64872009D01*
X79517323Y-64952961D01*
X79517323Y-65195819D01*
X79557800Y-65276771D01*
X79598276Y-65317247D01*
X79679228Y-65357723D01*
X79800657Y-65357723D01*
X79153038Y-65357723D02*
X79153038Y-64507723D01*
X79153038Y-64831533D02*
X79072085Y-64791057D01*
X78910180Y-64791057D01*
X78829228Y-64831533D01*
X78788752Y-64872009D01*
X78748276Y-64952961D01*
X78748276Y-65195819D01*
X78788752Y-65276771D01*
X78829228Y-65317247D01*
X78910180Y-65357723D01*
X79072085Y-65357723D01*
X79153038Y-65317247D01*
X78505419Y-64507723D02*
X78222085Y-65357723D01*
X77938752Y-64507723D01*
X77655419Y-65357723D02*
X77655419Y-64791057D01*
X77655419Y-64507723D02*
X77695895Y-64548200D01*
X77655419Y-64588676D01*
X77614942Y-64548200D01*
X77655419Y-64507723D01*
X77655419Y-64588676D01*
X77291133Y-65317247D02*
X77210180Y-65357723D01*
X77048276Y-65357723D01*
X76967323Y-65317247D01*
X76926847Y-65236295D01*
X76926847Y-65195819D01*
X76967323Y-65114866D01*
X77048276Y-65074390D01*
X77169704Y-65074390D01*
X77250657Y-65033914D01*
X77291133Y-64952961D01*
X77291133Y-64912485D01*
X77250657Y-64831533D01*
X77169704Y-64791057D01*
X77048276Y-64791057D01*
X76967323Y-64831533D01*
X76562561Y-65357723D02*
X76562561Y-64791057D01*
X76562561Y-64507723D02*
X76603038Y-64548200D01*
X76562561Y-64588676D01*
X76522085Y-64548200D01*
X76562561Y-64507723D01*
X76562561Y-64588676D01*
X76036371Y-65357723D02*
X76117323Y-65317247D01*
X76157800Y-65276771D01*
X76198276Y-65195819D01*
X76198276Y-64952961D01*
X76157800Y-64872009D01*
X76117323Y-64831533D01*
X76036371Y-64791057D01*
X75914942Y-64791057D01*
X75833990Y-64831533D01*
X75793514Y-64872009D01*
X75753038Y-64952961D01*
X75753038Y-65195819D01*
X75793514Y-65276771D01*
X75833990Y-65317247D01*
X75914942Y-65357723D01*
X76036371Y-65357723D01*
X75388752Y-64791057D02*
X75388752Y-65357723D01*
X75388752Y-64872009D02*
X75348276Y-64831533D01*
X75267323Y-64791057D01*
X75145895Y-64791057D01*
X75064942Y-64831533D01*
X75024466Y-64912485D01*
X75024466Y-65357723D01*
X159540590Y-78180847D02*
X159664400Y-78180847D01*
X159726304Y-78211800D01*
X159757257Y-78242752D01*
X159819161Y-78335609D01*
X159850114Y-78459419D01*
X159850114Y-78707038D01*
X159819161Y-78768942D01*
X159788209Y-78799895D01*
X159726304Y-78830847D01*
X159602495Y-78830847D01*
X159540590Y-78799895D01*
X159509638Y-78768942D01*
X159478685Y-78707038D01*
X159478685Y-78552276D01*
X159509638Y-78490371D01*
X159540590Y-78459419D01*
X159602495Y-78428466D01*
X159726304Y-78428466D01*
X159788209Y-78459419D01*
X159819161Y-78490371D01*
X159850114Y-78552276D01*
X100336304Y-27719976D02*
X99536304Y-27719976D01*
X99536304Y-27910452D01*
X99574400Y-28024738D01*
X99650590Y-28100928D01*
X99726780Y-28139023D01*
X99879161Y-28177119D01*
X99993447Y-28177119D01*
X100145828Y-28139023D01*
X100222019Y-28100928D01*
X100298209Y-28024738D01*
X100336304Y-27910452D01*
X100336304Y-27719976D01*
X100336304Y-28862833D02*
X99917257Y-28862833D01*
X99841066Y-28824738D01*
X99802971Y-28748547D01*
X99802971Y-28596166D01*
X99841066Y-28519976D01*
X100298209Y-28862833D02*
X100336304Y-28786642D01*
X100336304Y-28596166D01*
X100298209Y-28519976D01*
X100222019Y-28481880D01*
X100145828Y-28481880D01*
X100069638Y-28519976D01*
X100031542Y-28596166D01*
X100031542Y-28786642D01*
X99993447Y-28862833D01*
X99802971Y-29129500D02*
X99802971Y-29434261D01*
X99536304Y-29243785D02*
X100222019Y-29243785D01*
X100298209Y-29281880D01*
X100336304Y-29358071D01*
X100336304Y-29434261D01*
X100336304Y-30043785D02*
X99917257Y-30043785D01*
X99841066Y-30005690D01*
X99802971Y-29929500D01*
X99802971Y-29777119D01*
X99841066Y-29700928D01*
X100298209Y-30043785D02*
X100336304Y-29967595D01*
X100336304Y-29777119D01*
X100298209Y-29700928D01*
X100222019Y-29662833D01*
X100145828Y-29662833D01*
X100069638Y-29700928D01*
X100031542Y-29777119D01*
X100031542Y-29967595D01*
X99993447Y-30043785D01*
X103549504Y-27643785D02*
X103549504Y-28139023D01*
X103854266Y-27872357D01*
X103854266Y-27986642D01*
X103892361Y-28062833D01*
X103930457Y-28100928D01*
X104006647Y-28139023D01*
X104197123Y-28139023D01*
X104273314Y-28100928D01*
X104311409Y-28062833D01*
X104349504Y-27986642D01*
X104349504Y-27758071D01*
X104311409Y-27681880D01*
X104273314Y-27643785D01*
X104273314Y-28481880D02*
X104311409Y-28519976D01*
X104349504Y-28481880D01*
X104311409Y-28443785D01*
X104273314Y-28481880D01*
X104349504Y-28481880D01*
X103549504Y-28786642D02*
X103549504Y-29281880D01*
X103854266Y-29015214D01*
X103854266Y-29129500D01*
X103892361Y-29205690D01*
X103930457Y-29243785D01*
X104006647Y-29281880D01*
X104197123Y-29281880D01*
X104273314Y-29243785D01*
X104311409Y-29205690D01*
X104349504Y-29129500D01*
X104349504Y-28900928D01*
X104311409Y-28824738D01*
X104273314Y-28786642D01*
X103816171Y-29548547D02*
X104349504Y-29739023D01*
X103816171Y-29929500D01*
X68302933Y-65595900D02*
X68302933Y-65162566D01*
X68036266Y-65395900D01*
X68036266Y-65295900D01*
X68002933Y-65229233D01*
X67969600Y-65195900D01*
X67902933Y-65162566D01*
X67736266Y-65162566D01*
X67669600Y-65195900D01*
X67636266Y-65229233D01*
X67602933Y-65295900D01*
X67602933Y-65495900D01*
X67636266Y-65562566D01*
X67669600Y-65595900D01*
X67669600Y-64862566D02*
X67636266Y-64829233D01*
X67602933Y-64862566D01*
X67636266Y-64895900D01*
X67669600Y-64862566D01*
X67602933Y-64862566D01*
X68302933Y-64595900D02*
X68302933Y-64162566D01*
X68036266Y-64395900D01*
X68036266Y-64295900D01*
X68002933Y-64229233D01*
X67969600Y-64195900D01*
X67902933Y-64162566D01*
X67736266Y-64162566D01*
X67669600Y-64195900D01*
X67636266Y-64229233D01*
X67602933Y-64295900D01*
X67602933Y-64495900D01*
X67636266Y-64562566D01*
X67669600Y-64595900D01*
X68069600Y-63929233D02*
X67602933Y-63762566D01*
X68069600Y-63595900D01*
X124473642Y-48931580D02*
X123854595Y-48931580D01*
X124187928Y-49312533D01*
X124045071Y-49312533D01*
X123949833Y-49360152D01*
X123902214Y-49407771D01*
X123854595Y-49503009D01*
X123854595Y-49741104D01*
X123902214Y-49836342D01*
X123949833Y-49883961D01*
X124045071Y-49931580D01*
X124330785Y-49931580D01*
X124426023Y-49883961D01*
X124473642Y-49836342D01*
X123426023Y-49836342D02*
X123378404Y-49883961D01*
X123426023Y-49931580D01*
X123473642Y-49883961D01*
X123426023Y-49836342D01*
X123426023Y-49931580D01*
X123045071Y-48931580D02*
X122426023Y-48931580D01*
X122759357Y-49312533D01*
X122616500Y-49312533D01*
X122521261Y-49360152D01*
X122473642Y-49407771D01*
X122426023Y-49503009D01*
X122426023Y-49741104D01*
X122473642Y-49836342D01*
X122521261Y-49883961D01*
X122616500Y-49931580D01*
X122902214Y-49931580D01*
X122997452Y-49883961D01*
X123045071Y-49836342D01*
X122092690Y-49264914D02*
X121854595Y-49931580D01*
X121616500Y-49264914D01*
X84442700Y-52601066D02*
X84009366Y-52601066D01*
X84242700Y-52867733D01*
X84142700Y-52867733D01*
X84076033Y-52901066D01*
X84042700Y-52934400D01*
X84009366Y-53001066D01*
X84009366Y-53167733D01*
X84042700Y-53234400D01*
X84076033Y-53267733D01*
X84142700Y-53301066D01*
X84342700Y-53301066D01*
X84409366Y-53267733D01*
X84442700Y-53234400D01*
X83709366Y-53234400D02*
X83676033Y-53267733D01*
X83709366Y-53301066D01*
X83742700Y-53267733D01*
X83709366Y-53234400D01*
X83709366Y-53301066D01*
X83442700Y-52601066D02*
X83009366Y-52601066D01*
X83242700Y-52867733D01*
X83142700Y-52867733D01*
X83076033Y-52901066D01*
X83042700Y-52934400D01*
X83009366Y-53001066D01*
X83009366Y-53167733D01*
X83042700Y-53234400D01*
X83076033Y-53267733D01*
X83142700Y-53301066D01*
X83342700Y-53301066D01*
X83409366Y-53267733D01*
X83442700Y-53234400D01*
X82776033Y-52834400D02*
X82609366Y-53301066D01*
X82442700Y-52834400D01*
D16*
X95500000Y-78357142D02*
X95500000Y-75357142D01*
X94928571Y-75357142D01*
X94785714Y-75500000D01*
X94714285Y-75642857D01*
X94642857Y-75928571D01*
X94642857Y-76357142D01*
X94714285Y-76642857D01*
X94785714Y-76785714D01*
X94928571Y-76928571D01*
X95500000Y-76928571D01*
X94000000Y-78357142D02*
X94000000Y-75357142D01*
X93357142Y-78357142D02*
X93357142Y-76785714D01*
X93428571Y-76500000D01*
X93571428Y-76357142D01*
X93785714Y-76357142D01*
X93928571Y-76500000D01*
X94000000Y-76642857D01*
X92428571Y-78357142D02*
X92571428Y-78214285D01*
X92642857Y-78071428D01*
X92714285Y-77785714D01*
X92714285Y-76928571D01*
X92642857Y-76642857D01*
X92571428Y-76500000D01*
X92428571Y-76357142D01*
X92214285Y-76357142D01*
X92071428Y-76500000D01*
X92000000Y-76642857D01*
X91928571Y-76928571D01*
X91928571Y-77785714D01*
X92000000Y-78071428D01*
X92071428Y-78214285D01*
X92214285Y-78357142D01*
X92428571Y-78357142D01*
X91428571Y-75357142D02*
X90428571Y-75357142D01*
X91428571Y-78357142D01*
X90428571Y-78357142D01*
X89142857Y-78357142D02*
X89857142Y-78357142D01*
X89857142Y-75357142D01*
X87571428Y-75642857D02*
X87500000Y-75500000D01*
X87357142Y-75357142D01*
X87000000Y-75357142D01*
X86857142Y-75500000D01*
X86785714Y-75642857D01*
X86714285Y-75928571D01*
X86714285Y-76214285D01*
X86785714Y-76642857D01*
X87642857Y-78357142D01*
X86714285Y-78357142D01*
X86071428Y-78071428D02*
X86000000Y-78214285D01*
X86071428Y-78357142D01*
X86142857Y-78214285D01*
X86071428Y-78071428D01*
X86071428Y-78357142D01*
X85071428Y-75357142D02*
X84928571Y-75357142D01*
X84785714Y-75500000D01*
X84714285Y-75642857D01*
X84642857Y-75928571D01*
X84571428Y-76500000D01*
X84571428Y-77214285D01*
X84642857Y-77785714D01*
X84714285Y-78071428D01*
X84785714Y-78214285D01*
X84928571Y-78357142D01*
X85071428Y-78357142D01*
X85214285Y-78214285D01*
X85285714Y-78071428D01*
X85357142Y-77785714D01*
X85428571Y-77214285D01*
X85428571Y-76500000D01*
X85357142Y-75928571D01*
X85285714Y-75642857D01*
X85214285Y-75500000D01*
X85071428Y-75357142D01*
X83928571Y-78071428D02*
X83857142Y-78214285D01*
X83928571Y-78357142D01*
X84000000Y-78214285D01*
X83928571Y-78071428D01*
X83928571Y-78357142D01*
X83285714Y-75642857D02*
X83214285Y-75500000D01*
X83071428Y-75357142D01*
X82714285Y-75357142D01*
X82571428Y-75500000D01*
X82500000Y-75642857D01*
X82428571Y-75928571D01*
X82428571Y-76214285D01*
X82500000Y-76642857D01*
X83357142Y-78357142D01*
X82428571Y-78357142D01*
D12*
X109729542Y-65697671D02*
X109777161Y-65654814D01*
X109824780Y-65526242D01*
X109824780Y-65440528D01*
X109777161Y-65311957D01*
X109681923Y-65226242D01*
X109586685Y-65183385D01*
X109396209Y-65140528D01*
X109253352Y-65140528D01*
X109062876Y-65183385D01*
X108967638Y-65226242D01*
X108872400Y-65311957D01*
X108824780Y-65440528D01*
X108824780Y-65526242D01*
X108872400Y-65654814D01*
X108920019Y-65697671D01*
X109300971Y-66083385D02*
X109300971Y-66383385D01*
X109824780Y-66511957D02*
X109824780Y-66083385D01*
X108824780Y-66083385D01*
X108824780Y-66511957D01*
X109824780Y-67411957D02*
X109348590Y-67111957D01*
X109824780Y-66897671D02*
X108824780Y-66897671D01*
X108824780Y-67240528D01*
X108872400Y-67326242D01*
X108920019Y-67369100D01*
X109015257Y-67411957D01*
X109158114Y-67411957D01*
X109253352Y-67369100D01*
X109300971Y-67326242D01*
X109348590Y-67240528D01*
X109348590Y-66897671D01*
X109824780Y-67797671D02*
X108824780Y-67797671D01*
X109824780Y-68311957D01*
X108824780Y-68311957D01*
X109443828Y-68740528D02*
X109443828Y-69426242D01*
X108824780Y-70026242D02*
X108824780Y-70197671D01*
X108872400Y-70283385D01*
X108967638Y-70369100D01*
X109158114Y-70411957D01*
X109491447Y-70411957D01*
X109681923Y-70369100D01*
X109777161Y-70283385D01*
X109824780Y-70197671D01*
X109824780Y-70026242D01*
X109777161Y-69940528D01*
X109681923Y-69854814D01*
X109491447Y-69811957D01*
X109158114Y-69811957D01*
X108967638Y-69854814D01*
X108872400Y-69940528D01*
X108824780Y-70026242D01*
X109824780Y-70797671D02*
X108824780Y-70797671D01*
X109300971Y-70797671D02*
X109300971Y-71311957D01*
X109824780Y-71311957D02*
X108824780Y-71311957D01*
X109824780Y-72169100D02*
X109824780Y-71740528D01*
X108824780Y-71740528D01*
X109443828Y-72469100D02*
X109443828Y-73154814D01*
X109777161Y-73540528D02*
X109824780Y-73669100D01*
X109824780Y-73883385D01*
X109777161Y-73969100D01*
X109729542Y-74011957D01*
X109634304Y-74054814D01*
X109539066Y-74054814D01*
X109443828Y-74011957D01*
X109396209Y-73969100D01*
X109348590Y-73883385D01*
X109300971Y-73711957D01*
X109253352Y-73626242D01*
X109205733Y-73583385D01*
X109110495Y-73540528D01*
X109015257Y-73540528D01*
X108920019Y-73583385D01*
X108872400Y-73626242D01*
X108824780Y-73711957D01*
X108824780Y-73926242D01*
X108872400Y-74054814D01*
X109158114Y-75040528D02*
X109824780Y-75254814D01*
X109158114Y-75469100D01*
X108920019Y-75769100D02*
X108872400Y-75811957D01*
X108824780Y-75897671D01*
X108824780Y-76111957D01*
X108872400Y-76197671D01*
X108920019Y-76240528D01*
X109015257Y-76283385D01*
X109110495Y-76283385D01*
X109253352Y-76240528D01*
X109824780Y-75726242D01*
X109824780Y-76283385D01*
X123854595Y-44966000D02*
X123949833Y-44918380D01*
X124092690Y-44918380D01*
X124235547Y-44966000D01*
X124330785Y-45061238D01*
X124378404Y-45156476D01*
X124426023Y-45346952D01*
X124426023Y-45489809D01*
X124378404Y-45680285D01*
X124330785Y-45775523D01*
X124235547Y-45870761D01*
X124092690Y-45918380D01*
X123997452Y-45918380D01*
X123854595Y-45870761D01*
X123806976Y-45823142D01*
X123806976Y-45489809D01*
X123997452Y-45489809D01*
X123378404Y-45918380D02*
X123378404Y-44918380D01*
X122997452Y-44918380D01*
X122902214Y-44966000D01*
X122854595Y-45013619D01*
X122806976Y-45108857D01*
X122806976Y-45251714D01*
X122854595Y-45346952D01*
X122902214Y-45394571D01*
X122997452Y-45442190D01*
X123378404Y-45442190D01*
X121854595Y-45918380D02*
X122426023Y-45918380D01*
X122140309Y-45918380D02*
X122140309Y-44918380D01*
X122235547Y-45061238D01*
X122330785Y-45156476D01*
X122426023Y-45204095D01*
X120997452Y-45251714D02*
X120997452Y-45918380D01*
X121235547Y-44870761D02*
X121473642Y-45585047D01*
X120854595Y-45585047D01*
X124048000Y-91410300D02*
X124081333Y-91476966D01*
X124081333Y-91576966D01*
X124048000Y-91676966D01*
X123981333Y-91743633D01*
X123914666Y-91776966D01*
X123781333Y-91810300D01*
X123681333Y-91810300D01*
X123548000Y-91776966D01*
X123481333Y-91743633D01*
X123414666Y-91676966D01*
X123381333Y-91576966D01*
X123381333Y-91510300D01*
X123414666Y-91410300D01*
X123448000Y-91376966D01*
X123681333Y-91376966D01*
X123681333Y-91510300D01*
X123381333Y-91076966D02*
X124081333Y-91076966D01*
X123381333Y-90676966D01*
X124081333Y-90676966D01*
X123381333Y-90343633D02*
X124081333Y-90343633D01*
X124081333Y-90176966D01*
X124048000Y-90076966D01*
X123981333Y-90010300D01*
X123914666Y-89976966D01*
X123781333Y-89943633D01*
X123681333Y-89943633D01*
X123548000Y-89976966D01*
X123481333Y-90010300D01*
X123414666Y-90076966D01*
X123381333Y-90176966D01*
X123381333Y-90343633D01*
X52776476Y-59227980D02*
X53252666Y-59227980D01*
X53252666Y-58227980D01*
X83942700Y-51364400D02*
X84009366Y-51331066D01*
X84109366Y-51331066D01*
X84209366Y-51364400D01*
X84276033Y-51431066D01*
X84309366Y-51497733D01*
X84342700Y-51631066D01*
X84342700Y-51731066D01*
X84309366Y-51864400D01*
X84276033Y-51931066D01*
X84209366Y-51997733D01*
X84109366Y-52031066D01*
X84042700Y-52031066D01*
X83942700Y-51997733D01*
X83909366Y-51964400D01*
X83909366Y-51731066D01*
X84042700Y-51731066D01*
X83609366Y-52031066D02*
X83609366Y-51331066D01*
X83209366Y-52031066D01*
X83209366Y-51331066D01*
X82876033Y-52031066D02*
X82876033Y-51331066D01*
X82709366Y-51331066D01*
X82609366Y-51364400D01*
X82542700Y-51431066D01*
X82509366Y-51497733D01*
X82476033Y-51631066D01*
X82476033Y-51731066D01*
X82509366Y-51864400D01*
X82542700Y-51931066D01*
X82609366Y-51997733D01*
X82709366Y-52031066D01*
X82876033Y-52031066D01*
X125402133Y-91910300D02*
X125402133Y-91476966D01*
X125135466Y-91710300D01*
X125135466Y-91610300D01*
X125102133Y-91543633D01*
X125068800Y-91510300D01*
X125002133Y-91476966D01*
X124835466Y-91476966D01*
X124768800Y-91510300D01*
X124735466Y-91543633D01*
X124702133Y-91610300D01*
X124702133Y-91810300D01*
X124735466Y-91876966D01*
X124768800Y-91910300D01*
X124768800Y-91176966D02*
X124735466Y-91143633D01*
X124702133Y-91176966D01*
X124735466Y-91210300D01*
X124768800Y-91176966D01*
X124702133Y-91176966D01*
X125402133Y-90910300D02*
X125402133Y-90476966D01*
X125135466Y-90710300D01*
X125135466Y-90610300D01*
X125102133Y-90543633D01*
X125068800Y-90510300D01*
X125002133Y-90476966D01*
X124835466Y-90476966D01*
X124768800Y-90510300D01*
X124735466Y-90543633D01*
X124702133Y-90610300D01*
X124702133Y-90810300D01*
X124735466Y-90876966D01*
X124768800Y-90910300D01*
X125168800Y-90243633D02*
X124702133Y-90076966D01*
X125168800Y-89910300D01*
X131957166Y-98303600D02*
X132023833Y-98270266D01*
X132123833Y-98270266D01*
X132223833Y-98303600D01*
X132290500Y-98370266D01*
X132323833Y-98436933D01*
X132357166Y-98570266D01*
X132357166Y-98670266D01*
X132323833Y-98803600D01*
X132290500Y-98870266D01*
X132223833Y-98936933D01*
X132123833Y-98970266D01*
X132057166Y-98970266D01*
X131957166Y-98936933D01*
X131923833Y-98903600D01*
X131923833Y-98670266D01*
X132057166Y-98670266D01*
X131623833Y-98970266D02*
X131623833Y-98270266D01*
X131223833Y-98970266D01*
X131223833Y-98270266D01*
X130890500Y-98970266D02*
X130890500Y-98270266D01*
X130723833Y-98270266D01*
X130623833Y-98303600D01*
X130557166Y-98370266D01*
X130523833Y-98436933D01*
X130490500Y-98570266D01*
X130490500Y-98670266D01*
X130523833Y-98803600D01*
X130557166Y-98870266D01*
X130623833Y-98936933D01*
X130723833Y-98970266D01*
X130890500Y-98970266D01*
X123854595Y-41000000D02*
X123949833Y-40952380D01*
X124092690Y-40952380D01*
X124235547Y-41000000D01*
X124330785Y-41095238D01*
X124378404Y-41190476D01*
X124426023Y-41380952D01*
X124426023Y-41523809D01*
X124378404Y-41714285D01*
X124330785Y-41809523D01*
X124235547Y-41904761D01*
X124092690Y-41952380D01*
X123997452Y-41952380D01*
X123854595Y-41904761D01*
X123806976Y-41857142D01*
X123806976Y-41523809D01*
X123997452Y-41523809D01*
X123378404Y-41952380D02*
X123378404Y-40952380D01*
X122806976Y-41952380D01*
X122806976Y-40952380D01*
X122330785Y-41952380D02*
X122330785Y-40952380D01*
X122092690Y-40952380D01*
X121949833Y-41000000D01*
X121854595Y-41095238D01*
X121806976Y-41190476D01*
X121759357Y-41380952D01*
X121759357Y-41523809D01*
X121806976Y-41714285D01*
X121854595Y-41809523D01*
X121949833Y-41904761D01*
X122092690Y-41952380D01*
X122330785Y-41952380D01*
X117173390Y-70103647D02*
X117297200Y-70103647D01*
X117359104Y-70134600D01*
X117390057Y-70165552D01*
X117451961Y-70258409D01*
X117482914Y-70382219D01*
X117482914Y-70629838D01*
X117451961Y-70691742D01*
X117421009Y-70722695D01*
X117359104Y-70753647D01*
X117235295Y-70753647D01*
X117173390Y-70722695D01*
X117142438Y-70691742D01*
X117111485Y-70629838D01*
X117111485Y-70475076D01*
X117142438Y-70413171D01*
X117173390Y-70382219D01*
X117235295Y-70351266D01*
X117359104Y-70351266D01*
X117421009Y-70382219D01*
X117451961Y-70413171D01*
X117482914Y-70475076D01*
X162734000Y-43937180D02*
X163210190Y-43937180D01*
X163210190Y-42937180D01*
X162400666Y-43937180D02*
X162400666Y-43270514D01*
X162400666Y-42937180D02*
X162448285Y-42984800D01*
X162400666Y-43032419D01*
X162353047Y-42984800D01*
X162400666Y-42937180D01*
X162400666Y-43032419D01*
X161495904Y-43889561D02*
X161591142Y-43937180D01*
X161781619Y-43937180D01*
X161876857Y-43889561D01*
X161924476Y-43841942D01*
X161972095Y-43746704D01*
X161972095Y-43460990D01*
X161924476Y-43365752D01*
X161876857Y-43318133D01*
X161781619Y-43270514D01*
X161591142Y-43270514D01*
X161495904Y-43318133D01*
X160686380Y-43889561D02*
X160781619Y-43937180D01*
X160972095Y-43937180D01*
X161067333Y-43889561D01*
X161114952Y-43794323D01*
X161114952Y-43413371D01*
X161067333Y-43318133D01*
X160972095Y-43270514D01*
X160781619Y-43270514D01*
X160686380Y-43318133D01*
X160638761Y-43413371D01*
X160638761Y-43508609D01*
X161114952Y-43603847D01*
X160210190Y-43270514D02*
X160210190Y-43937180D01*
X160210190Y-43365752D02*
X160162571Y-43318133D01*
X160067333Y-43270514D01*
X159924476Y-43270514D01*
X159829238Y-43318133D01*
X159781619Y-43413371D01*
X159781619Y-43937180D01*
X159353047Y-43889561D02*
X159257809Y-43937180D01*
X159067333Y-43937180D01*
X158972095Y-43889561D01*
X158924476Y-43794323D01*
X158924476Y-43746704D01*
X158972095Y-43651466D01*
X159067333Y-43603847D01*
X159210190Y-43603847D01*
X159305428Y-43556228D01*
X159353047Y-43460990D01*
X159353047Y-43413371D01*
X159305428Y-43318133D01*
X159210190Y-43270514D01*
X159067333Y-43270514D01*
X158972095Y-43318133D01*
X158114952Y-43889561D02*
X158210190Y-43937180D01*
X158400666Y-43937180D01*
X158495904Y-43889561D01*
X158543523Y-43794323D01*
X158543523Y-43413371D01*
X158495904Y-43318133D01*
X158400666Y-43270514D01*
X158210190Y-43270514D01*
X158114952Y-43318133D01*
X158067333Y-43413371D01*
X158067333Y-43508609D01*
X158543523Y-43603847D01*
X157210190Y-43937180D02*
X157210190Y-42937180D01*
X157210190Y-43889561D02*
X157305428Y-43937180D01*
X157495904Y-43937180D01*
X157591142Y-43889561D01*
X157638761Y-43841942D01*
X157686380Y-43746704D01*
X157686380Y-43460990D01*
X157638761Y-43365752D01*
X157591142Y-43318133D01*
X157495904Y-43270514D01*
X157305428Y-43270514D01*
X157210190Y-43318133D01*
X155543523Y-43270514D02*
X155543523Y-43937180D01*
X155972095Y-43270514D02*
X155972095Y-43794323D01*
X155924476Y-43889561D01*
X155829238Y-43937180D01*
X155686380Y-43937180D01*
X155591142Y-43889561D01*
X155543523Y-43841942D01*
X155067333Y-43270514D02*
X155067333Y-43937180D01*
X155067333Y-43365752D02*
X155019714Y-43318133D01*
X154924476Y-43270514D01*
X154781619Y-43270514D01*
X154686380Y-43318133D01*
X154638761Y-43413371D01*
X154638761Y-43937180D01*
X153734000Y-43937180D02*
X153734000Y-42937180D01*
X153734000Y-43889561D02*
X153829238Y-43937180D01*
X154019714Y-43937180D01*
X154114952Y-43889561D01*
X154162571Y-43841942D01*
X154210190Y-43746704D01*
X154210190Y-43460990D01*
X154162571Y-43365752D01*
X154114952Y-43318133D01*
X154019714Y-43270514D01*
X153829238Y-43270514D01*
X153734000Y-43318133D01*
X152876857Y-43889561D02*
X152972095Y-43937180D01*
X153162571Y-43937180D01*
X153257809Y-43889561D01*
X153305428Y-43794323D01*
X153305428Y-43413371D01*
X153257809Y-43318133D01*
X153162571Y-43270514D01*
X152972095Y-43270514D01*
X152876857Y-43318133D01*
X152829238Y-43413371D01*
X152829238Y-43508609D01*
X153305428Y-43603847D01*
X152400666Y-43937180D02*
X152400666Y-43270514D01*
X152400666Y-43460990D02*
X152353047Y-43365752D01*
X152305428Y-43318133D01*
X152210190Y-43270514D01*
X152114952Y-43270514D01*
X69539600Y-65095900D02*
X69572933Y-65162566D01*
X69572933Y-65262566D01*
X69539600Y-65362566D01*
X69472933Y-65429233D01*
X69406266Y-65462566D01*
X69272933Y-65495900D01*
X69172933Y-65495900D01*
X69039600Y-65462566D01*
X68972933Y-65429233D01*
X68906266Y-65362566D01*
X68872933Y-65262566D01*
X68872933Y-65195900D01*
X68906266Y-65095900D01*
X68939600Y-65062566D01*
X69172933Y-65062566D01*
X69172933Y-65195900D01*
X68872933Y-64762566D02*
X69572933Y-64762566D01*
X68872933Y-64362566D01*
X69572933Y-64362566D01*
X68872933Y-64029233D02*
X69572933Y-64029233D01*
X69572933Y-63862566D01*
X69539600Y-63762566D01*
X69472933Y-63695900D01*
X69406266Y-63662566D01*
X69272933Y-63629233D01*
X69172933Y-63629233D01*
X69039600Y-63662566D01*
X68972933Y-63695900D01*
X68906266Y-63762566D01*
X68872933Y-63862566D01*
X68872933Y-64029233D01*
X70842933Y-64062566D02*
X70142933Y-63595900D01*
X70842933Y-63595900D02*
X70142933Y-64062566D01*
X172788285Y-78830847D02*
X173159714Y-78830847D01*
X172974000Y-78830847D02*
X172974000Y-78180847D01*
X173035904Y-78273704D01*
X173097809Y-78335609D01*
X173159714Y-78366561D01*
D15*
X108390885Y-65472314D02*
X108390885Y-65115171D01*
X107640885Y-65115171D01*
X108390885Y-65722314D02*
X107890885Y-65722314D01*
X107640885Y-65722314D02*
X107676600Y-65686600D01*
X107712314Y-65722314D01*
X107676600Y-65758028D01*
X107640885Y-65722314D01*
X107712314Y-65722314D01*
X108355171Y-66400885D02*
X108390885Y-66329457D01*
X108390885Y-66186600D01*
X108355171Y-66115171D01*
X108319457Y-66079457D01*
X108248028Y-66043742D01*
X108033742Y-66043742D01*
X107962314Y-66079457D01*
X107926600Y-66115171D01*
X107890885Y-66186600D01*
X107890885Y-66329457D01*
X107926600Y-66400885D01*
X108355171Y-67008028D02*
X108390885Y-66936600D01*
X108390885Y-66793742D01*
X108355171Y-66722314D01*
X108283742Y-66686600D01*
X107998028Y-66686600D01*
X107926600Y-66722314D01*
X107890885Y-66793742D01*
X107890885Y-66936600D01*
X107926600Y-67008028D01*
X107998028Y-67043742D01*
X108069457Y-67043742D01*
X108140885Y-66686600D01*
X107890885Y-67365171D02*
X108390885Y-67365171D01*
X107962314Y-67365171D02*
X107926600Y-67400885D01*
X107890885Y-67472314D01*
X107890885Y-67579457D01*
X107926600Y-67650885D01*
X107998028Y-67686600D01*
X108390885Y-67686600D01*
X108355171Y-68008028D02*
X108390885Y-68079457D01*
X108390885Y-68222314D01*
X108355171Y-68293742D01*
X108283742Y-68329457D01*
X108248028Y-68329457D01*
X108176600Y-68293742D01*
X108140885Y-68222314D01*
X108140885Y-68115171D01*
X108105171Y-68043742D01*
X108033742Y-68008028D01*
X107998028Y-68008028D01*
X107926600Y-68043742D01*
X107890885Y-68115171D01*
X107890885Y-68222314D01*
X107926600Y-68293742D01*
X108355171Y-68936600D02*
X108390885Y-68865171D01*
X108390885Y-68722314D01*
X108355171Y-68650885D01*
X108283742Y-68615171D01*
X107998028Y-68615171D01*
X107926600Y-68650885D01*
X107890885Y-68722314D01*
X107890885Y-68865171D01*
X107926600Y-68936600D01*
X107998028Y-68972314D01*
X108069457Y-68972314D01*
X108140885Y-68615171D01*
X108390885Y-69615171D02*
X107640885Y-69615171D01*
X108355171Y-69615171D02*
X108390885Y-69543742D01*
X108390885Y-69400885D01*
X108355171Y-69329457D01*
X108319457Y-69293742D01*
X108248028Y-69258028D01*
X108033742Y-69258028D01*
X107962314Y-69293742D01*
X107926600Y-69329457D01*
X107890885Y-69400885D01*
X107890885Y-69543742D01*
X107926600Y-69615171D01*
X107890885Y-70865171D02*
X108390885Y-70865171D01*
X107890885Y-70543742D02*
X108283742Y-70543742D01*
X108355171Y-70579457D01*
X108390885Y-70650885D01*
X108390885Y-70758028D01*
X108355171Y-70829457D01*
X108319457Y-70865171D01*
X107890885Y-71222314D02*
X108390885Y-71222314D01*
X107962314Y-71222314D02*
X107926600Y-71258028D01*
X107890885Y-71329457D01*
X107890885Y-71436600D01*
X107926600Y-71508028D01*
X107998028Y-71543742D01*
X108390885Y-71543742D01*
X108390885Y-72222314D02*
X107640885Y-72222314D01*
X108355171Y-72222314D02*
X108390885Y-72150885D01*
X108390885Y-72008028D01*
X108355171Y-71936600D01*
X108319457Y-71900885D01*
X108248028Y-71865171D01*
X108033742Y-71865171D01*
X107962314Y-71900885D01*
X107926600Y-71936600D01*
X107890885Y-72008028D01*
X107890885Y-72150885D01*
X107926600Y-72222314D01*
X108355171Y-72865171D02*
X108390885Y-72793742D01*
X108390885Y-72650885D01*
X108355171Y-72579457D01*
X108283742Y-72543742D01*
X107998028Y-72543742D01*
X107926600Y-72579457D01*
X107890885Y-72650885D01*
X107890885Y-72793742D01*
X107926600Y-72865171D01*
X107998028Y-72900885D01*
X108069457Y-72900885D01*
X108140885Y-72543742D01*
X108390885Y-73222314D02*
X107890885Y-73222314D01*
X108033742Y-73222314D02*
X107962314Y-73258028D01*
X107926600Y-73293742D01*
X107890885Y-73365171D01*
X107890885Y-73436600D01*
D12*
X96621523Y-27743200D02*
X96697714Y-27705104D01*
X96812000Y-27705104D01*
X96926285Y-27743200D01*
X97002476Y-27819390D01*
X97040571Y-27895580D01*
X97078666Y-28047961D01*
X97078666Y-28162247D01*
X97040571Y-28314628D01*
X97002476Y-28390819D01*
X96926285Y-28467009D01*
X96812000Y-28505104D01*
X96735809Y-28505104D01*
X96621523Y-28467009D01*
X96583428Y-28428914D01*
X96583428Y-28162247D01*
X96735809Y-28162247D01*
X96240571Y-28505104D02*
X96240571Y-27705104D01*
X95783428Y-28505104D01*
X95783428Y-27705104D01*
X95402476Y-28505104D02*
X95402476Y-27705104D01*
X95212000Y-27705104D01*
X95097714Y-27743200D01*
X95021523Y-27819390D01*
X94983428Y-27895580D01*
X94945333Y-28047961D01*
X94945333Y-28162247D01*
X94983428Y-28314628D01*
X95021523Y-28390819D01*
X95097714Y-28467009D01*
X95212000Y-28505104D01*
X95402476Y-28505104D01*
X117111485Y-60746047D02*
X117482914Y-60746047D01*
X117297200Y-60746047D02*
X117297200Y-60096047D01*
X117359104Y-60188904D01*
X117421009Y-60250809D01*
X117482914Y-60281761D01*
X101568304Y-28100928D02*
X101568304Y-27719976D01*
X101949257Y-27681880D01*
X101911161Y-27719976D01*
X101873066Y-27796166D01*
X101873066Y-27986642D01*
X101911161Y-28062833D01*
X101949257Y-28100928D01*
X102025447Y-28139023D01*
X102215923Y-28139023D01*
X102292114Y-28100928D01*
X102330209Y-28062833D01*
X102368304Y-27986642D01*
X102368304Y-27796166D01*
X102330209Y-27719976D01*
X102292114Y-27681880D01*
X101834971Y-28405690D02*
X102368304Y-28596166D01*
X101834971Y-28786642D01*
X132390500Y-99489466D02*
X131957166Y-99489466D01*
X132190500Y-99756133D01*
X132090500Y-99756133D01*
X132023833Y-99789466D01*
X131990500Y-99822800D01*
X131957166Y-99889466D01*
X131957166Y-100056133D01*
X131990500Y-100122800D01*
X132023833Y-100156133D01*
X132090500Y-100189466D01*
X132290500Y-100189466D01*
X132357166Y-100156133D01*
X132390500Y-100122800D01*
X131657166Y-100122800D02*
X131623833Y-100156133D01*
X131657166Y-100189466D01*
X131690500Y-100156133D01*
X131657166Y-100122800D01*
X131657166Y-100189466D01*
X131390500Y-99489466D02*
X130957166Y-99489466D01*
X131190500Y-99756133D01*
X131090500Y-99756133D01*
X131023833Y-99789466D01*
X130990500Y-99822800D01*
X130957166Y-99889466D01*
X130957166Y-100056133D01*
X130990500Y-100122800D01*
X131023833Y-100156133D01*
X131090500Y-100189466D01*
X131290500Y-100189466D01*
X131357166Y-100156133D01*
X131390500Y-100122800D01*
X130723833Y-99722800D02*
X130557166Y-100189466D01*
X130390500Y-99722800D01*
D17*
X166091142Y-45849314D02*
X166162571Y-45920742D01*
X166376857Y-45992171D01*
X166519714Y-45992171D01*
X166734000Y-45920742D01*
X166876857Y-45777885D01*
X166948285Y-45635028D01*
X167019714Y-45349314D01*
X167019714Y-45135028D01*
X166948285Y-44849314D01*
X166876857Y-44706457D01*
X166734000Y-44563600D01*
X166519714Y-44492171D01*
X166376857Y-44492171D01*
X166162571Y-44563600D01*
X166091142Y-44635028D01*
X165448285Y-45206457D02*
X164948285Y-45206457D01*
X164734000Y-45992171D02*
X165448285Y-45992171D01*
X165448285Y-44492171D01*
X164734000Y-44492171D01*
X163234000Y-45992171D02*
X163734000Y-45277885D01*
X164091142Y-45992171D02*
X164091142Y-44492171D01*
X163519714Y-44492171D01*
X163376857Y-44563600D01*
X163305428Y-44635028D01*
X163234000Y-44777885D01*
X163234000Y-44992171D01*
X163305428Y-45135028D01*
X163376857Y-45206457D01*
X163519714Y-45277885D01*
X164091142Y-45277885D01*
X162591142Y-45992171D02*
X162591142Y-44492171D01*
X161734000Y-45992171D01*
X161734000Y-44492171D01*
X161019714Y-45420742D02*
X159876857Y-45420742D01*
X158876857Y-44492171D02*
X158591142Y-44492171D01*
X158448285Y-44563600D01*
X158305428Y-44706457D01*
X158234000Y-44992171D01*
X158234000Y-45492171D01*
X158305428Y-45777885D01*
X158448285Y-45920742D01*
X158591142Y-45992171D01*
X158876857Y-45992171D01*
X159019714Y-45920742D01*
X159162571Y-45777885D01*
X159234000Y-45492171D01*
X159234000Y-44992171D01*
X159162571Y-44706457D01*
X159019714Y-44563600D01*
X158876857Y-44492171D01*
X157591142Y-45992171D02*
X157591142Y-44492171D01*
X157591142Y-45206457D02*
X156734000Y-45206457D01*
X156734000Y-45992171D02*
X156734000Y-44492171D01*
X155305428Y-45992171D02*
X156019714Y-45992171D01*
X156019714Y-44492171D01*
X154805428Y-45420742D02*
X153662571Y-45420742D01*
X153019714Y-45920742D02*
X152805428Y-45992171D01*
X152448285Y-45992171D01*
X152305428Y-45920742D01*
X152234000Y-45849314D01*
X152162571Y-45706457D01*
X152162571Y-45563600D01*
X152234000Y-45420742D01*
X152305428Y-45349314D01*
X152448285Y-45277885D01*
X152734000Y-45206457D01*
X152876857Y-45135028D01*
X152948285Y-45063600D01*
X153019714Y-44920742D01*
X153019714Y-44777885D01*
X152948285Y-44635028D01*
X152876857Y-44563600D01*
X152734000Y-44492171D01*
X152376857Y-44492171D01*
X152162571Y-44563600D01*
X150519714Y-44992171D02*
X150162571Y-45992171D01*
X149805428Y-44992171D01*
X149305428Y-44635028D02*
X149234000Y-44563600D01*
X149091142Y-44492171D01*
X148734000Y-44492171D01*
X148591142Y-44563600D01*
X148519714Y-44635028D01*
X148448285Y-44777885D01*
X148448285Y-44920742D01*
X148519714Y-45135028D01*
X149376857Y-45992171D01*
X148448285Y-45992171D01*
D12*
X82642700Y-50427733D02*
X82642700Y-50761066D01*
X82876033Y-50061066D02*
X82642700Y-50427733D01*
X82409366Y-50061066D01*
X162091142Y-48461561D02*
X161948285Y-48509180D01*
X161710190Y-48509180D01*
X161614952Y-48461561D01*
X161567333Y-48413942D01*
X161519714Y-48318704D01*
X161519714Y-48223466D01*
X161567333Y-48128228D01*
X161614952Y-48080609D01*
X161710190Y-48032990D01*
X161900666Y-47985371D01*
X161995904Y-47937752D01*
X162043523Y-47890133D01*
X162091142Y-47794895D01*
X162091142Y-47699657D01*
X162043523Y-47604419D01*
X161995904Y-47556800D01*
X161900666Y-47509180D01*
X161662571Y-47509180D01*
X161519714Y-47556800D01*
X160948285Y-48509180D02*
X161043523Y-48461561D01*
X161091142Y-48413942D01*
X161138761Y-48318704D01*
X161138761Y-48032990D01*
X161091142Y-47937752D01*
X161043523Y-47890133D01*
X160948285Y-47842514D01*
X160805428Y-47842514D01*
X160710190Y-47890133D01*
X160662571Y-47937752D01*
X160614952Y-48032990D01*
X160614952Y-48318704D01*
X160662571Y-48413942D01*
X160710190Y-48461561D01*
X160805428Y-48509180D01*
X160948285Y-48509180D01*
X159757809Y-47842514D02*
X159757809Y-48509180D01*
X160186380Y-47842514D02*
X160186380Y-48366323D01*
X160138761Y-48461561D01*
X160043523Y-48509180D01*
X159900666Y-48509180D01*
X159805428Y-48461561D01*
X159757809Y-48413942D01*
X159281619Y-48509180D02*
X159281619Y-47842514D01*
X159281619Y-48032990D02*
X159234000Y-47937752D01*
X159186380Y-47890133D01*
X159091142Y-47842514D01*
X158995904Y-47842514D01*
X158234000Y-48461561D02*
X158329238Y-48509180D01*
X158519714Y-48509180D01*
X158614952Y-48461561D01*
X158662571Y-48413942D01*
X158710190Y-48318704D01*
X158710190Y-48032990D01*
X158662571Y-47937752D01*
X158614952Y-47890133D01*
X158519714Y-47842514D01*
X158329238Y-47842514D01*
X158234000Y-47890133D01*
X157424476Y-48461561D02*
X157519714Y-48509180D01*
X157710190Y-48509180D01*
X157805428Y-48461561D01*
X157853047Y-48366323D01*
X157853047Y-47985371D01*
X157805428Y-47890133D01*
X157710190Y-47842514D01*
X157519714Y-47842514D01*
X157424476Y-47890133D01*
X157376857Y-47985371D01*
X157376857Y-48080609D01*
X157853047Y-48175847D01*
X156329238Y-47842514D02*
X155948285Y-47842514D01*
X156186380Y-48509180D02*
X156186380Y-47652038D01*
X156138761Y-47556800D01*
X156043523Y-47509180D01*
X155948285Y-47509180D01*
X155614952Y-48509180D02*
X155614952Y-47842514D01*
X155614952Y-47509180D02*
X155662571Y-47556800D01*
X155614952Y-47604419D01*
X155567333Y-47556800D01*
X155614952Y-47509180D01*
X155614952Y-47604419D01*
X154995904Y-48509180D02*
X155091142Y-48461561D01*
X155138761Y-48366323D01*
X155138761Y-47509180D01*
X154234000Y-48461561D02*
X154329238Y-48509180D01*
X154519714Y-48509180D01*
X154614952Y-48461561D01*
X154662571Y-48366323D01*
X154662571Y-47985371D01*
X154614952Y-47890133D01*
X154519714Y-47842514D01*
X154329238Y-47842514D01*
X154234000Y-47890133D01*
X154186380Y-47985371D01*
X154186380Y-48080609D01*
X154662571Y-48175847D01*
X153805428Y-48461561D02*
X153710190Y-48509180D01*
X153519714Y-48509180D01*
X153424476Y-48461561D01*
X153376857Y-48366323D01*
X153376857Y-48318704D01*
X153424476Y-48223466D01*
X153519714Y-48175847D01*
X153662571Y-48175847D01*
X153757809Y-48128228D01*
X153805428Y-48032990D01*
X153805428Y-47985371D01*
X153757809Y-47890133D01*
X153662571Y-47842514D01*
X153519714Y-47842514D01*
X153424476Y-47890133D01*
X122495466Y-90110300D02*
X122162133Y-90110300D01*
X122862133Y-90343633D02*
X122495466Y-90110300D01*
X122862133Y-89876966D01*
X168836933Y-65136780D02*
X168170266Y-65136780D01*
X168836933Y-66136780D01*
X168170266Y-66136780D01*
X129430400Y-50148666D02*
X129478019Y-50243904D01*
X129478019Y-50386761D01*
X129430400Y-50529619D01*
X129335161Y-50624857D01*
X129239923Y-50672476D01*
X129049447Y-50720095D01*
X128906590Y-50720095D01*
X128716114Y-50672476D01*
X128620876Y-50624857D01*
X128525638Y-50529619D01*
X128478019Y-50386761D01*
X128478019Y-50291523D01*
X128525638Y-50148666D01*
X128573257Y-50101047D01*
X128906590Y-50101047D01*
X128906590Y-50291523D01*
X128478019Y-49672476D02*
X129478019Y-49672476D01*
X129478019Y-49291523D01*
X129430400Y-49196285D01*
X129382780Y-49148666D01*
X129287542Y-49101047D01*
X129144685Y-49101047D01*
X129049447Y-49148666D01*
X129001828Y-49196285D01*
X128954209Y-49291523D01*
X128954209Y-49672476D01*
X128478019Y-48672476D02*
X129478019Y-48672476D01*
X129478019Y-48005809D02*
X129478019Y-47815333D01*
X129430400Y-47720095D01*
X129335161Y-47624857D01*
X129144685Y-47577238D01*
X128811352Y-47577238D01*
X128620876Y-47624857D01*
X128525638Y-47720095D01*
X128478019Y-47815333D01*
X128478019Y-48005809D01*
X128525638Y-48101047D01*
X128620876Y-48196285D01*
X128811352Y-48243904D01*
X129144685Y-48243904D01*
X129335161Y-48196285D01*
X129430400Y-48101047D01*
X129478019Y-48005809D01*
X129001828Y-46053428D02*
X128954209Y-45910571D01*
X128906590Y-45862952D01*
X128811352Y-45815333D01*
X128668495Y-45815333D01*
X128573257Y-45862952D01*
X128525638Y-45910571D01*
X128478019Y-46005809D01*
X128478019Y-46386761D01*
X129478019Y-46386761D01*
X129478019Y-46053428D01*
X129430400Y-45958190D01*
X129382780Y-45910571D01*
X129287542Y-45862952D01*
X129192304Y-45862952D01*
X129097066Y-45910571D01*
X129049447Y-45958190D01*
X129001828Y-46053428D01*
X129001828Y-46386761D01*
X128478019Y-45386761D02*
X129144685Y-45386761D01*
X128954209Y-45386761D02*
X129049447Y-45339142D01*
X129097066Y-45291523D01*
X129144685Y-45196285D01*
X129144685Y-45101047D01*
X128525638Y-44386761D02*
X128478019Y-44482000D01*
X128478019Y-44672476D01*
X128525638Y-44767714D01*
X128620876Y-44815333D01*
X129001828Y-44815333D01*
X129097066Y-44767714D01*
X129144685Y-44672476D01*
X129144685Y-44482000D01*
X129097066Y-44386761D01*
X129001828Y-44339142D01*
X128906590Y-44339142D01*
X128811352Y-44815333D01*
X128478019Y-43482000D02*
X129001828Y-43482000D01*
X129097066Y-43529619D01*
X129144685Y-43624857D01*
X129144685Y-43815333D01*
X129097066Y-43910571D01*
X128525638Y-43482000D02*
X128478019Y-43577238D01*
X128478019Y-43815333D01*
X128525638Y-43910571D01*
X128620876Y-43958190D01*
X128716114Y-43958190D01*
X128811352Y-43910571D01*
X128858971Y-43815333D01*
X128858971Y-43577238D01*
X128906590Y-43482000D01*
X128478019Y-43005809D02*
X129478019Y-43005809D01*
X128858971Y-42910571D02*
X128478019Y-42624857D01*
X129144685Y-42624857D02*
X128763733Y-43005809D01*
X128478019Y-42053428D02*
X128525638Y-42148666D01*
X128573257Y-42196285D01*
X128668495Y-42243904D01*
X128954209Y-42243904D01*
X129049447Y-42196285D01*
X129097066Y-42148666D01*
X129144685Y-42053428D01*
X129144685Y-41910571D01*
X129097066Y-41815333D01*
X129049447Y-41767714D01*
X128954209Y-41720095D01*
X128668495Y-41720095D01*
X128573257Y-41767714D01*
X128525638Y-41815333D01*
X128478019Y-41910571D01*
X128478019Y-42053428D01*
X129144685Y-40862952D02*
X128478019Y-40862952D01*
X129144685Y-41291523D02*
X128620876Y-41291523D01*
X128525638Y-41243904D01*
X128478019Y-41148666D01*
X128478019Y-41005809D01*
X128525638Y-40910571D01*
X128573257Y-40862952D01*
X129144685Y-40529619D02*
X129144685Y-40148666D01*
X129478019Y-40386761D02*
X128620876Y-40386761D01*
X128525638Y-40339142D01*
X128478019Y-40243904D01*
X128478019Y-40148666D01*
X123854595Y-42984800D02*
X123949833Y-42937180D01*
X124092690Y-42937180D01*
X124235547Y-42984800D01*
X124330785Y-43080038D01*
X124378404Y-43175276D01*
X124426023Y-43365752D01*
X124426023Y-43508609D01*
X124378404Y-43699085D01*
X124330785Y-43794323D01*
X124235547Y-43889561D01*
X124092690Y-43937180D01*
X123997452Y-43937180D01*
X123854595Y-43889561D01*
X123806976Y-43841942D01*
X123806976Y-43508609D01*
X123997452Y-43508609D01*
X123378404Y-43937180D02*
X123378404Y-42937180D01*
X122997452Y-42937180D01*
X122902214Y-42984800D01*
X122854595Y-43032419D01*
X122806976Y-43127657D01*
X122806976Y-43270514D01*
X122854595Y-43365752D01*
X122902214Y-43413371D01*
X122997452Y-43460990D01*
X123378404Y-43460990D01*
X121854595Y-43937180D02*
X122426023Y-43937180D01*
X122140309Y-43937180D02*
X122140309Y-42937180D01*
X122235547Y-43080038D01*
X122330785Y-43175276D01*
X122426023Y-43222895D01*
X120949833Y-42937180D02*
X121426023Y-42937180D01*
X121473642Y-43413371D01*
X121426023Y-43365752D01*
X121330785Y-43318133D01*
X121092690Y-43318133D01*
X120997452Y-43365752D01*
X120949833Y-43413371D01*
X120902214Y-43508609D01*
X120902214Y-43746704D01*
X120949833Y-43841942D01*
X120997452Y-43889561D01*
X121092690Y-43937180D01*
X121330785Y-43937180D01*
X121426023Y-43889561D01*
X121473642Y-43841942D01*
X123854595Y-46998000D02*
X123949833Y-46950380D01*
X124092690Y-46950380D01*
X124235547Y-46998000D01*
X124330785Y-47093238D01*
X124378404Y-47188476D01*
X124426023Y-47378952D01*
X124426023Y-47521809D01*
X124378404Y-47712285D01*
X124330785Y-47807523D01*
X124235547Y-47902761D01*
X124092690Y-47950380D01*
X123997452Y-47950380D01*
X123854595Y-47902761D01*
X123806976Y-47855142D01*
X123806976Y-47521809D01*
X123997452Y-47521809D01*
X123378404Y-47950380D02*
X123378404Y-46950380D01*
X122997452Y-46950380D01*
X122902214Y-46998000D01*
X122854595Y-47045619D01*
X122806976Y-47140857D01*
X122806976Y-47283714D01*
X122854595Y-47378952D01*
X122902214Y-47426571D01*
X122997452Y-47474190D01*
X123378404Y-47474190D01*
X121854595Y-47950380D02*
X122426023Y-47950380D01*
X122140309Y-47950380D02*
X122140309Y-46950380D01*
X122235547Y-47093238D01*
X122330785Y-47188476D01*
X122426023Y-47236095D01*
X121521261Y-46950380D02*
X120902214Y-46950380D01*
X121235547Y-47331333D01*
X121092690Y-47331333D01*
X120997452Y-47378952D01*
X120949833Y-47426571D01*
X120902214Y-47521809D01*
X120902214Y-47759904D01*
X120949833Y-47855142D01*
X120997452Y-47902761D01*
X121092690Y-47950380D01*
X121378404Y-47950380D01*
X121473642Y-47902761D01*
X121521261Y-47855142D01*
X107110933Y-23768057D02*
X106996647Y-23806152D01*
X106958552Y-23844247D01*
X106920457Y-23920438D01*
X106920457Y-24034723D01*
X106958552Y-24110914D01*
X106996647Y-24149009D01*
X107072838Y-24187104D01*
X107377600Y-24187104D01*
X107377600Y-23387104D01*
X107110933Y-23387104D01*
X107034742Y-23425200D01*
X106996647Y-23463295D01*
X106958552Y-23539485D01*
X106958552Y-23615676D01*
X106996647Y-23691866D01*
X107034742Y-23729961D01*
X107110933Y-23768057D01*
X107377600Y-23768057D01*
X106196647Y-24187104D02*
X106577600Y-24187104D01*
X106577600Y-23387104D01*
X105929980Y-23387104D02*
X105929980Y-24034723D01*
X105891885Y-24110914D01*
X105853790Y-24149009D01*
X105777600Y-24187104D01*
X105625219Y-24187104D01*
X105549028Y-24149009D01*
X105510933Y-24110914D01*
X105472838Y-24034723D01*
X105472838Y-23387104D01*
X105091885Y-23768057D02*
X104825219Y-23768057D01*
X104710933Y-24187104D02*
X105091885Y-24187104D01*
X105091885Y-23387104D01*
X104710933Y-23387104D01*
X103834742Y-23387104D02*
X103644266Y-24187104D01*
X103491885Y-23615676D01*
X103339504Y-24187104D01*
X103149028Y-23387104D01*
X102844266Y-24187104D02*
X102844266Y-23387104D01*
X102006171Y-24187104D02*
X102272838Y-23806152D01*
X102463314Y-24187104D02*
X102463314Y-23387104D01*
X102158552Y-23387104D01*
X102082361Y-23425200D01*
X102044266Y-23463295D01*
X102006171Y-23539485D01*
X102006171Y-23653771D01*
X102044266Y-23729961D01*
X102082361Y-23768057D01*
X102158552Y-23806152D01*
X102463314Y-23806152D01*
X101663314Y-23768057D02*
X101396647Y-23768057D01*
X101282361Y-24187104D02*
X101663314Y-24187104D01*
X101663314Y-23387104D01*
X101282361Y-23387104D01*
X100177600Y-23387104D02*
X100025219Y-23387104D01*
X99949028Y-23425200D01*
X99872838Y-23501390D01*
X99834742Y-23653771D01*
X99834742Y-23920438D01*
X99872838Y-24072819D01*
X99949028Y-24149009D01*
X100025219Y-24187104D01*
X100177600Y-24187104D01*
X100253790Y-24149009D01*
X100329980Y-24072819D01*
X100368076Y-23920438D01*
X100368076Y-23653771D01*
X100329980Y-23501390D01*
X100253790Y-23425200D01*
X100177600Y-23387104D01*
X99491885Y-24187104D02*
X99491885Y-23387104D01*
X99034742Y-24187104D01*
X99034742Y-23387104D01*
X98158552Y-23387104D02*
X97701409Y-23387104D01*
X97929980Y-24187104D02*
X97929980Y-23387104D01*
X97434742Y-24187104D02*
X97434742Y-23387104D01*
X97434742Y-23768057D02*
X96977600Y-23768057D01*
X96977600Y-24187104D02*
X96977600Y-23387104D01*
X96596647Y-23768057D02*
X96329980Y-23768057D01*
X96215695Y-24187104D02*
X96596647Y-24187104D01*
X96596647Y-23387104D01*
X96215695Y-23387104D01*
X94882361Y-24187104D02*
X95263314Y-24187104D01*
X95263314Y-23387104D01*
X94615695Y-23768057D02*
X94349028Y-23768057D01*
X94234742Y-24187104D02*
X94615695Y-24187104D01*
X94615695Y-23387104D01*
X94234742Y-23387104D01*
X93625219Y-23768057D02*
X93891885Y-23768057D01*
X93891885Y-24187104D02*
X93891885Y-23387104D01*
X93510933Y-23387104D01*
X93320457Y-23387104D02*
X92863314Y-23387104D01*
X93091885Y-24187104D02*
X93091885Y-23387104D01*
X171224533Y-68235580D02*
X171224533Y-68949866D01*
X171272152Y-69092723D01*
X171367390Y-69187961D01*
X171510247Y-69235580D01*
X171605485Y-69235580D01*
X170843580Y-68235580D02*
X170224533Y-68235580D01*
X170557866Y-68616533D01*
X170415009Y-68616533D01*
X170319771Y-68664152D01*
X170272152Y-68711771D01*
X170224533Y-68807009D01*
X170224533Y-69045104D01*
X170272152Y-69140342D01*
X170319771Y-69187961D01*
X170415009Y-69235580D01*
X170700723Y-69235580D01*
X170795961Y-69187961D01*
X170843580Y-69140342D01*
X126833333Y-50952380D02*
X126833333Y-51666666D01*
X126880952Y-51809523D01*
X126976190Y-51904761D01*
X127119047Y-51952380D01*
X127214285Y-51952380D01*
X125928571Y-50952380D02*
X126119047Y-50952380D01*
X126214285Y-51000000D01*
X126261904Y-51047619D01*
X126357142Y-51190476D01*
X126404761Y-51380952D01*
X126404761Y-51761904D01*
X126357142Y-51857142D01*
X126309523Y-51904761D01*
X126214285Y-51952380D01*
X126023809Y-51952380D01*
X125928571Y-51904761D01*
X125880952Y-51857142D01*
X125833333Y-51761904D01*
X125833333Y-51523809D01*
X125880952Y-51428571D01*
X125928571Y-51380952D01*
X126023809Y-51333333D01*
X126214285Y-51333333D01*
X126309523Y-51380952D01*
X126357142Y-51428571D01*
X126404761Y-51523809D01*
X116246323Y-72006380D02*
X116246323Y-72720666D01*
X116293942Y-72863523D01*
X116389180Y-72958761D01*
X116532038Y-73006380D01*
X116627276Y-73006380D01*
X115246323Y-73006380D02*
X115817752Y-73006380D01*
X115532038Y-73006380D02*
X115532038Y-72006380D01*
X115627276Y-72149238D01*
X115722514Y-72244476D01*
X115817752Y-72292095D01*
X114341561Y-72006380D02*
X114817752Y-72006380D01*
X114865371Y-72482571D01*
X114817752Y-72434952D01*
X114722514Y-72387333D01*
X114484419Y-72387333D01*
X114389180Y-72434952D01*
X114341561Y-72482571D01*
X114293942Y-72577809D01*
X114293942Y-72815904D01*
X114341561Y-72911142D01*
X114389180Y-72958761D01*
X114484419Y-73006380D01*
X114722514Y-73006380D01*
X114817752Y-72958761D01*
X114865371Y-72911142D01*
X168602742Y-76602085D02*
X168602742Y-77137800D01*
X168638457Y-77244942D01*
X168709885Y-77316371D01*
X168817028Y-77352085D01*
X168888457Y-77352085D01*
X167852742Y-77352085D02*
X168281314Y-77352085D01*
X168067028Y-77352085D02*
X168067028Y-76602085D01*
X168138457Y-76709228D01*
X168209885Y-76780657D01*
X168281314Y-76816371D01*
X167209885Y-76852085D02*
X167209885Y-77352085D01*
X167388457Y-76566371D02*
X167567028Y-77102085D01*
X167102742Y-77102085D01*
X84458133Y-61987180D02*
X84458133Y-62701466D01*
X84505752Y-62844323D01*
X84600990Y-62939561D01*
X84743847Y-62987180D01*
X84839085Y-62987180D01*
X84029561Y-62082419D02*
X83981942Y-62034800D01*
X83886704Y-61987180D01*
X83648609Y-61987180D01*
X83553371Y-62034800D01*
X83505752Y-62082419D01*
X83458133Y-62177657D01*
X83458133Y-62272895D01*
X83505752Y-62415752D01*
X84077180Y-62987180D01*
X83458133Y-62987180D01*
D11*
X49420000Y-60000000D02*
X49420000Y-61330000D01*
X49420000Y-56130000D02*
X52080000Y-56130000D01*
X49420000Y-61330000D02*
X50750000Y-61330000D01*
X49420000Y-58730000D02*
X49420000Y-56130000D01*
X49420000Y-58730000D02*
X52080000Y-58730000D01*
X52080000Y-58730000D02*
X52080000Y-56130000D01*
X172145000Y-60325000D02*
X172145000Y-57725000D01*
X169485000Y-60325000D02*
X172145000Y-60325000D01*
X169485000Y-57725000D02*
X172145000Y-57725000D01*
X169485000Y-61595000D02*
X169485000Y-62925000D01*
X169485000Y-62925000D02*
X170815000Y-62925000D01*
X169485000Y-60325000D02*
X169485000Y-57725000D01*
D15*
X140990000Y-49380000D02*
X140990000Y-48755000D01*
X130990000Y-49380000D02*
X130990000Y-48750000D01*
X130990000Y-32630000D02*
X130990000Y-46570000D01*
X140990000Y-32630000D02*
X138580000Y-32630000D01*
X133400000Y-32630000D02*
X130990000Y-32630000D01*
X140990000Y-32630000D02*
X140990000Y-46570000D01*
X140990000Y-49380000D02*
X130990000Y-49380000D01*
X80990000Y-32630000D02*
X80990000Y-46570000D01*
X83400000Y-32630000D02*
X80990000Y-32630000D01*
X90990000Y-49380000D02*
X80990000Y-49380000D01*
X90990000Y-49380000D02*
X90990000Y-48755000D01*
X90990000Y-32630000D02*
X90990000Y-46570000D01*
X90990000Y-32630000D02*
X88580000Y-32630000D01*
X80990000Y-49380000D02*
X80990000Y-48750000D01*
D11*
X103990000Y-27130000D02*
X105050000Y-27130000D01*
X102990000Y-24570000D02*
X92930000Y-24570000D01*
X102990000Y-27130000D02*
X92930000Y-27130000D01*
X102990000Y-27130000D02*
X102990000Y-24570000D01*
X92930000Y-27130000D02*
X92930000Y-24570000D01*
X105050000Y-27130000D02*
X105050000Y-25630000D01*
X169615000Y-63811000D02*
X172065000Y-63811000D01*
X172065000Y-65711000D02*
X169615000Y-65711000D01*
X169615000Y-67761000D02*
X170815000Y-67761000D01*
X169615000Y-65711000D02*
X169615000Y-63811000D01*
X169615000Y-66711000D02*
X169615000Y-67761000D01*
X172065000Y-63811000D02*
X172065000Y-65711000D01*
X126500000Y-40440000D02*
X125150000Y-40440000D01*
X127850000Y-42500000D02*
X125150000Y-42500000D01*
X127850000Y-42500000D02*
X127850000Y-50500000D01*
X127850000Y-50500000D02*
X125150000Y-50500000D01*
X125150000Y-40440000D02*
X125150000Y-41500000D01*
X125150000Y-42500000D02*
X125150000Y-50500000D01*
X113966800Y-61410000D02*
X113966800Y-71470000D01*
X113966800Y-59380000D02*
X113966800Y-60440000D01*
X116766800Y-61410000D02*
X113966800Y-61410000D01*
X116766800Y-61410000D02*
X116766800Y-71470000D01*
X115366800Y-59380000D02*
X113966800Y-59380000D01*
X116766800Y-71470000D02*
X113966800Y-71470000D01*
D10*
X85832000Y-72218000D02*
X84932000Y-72218000D01*
X85390000Y-71768000D02*
X85390000Y-72668000D01*
X89740000Y-72218000D02*
X88840000Y-72218000D01*
D11*
X172379200Y-77972600D02*
X171319200Y-77972600D01*
X170319200Y-80472600D02*
X160259200Y-80472600D01*
X172379200Y-79222600D02*
X172379200Y-77972600D01*
X170319200Y-77972600D02*
X160259200Y-77972600D01*
X160259200Y-80472600D02*
X160259200Y-77972600D01*
X170319200Y-80472600D02*
X170319200Y-77972600D01*
X83226400Y-63541600D02*
X82166400Y-63541600D01*
X84226400Y-63521600D02*
X86286400Y-63521600D01*
X82166400Y-63541600D02*
X82166400Y-64601600D01*
X84226400Y-63521600D02*
X84226400Y-66221600D01*
X86286400Y-63521600D02*
X86286400Y-66221600D01*
X84226400Y-66221600D02*
X86286400Y-66221600D01*
%LPC*%
D18*
X152240000Y-55380000D03*
X139861054Y-62025251D03*
D19*
X159452694Y-34530000D03*
X162830192Y-36480000D03*
D20*
X157638111Y-31172949D03*
X164652917Y-35222949D03*
D21*
X162922532Y-39420064D03*
X156860354Y-35920064D03*
D22*
X69651159Y-53874463D03*
D23*
X70068538Y-45910393D03*
D24*
X64160011Y-45345390D03*
X75430155Y-56911074D03*
D25*
X76831531Y-45839243D03*
D23*
X69521628Y-56346071D03*
D25*
X62758635Y-56417221D03*
D22*
X69939007Y-48382001D03*
D18*
X67972062Y-61647238D03*
D26*
X67972062Y-61647238D03*
D27*
X69240322Y-61713705D03*
D18*
X69240322Y-61713705D03*
D26*
X70508581Y-61780172D03*
D18*
X70508581Y-61780172D03*
D28*
X80314089Y-52951253D03*
D18*
X80314089Y-52951253D03*
D29*
X80380556Y-51682993D03*
D18*
X80380556Y-51682993D03*
X80447023Y-50414734D03*
D28*
X80447023Y-50414734D03*
D30*
X110390000Y-54280000D03*
D18*
X144408672Y-38932159D03*
D31*
X73990000Y-71130000D03*
D22*
X55990000Y-60630000D03*
D32*
X104390000Y-51130000D03*
X117590000Y-51130000D03*
D33*
X157990000Y-41130000D03*
D22*
X165990000Y-60630000D03*
D34*
X59006622Y-40346621D03*
D18*
X167434020Y-51886035D03*
D35*
X170790000Y-76130000D03*
D34*
X80573378Y-61913378D03*
D36*
X59164021Y-36480000D03*
X62541519Y-34530000D03*
D37*
X55349438Y-36372949D03*
X62364244Y-32322949D03*
D38*
X117800000Y-25600000D03*
D39*
X114757200Y-56279325D03*
X113487200Y-56279325D03*
X116027200Y-58310175D03*
X114757200Y-58310175D03*
X116027200Y-56279325D03*
X113487200Y-58310175D03*
D23*
X128944000Y-98604552D03*
D40*
X129369000Y-105354552D03*
D22*
X120969000Y-98604552D03*
X126469000Y-98604552D03*
D40*
X118069000Y-91854552D03*
D41*
X129199000Y-92674552D03*
D23*
X118494000Y-98604552D03*
D41*
X118239000Y-104534552D03*
D18*
X134319000Y-99874552D03*
D42*
X134319000Y-99874552D03*
D43*
X134319000Y-98604552D03*
D18*
X134319000Y-98604552D03*
D42*
X134319000Y-97334552D03*
D18*
X134319000Y-97334552D03*
X124989000Y-88004552D03*
D44*
X124989000Y-88004552D03*
D45*
X123719000Y-88004552D03*
D18*
X123719000Y-88004552D03*
D44*
X122449000Y-88004552D03*
D18*
X122449000Y-88004552D03*
D39*
X111150400Y-56326850D03*
X111150400Y-64126850D03*
X108610400Y-56326850D03*
X109880400Y-64126850D03*
X108610400Y-64126850D03*
X109880400Y-56326850D03*
D31*
X113719000Y-83754552D03*
D46*
X108800000Y-25800000D03*
X110800000Y-25800000D03*
D22*
X123719000Y-94104552D03*
D47*
X56900000Y-76000000D03*
D48*
X50900000Y-78700000D03*
X57900000Y-78700000D03*
D47*
X51900000Y-76000000D03*
D22*
X123719000Y-103104552D03*
D32*
X109244000Y-99404552D03*
D49*
X50750000Y-60000000D03*
D50*
X50750000Y-57460000D03*
D49*
X170815000Y-61595000D03*
D50*
X170815000Y-59055000D03*
D51*
X131640000Y-47630000D03*
X140340000Y-47630000D03*
D52*
X138390000Y-36130000D03*
X135990000Y-36130000D03*
X133590000Y-36130000D03*
D51*
X81640000Y-47630000D03*
X90340000Y-47630000D03*
D52*
X88390000Y-36130000D03*
X85990000Y-36130000D03*
X83590000Y-36130000D03*
D53*
X103990000Y-25830000D03*
X101990000Y-25830000D03*
X99990000Y-25830000D03*
D54*
X97990000Y-25830000D03*
X95990000Y-25830000D03*
X93990000Y-25830000D03*
D55*
X170815000Y-64761000D03*
D56*
X170815000Y-66761000D03*
X126500000Y-49500000D03*
X126500000Y-47500000D03*
X126500000Y-45500000D03*
X126500000Y-43500000D03*
D55*
X126500000Y-41500000D03*
D57*
X115366800Y-60410000D03*
D58*
X115366800Y-62410000D03*
X115366800Y-64410000D03*
X115366800Y-66410000D03*
X115366800Y-68410000D03*
X115366800Y-70410000D03*
D59*
X85390000Y-69130000D03*
X89290000Y-69130000D03*
D60*
X171319200Y-79222600D03*
D46*
X169319200Y-79222600D03*
X167319200Y-79222600D03*
X165319200Y-79222600D03*
X163319200Y-79222600D03*
X161319200Y-79222600D03*
D60*
X83226400Y-64871600D03*
D46*
X85226400Y-64871600D03*
M02*
