%TF.GenerationSoftware,KiCad,Pcbnew,(6.0.9)*%
%TF.CreationDate,2022-12-16T01:28:00-08:00*%
%TF.ProjectId,PhobGCC_2_0_0_proto_1,50686f62-4743-4435-9f32-5f305f305f70,rev?*%
%TF.SameCoordinates,Original*%
%TF.FileFunction,Drillmap*%
%TF.FilePolarity,Positive*%
%FSLAX45Y45*%
G04 Gerber Fmt 4.5, Leading zero omitted, Abs format (unit mm)*
G04 Created by KiCad (PCBNEW (6.0.9)) date 2022-12-16 01:28:00*
%MOMM*%
%LPD*%
G01*
G04 APERTURE LIST*
%ADD10C,0.050000*%
%ADD11C,0.100000*%
%ADD12C,0.200000*%
%ADD13C,0.035000*%
%ADD14C,0.040000*%
%ADD15C,0.055000*%
%ADD16C,0.060000*%
%ADD17C,0.080000*%
%ADD18C,0.090000*%
%ADD19C,0.110000*%
%ADD20C,0.150000*%
%ADD21C,0.180000*%
G04 APERTURE END LIST*
D10*
X8409000Y-3373000D02*
X8409000Y-3113000D01*
X13409000Y-3373000D02*
X13409000Y-3113000D01*
X11286000Y-6438839D02*
X11286180Y-5632662D01*
D11*
X16003542Y-8117612D02*
X17231732Y-8117612D01*
X16508789Y-3546213D02*
X16548667Y-3476861D01*
X4995421Y-7984422D02*
G75*
G03*
X5066300Y-8014000I71420J71432D01*
G01*
X5164500Y-8013996D02*
X5066300Y-8014000D01*
X11984288Y-8255894D02*
X11937638Y-8317862D01*
X15059711Y-7113711D02*
X15059711Y-7392289D01*
X15201132Y-7533711D02*
X15413491Y-7533711D01*
X15846473Y-3073099D02*
X15522857Y-2887020D01*
X16508789Y-3546213D02*
G75*
G03*
X16621487Y-3611014I56351J-32397D01*
G01*
D10*
X13409000Y-3113000D02*
X13789000Y-3113000D01*
D11*
X4824711Y-4913711D02*
X4824711Y-7666400D01*
X17302443Y-8088323D02*
X17343864Y-8046902D01*
X15959171Y-3137900D02*
X15919293Y-3207253D01*
D10*
X8789000Y-3373000D02*
X8409000Y-3373000D01*
X10670540Y-6537960D02*
X10777220Y-6436360D01*
D11*
X13049710Y-5951130D02*
G75*
G03*
X12974962Y-5854370I-100000J0D01*
G01*
X10671511Y-10150455D02*
X10782400Y-10242372D01*
X9171098Y-5868504D02*
G75*
G03*
X9099886Y-5988648I25982J-96576D01*
G01*
X8499711Y-2873711D02*
G75*
G03*
X8759711Y-2613711I-1J260001D01*
G01*
X8759711Y-2418096D02*
X8759711Y-2613711D01*
X8788998Y-2347384D02*
G75*
G03*
X8759711Y-2418096I70732J-70717D01*
G01*
D10*
X12974962Y-5854370D02*
G75*
G03*
X11686180Y-5632662I-1925582J-7336670D01*
G01*
D11*
X16699711Y-3563711D02*
X16661365Y-3541662D01*
X13120422Y-6484420D02*
G75*
G03*
X13191132Y-6513711I70708J70700D01*
G01*
X13512731Y-2794374D02*
G75*
G03*
X13699711Y-2873711I186979J180664D01*
G01*
X12134106Y-8347584D02*
G75*
G03*
X12382400Y-8402372I248224J534914D01*
G01*
X6280128Y-3207253D02*
X6240250Y-3137900D01*
X12087456Y-8417634D02*
X12134107Y-8347582D01*
X13079000Y-6443000D02*
X13120421Y-6484421D01*
X6726411Y-2873711D02*
G75*
G03*
X6676564Y-2887020I-1J-99999D01*
G01*
X10671800Y-8226055D02*
X10671796Y-8288255D01*
X15906498Y-7950377D02*
X15904941Y-8034279D01*
X10671796Y-9218355D02*
X10671511Y-10150455D01*
X12099709Y-2418096D02*
G75*
G03*
X12070421Y-2347386I-99989J6D01*
G01*
X5577933Y-3611015D02*
G75*
G03*
X5690632Y-3546213I56347J32405D01*
G01*
X15089000Y-7463000D02*
X15130421Y-7504421D01*
D10*
X11177880Y-6438961D02*
X11177880Y-5603000D01*
D11*
X11792400Y-7812372D02*
X11792400Y-7492372D01*
X17374710Y-4913711D02*
G75*
G03*
X16699711Y-3563711I-1687500J1D01*
G01*
X8830421Y-2305964D02*
X8789000Y-2347386D01*
D10*
X11286180Y-5603000D02*
X11286180Y-5632662D01*
D11*
X14272600Y-6830441D02*
G75*
G03*
X13399711Y-6513711I-872890J-1044449D01*
G01*
X14272598Y-6830444D02*
G75*
G03*
X14336727Y-6853711I64132J76754D01*
G01*
X16661365Y-3541662D02*
X16621487Y-3611014D01*
X6094600Y-8013996D02*
X5164500Y-8013996D01*
D10*
X13789000Y-3113000D02*
X13789000Y-3373000D01*
D11*
X12099711Y-2622438D02*
X12099711Y-2418096D01*
X12170423Y-2734568D02*
G75*
G03*
X12241132Y-2763859I70707J70698D01*
G01*
X12070421Y-2347386D02*
X12029000Y-2305964D01*
X7419711Y-8113711D02*
G75*
G03*
X6252529Y-7942440I-596157J0D01*
G01*
D10*
X8409000Y-3113000D02*
X8789000Y-3113000D01*
D11*
X15906496Y-7950378D02*
G75*
G03*
X15413491Y-7533711I-493006J-83332D01*
G01*
X16548667Y-3476861D02*
X15959171Y-3137900D01*
X6352948Y-3073099D02*
X6392826Y-3142452D01*
X12099708Y-2622438D02*
G75*
G03*
X12129000Y-2693148I100012J8D01*
G01*
X13049711Y-5951130D02*
X13049711Y-6372289D01*
X6280126Y-3207254D02*
G75*
G03*
X6392826Y-3142452I56354J32394D01*
G01*
X7419710Y-8113711D02*
G75*
G03*
X9736154Y-6951052I1450000J0D01*
G01*
D10*
X11177880Y-6438961D02*
X11286000Y-6438839D01*
D11*
X8901132Y-2276675D02*
G75*
G03*
X8830421Y-2305964I-2J-99995D01*
G01*
X10782400Y-10242372D02*
X10985833Y-10242372D01*
X15130422Y-7504420D02*
G75*
G03*
X15201132Y-7533711I70708J70700D01*
G01*
X13440817Y-2763859D02*
X12241132Y-2763859D01*
D10*
X11792400Y-6369583D02*
X11790680Y-5989320D01*
D11*
X17374711Y-7892289D02*
X17374711Y-4913711D01*
X15059711Y-7392289D02*
G75*
G03*
X15089000Y-7463000I99999J-1D01*
G01*
D10*
X11790680Y-5989320D02*
X11686180Y-5864509D01*
D11*
X15904937Y-8034280D02*
G75*
G03*
X16003542Y-8117612I98603J16670D01*
G01*
X5577934Y-3611015D02*
X5538056Y-3541662D01*
X11958289Y-2276675D02*
X8901132Y-2276675D01*
X15473010Y-2873711D02*
X13699711Y-2873711D01*
D10*
X8789000Y-3113000D02*
X8789000Y-3373000D01*
D11*
X4854000Y-7843000D02*
X4995421Y-7984421D01*
X15806595Y-3142452D02*
X15846473Y-3073099D01*
X15806596Y-3142452D02*
G75*
G03*
X15919293Y-3207253I56344J-32408D01*
G01*
X10777327Y-5618480D02*
G75*
G03*
X9171099Y-5868508I265993J-6993160D01*
G01*
D10*
X11177880Y-5603000D02*
X11286180Y-5603000D01*
X13789000Y-3373000D02*
X13409000Y-3373000D01*
D11*
X17231732Y-8117613D02*
G75*
G03*
X17302443Y-8088323I-2J100003D01*
G01*
D10*
X11792400Y-7492372D02*
X11792400Y-6369583D01*
D11*
X10671796Y-8288255D02*
X10671796Y-9218355D01*
X6676564Y-2887020D02*
X6352948Y-3073099D01*
X17343863Y-8046901D02*
G75*
G03*
X17374711Y-7892289I-372033J154611D01*
G01*
X12028999Y-2305965D02*
G75*
G03*
X11958289Y-2276675I-70709J-70705D01*
G01*
X9099888Y-5988648D02*
G75*
G03*
X9736154Y-6951052I1652092J400708D01*
G01*
X15059709Y-7113711D02*
G75*
G03*
X14799711Y-6853711I-259999J1D01*
G01*
X6240250Y-3137900D02*
X5650754Y-3476861D01*
D10*
X11686180Y-5632662D02*
X11686180Y-5864509D01*
D11*
X11937635Y-8317860D02*
G75*
G03*
X12087456Y-8417634I74915J-49880D01*
G01*
X4824711Y-7666400D02*
X4824700Y-7772289D01*
X13512729Y-2794376D02*
G75*
G03*
X13440817Y-2763859I-71909J-69464D01*
G01*
X10985833Y-10242372D02*
G75*
G03*
X12382400Y-8402372I1396601J389974D01*
G01*
X8499711Y-2873711D02*
X6726411Y-2873711D01*
X10671800Y-8226055D02*
X10671800Y-7500500D01*
X6157000Y-8014000D02*
X6094600Y-8013996D01*
X15522857Y-2887020D02*
G75*
G03*
X15473010Y-2873711I-49847J-86690D01*
G01*
X12170421Y-2734570D02*
X12129000Y-2693148D01*
X5538056Y-3541662D02*
X5499711Y-3563711D01*
X6157000Y-8014001D02*
G75*
G03*
X6252529Y-7942440I-650J100411D01*
G01*
X5650754Y-3476861D02*
X5690632Y-3546213D01*
D10*
X10671800Y-7500500D02*
X10670540Y-6537960D01*
X10777220Y-6436360D02*
X10777327Y-5618480D01*
D11*
X14336727Y-6853711D02*
X14799711Y-6853711D01*
X11792398Y-7812372D02*
G75*
G03*
X11984288Y-8255894I589722J-8128D01*
G01*
X13049711Y-6372289D02*
G75*
G03*
X13079000Y-6443000I99999J-1D01*
G01*
X4824699Y-7772289D02*
G75*
G03*
X4854000Y-7843000I100042J29D01*
G01*
X5499711Y-3563710D02*
G75*
G03*
X4824711Y-4913711I1012505J-1350003D01*
G01*
X13191132Y-6513711D02*
X13399711Y-6513711D01*
D12*
D13*
X10101311Y-4145011D02*
X10136311Y-4180011D01*
X10136311Y-4145011D02*
X10101311Y-4180011D01*
X10764800Y-3741700D02*
X10799800Y-3776700D01*
X10799800Y-3741700D02*
X10764800Y-3776700D01*
X10862500Y-4490050D02*
X10897500Y-4525050D01*
X10897500Y-4490050D02*
X10862500Y-4525050D01*
X10882500Y-3182500D02*
X10917500Y-3217500D01*
X10917500Y-3182500D02*
X10882500Y-3217500D01*
X10922500Y-3662500D02*
X10957500Y-3697500D01*
X10957500Y-3662500D02*
X10922500Y-3697500D01*
X10962500Y-4490050D02*
X10997500Y-4525050D01*
X10997500Y-4490050D02*
X10962500Y-4525050D01*
X11042500Y-3662500D02*
X11077500Y-3697500D01*
X11077500Y-3662500D02*
X11042500Y-3697500D01*
X11062500Y-4490050D02*
X11097500Y-4525050D01*
X11097500Y-4490050D02*
X11062500Y-4525050D01*
X11162500Y-4490050D02*
X11197500Y-4525050D01*
X11197500Y-4490050D02*
X11162500Y-4525050D01*
X11192500Y-3832500D02*
X11227500Y-3867500D01*
X11227500Y-3832500D02*
X11192500Y-3867500D01*
X11331220Y-3518180D02*
X11366220Y-3553180D01*
X11366220Y-3518180D02*
X11331220Y-3553180D01*
X11532500Y-3712500D02*
X11567500Y-3747500D01*
X11567500Y-3712500D02*
X11532500Y-3747500D01*
X10890000Y-3772500D02*
G75*
G03*
X10890000Y-3772500I-17500J0D01*
G01*
X10890000Y-3900000D02*
G75*
G03*
X10890000Y-3900000I-17500J0D01*
G01*
X10890000Y-4027500D02*
G75*
G03*
X10890000Y-4027500I-17500J0D01*
G01*
X11017500Y-3772500D02*
G75*
G03*
X11017500Y-3772500I-17500J0D01*
G01*
X11017500Y-3900000D02*
G75*
G03*
X11017500Y-3900000I-17500J0D01*
G01*
X11017500Y-4027500D02*
G75*
G03*
X11017500Y-4027500I-17500J0D01*
G01*
X11145000Y-3772500D02*
G75*
G03*
X11145000Y-3772500I-17500J0D01*
G01*
X11145000Y-3900000D02*
G75*
G03*
X11145000Y-3900000I-17500J0D01*
G01*
X11145000Y-4027500D02*
G75*
G03*
X11145000Y-4027500I-17500J0D01*
G01*
D14*
X5050000Y-6380000D02*
X5050000Y-6420000D01*
X5030000Y-6400000D02*
X5070000Y-6400000D01*
X5070000Y-5100000D02*
X5070000Y-5140000D01*
X5050000Y-5120000D02*
X5090000Y-5120000D01*
X5475000Y-5630000D02*
X5475000Y-5670000D01*
X5455000Y-5650000D02*
X5495000Y-5650000D01*
X5625000Y-5680000D02*
X5625000Y-5720000D01*
X5605000Y-5700000D02*
X5645000Y-5700000D01*
X6212840Y-4094800D02*
X6212840Y-4134800D01*
X6192840Y-4114800D02*
X6232840Y-4114800D01*
X6350000Y-4880000D02*
X6350000Y-4920000D01*
X6330000Y-4900000D02*
X6370000Y-4900000D01*
X6425000Y-7055000D02*
X6425000Y-7095000D01*
X6405000Y-7075000D02*
X6445000Y-7075000D01*
X6502400Y-4201480D02*
X6502400Y-4241480D01*
X6482400Y-4221480D02*
X6522400Y-4221480D01*
X6563360Y-3480120D02*
X6563360Y-3520120D01*
X6543360Y-3500120D02*
X6583360Y-3500120D01*
X6667500Y-6164900D02*
X6667500Y-6204900D01*
X6647500Y-6184900D02*
X6687500Y-6184900D01*
X6750000Y-4480000D02*
X6750000Y-4520000D01*
X6730000Y-4500000D02*
X6770000Y-4500000D01*
X6845300Y-6596700D02*
X6845300Y-6636700D01*
X6825300Y-6616700D02*
X6865300Y-6616700D01*
X7200000Y-6130000D02*
X7200000Y-6170000D01*
X7180000Y-6150000D02*
X7220000Y-6150000D01*
X7330000Y-3610000D02*
X7330000Y-3650000D01*
X7310000Y-3630000D02*
X7350000Y-3630000D01*
X7350000Y-6030000D02*
X7350000Y-6070000D01*
X7330000Y-6050000D02*
X7370000Y-6050000D01*
X7462520Y-4953320D02*
X7462520Y-4993320D01*
X7442520Y-4973320D02*
X7482520Y-4973320D01*
X7462520Y-5156520D02*
X7462520Y-5196520D01*
X7442520Y-5176520D02*
X7482520Y-5176520D01*
X7500000Y-3330000D02*
X7500000Y-3370000D01*
X7480000Y-3350000D02*
X7520000Y-3350000D01*
X7733000Y-6684000D02*
X7733000Y-6724000D01*
X7713000Y-6704000D02*
X7753000Y-6704000D01*
X7780050Y-3780000D02*
X7780050Y-3820000D01*
X7760050Y-3800000D02*
X7800050Y-3800000D01*
X7899400Y-5682300D02*
X7899400Y-5722300D01*
X7879400Y-5702300D02*
X7919400Y-5702300D01*
X7900000Y-4780000D02*
X7900000Y-4820000D01*
X7880000Y-4800000D02*
X7920000Y-4800000D01*
X7962900Y-5593400D02*
X7962900Y-5633400D01*
X7942900Y-5613400D02*
X7982900Y-5613400D01*
X8000834Y-4914080D02*
X8000834Y-4954080D01*
X7980834Y-4934080D02*
X8020834Y-4934080D01*
X8051800Y-5402900D02*
X8051800Y-5442900D01*
X8031800Y-5422900D02*
X8071800Y-5422900D01*
X8065000Y-6768950D02*
X8065000Y-6808950D01*
X8045000Y-6788950D02*
X8085000Y-6788950D01*
X8074000Y-8413000D02*
X8074000Y-8453000D01*
X8054000Y-8433000D02*
X8094000Y-8433000D01*
X8280400Y-5811840D02*
X8280400Y-5851840D01*
X8260400Y-5831840D02*
X8300400Y-5831840D01*
X8450000Y-4530000D02*
X8450000Y-4570000D01*
X8430000Y-4550000D02*
X8470000Y-4550000D01*
X8547100Y-8882700D02*
X8547100Y-8922700D01*
X8527100Y-8902700D02*
X8567100Y-8902700D01*
X8572500Y-3967800D02*
X8572500Y-4007800D01*
X8552500Y-3987800D02*
X8592500Y-3987800D01*
X8600000Y-5340000D02*
X8600000Y-5380000D01*
X8580000Y-5360000D02*
X8620000Y-5360000D01*
X8689000Y-4371000D02*
X8689000Y-4411000D01*
X8669000Y-4391000D02*
X8709000Y-4391000D01*
X8915400Y-2418400D02*
X8915400Y-2458400D01*
X8895400Y-2438400D02*
X8935400Y-2438400D01*
X8953500Y-3739200D02*
X8953500Y-3779200D01*
X8933500Y-3759200D02*
X8973500Y-3759200D01*
X8991600Y-2608900D02*
X8991600Y-2648900D01*
X8971600Y-2628900D02*
X9011600Y-2628900D01*
X9030000Y-4240000D02*
X9030000Y-4280000D01*
X9010000Y-4260000D02*
X9050000Y-4260000D01*
X9105900Y-3459800D02*
X9105900Y-3499800D01*
X9085900Y-3479800D02*
X9125900Y-3479800D01*
X9110000Y-4120000D02*
X9110000Y-4160000D01*
X9090000Y-4140000D02*
X9130000Y-4140000D01*
X9189000Y-7303000D02*
X9189000Y-7343000D01*
X9169000Y-7323000D02*
X9209000Y-7323000D01*
X9190000Y-4000000D02*
X9190000Y-4040000D01*
X9170000Y-4020000D02*
X9210000Y-4020000D01*
X9207500Y-4564700D02*
X9207500Y-4604700D01*
X9187500Y-4584700D02*
X9227500Y-4584700D01*
X9296400Y-4729800D02*
X9296400Y-4769800D01*
X9276400Y-4749800D02*
X9316400Y-4749800D01*
X9300000Y-4030000D02*
X9300000Y-4070000D01*
X9280000Y-4050000D02*
X9320000Y-4050000D01*
X9350000Y-5590000D02*
X9350000Y-5630000D01*
X9330000Y-5610000D02*
X9370000Y-5610000D01*
X9359900Y-2913700D02*
X9359900Y-2953700D01*
X9339900Y-2933700D02*
X9379900Y-2933700D01*
X9370583Y-5273883D02*
X9370583Y-5313883D01*
X9350583Y-5293883D02*
X9390583Y-5293883D01*
X9372600Y-4983800D02*
X9372600Y-5023800D01*
X9352600Y-5003800D02*
X9392600Y-5003800D01*
X9372600Y-5080000D02*
X9372600Y-5120000D01*
X9352600Y-5100000D02*
X9392600Y-5100000D01*
X9372600Y-5174950D02*
X9372600Y-5214950D01*
X9352600Y-5194950D02*
X9392600Y-5194950D01*
X9480000Y-3150000D02*
X9480000Y-3190000D01*
X9460000Y-3170000D02*
X9500000Y-3170000D01*
X9664000Y-8413000D02*
X9664000Y-8453000D01*
X9644000Y-8433000D02*
X9684000Y-8433000D01*
X9700000Y-3605000D02*
X9700000Y-3645000D01*
X9680000Y-3625000D02*
X9720000Y-3625000D01*
X9700000Y-4080000D02*
X9700000Y-4120000D01*
X9680000Y-4100000D02*
X9720000Y-4100000D01*
X9702800Y-2901000D02*
X9702800Y-2941000D01*
X9682800Y-2921000D02*
X9722800Y-2921000D01*
X9810000Y-2900000D02*
X9810000Y-2940000D01*
X9790000Y-2920000D02*
X9830000Y-2920000D01*
X9875000Y-4955000D02*
X9875000Y-4995000D01*
X9855000Y-4975000D02*
X9895000Y-4975000D01*
X9910000Y-3950000D02*
X9910000Y-3990000D01*
X9890000Y-3970000D02*
X9930000Y-3970000D01*
X9910000Y-4060000D02*
X9910000Y-4100000D01*
X9890000Y-4080000D02*
X9930000Y-4080000D01*
X10038080Y-3571560D02*
X10038080Y-3611560D01*
X10018080Y-3591560D02*
X10058080Y-3591560D01*
X10040000Y-3150000D02*
X10040000Y-3190000D01*
X10020000Y-3170000D02*
X10060000Y-3170000D01*
X10125000Y-3455000D02*
X10125000Y-3495000D01*
X10105000Y-3475000D02*
X10145000Y-3475000D01*
X10250000Y-4755000D02*
X10250000Y-4795000D01*
X10230000Y-4775000D02*
X10270000Y-4775000D01*
X10460000Y-3160000D02*
X10460000Y-3200000D01*
X10440000Y-3180000D02*
X10480000Y-3180000D01*
X10530000Y-4560000D02*
X10530000Y-4600000D01*
X10510000Y-4580000D02*
X10550000Y-4580000D01*
X10551230Y-4306230D02*
X10551230Y-4346230D01*
X10531230Y-4326230D02*
X10571230Y-4326230D01*
X10580000Y-3160000D02*
X10580000Y-3200000D01*
X10560000Y-3180000D02*
X10600000Y-3180000D01*
X10650000Y-4382550D02*
X10650000Y-4422550D01*
X10630000Y-4402550D02*
X10670000Y-4402550D01*
X10652760Y-4485960D02*
X10652760Y-4525960D01*
X10632760Y-4505960D02*
X10672760Y-4505960D01*
X10759440Y-6990400D02*
X10759440Y-7030400D01*
X10739440Y-7010400D02*
X10779440Y-7010400D01*
X11002550Y-3005000D02*
X11002550Y-3045000D01*
X10982550Y-3025000D02*
X11022550Y-3025000D01*
X11025000Y-2855000D02*
X11025000Y-2895000D01*
X11005000Y-2875000D02*
X11045000Y-2875000D01*
X11186160Y-6883720D02*
X11186160Y-6923720D01*
X11166160Y-6903720D02*
X11206160Y-6903720D01*
X11301800Y-7956000D02*
X11301800Y-7996000D01*
X11281800Y-7976000D02*
X11321800Y-7976000D01*
X11321950Y-7285040D02*
X11321950Y-7325040D01*
X11301950Y-7305040D02*
X11341950Y-7305040D01*
X11363960Y-7742240D02*
X11363960Y-7782240D01*
X11343960Y-7762240D02*
X11383960Y-7762240D01*
X11400000Y-3030000D02*
X11400000Y-3070000D01*
X11380000Y-3050000D02*
X11420000Y-3050000D01*
X11451800Y-10281000D02*
X11451800Y-10321000D01*
X11431800Y-10301000D02*
X11471800Y-10301000D01*
X11510000Y-4820000D02*
X11510000Y-4860000D01*
X11490000Y-4840000D02*
X11530000Y-4840000D01*
X11557000Y-3810320D02*
X11557000Y-3850320D01*
X11537000Y-3830320D02*
X11577000Y-3830320D01*
X11592560Y-4582480D02*
X11592560Y-4622480D01*
X11572560Y-4602480D02*
X11612560Y-4602480D01*
X11790000Y-3010000D02*
X11790000Y-3050000D01*
X11770000Y-3030000D02*
X11810000Y-3030000D01*
X11861800Y-4018600D02*
X11861800Y-4058600D01*
X11841800Y-4038600D02*
X11881800Y-4038600D01*
X11882120Y-3703640D02*
X11882120Y-3743640D01*
X11862120Y-3723640D02*
X11902120Y-3723640D01*
X11910000Y-3130000D02*
X11910000Y-3170000D01*
X11890000Y-3150000D02*
X11930000Y-3150000D01*
X11924000Y-5495000D02*
X11924000Y-5535000D01*
X11904000Y-5515000D02*
X11944000Y-5515000D01*
X12000000Y-3010000D02*
X12000000Y-3050000D01*
X11980000Y-3030000D02*
X12020000Y-3030000D01*
X12001800Y-8781000D02*
X12001800Y-8821000D01*
X11981800Y-8801000D02*
X12021800Y-8801000D01*
X12001800Y-10831000D02*
X12001800Y-10871000D01*
X11981800Y-10851000D02*
X12021800Y-10851000D01*
X12100000Y-5160000D02*
X12100000Y-5200000D01*
X12080000Y-5180000D02*
X12120000Y-5180000D01*
X12100000Y-5375046D02*
X12100000Y-5415046D01*
X12080000Y-5395046D02*
X12120000Y-5395046D01*
X12278360Y-5019360D02*
X12278360Y-5059360D01*
X12258360Y-5039360D02*
X12298360Y-5039360D01*
X12283440Y-3708720D02*
X12283440Y-3748720D01*
X12263440Y-3728720D02*
X12303440Y-3728720D01*
X12310000Y-5430000D02*
X12310000Y-5470000D01*
X12290000Y-5450000D02*
X12330000Y-5450000D01*
X12354560Y-3957640D02*
X12354560Y-3997640D01*
X12334560Y-3977640D02*
X12374560Y-3977640D01*
X12500000Y-2980000D02*
X12500000Y-3020000D01*
X12480000Y-3000000D02*
X12520000Y-3000000D01*
X12500000Y-3310000D02*
X12500000Y-3350000D01*
X12480000Y-3330000D02*
X12520000Y-3330000D01*
X12660000Y-3310000D02*
X12660000Y-3350000D01*
X12640000Y-3330000D02*
X12680000Y-3330000D01*
X12660000Y-3560000D02*
X12660000Y-3600000D01*
X12640000Y-3580000D02*
X12680000Y-3580000D01*
X12701800Y-8731000D02*
X12701800Y-8771000D01*
X12681800Y-8751000D02*
X12721800Y-8751000D01*
X12701800Y-8981000D02*
X12701800Y-9021000D01*
X12681800Y-9001000D02*
X12721800Y-9001000D01*
X12950000Y-3430000D02*
X12950000Y-3470000D01*
X12930000Y-3450000D02*
X12970000Y-3450000D01*
X13042900Y-5179600D02*
X13042900Y-5219600D01*
X13022900Y-5199600D02*
X13062900Y-5199600D01*
X13042900Y-5580700D02*
X13042900Y-5620700D01*
X13022900Y-5600700D02*
X13062900Y-5600700D01*
X13130000Y-3760000D02*
X13130000Y-3800000D01*
X13110000Y-3780000D02*
X13150000Y-3780000D01*
X13130000Y-4090000D02*
X13130000Y-4130000D01*
X13110000Y-4110000D02*
X13150000Y-4110000D01*
X13273300Y-10185400D02*
X13273300Y-10225400D01*
X13253300Y-10205400D02*
X13293300Y-10205400D01*
X13451800Y-9581000D02*
X13451800Y-9621000D01*
X13431800Y-9601000D02*
X13471800Y-9601000D01*
X13501800Y-10181000D02*
X13501800Y-10221000D01*
X13481800Y-10201000D02*
X13521800Y-10201000D01*
X13700000Y-5105000D02*
X13700000Y-5145000D01*
X13680000Y-5125000D02*
X13720000Y-5125000D01*
X14160500Y-5110800D02*
X14160500Y-5150800D01*
X14140500Y-5130800D02*
X14180500Y-5130800D01*
X15074900Y-6406200D02*
X15074900Y-6446200D01*
X15054900Y-6426200D02*
X15094900Y-6426200D01*
X15450000Y-6030000D02*
X15450000Y-6070000D01*
X15430000Y-6050000D02*
X15470000Y-6050000D01*
X15582900Y-6291900D02*
X15582900Y-6331900D01*
X15562900Y-6311900D02*
X15602900Y-6311900D01*
X16000000Y-4680000D02*
X16000000Y-4720000D01*
X15980000Y-4700000D02*
X16020000Y-4700000D01*
X16154400Y-6279200D02*
X16154400Y-6319200D01*
X16134400Y-6299200D02*
X16174400Y-6299200D01*
X16154400Y-6495100D02*
X16154400Y-6535100D01*
X16134400Y-6515100D02*
X16174400Y-6515100D01*
X14000248Y-6216667D02*
X14000248Y-6188383D01*
X13971963Y-6188383D01*
X13971963Y-6216667D01*
X14000248Y-6216667D01*
X14455009Y-3907358D02*
X14455009Y-3879074D01*
X14426725Y-3879074D01*
X14426725Y-3907358D01*
X14455009Y-3907358D01*
X15238142Y-5552142D02*
X15238142Y-5523858D01*
X15209858Y-5523858D01*
X15209858Y-5552142D01*
X15238142Y-5552142D01*
X16757544Y-5202746D02*
X16757544Y-5174461D01*
X16729260Y-5174461D01*
X16729260Y-5202746D01*
X16757544Y-5202746D01*
D10*
X5090000Y-7895000D02*
X5115000Y-7870000D01*
X5090000Y-7845000D01*
X5065000Y-7870000D01*
X5090000Y-7895000D01*
D12*
X5065000Y-7837500D02*
X5065000Y-7902500D01*
X5115000Y-7837500D02*
X5115000Y-7902500D01*
X5065000Y-7902500D02*
G75*
G03*
X5115000Y-7902500I25000J0D01*
G01*
X5115000Y-7837500D02*
G75*
G03*
X5065000Y-7837500I-25000J0D01*
G01*
D10*
X5790000Y-7895000D02*
X5815000Y-7870000D01*
X5790000Y-7845000D01*
X5765000Y-7870000D01*
X5790000Y-7895000D01*
D12*
X5765000Y-7837500D02*
X5765000Y-7902500D01*
X5815000Y-7837500D02*
X5815000Y-7902500D01*
X5765000Y-7902500D02*
G75*
G03*
X5815000Y-7902500I25000J0D01*
G01*
X5815000Y-7837500D02*
G75*
G03*
X5765000Y-7837500I-25000J0D01*
G01*
D15*
X5162500Y-7572500D02*
X5217500Y-7627500D01*
X5217500Y-7572500D02*
X5162500Y-7627500D01*
X5217500Y-7600000D02*
G75*
G03*
X5217500Y-7600000I-27500J0D01*
G01*
D12*
X5175000Y-7627500D02*
X5205000Y-7627500D01*
X5175000Y-7572500D02*
X5205000Y-7572500D01*
X5205000Y-7627500D02*
G75*
G03*
X5205000Y-7572500I0J27500D01*
G01*
X5175000Y-7572500D02*
G75*
G03*
X5175000Y-7627500I0J-27500D01*
G01*
D15*
X5662500Y-7572500D02*
X5717500Y-7627500D01*
X5717500Y-7572500D02*
X5662500Y-7627500D01*
X5717500Y-7600000D02*
G75*
G03*
X5717500Y-7600000I-27500J0D01*
G01*
D12*
X5675000Y-7627500D02*
X5705000Y-7627500D01*
X5675000Y-7572500D02*
X5705000Y-7572500D01*
X5705000Y-7627500D02*
G75*
G03*
X5705000Y-7572500I0J27500D01*
G01*
X5675000Y-7572500D02*
G75*
G03*
X5675000Y-7627500I0J-27500D01*
G01*
D16*
X6767206Y-6134724D02*
X6827206Y-6194724D01*
X6827206Y-6134724D02*
X6767206Y-6194724D01*
X6797206Y-6134724D02*
X6797206Y-6194724D01*
X6767206Y-6164724D02*
X6827206Y-6164724D01*
X6894032Y-6141370D02*
X6954032Y-6201370D01*
X6954032Y-6141370D02*
X6894032Y-6201370D01*
X6924032Y-6141370D02*
X6924032Y-6201370D01*
X6894032Y-6171370D02*
X6954032Y-6171370D01*
X7020858Y-6148017D02*
X7080858Y-6208017D01*
X7080858Y-6148017D02*
X7020858Y-6208017D01*
X7050858Y-6148017D02*
X7050858Y-6208017D01*
X7020858Y-6178017D02*
X7080858Y-6178017D01*
X8001409Y-5265125D02*
X8061409Y-5325125D01*
X8061409Y-5265125D02*
X8001409Y-5325125D01*
X8031409Y-5265125D02*
X8031409Y-5325125D01*
X8001409Y-5295125D02*
X8061409Y-5295125D01*
X8008056Y-5138299D02*
X8068056Y-5198299D01*
X8068056Y-5138299D02*
X8008056Y-5198299D01*
X8038056Y-5138299D02*
X8038056Y-5198299D01*
X8008056Y-5168299D02*
X8068056Y-5168299D01*
X8014702Y-5011473D02*
X8074702Y-5071473D01*
X8074702Y-5011473D02*
X8014702Y-5071473D01*
X8044702Y-5011473D02*
X8044702Y-5071473D01*
X8014702Y-5041473D02*
X8074702Y-5041473D01*
X11009000Y-5398000D02*
X11069000Y-5458000D01*
X11069000Y-5398000D02*
X11009000Y-5458000D01*
X11039000Y-5398000D02*
X11039000Y-5458000D01*
X11009000Y-5428000D02*
X11069000Y-5428000D01*
X12214900Y-8770455D02*
X12274900Y-8830455D01*
X12274900Y-8770455D02*
X12214900Y-8830455D01*
X12244900Y-8770455D02*
X12244900Y-8830455D01*
X12214900Y-8800455D02*
X12274900Y-8800455D01*
X12341900Y-8770455D02*
X12401900Y-8830455D01*
X12401900Y-8770455D02*
X12341900Y-8830455D01*
X12371900Y-8770455D02*
X12371900Y-8830455D01*
X12341900Y-8800455D02*
X12401900Y-8800455D01*
X12468900Y-8770455D02*
X12528900Y-8830455D01*
X12528900Y-8770455D02*
X12468900Y-8830455D01*
X12498900Y-8770455D02*
X12498900Y-8830455D01*
X12468900Y-8800455D02*
X12528900Y-8800455D01*
X13401900Y-9703455D02*
X13461900Y-9763455D01*
X13461900Y-9703455D02*
X13401900Y-9763455D01*
X13431900Y-9703455D02*
X13431900Y-9763455D01*
X13401900Y-9733455D02*
X13461900Y-9733455D01*
X13401900Y-9830455D02*
X13461900Y-9890455D01*
X13461900Y-9830455D02*
X13401900Y-9890455D01*
X13431900Y-9830455D02*
X13431900Y-9890455D01*
X13401900Y-9860455D02*
X13461900Y-9860455D01*
X13401900Y-9957455D02*
X13461900Y-10017455D01*
X13461900Y-9957455D02*
X13401900Y-10017455D01*
X13431900Y-9957455D02*
X13431900Y-10017455D01*
X13401900Y-9987455D02*
X13461900Y-9987455D01*
D17*
X6235863Y-5601722D02*
X6315863Y-5681722D01*
X6315863Y-5601722D02*
X6235863Y-5681722D01*
X6304148Y-5670007D02*
X6304148Y-5613438D01*
X6247579Y-5613438D01*
X6247579Y-5670007D01*
X6304148Y-5670007D01*
D12*
X6313715Y-5683761D02*
X6317902Y-5603870D01*
X6233825Y-5679574D02*
X6238012Y-5599683D01*
X6317902Y-5603870D02*
G75*
G03*
X6238012Y-5599683I-39945J2093D01*
G01*
X6233825Y-5679574D02*
G75*
G03*
X6313715Y-5683761I39945J-2093D01*
G01*
D17*
X7643153Y-4543924D02*
X7723153Y-4623924D01*
X7723153Y-4543924D02*
X7643153Y-4623924D01*
X7711438Y-4612209D02*
X7711438Y-4555640D01*
X7654869Y-4555640D01*
X7654869Y-4612209D01*
X7711438Y-4612209D01*
D12*
X7721005Y-4625963D02*
X7725192Y-4546073D01*
X7641114Y-4621776D02*
X7645301Y-4541886D01*
X7725192Y-4546073D02*
G75*
G03*
X7645301Y-4541886I-39945J2093D01*
G01*
X7641114Y-4621776D02*
G75*
G03*
X7721005Y-4625963I39945J-2093D01*
G01*
D17*
X8124000Y-4723000D02*
X8204000Y-4803000D01*
X8204000Y-4723000D02*
X8124000Y-4803000D01*
X8192284Y-4791285D02*
X8192284Y-4734716D01*
X8135715Y-4734716D01*
X8135715Y-4791285D01*
X8192284Y-4791285D01*
D12*
X8204000Y-4798000D02*
X8204000Y-4728000D01*
X8124000Y-4798000D02*
X8124000Y-4728000D01*
X8204000Y-4728000D02*
G75*
G03*
X8124000Y-4728000I-40000J0D01*
G01*
X8124000Y-4798000D02*
G75*
G03*
X8204000Y-4798000I40000J0D01*
G01*
D17*
X8282640Y-6447160D02*
X8362640Y-6527160D01*
X8362640Y-6447160D02*
X8282640Y-6527160D01*
X8350924Y-6515444D02*
X8350924Y-6458875D01*
X8294355Y-6458875D01*
X8294355Y-6515444D01*
X8350924Y-6515444D01*
X8319000Y-3573000D02*
X8399000Y-3653000D01*
X8399000Y-3573000D02*
X8319000Y-3653000D01*
X8387284Y-3641284D02*
X8387284Y-3584715D01*
X8330715Y-3584715D01*
X8330715Y-3641284D01*
X8387284Y-3641284D01*
X8482640Y-6447160D02*
X8562640Y-6527160D01*
X8562640Y-6447160D02*
X8482640Y-6527160D01*
X8550925Y-6515444D02*
X8550925Y-6458875D01*
X8494356Y-6458875D01*
X8494356Y-6515444D01*
X8550925Y-6515444D01*
X8559000Y-3573000D02*
X8639000Y-3653000D01*
X8639000Y-3573000D02*
X8559000Y-3653000D01*
X8627285Y-3641284D02*
X8627285Y-3584715D01*
X8570716Y-3584715D01*
X8570716Y-3641284D01*
X8627285Y-3641284D01*
X8799000Y-3573000D02*
X8879000Y-3653000D01*
X8879000Y-3573000D02*
X8799000Y-3653000D01*
X8867285Y-3641284D02*
X8867285Y-3584715D01*
X8810716Y-3584715D01*
X8810716Y-3641284D01*
X8867285Y-3641284D01*
X8994000Y-4723000D02*
X9074000Y-4803000D01*
X9074000Y-4723000D02*
X8994000Y-4803000D01*
X9062285Y-4791285D02*
X9062285Y-4734716D01*
X9005716Y-4734716D01*
X9005716Y-4791285D01*
X9062285Y-4791285D01*
D12*
X9074000Y-4798000D02*
X9074000Y-4728000D01*
X8994000Y-4798000D02*
X8994000Y-4728000D01*
X9074000Y-4728000D02*
G75*
G03*
X8994000Y-4728000I-40000J0D01*
G01*
X8994000Y-4798000D02*
G75*
G03*
X9074000Y-4798000I40000J0D01*
G01*
D17*
X10840000Y-2520000D02*
X10920000Y-2600000D01*
X10920000Y-2520000D02*
X10840000Y-2600000D01*
X10908285Y-2588285D02*
X10908285Y-2531716D01*
X10851716Y-2531716D01*
X10851716Y-2588285D01*
X10908285Y-2588285D01*
X11040000Y-2520000D02*
X11120000Y-2600000D01*
X11120000Y-2520000D02*
X11040000Y-2600000D01*
X11108285Y-2588285D02*
X11108285Y-2531716D01*
X11051716Y-2531716D01*
X11051716Y-2588285D01*
X11108285Y-2588285D01*
X11766900Y-9145455D02*
X11846900Y-9225455D01*
X11846900Y-9145455D02*
X11766900Y-9225455D01*
X11835184Y-9213740D02*
X11835184Y-9157171D01*
X11778615Y-9157171D01*
X11778615Y-9213740D01*
X11835184Y-9213740D01*
D12*
X11846900Y-9145455D02*
X11766900Y-9145455D01*
X11846900Y-9225455D02*
X11766900Y-9225455D01*
X11766900Y-9145455D02*
G75*
G03*
X11766900Y-9225455I0J-40000D01*
G01*
X11846900Y-9225455D02*
G75*
G03*
X11846900Y-9145455I0J40000D01*
G01*
D17*
X12610000Y-4110000D02*
X12690000Y-4190000D01*
X12690000Y-4110000D02*
X12610000Y-4190000D01*
X12678284Y-4178284D02*
X12678284Y-4121715D01*
X12621715Y-4121715D01*
X12621715Y-4178284D01*
X12678284Y-4178284D01*
X12610000Y-4310000D02*
X12690000Y-4390000D01*
X12690000Y-4310000D02*
X12610000Y-4390000D01*
X12678284Y-4378285D02*
X12678284Y-4321716D01*
X12621715Y-4321716D01*
X12621715Y-4378285D01*
X12678284Y-4378285D01*
X12610000Y-4510000D02*
X12690000Y-4590000D01*
X12690000Y-4510000D02*
X12610000Y-4590000D01*
X12678284Y-4578285D02*
X12678284Y-4521716D01*
X12621715Y-4521716D01*
X12621715Y-4578285D01*
X12678284Y-4578285D01*
X12610000Y-4710000D02*
X12690000Y-4790000D01*
X12690000Y-4710000D02*
X12610000Y-4790000D01*
X12678284Y-4778285D02*
X12678284Y-4721716D01*
X12621715Y-4721716D01*
X12621715Y-4778285D01*
X12678284Y-4778285D01*
X12610000Y-4910000D02*
X12690000Y-4990000D01*
X12690000Y-4910000D02*
X12610000Y-4990000D01*
X12678284Y-4978285D02*
X12678284Y-4921716D01*
X12621715Y-4921716D01*
X12621715Y-4978285D01*
X12678284Y-4978285D01*
X12896900Y-10495455D02*
X12976900Y-10575455D01*
X12976900Y-10495455D02*
X12896900Y-10575455D01*
X12965184Y-10563740D02*
X12965184Y-10507171D01*
X12908615Y-10507171D01*
X12908615Y-10563740D01*
X12965184Y-10563740D01*
D12*
X12976900Y-10495455D02*
X12896900Y-10495455D01*
X12976900Y-10575455D02*
X12896900Y-10575455D01*
X12896900Y-10495455D02*
G75*
G03*
X12896900Y-10575455I0J-40000D01*
G01*
X12976900Y-10575455D02*
G75*
G03*
X12976900Y-10495455I0J40000D01*
G01*
D17*
X13124000Y-4723000D02*
X13204000Y-4803000D01*
X13204000Y-4723000D02*
X13124000Y-4803000D01*
X13192284Y-4791285D02*
X13192284Y-4734716D01*
X13135715Y-4734716D01*
X13135715Y-4791285D01*
X13192284Y-4791285D01*
D12*
X13204000Y-4798000D02*
X13204000Y-4728000D01*
X13124000Y-4798000D02*
X13124000Y-4728000D01*
X13204000Y-4728000D02*
G75*
G03*
X13124000Y-4728000I-40000J0D01*
G01*
X13124000Y-4798000D02*
G75*
G03*
X13204000Y-4798000I40000J0D01*
G01*
D17*
X13319000Y-3573000D02*
X13399000Y-3653000D01*
X13399000Y-3573000D02*
X13319000Y-3653000D01*
X13387284Y-3641284D02*
X13387284Y-3584715D01*
X13330715Y-3584715D01*
X13330715Y-3641284D01*
X13387284Y-3641284D01*
X13559000Y-3573000D02*
X13639000Y-3653000D01*
X13639000Y-3573000D02*
X13559000Y-3653000D01*
X13627284Y-3641284D02*
X13627284Y-3584715D01*
X13570715Y-3584715D01*
X13570715Y-3641284D01*
X13627284Y-3641284D01*
X13799000Y-3573000D02*
X13879000Y-3653000D01*
X13879000Y-3573000D02*
X13799000Y-3653000D01*
X13867284Y-3641284D02*
X13867284Y-3584715D01*
X13810715Y-3584715D01*
X13810715Y-3641284D01*
X13867284Y-3641284D01*
X13994000Y-4723000D02*
X14074000Y-4803000D01*
X14074000Y-4723000D02*
X13994000Y-4803000D01*
X14062284Y-4791285D02*
X14062284Y-4734716D01*
X14005715Y-4734716D01*
X14005715Y-4791285D01*
X14062284Y-4791285D01*
D12*
X14074000Y-4798000D02*
X14074000Y-4728000D01*
X13994000Y-4798000D02*
X13994000Y-4728000D01*
X14074000Y-4728000D02*
G75*
G03*
X13994000Y-4728000I-40000J0D01*
G01*
X13994000Y-4798000D02*
G75*
G03*
X14074000Y-4798000I40000J0D01*
G01*
D17*
X17041500Y-6436100D02*
X17121500Y-6516100D01*
X17121500Y-6436100D02*
X17041500Y-6516100D01*
X17109785Y-6504384D02*
X17109785Y-6447815D01*
X17053216Y-6447815D01*
X17053216Y-6504384D01*
X17109785Y-6504384D01*
X17041500Y-6636100D02*
X17121500Y-6716100D01*
X17121500Y-6636100D02*
X17041500Y-6716100D01*
X17109785Y-6704384D02*
X17109785Y-6647815D01*
X17053216Y-6647815D01*
X17053216Y-6704384D01*
X17109785Y-6704384D01*
D18*
X11491680Y-5996000D02*
X11581680Y-6086000D01*
X11581680Y-5996000D02*
X11491680Y-6086000D01*
X11536680Y-6086000D02*
X11581680Y-6041000D01*
X11536680Y-5996000D01*
X11491680Y-6041000D01*
X11536680Y-6086000D01*
X11491680Y-6196000D02*
X11581680Y-6286000D01*
X11581680Y-6196000D02*
X11491680Y-6286000D01*
X11536680Y-6286000D02*
X11581680Y-6241000D01*
X11536680Y-6196000D01*
X11491680Y-6241000D01*
X11536680Y-6286000D01*
X11491680Y-6396000D02*
X11581680Y-6486000D01*
X11581680Y-6396000D02*
X11491680Y-6486000D01*
X11536680Y-6486000D02*
X11581680Y-6441000D01*
X11536680Y-6396000D01*
X11491680Y-6441000D01*
X11536680Y-6486000D01*
X11491680Y-6596000D02*
X11581680Y-6686000D01*
X11581680Y-6596000D02*
X11491680Y-6686000D01*
X11536680Y-6686000D02*
X11581680Y-6641000D01*
X11536680Y-6596000D01*
X11491680Y-6641000D01*
X11536680Y-6686000D01*
X11491680Y-6796000D02*
X11581680Y-6886000D01*
X11581680Y-6796000D02*
X11491680Y-6886000D01*
X11536680Y-6886000D02*
X11581680Y-6841000D01*
X11536680Y-6796000D01*
X11491680Y-6841000D01*
X11536680Y-6886000D01*
X11491680Y-6996000D02*
X11581680Y-7086000D01*
X11581680Y-6996000D02*
X11491680Y-7086000D01*
X11536680Y-7086000D02*
X11581680Y-7041000D01*
X11536680Y-6996000D01*
X11491680Y-7041000D01*
X11536680Y-7086000D01*
X16086920Y-7877260D02*
X16176920Y-7967260D01*
X16176920Y-7877260D02*
X16086920Y-7967260D01*
X16131920Y-7967260D02*
X16176920Y-7922260D01*
X16131920Y-7877260D01*
X16086920Y-7922260D01*
X16131920Y-7967260D01*
X16286920Y-7877260D02*
X16376920Y-7967260D01*
X16376920Y-7877260D02*
X16286920Y-7967260D01*
X16331920Y-7967260D02*
X16376920Y-7922260D01*
X16331920Y-7877260D01*
X16286920Y-7922260D01*
X16331920Y-7967260D01*
X16486920Y-7877260D02*
X16576920Y-7967260D01*
X16576920Y-7877260D02*
X16486920Y-7967260D01*
X16531920Y-7967260D02*
X16576920Y-7922260D01*
X16531920Y-7877260D01*
X16486920Y-7922260D01*
X16531920Y-7967260D01*
X16686920Y-7877260D02*
X16776920Y-7967260D01*
X16776920Y-7877260D02*
X16686920Y-7967260D01*
X16731920Y-7967260D02*
X16776920Y-7922260D01*
X16731920Y-7877260D01*
X16686920Y-7922260D01*
X16731920Y-7967260D01*
X16886920Y-7877260D02*
X16976920Y-7967260D01*
X16976920Y-7877260D02*
X16886920Y-7967260D01*
X16931920Y-7967260D02*
X16976920Y-7922260D01*
X16931920Y-7877260D01*
X16886920Y-7922260D01*
X16931920Y-7967260D01*
X17086920Y-7877260D02*
X17176920Y-7967260D01*
X17176920Y-7877260D02*
X17086920Y-7967260D01*
X17131920Y-7967260D02*
X17176920Y-7922260D01*
X17131920Y-7877260D01*
X17086920Y-7922260D01*
X17131920Y-7967260D01*
D11*
X5075000Y-5696000D02*
X5075000Y-5796000D01*
X5025000Y-5746000D02*
X5125000Y-5746000D01*
X5125000Y-5746000D02*
G75*
G03*
X5125000Y-5746000I-50000J0D01*
G01*
X5075000Y-5950000D02*
X5075000Y-6050000D01*
X5025000Y-6000000D02*
X5125000Y-6000000D01*
X5125000Y-6000000D02*
G75*
G03*
X5125000Y-6000000I-50000J0D01*
G01*
X9399000Y-2513000D02*
X9399000Y-2613000D01*
X9349000Y-2563000D02*
X9449000Y-2563000D01*
X9449000Y-2563000D02*
G75*
G03*
X9449000Y-2563000I-50000J0D01*
G01*
X9599000Y-2513000D02*
X9599000Y-2613000D01*
X9549000Y-2563000D02*
X9649000Y-2563000D01*
X9649000Y-2563000D02*
G75*
G03*
X9649000Y-2563000I-50000J0D01*
G01*
X9799000Y-2513000D02*
X9799000Y-2613000D01*
X9749000Y-2563000D02*
X9849000Y-2563000D01*
X9849000Y-2563000D02*
G75*
G03*
X9849000Y-2563000I-50000J0D01*
G01*
X9999000Y-2513000D02*
X9999000Y-2613000D01*
X9949000Y-2563000D02*
X10049000Y-2563000D01*
X10049000Y-2563000D02*
G75*
G03*
X10049000Y-2563000I-50000J0D01*
G01*
X10199000Y-2513000D02*
X10199000Y-2613000D01*
X10149000Y-2563000D02*
X10249000Y-2563000D01*
X10249000Y-2563000D02*
G75*
G03*
X10249000Y-2563000I-50000J0D01*
G01*
X10399000Y-2513000D02*
X10399000Y-2613000D01*
X10349000Y-2563000D02*
X10449000Y-2563000D01*
X10449000Y-2563000D02*
G75*
G03*
X10449000Y-2563000I-50000J0D01*
G01*
X11780000Y-2510000D02*
X11780000Y-2610000D01*
X11730000Y-2560000D02*
X11830000Y-2560000D01*
X11830000Y-2560000D02*
G75*
G03*
X11830000Y-2560000I-50000J0D01*
G01*
X17081500Y-5855500D02*
X17081500Y-5955500D01*
X17031500Y-5905500D02*
X17131500Y-5905500D01*
X17131500Y-5905500D02*
G75*
G03*
X17131500Y-5905500I-50000J0D01*
G01*
X17081500Y-6109500D02*
X17081500Y-6209500D01*
X17031500Y-6159500D02*
X17131500Y-6159500D01*
X17131500Y-6159500D02*
G75*
G03*
X17131500Y-6159500I-50000J0D01*
G01*
D19*
X5929312Y-3701891D02*
X5929312Y-3624109D01*
X5851530Y-3624109D01*
X5851530Y-3701891D01*
X5929312Y-3701891D01*
X5945421Y-3663000D02*
G75*
G03*
X5945421Y-3663000I-55000J0D01*
G01*
X6319024Y-3476891D02*
X6319024Y-3399109D01*
X6241241Y-3399109D01*
X6241241Y-3476891D01*
X6319024Y-3476891D01*
X6335133Y-3438000D02*
G75*
G03*
X6335133Y-3438000I-55000J0D01*
G01*
X15958180Y-3476891D02*
X15958180Y-3399109D01*
X15880397Y-3399109D01*
X15880397Y-3476891D01*
X15958180Y-3476891D01*
X15974289Y-3438000D02*
G75*
G03*
X15974289Y-3438000I-55000J0D01*
G01*
X16347891Y-3701891D02*
X16347891Y-3624109D01*
X16270109Y-3624109D01*
X16270109Y-3701891D01*
X16347891Y-3701891D01*
X16364000Y-3663000D02*
G75*
G03*
X16364000Y-3663000I-55000J0D01*
G01*
D20*
X15686035Y-3667006D02*
X15761035Y-3592006D01*
X15686035Y-3517006D01*
X15611035Y-3592006D01*
X15686035Y-3667006D01*
X15761035Y-3592006D02*
G75*
G03*
X15761035Y-3592006I-75000J0D01*
G01*
X16292253Y-4017006D02*
X16367253Y-3942006D01*
X16292253Y-3867006D01*
X16217253Y-3942006D01*
X16292253Y-4017006D01*
X16367253Y-3942006D02*
G75*
G03*
X16367253Y-3942006I-75000J0D01*
G01*
D21*
X6416001Y-4444539D02*
X6416001Y-4624539D01*
X6326001Y-4534539D02*
X6506001Y-4534539D01*
X6479641Y-4598179D02*
X6479641Y-4470899D01*
X6352361Y-4470899D01*
X6352361Y-4598179D01*
X6479641Y-4598179D01*
D12*
X6501573Y-4468377D02*
X6387841Y-4430102D01*
X6444161Y-4638976D02*
X6330429Y-4600701D01*
X6387841Y-4430102D02*
G75*
G03*
X6330429Y-4600701I-28706J-85299D01*
G01*
X6444161Y-4638976D02*
G75*
G03*
X6501573Y-4468377I28706J85299D01*
G01*
D21*
X7543015Y-5601107D02*
X7543015Y-5781107D01*
X7453015Y-5691107D02*
X7633015Y-5691107D01*
X7606656Y-5754748D02*
X7606656Y-5627467D01*
X7479375Y-5627467D01*
X7479375Y-5754748D01*
X7606656Y-5754748D01*
D12*
X7628588Y-5624946D02*
X7514856Y-5586671D01*
X7571175Y-5795544D02*
X7457443Y-5757269D01*
X7514856Y-5586671D02*
G75*
G03*
X7457443Y-5757269I-28706J-85299D01*
G01*
X7571175Y-5795544D02*
G75*
G03*
X7628588Y-5624946I28706J85299D01*
G01*
D21*
X11823900Y-10363455D02*
X11823900Y-10543455D01*
X11733900Y-10453455D02*
X11913900Y-10453455D01*
X11887540Y-10517095D02*
X11887540Y-10389815D01*
X11760260Y-10389815D01*
X11760260Y-10517095D01*
X11887540Y-10517095D01*
D12*
X11753351Y-10371463D02*
X11721080Y-10487042D01*
X11926720Y-10419868D02*
X11894449Y-10535448D01*
X11721080Y-10487042D02*
G75*
G03*
X11894449Y-10535448I86685J-24203D01*
G01*
X11926720Y-10419868D02*
G75*
G03*
X11753351Y-10371463I-86685J24203D01*
G01*
D21*
X12919900Y-9177455D02*
X12919900Y-9357455D01*
X12829900Y-9267455D02*
X13009900Y-9267455D01*
X12983540Y-9331095D02*
X12983540Y-9203815D01*
X12856260Y-9203815D01*
X12856260Y-9331095D01*
X12983540Y-9331095D01*
D12*
X12849351Y-9185463D02*
X12817080Y-9301042D01*
X13022720Y-9233868D02*
X12990449Y-9349448D01*
X12817080Y-9301042D02*
G75*
G03*
X12990449Y-9349448I86685J-24203D01*
G01*
X13022720Y-9233868D02*
G75*
G03*
X12849351Y-9185463I-86685J24203D01*
G01*
X5077319Y-11617899D02*
X5077319Y-11417899D01*
X5124938Y-11417899D01*
X5153510Y-11427423D01*
X5172557Y-11446471D01*
X5182081Y-11465518D01*
X5191605Y-11503614D01*
X5191605Y-11532185D01*
X5182081Y-11570280D01*
X5172557Y-11589328D01*
X5153510Y-11608376D01*
X5124938Y-11617899D01*
X5077319Y-11617899D01*
X5277319Y-11617899D02*
X5277319Y-11484566D01*
X5277319Y-11522661D02*
X5286843Y-11503614D01*
X5296367Y-11494090D01*
X5315414Y-11484566D01*
X5334462Y-11484566D01*
X5401129Y-11617899D02*
X5401129Y-11484566D01*
X5401129Y-11417899D02*
X5391605Y-11427423D01*
X5401129Y-11436947D01*
X5410652Y-11427423D01*
X5401129Y-11417899D01*
X5401129Y-11436947D01*
X5524938Y-11617899D02*
X5505890Y-11608376D01*
X5496367Y-11589328D01*
X5496367Y-11417899D01*
X5629700Y-11617899D02*
X5610652Y-11608376D01*
X5601128Y-11589328D01*
X5601128Y-11417899D01*
X5858271Y-11617899D02*
X5858271Y-11417899D01*
X5924938Y-11560757D01*
X5991605Y-11417899D01*
X5991605Y-11617899D01*
X6172557Y-11617899D02*
X6172557Y-11513137D01*
X6163033Y-11494090D01*
X6143986Y-11484566D01*
X6105890Y-11484566D01*
X6086843Y-11494090D01*
X6172557Y-11608376D02*
X6153509Y-11617899D01*
X6105890Y-11617899D01*
X6086843Y-11608376D01*
X6077319Y-11589328D01*
X6077319Y-11570280D01*
X6086843Y-11551233D01*
X6105890Y-11541709D01*
X6153509Y-11541709D01*
X6172557Y-11532185D01*
X6267795Y-11484566D02*
X6267795Y-11684566D01*
X6267795Y-11494090D02*
X6286843Y-11484566D01*
X6324938Y-11484566D01*
X6343986Y-11494090D01*
X6353509Y-11503614D01*
X6363033Y-11522661D01*
X6363033Y-11579804D01*
X6353509Y-11598852D01*
X6343986Y-11608376D01*
X6324938Y-11617899D01*
X6286843Y-11617899D01*
X6267795Y-11608376D01*
X6448748Y-11598852D02*
X6458271Y-11608376D01*
X6448748Y-11617899D01*
X6439224Y-11608376D01*
X6448748Y-11598852D01*
X6448748Y-11617899D01*
X6448748Y-11494090D02*
X6458271Y-11503614D01*
X6448748Y-11513137D01*
X6439224Y-11503614D01*
X6448748Y-11494090D01*
X6448748Y-11513137D01*
D13*
X4784700Y-11929923D02*
X4819700Y-11964923D01*
X4819700Y-11929923D02*
X4784700Y-11964923D01*
D12*
X5115414Y-11837899D02*
X5134462Y-11837899D01*
X5153510Y-11847423D01*
X5163033Y-11856947D01*
X5172557Y-11875995D01*
X5182081Y-11914090D01*
X5182081Y-11961709D01*
X5172557Y-11999804D01*
X5163033Y-12018852D01*
X5153510Y-12028376D01*
X5134462Y-12037899D01*
X5115414Y-12037899D01*
X5096367Y-12028376D01*
X5086843Y-12018852D01*
X5077319Y-11999804D01*
X5067795Y-11961709D01*
X5067795Y-11914090D01*
X5077319Y-11875995D01*
X5086843Y-11856947D01*
X5096367Y-11847423D01*
X5115414Y-11837899D01*
X5267795Y-12018852D02*
X5277319Y-12028376D01*
X5267795Y-12037899D01*
X5258271Y-12028376D01*
X5267795Y-12018852D01*
X5267795Y-12037899D01*
X5343986Y-11837899D02*
X5467795Y-11837899D01*
X5401129Y-11914090D01*
X5429700Y-11914090D01*
X5448748Y-11923614D01*
X5458271Y-11933137D01*
X5467795Y-11952185D01*
X5467795Y-11999804D01*
X5458271Y-12018852D01*
X5448748Y-12028376D01*
X5429700Y-12037899D01*
X5372557Y-12037899D01*
X5353510Y-12028376D01*
X5343986Y-12018852D01*
X5648748Y-11837899D02*
X5553510Y-11837899D01*
X5543986Y-11933137D01*
X5553510Y-11923614D01*
X5572557Y-11914090D01*
X5620176Y-11914090D01*
X5639224Y-11923614D01*
X5648748Y-11933137D01*
X5658271Y-11952185D01*
X5658271Y-11999804D01*
X5648748Y-12018852D01*
X5639224Y-12028376D01*
X5620176Y-12037899D01*
X5572557Y-12037899D01*
X5553510Y-12028376D01*
X5543986Y-12018852D01*
X5782081Y-11837899D02*
X5801128Y-11837899D01*
X5820176Y-11847423D01*
X5829700Y-11856947D01*
X5839224Y-11875995D01*
X5848748Y-11914090D01*
X5848748Y-11961709D01*
X5839224Y-11999804D01*
X5829700Y-12018852D01*
X5820176Y-12028376D01*
X5801128Y-12037899D01*
X5782081Y-12037899D01*
X5763033Y-12028376D01*
X5753509Y-12018852D01*
X5743986Y-11999804D01*
X5734462Y-11961709D01*
X5734462Y-11914090D01*
X5743986Y-11875995D01*
X5753509Y-11856947D01*
X5763033Y-11847423D01*
X5782081Y-11837899D01*
X5934462Y-12037899D02*
X5934462Y-11904566D01*
X5934462Y-11923614D02*
X5943986Y-11914090D01*
X5963033Y-11904566D01*
X5991605Y-11904566D01*
X6010652Y-11914090D01*
X6020176Y-11933137D01*
X6020176Y-12037899D01*
X6020176Y-11933137D02*
X6029700Y-11914090D01*
X6048748Y-11904566D01*
X6077319Y-11904566D01*
X6096367Y-11914090D01*
X6105890Y-11933137D01*
X6105890Y-12037899D01*
X6201128Y-12037899D02*
X6201128Y-11904566D01*
X6201128Y-11923614D02*
X6210652Y-11914090D01*
X6229700Y-11904566D01*
X6258271Y-11904566D01*
X6277319Y-11914090D01*
X6286843Y-11933137D01*
X6286843Y-12037899D01*
X6286843Y-11933137D02*
X6296367Y-11914090D01*
X6315414Y-11904566D01*
X6343986Y-11904566D01*
X6363033Y-11914090D01*
X6372557Y-11933137D01*
X6372557Y-12037899D01*
X6763033Y-11828376D02*
X6591605Y-12085518D01*
X7020176Y-11837899D02*
X7039224Y-11837899D01*
X7058271Y-11847423D01*
X7067795Y-11856947D01*
X7077319Y-11875995D01*
X7086843Y-11914090D01*
X7086843Y-11961709D01*
X7077319Y-11999804D01*
X7067795Y-12018852D01*
X7058271Y-12028376D01*
X7039224Y-12037899D01*
X7020176Y-12037899D01*
X7001128Y-12028376D01*
X6991605Y-12018852D01*
X6982081Y-11999804D01*
X6972557Y-11961709D01*
X6972557Y-11914090D01*
X6982081Y-11875995D01*
X6991605Y-11856947D01*
X7001128Y-11847423D01*
X7020176Y-11837899D01*
X7172557Y-12018852D02*
X7182081Y-12028376D01*
X7172557Y-12037899D01*
X7163033Y-12028376D01*
X7172557Y-12018852D01*
X7172557Y-12037899D01*
X7305890Y-11837899D02*
X7324938Y-11837899D01*
X7343986Y-11847423D01*
X7353509Y-11856947D01*
X7363033Y-11875995D01*
X7372557Y-11914090D01*
X7372557Y-11961709D01*
X7363033Y-11999804D01*
X7353509Y-12018852D01*
X7343986Y-12028376D01*
X7324938Y-12037899D01*
X7305890Y-12037899D01*
X7286843Y-12028376D01*
X7277319Y-12018852D01*
X7267795Y-11999804D01*
X7258271Y-11961709D01*
X7258271Y-11914090D01*
X7267795Y-11875995D01*
X7277319Y-11856947D01*
X7286843Y-11847423D01*
X7305890Y-11837899D01*
X7563033Y-12037899D02*
X7448748Y-12037899D01*
X7505890Y-12037899D02*
X7505890Y-11837899D01*
X7486843Y-11866471D01*
X7467795Y-11885518D01*
X7448748Y-11895042D01*
X7629700Y-11837899D02*
X7753509Y-11837899D01*
X7686843Y-11914090D01*
X7715414Y-11914090D01*
X7734462Y-11923614D01*
X7743986Y-11933137D01*
X7753509Y-11952185D01*
X7753509Y-11999804D01*
X7743986Y-12018852D01*
X7734462Y-12028376D01*
X7715414Y-12037899D01*
X7658271Y-12037899D01*
X7639224Y-12028376D01*
X7629700Y-12018852D01*
X7867795Y-11923614D02*
X7848748Y-11914090D01*
X7839224Y-11904566D01*
X7829700Y-11885518D01*
X7829700Y-11875995D01*
X7839224Y-11856947D01*
X7848748Y-11847423D01*
X7867795Y-11837899D01*
X7905890Y-11837899D01*
X7924938Y-11847423D01*
X7934462Y-11856947D01*
X7943986Y-11875995D01*
X7943986Y-11885518D01*
X7934462Y-11904566D01*
X7924938Y-11914090D01*
X7905890Y-11923614D01*
X7867795Y-11923614D01*
X7848748Y-11933137D01*
X7839224Y-11942661D01*
X7829700Y-11961709D01*
X7829700Y-11999804D01*
X7839224Y-12018852D01*
X7848748Y-12028376D01*
X7867795Y-12037899D01*
X7905890Y-12037899D01*
X7924938Y-12028376D01*
X7934462Y-12018852D01*
X7943986Y-11999804D01*
X7943986Y-11961709D01*
X7934462Y-11942661D01*
X7924938Y-11933137D01*
X7905890Y-11923614D01*
X8020176Y-11837899D02*
X8020176Y-11875995D01*
X8096367Y-11837899D02*
X8096367Y-11875995D01*
X8391605Y-12114090D02*
X8382081Y-12104566D01*
X8363033Y-12075995D01*
X8353509Y-12056947D01*
X8343986Y-12028376D01*
X8334462Y-11980757D01*
X8334462Y-11942661D01*
X8343986Y-11895042D01*
X8353509Y-11866471D01*
X8363033Y-11847423D01*
X8382081Y-11818852D01*
X8391605Y-11809328D01*
X8572557Y-12037899D02*
X8458271Y-12037899D01*
X8515414Y-12037899D02*
X8515414Y-11837899D01*
X8496367Y-11866471D01*
X8477319Y-11885518D01*
X8458271Y-11895042D01*
X8648748Y-11856947D02*
X8658271Y-11847423D01*
X8677319Y-11837899D01*
X8724938Y-11837899D01*
X8743986Y-11847423D01*
X8753510Y-11856947D01*
X8763033Y-11875995D01*
X8763033Y-11895042D01*
X8753510Y-11923614D01*
X8639224Y-12037899D01*
X8763033Y-12037899D01*
X9001129Y-12037899D02*
X9001129Y-11837899D01*
X9086843Y-12037899D02*
X9086843Y-11933137D01*
X9077319Y-11914090D01*
X9058271Y-11904566D01*
X9029700Y-11904566D01*
X9010652Y-11914090D01*
X9001129Y-11923614D01*
X9210652Y-12037899D02*
X9191605Y-12028376D01*
X9182081Y-12018852D01*
X9172557Y-11999804D01*
X9172557Y-11942661D01*
X9182081Y-11923614D01*
X9191605Y-11914090D01*
X9210652Y-11904566D01*
X9239224Y-11904566D01*
X9258271Y-11914090D01*
X9267795Y-11923614D01*
X9277319Y-11942661D01*
X9277319Y-11999804D01*
X9267795Y-12018852D01*
X9258271Y-12028376D01*
X9239224Y-12037899D01*
X9210652Y-12037899D01*
X9391605Y-12037899D02*
X9372557Y-12028376D01*
X9363033Y-12009328D01*
X9363033Y-11837899D01*
X9543986Y-12028376D02*
X9524938Y-12037899D01*
X9486843Y-12037899D01*
X9467795Y-12028376D01*
X9458271Y-12009328D01*
X9458271Y-11933137D01*
X9467795Y-11914090D01*
X9486843Y-11904566D01*
X9524938Y-11904566D01*
X9543986Y-11914090D01*
X9553510Y-11933137D01*
X9553510Y-11952185D01*
X9458271Y-11971233D01*
X9629700Y-12028376D02*
X9648748Y-12037899D01*
X9686843Y-12037899D01*
X9705890Y-12028376D01*
X9715414Y-12009328D01*
X9715414Y-11999804D01*
X9705890Y-11980757D01*
X9686843Y-11971233D01*
X9658271Y-11971233D01*
X9639224Y-11961709D01*
X9629700Y-11942661D01*
X9629700Y-11933137D01*
X9639224Y-11914090D01*
X9658271Y-11904566D01*
X9686843Y-11904566D01*
X9705890Y-11914090D01*
X9782081Y-12114090D02*
X9791605Y-12104566D01*
X9810652Y-12075995D01*
X9820176Y-12056947D01*
X9829700Y-12028376D01*
X9839224Y-11980757D01*
X9839224Y-11942661D01*
X9829700Y-11895042D01*
X9820176Y-11866471D01*
X9810652Y-11847423D01*
X9791605Y-11818852D01*
X9782081Y-11809328D01*
D13*
X4819700Y-12211423D02*
G75*
G03*
X4819700Y-12211423I-17500J0D01*
G01*
D12*
X5115414Y-12101899D02*
X5134462Y-12101899D01*
X5153510Y-12111423D01*
X5163033Y-12120947D01*
X5172557Y-12139995D01*
X5182081Y-12178090D01*
X5182081Y-12225709D01*
X5172557Y-12263804D01*
X5163033Y-12282852D01*
X5153510Y-12292376D01*
X5134462Y-12301899D01*
X5115414Y-12301899D01*
X5096367Y-12292376D01*
X5086843Y-12282852D01*
X5077319Y-12263804D01*
X5067795Y-12225709D01*
X5067795Y-12178090D01*
X5077319Y-12139995D01*
X5086843Y-12120947D01*
X5096367Y-12111423D01*
X5115414Y-12101899D01*
X5267795Y-12282852D02*
X5277319Y-12292376D01*
X5267795Y-12301899D01*
X5258271Y-12292376D01*
X5267795Y-12282852D01*
X5267795Y-12301899D01*
X5343986Y-12101899D02*
X5467795Y-12101899D01*
X5401129Y-12178090D01*
X5429700Y-12178090D01*
X5448748Y-12187614D01*
X5458271Y-12197137D01*
X5467795Y-12216185D01*
X5467795Y-12263804D01*
X5458271Y-12282852D01*
X5448748Y-12292376D01*
X5429700Y-12301899D01*
X5372557Y-12301899D01*
X5353510Y-12292376D01*
X5343986Y-12282852D01*
X5648748Y-12101899D02*
X5553510Y-12101899D01*
X5543986Y-12197137D01*
X5553510Y-12187614D01*
X5572557Y-12178090D01*
X5620176Y-12178090D01*
X5639224Y-12187614D01*
X5648748Y-12197137D01*
X5658271Y-12216185D01*
X5658271Y-12263804D01*
X5648748Y-12282852D01*
X5639224Y-12292376D01*
X5620176Y-12301899D01*
X5572557Y-12301899D01*
X5553510Y-12292376D01*
X5543986Y-12282852D01*
X5782081Y-12101899D02*
X5801128Y-12101899D01*
X5820176Y-12111423D01*
X5829700Y-12120947D01*
X5839224Y-12139995D01*
X5848748Y-12178090D01*
X5848748Y-12225709D01*
X5839224Y-12263804D01*
X5829700Y-12282852D01*
X5820176Y-12292376D01*
X5801128Y-12301899D01*
X5782081Y-12301899D01*
X5763033Y-12292376D01*
X5753509Y-12282852D01*
X5743986Y-12263804D01*
X5734462Y-12225709D01*
X5734462Y-12178090D01*
X5743986Y-12139995D01*
X5753509Y-12120947D01*
X5763033Y-12111423D01*
X5782081Y-12101899D01*
X5934462Y-12301899D02*
X5934462Y-12168566D01*
X5934462Y-12187614D02*
X5943986Y-12178090D01*
X5963033Y-12168566D01*
X5991605Y-12168566D01*
X6010652Y-12178090D01*
X6020176Y-12197137D01*
X6020176Y-12301899D01*
X6020176Y-12197137D02*
X6029700Y-12178090D01*
X6048748Y-12168566D01*
X6077319Y-12168566D01*
X6096367Y-12178090D01*
X6105890Y-12197137D01*
X6105890Y-12301899D01*
X6201128Y-12301899D02*
X6201128Y-12168566D01*
X6201128Y-12187614D02*
X6210652Y-12178090D01*
X6229700Y-12168566D01*
X6258271Y-12168566D01*
X6277319Y-12178090D01*
X6286843Y-12197137D01*
X6286843Y-12301899D01*
X6286843Y-12197137D02*
X6296367Y-12178090D01*
X6315414Y-12168566D01*
X6343986Y-12168566D01*
X6363033Y-12178090D01*
X6372557Y-12197137D01*
X6372557Y-12301899D01*
X6763033Y-12092376D02*
X6591605Y-12349518D01*
X7020176Y-12101899D02*
X7039224Y-12101899D01*
X7058271Y-12111423D01*
X7067795Y-12120947D01*
X7077319Y-12139995D01*
X7086843Y-12178090D01*
X7086843Y-12225709D01*
X7077319Y-12263804D01*
X7067795Y-12282852D01*
X7058271Y-12292376D01*
X7039224Y-12301899D01*
X7020176Y-12301899D01*
X7001128Y-12292376D01*
X6991605Y-12282852D01*
X6982081Y-12263804D01*
X6972557Y-12225709D01*
X6972557Y-12178090D01*
X6982081Y-12139995D01*
X6991605Y-12120947D01*
X7001128Y-12111423D01*
X7020176Y-12101899D01*
X7172557Y-12282852D02*
X7182081Y-12292376D01*
X7172557Y-12301899D01*
X7163033Y-12292376D01*
X7172557Y-12282852D01*
X7172557Y-12301899D01*
X7305890Y-12101899D02*
X7324938Y-12101899D01*
X7343986Y-12111423D01*
X7353509Y-12120947D01*
X7363033Y-12139995D01*
X7372557Y-12178090D01*
X7372557Y-12225709D01*
X7363033Y-12263804D01*
X7353509Y-12282852D01*
X7343986Y-12292376D01*
X7324938Y-12301899D01*
X7305890Y-12301899D01*
X7286843Y-12292376D01*
X7277319Y-12282852D01*
X7267795Y-12263804D01*
X7258271Y-12225709D01*
X7258271Y-12178090D01*
X7267795Y-12139995D01*
X7277319Y-12120947D01*
X7286843Y-12111423D01*
X7305890Y-12101899D01*
X7563033Y-12301899D02*
X7448748Y-12301899D01*
X7505890Y-12301899D02*
X7505890Y-12101899D01*
X7486843Y-12130471D01*
X7467795Y-12149518D01*
X7448748Y-12159042D01*
X7629700Y-12101899D02*
X7753509Y-12101899D01*
X7686843Y-12178090D01*
X7715414Y-12178090D01*
X7734462Y-12187614D01*
X7743986Y-12197137D01*
X7753509Y-12216185D01*
X7753509Y-12263804D01*
X7743986Y-12282852D01*
X7734462Y-12292376D01*
X7715414Y-12301899D01*
X7658271Y-12301899D01*
X7639224Y-12292376D01*
X7629700Y-12282852D01*
X7867795Y-12187614D02*
X7848748Y-12178090D01*
X7839224Y-12168566D01*
X7829700Y-12149518D01*
X7829700Y-12139995D01*
X7839224Y-12120947D01*
X7848748Y-12111423D01*
X7867795Y-12101899D01*
X7905890Y-12101899D01*
X7924938Y-12111423D01*
X7934462Y-12120947D01*
X7943986Y-12139995D01*
X7943986Y-12149518D01*
X7934462Y-12168566D01*
X7924938Y-12178090D01*
X7905890Y-12187614D01*
X7867795Y-12187614D01*
X7848748Y-12197137D01*
X7839224Y-12206661D01*
X7829700Y-12225709D01*
X7829700Y-12263804D01*
X7839224Y-12282852D01*
X7848748Y-12292376D01*
X7867795Y-12301899D01*
X7905890Y-12301899D01*
X7924938Y-12292376D01*
X7934462Y-12282852D01*
X7943986Y-12263804D01*
X7943986Y-12225709D01*
X7934462Y-12206661D01*
X7924938Y-12197137D01*
X7905890Y-12187614D01*
X8020176Y-12101899D02*
X8020176Y-12139995D01*
X8096367Y-12101899D02*
X8096367Y-12139995D01*
X8391605Y-12378090D02*
X8382081Y-12368566D01*
X8363033Y-12339995D01*
X8353509Y-12320947D01*
X8343986Y-12292376D01*
X8334462Y-12244757D01*
X8334462Y-12206661D01*
X8343986Y-12159042D01*
X8353509Y-12130471D01*
X8363033Y-12111423D01*
X8382081Y-12082852D01*
X8391605Y-12073328D01*
X8477319Y-12301899D02*
X8515414Y-12301899D01*
X8534462Y-12292376D01*
X8543986Y-12282852D01*
X8563033Y-12254280D01*
X8572557Y-12216185D01*
X8572557Y-12139995D01*
X8563033Y-12120947D01*
X8553510Y-12111423D01*
X8534462Y-12101899D01*
X8496367Y-12101899D01*
X8477319Y-12111423D01*
X8467795Y-12120947D01*
X8458271Y-12139995D01*
X8458271Y-12187614D01*
X8467795Y-12206661D01*
X8477319Y-12216185D01*
X8496367Y-12225709D01*
X8534462Y-12225709D01*
X8553510Y-12216185D01*
X8563033Y-12206661D01*
X8572557Y-12187614D01*
X8810652Y-12301899D02*
X8810652Y-12101899D01*
X8896367Y-12301899D02*
X8896367Y-12197137D01*
X8886843Y-12178090D01*
X8867795Y-12168566D01*
X8839224Y-12168566D01*
X8820176Y-12178090D01*
X8810652Y-12187614D01*
X9020176Y-12301899D02*
X9001129Y-12292376D01*
X8991605Y-12282852D01*
X8982081Y-12263804D01*
X8982081Y-12206661D01*
X8991605Y-12187614D01*
X9001129Y-12178090D01*
X9020176Y-12168566D01*
X9048748Y-12168566D01*
X9067795Y-12178090D01*
X9077319Y-12187614D01*
X9086843Y-12206661D01*
X9086843Y-12263804D01*
X9077319Y-12282852D01*
X9067795Y-12292376D01*
X9048748Y-12301899D01*
X9020176Y-12301899D01*
X9201129Y-12301899D02*
X9182081Y-12292376D01*
X9172557Y-12273328D01*
X9172557Y-12101899D01*
X9353510Y-12292376D02*
X9334462Y-12301899D01*
X9296367Y-12301899D01*
X9277319Y-12292376D01*
X9267795Y-12273328D01*
X9267795Y-12197137D01*
X9277319Y-12178090D01*
X9296367Y-12168566D01*
X9334462Y-12168566D01*
X9353510Y-12178090D01*
X9363033Y-12197137D01*
X9363033Y-12216185D01*
X9267795Y-12235233D01*
X9439224Y-12292376D02*
X9458271Y-12301899D01*
X9496367Y-12301899D01*
X9515414Y-12292376D01*
X9524938Y-12273328D01*
X9524938Y-12263804D01*
X9515414Y-12244757D01*
X9496367Y-12235233D01*
X9467795Y-12235233D01*
X9448748Y-12225709D01*
X9439224Y-12206661D01*
X9439224Y-12197137D01*
X9448748Y-12178090D01*
X9467795Y-12168566D01*
X9496367Y-12168566D01*
X9515414Y-12178090D01*
X9591605Y-12378090D02*
X9601129Y-12368566D01*
X9620176Y-12339995D01*
X9629700Y-12320947D01*
X9639224Y-12292376D01*
X9648748Y-12244757D01*
X9648748Y-12206661D01*
X9639224Y-12159042D01*
X9629700Y-12130471D01*
X9620176Y-12111423D01*
X9601129Y-12082852D01*
X9591605Y-12073328D01*
D14*
X4799700Y-12455423D02*
X4799700Y-12495423D01*
X4779700Y-12475423D02*
X4819700Y-12475423D01*
D12*
X5115414Y-12365899D02*
X5134462Y-12365899D01*
X5153510Y-12375423D01*
X5163033Y-12384947D01*
X5172557Y-12403995D01*
X5182081Y-12442090D01*
X5182081Y-12489709D01*
X5172557Y-12527804D01*
X5163033Y-12546852D01*
X5153510Y-12556376D01*
X5134462Y-12565899D01*
X5115414Y-12565899D01*
X5096367Y-12556376D01*
X5086843Y-12546852D01*
X5077319Y-12527804D01*
X5067795Y-12489709D01*
X5067795Y-12442090D01*
X5077319Y-12403995D01*
X5086843Y-12384947D01*
X5096367Y-12375423D01*
X5115414Y-12365899D01*
X5267795Y-12546852D02*
X5277319Y-12556376D01*
X5267795Y-12565899D01*
X5258271Y-12556376D01*
X5267795Y-12546852D01*
X5267795Y-12565899D01*
X5448748Y-12432566D02*
X5448748Y-12565899D01*
X5401129Y-12356376D02*
X5353510Y-12499233D01*
X5477319Y-12499233D01*
X5591605Y-12365899D02*
X5610652Y-12365899D01*
X5629700Y-12375423D01*
X5639224Y-12384947D01*
X5648748Y-12403995D01*
X5658271Y-12442090D01*
X5658271Y-12489709D01*
X5648748Y-12527804D01*
X5639224Y-12546852D01*
X5629700Y-12556376D01*
X5610652Y-12565899D01*
X5591605Y-12565899D01*
X5572557Y-12556376D01*
X5563033Y-12546852D01*
X5553510Y-12527804D01*
X5543986Y-12489709D01*
X5543986Y-12442090D01*
X5553510Y-12403995D01*
X5563033Y-12384947D01*
X5572557Y-12375423D01*
X5591605Y-12365899D01*
X5782081Y-12365899D02*
X5801128Y-12365899D01*
X5820176Y-12375423D01*
X5829700Y-12384947D01*
X5839224Y-12403995D01*
X5848748Y-12442090D01*
X5848748Y-12489709D01*
X5839224Y-12527804D01*
X5829700Y-12546852D01*
X5820176Y-12556376D01*
X5801128Y-12565899D01*
X5782081Y-12565899D01*
X5763033Y-12556376D01*
X5753509Y-12546852D01*
X5743986Y-12527804D01*
X5734462Y-12489709D01*
X5734462Y-12442090D01*
X5743986Y-12403995D01*
X5753509Y-12384947D01*
X5763033Y-12375423D01*
X5782081Y-12365899D01*
X5934462Y-12565899D02*
X5934462Y-12432566D01*
X5934462Y-12451614D02*
X5943986Y-12442090D01*
X5963033Y-12432566D01*
X5991605Y-12432566D01*
X6010652Y-12442090D01*
X6020176Y-12461137D01*
X6020176Y-12565899D01*
X6020176Y-12461137D02*
X6029700Y-12442090D01*
X6048748Y-12432566D01*
X6077319Y-12432566D01*
X6096367Y-12442090D01*
X6105890Y-12461137D01*
X6105890Y-12565899D01*
X6201128Y-12565899D02*
X6201128Y-12432566D01*
X6201128Y-12451614D02*
X6210652Y-12442090D01*
X6229700Y-12432566D01*
X6258271Y-12432566D01*
X6277319Y-12442090D01*
X6286843Y-12461137D01*
X6286843Y-12565899D01*
X6286843Y-12461137D02*
X6296367Y-12442090D01*
X6315414Y-12432566D01*
X6343986Y-12432566D01*
X6363033Y-12442090D01*
X6372557Y-12461137D01*
X6372557Y-12565899D01*
X6763033Y-12356376D02*
X6591605Y-12613518D01*
X7020176Y-12365899D02*
X7039224Y-12365899D01*
X7058271Y-12375423D01*
X7067795Y-12384947D01*
X7077319Y-12403995D01*
X7086843Y-12442090D01*
X7086843Y-12489709D01*
X7077319Y-12527804D01*
X7067795Y-12546852D01*
X7058271Y-12556376D01*
X7039224Y-12565899D01*
X7020176Y-12565899D01*
X7001128Y-12556376D01*
X6991605Y-12546852D01*
X6982081Y-12527804D01*
X6972557Y-12489709D01*
X6972557Y-12442090D01*
X6982081Y-12403995D01*
X6991605Y-12384947D01*
X7001128Y-12375423D01*
X7020176Y-12365899D01*
X7172557Y-12546852D02*
X7182081Y-12556376D01*
X7172557Y-12565899D01*
X7163033Y-12556376D01*
X7172557Y-12546852D01*
X7172557Y-12565899D01*
X7305890Y-12365899D02*
X7324938Y-12365899D01*
X7343986Y-12375423D01*
X7353509Y-12384947D01*
X7363033Y-12403995D01*
X7372557Y-12442090D01*
X7372557Y-12489709D01*
X7363033Y-12527804D01*
X7353509Y-12546852D01*
X7343986Y-12556376D01*
X7324938Y-12565899D01*
X7305890Y-12565899D01*
X7286843Y-12556376D01*
X7277319Y-12546852D01*
X7267795Y-12527804D01*
X7258271Y-12489709D01*
X7258271Y-12442090D01*
X7267795Y-12403995D01*
X7277319Y-12384947D01*
X7286843Y-12375423D01*
X7305890Y-12365899D01*
X7563033Y-12565899D02*
X7448748Y-12565899D01*
X7505890Y-12565899D02*
X7505890Y-12365899D01*
X7486843Y-12394471D01*
X7467795Y-12413518D01*
X7448748Y-12423042D01*
X7743986Y-12365899D02*
X7648748Y-12365899D01*
X7639224Y-12461137D01*
X7648748Y-12451614D01*
X7667795Y-12442090D01*
X7715414Y-12442090D01*
X7734462Y-12451614D01*
X7743986Y-12461137D01*
X7753509Y-12480185D01*
X7753509Y-12527804D01*
X7743986Y-12546852D01*
X7734462Y-12556376D01*
X7715414Y-12565899D01*
X7667795Y-12565899D01*
X7648748Y-12556376D01*
X7639224Y-12546852D01*
X7820176Y-12365899D02*
X7953509Y-12365899D01*
X7867795Y-12565899D01*
X8020176Y-12365899D02*
X8020176Y-12403995D01*
X8096367Y-12365899D02*
X8096367Y-12403995D01*
X8391605Y-12642090D02*
X8382081Y-12632566D01*
X8363033Y-12603995D01*
X8353509Y-12584947D01*
X8343986Y-12556376D01*
X8334462Y-12508757D01*
X8334462Y-12470661D01*
X8343986Y-12423042D01*
X8353509Y-12394471D01*
X8363033Y-12375423D01*
X8382081Y-12346852D01*
X8391605Y-12337328D01*
X8572557Y-12565899D02*
X8458271Y-12565899D01*
X8515414Y-12565899D02*
X8515414Y-12365899D01*
X8496367Y-12394471D01*
X8477319Y-12413518D01*
X8458271Y-12423042D01*
X8763033Y-12565899D02*
X8648748Y-12565899D01*
X8705890Y-12565899D02*
X8705890Y-12365899D01*
X8686843Y-12394471D01*
X8667795Y-12413518D01*
X8648748Y-12423042D01*
X8829700Y-12365899D02*
X8963033Y-12365899D01*
X8877319Y-12565899D01*
X9191605Y-12565899D02*
X9191605Y-12365899D01*
X9277319Y-12565899D02*
X9277319Y-12461137D01*
X9267795Y-12442090D01*
X9248748Y-12432566D01*
X9220176Y-12432566D01*
X9201129Y-12442090D01*
X9191605Y-12451614D01*
X9401129Y-12565899D02*
X9382081Y-12556376D01*
X9372557Y-12546852D01*
X9363033Y-12527804D01*
X9363033Y-12470661D01*
X9372557Y-12451614D01*
X9382081Y-12442090D01*
X9401129Y-12432566D01*
X9429700Y-12432566D01*
X9448748Y-12442090D01*
X9458271Y-12451614D01*
X9467795Y-12470661D01*
X9467795Y-12527804D01*
X9458271Y-12546852D01*
X9448748Y-12556376D01*
X9429700Y-12565899D01*
X9401129Y-12565899D01*
X9582081Y-12565899D02*
X9563033Y-12556376D01*
X9553510Y-12537328D01*
X9553510Y-12365899D01*
X9734462Y-12556376D02*
X9715414Y-12565899D01*
X9677319Y-12565899D01*
X9658271Y-12556376D01*
X9648748Y-12537328D01*
X9648748Y-12461137D01*
X9658271Y-12442090D01*
X9677319Y-12432566D01*
X9715414Y-12432566D01*
X9734462Y-12442090D01*
X9743986Y-12461137D01*
X9743986Y-12480185D01*
X9648748Y-12499233D01*
X9820176Y-12556376D02*
X9839224Y-12565899D01*
X9877319Y-12565899D01*
X9896367Y-12556376D01*
X9905890Y-12537328D01*
X9905890Y-12527804D01*
X9896367Y-12508757D01*
X9877319Y-12499233D01*
X9848748Y-12499233D01*
X9829700Y-12489709D01*
X9820176Y-12470661D01*
X9820176Y-12461137D01*
X9829700Y-12442090D01*
X9848748Y-12432566D01*
X9877319Y-12432566D01*
X9896367Y-12442090D01*
X9972557Y-12642090D02*
X9982081Y-12632566D01*
X10001129Y-12603995D01*
X10010652Y-12584947D01*
X10020176Y-12556376D01*
X10029700Y-12508757D01*
X10029700Y-12470661D01*
X10020176Y-12423042D01*
X10010652Y-12394471D01*
X10001129Y-12375423D01*
X9982081Y-12346852D01*
X9972557Y-12337328D01*
D14*
X4813842Y-12753566D02*
X4813842Y-12725281D01*
X4785558Y-12725281D01*
X4785558Y-12753566D01*
X4813842Y-12753566D01*
D12*
X5115414Y-12629899D02*
X5134462Y-12629899D01*
X5153510Y-12639423D01*
X5163033Y-12648947D01*
X5172557Y-12667995D01*
X5182081Y-12706090D01*
X5182081Y-12753709D01*
X5172557Y-12791804D01*
X5163033Y-12810852D01*
X5153510Y-12820376D01*
X5134462Y-12829899D01*
X5115414Y-12829899D01*
X5096367Y-12820376D01*
X5086843Y-12810852D01*
X5077319Y-12791804D01*
X5067795Y-12753709D01*
X5067795Y-12706090D01*
X5077319Y-12667995D01*
X5086843Y-12648947D01*
X5096367Y-12639423D01*
X5115414Y-12629899D01*
X5267795Y-12810852D02*
X5277319Y-12820376D01*
X5267795Y-12829899D01*
X5258271Y-12820376D01*
X5267795Y-12810852D01*
X5267795Y-12829899D01*
X5448748Y-12696566D02*
X5448748Y-12829899D01*
X5401129Y-12620376D02*
X5353510Y-12763233D01*
X5477319Y-12763233D01*
X5591605Y-12629899D02*
X5610652Y-12629899D01*
X5629700Y-12639423D01*
X5639224Y-12648947D01*
X5648748Y-12667995D01*
X5658271Y-12706090D01*
X5658271Y-12753709D01*
X5648748Y-12791804D01*
X5639224Y-12810852D01*
X5629700Y-12820376D01*
X5610652Y-12829899D01*
X5591605Y-12829899D01*
X5572557Y-12820376D01*
X5563033Y-12810852D01*
X5553510Y-12791804D01*
X5543986Y-12753709D01*
X5543986Y-12706090D01*
X5553510Y-12667995D01*
X5563033Y-12648947D01*
X5572557Y-12639423D01*
X5591605Y-12629899D01*
X5782081Y-12629899D02*
X5801128Y-12629899D01*
X5820176Y-12639423D01*
X5829700Y-12648947D01*
X5839224Y-12667995D01*
X5848748Y-12706090D01*
X5848748Y-12753709D01*
X5839224Y-12791804D01*
X5829700Y-12810852D01*
X5820176Y-12820376D01*
X5801128Y-12829899D01*
X5782081Y-12829899D01*
X5763033Y-12820376D01*
X5753509Y-12810852D01*
X5743986Y-12791804D01*
X5734462Y-12753709D01*
X5734462Y-12706090D01*
X5743986Y-12667995D01*
X5753509Y-12648947D01*
X5763033Y-12639423D01*
X5782081Y-12629899D01*
X5934462Y-12829899D02*
X5934462Y-12696566D01*
X5934462Y-12715614D02*
X5943986Y-12706090D01*
X5963033Y-12696566D01*
X5991605Y-12696566D01*
X6010652Y-12706090D01*
X6020176Y-12725137D01*
X6020176Y-12829899D01*
X6020176Y-12725137D02*
X6029700Y-12706090D01*
X6048748Y-12696566D01*
X6077319Y-12696566D01*
X6096367Y-12706090D01*
X6105890Y-12725137D01*
X6105890Y-12829899D01*
X6201128Y-12829899D02*
X6201128Y-12696566D01*
X6201128Y-12715614D02*
X6210652Y-12706090D01*
X6229700Y-12696566D01*
X6258271Y-12696566D01*
X6277319Y-12706090D01*
X6286843Y-12725137D01*
X6286843Y-12829899D01*
X6286843Y-12725137D02*
X6296367Y-12706090D01*
X6315414Y-12696566D01*
X6343986Y-12696566D01*
X6363033Y-12706090D01*
X6372557Y-12725137D01*
X6372557Y-12829899D01*
X6763033Y-12620376D02*
X6591605Y-12877518D01*
X7020176Y-12629899D02*
X7039224Y-12629899D01*
X7058271Y-12639423D01*
X7067795Y-12648947D01*
X7077319Y-12667995D01*
X7086843Y-12706090D01*
X7086843Y-12753709D01*
X7077319Y-12791804D01*
X7067795Y-12810852D01*
X7058271Y-12820376D01*
X7039224Y-12829899D01*
X7020176Y-12829899D01*
X7001128Y-12820376D01*
X6991605Y-12810852D01*
X6982081Y-12791804D01*
X6972557Y-12753709D01*
X6972557Y-12706090D01*
X6982081Y-12667995D01*
X6991605Y-12648947D01*
X7001128Y-12639423D01*
X7020176Y-12629899D01*
X7172557Y-12810852D02*
X7182081Y-12820376D01*
X7172557Y-12829899D01*
X7163033Y-12820376D01*
X7172557Y-12810852D01*
X7172557Y-12829899D01*
X7305890Y-12629899D02*
X7324938Y-12629899D01*
X7343986Y-12639423D01*
X7353509Y-12648947D01*
X7363033Y-12667995D01*
X7372557Y-12706090D01*
X7372557Y-12753709D01*
X7363033Y-12791804D01*
X7353509Y-12810852D01*
X7343986Y-12820376D01*
X7324938Y-12829899D01*
X7305890Y-12829899D01*
X7286843Y-12820376D01*
X7277319Y-12810852D01*
X7267795Y-12791804D01*
X7258271Y-12753709D01*
X7258271Y-12706090D01*
X7267795Y-12667995D01*
X7277319Y-12648947D01*
X7286843Y-12639423D01*
X7305890Y-12629899D01*
X7563033Y-12829899D02*
X7448748Y-12829899D01*
X7505890Y-12829899D02*
X7505890Y-12629899D01*
X7486843Y-12658471D01*
X7467795Y-12677518D01*
X7448748Y-12687042D01*
X7743986Y-12629899D02*
X7648748Y-12629899D01*
X7639224Y-12725137D01*
X7648748Y-12715614D01*
X7667795Y-12706090D01*
X7715414Y-12706090D01*
X7734462Y-12715614D01*
X7743986Y-12725137D01*
X7753509Y-12744185D01*
X7753509Y-12791804D01*
X7743986Y-12810852D01*
X7734462Y-12820376D01*
X7715414Y-12829899D01*
X7667795Y-12829899D01*
X7648748Y-12820376D01*
X7639224Y-12810852D01*
X7820176Y-12629899D02*
X7953509Y-12629899D01*
X7867795Y-12829899D01*
X8020176Y-12629899D02*
X8020176Y-12667995D01*
X8096367Y-12629899D02*
X8096367Y-12667995D01*
X8391605Y-12906090D02*
X8382081Y-12896566D01*
X8363033Y-12867995D01*
X8353509Y-12848947D01*
X8343986Y-12820376D01*
X8334462Y-12772757D01*
X8334462Y-12734661D01*
X8343986Y-12687042D01*
X8353509Y-12658471D01*
X8363033Y-12639423D01*
X8382081Y-12610852D01*
X8391605Y-12601328D01*
X8553510Y-12696566D02*
X8553510Y-12829899D01*
X8505890Y-12620376D02*
X8458271Y-12763233D01*
X8582081Y-12763233D01*
X8810652Y-12829899D02*
X8810652Y-12629899D01*
X8896367Y-12829899D02*
X8896367Y-12725137D01*
X8886843Y-12706090D01*
X8867795Y-12696566D01*
X8839224Y-12696566D01*
X8820176Y-12706090D01*
X8810652Y-12715614D01*
X9020176Y-12829899D02*
X9001129Y-12820376D01*
X8991605Y-12810852D01*
X8982081Y-12791804D01*
X8982081Y-12734661D01*
X8991605Y-12715614D01*
X9001129Y-12706090D01*
X9020176Y-12696566D01*
X9048748Y-12696566D01*
X9067795Y-12706090D01*
X9077319Y-12715614D01*
X9086843Y-12734661D01*
X9086843Y-12791804D01*
X9077319Y-12810852D01*
X9067795Y-12820376D01*
X9048748Y-12829899D01*
X9020176Y-12829899D01*
X9201129Y-12829899D02*
X9182081Y-12820376D01*
X9172557Y-12801328D01*
X9172557Y-12629899D01*
X9353510Y-12820376D02*
X9334462Y-12829899D01*
X9296367Y-12829899D01*
X9277319Y-12820376D01*
X9267795Y-12801328D01*
X9267795Y-12725137D01*
X9277319Y-12706090D01*
X9296367Y-12696566D01*
X9334462Y-12696566D01*
X9353510Y-12706090D01*
X9363033Y-12725137D01*
X9363033Y-12744185D01*
X9267795Y-12763233D01*
X9439224Y-12820376D02*
X9458271Y-12829899D01*
X9496367Y-12829899D01*
X9515414Y-12820376D01*
X9524938Y-12801328D01*
X9524938Y-12791804D01*
X9515414Y-12772757D01*
X9496367Y-12763233D01*
X9467795Y-12763233D01*
X9448748Y-12753709D01*
X9439224Y-12734661D01*
X9439224Y-12725137D01*
X9448748Y-12706090D01*
X9467795Y-12696566D01*
X9496367Y-12696566D01*
X9515414Y-12706090D01*
X9591605Y-12906090D02*
X9601129Y-12896566D01*
X9620176Y-12867995D01*
X9629700Y-12848947D01*
X9639224Y-12820376D01*
X9648748Y-12772757D01*
X9648748Y-12734661D01*
X9639224Y-12687042D01*
X9629700Y-12658471D01*
X9620176Y-12639423D01*
X9601129Y-12610852D01*
X9591605Y-12601328D01*
D10*
X4794700Y-13028423D02*
X4819700Y-13003423D01*
X4794700Y-12978423D01*
X4769700Y-13003423D01*
X4794700Y-13028423D01*
D12*
X5115414Y-12893899D02*
X5134462Y-12893899D01*
X5153510Y-12903423D01*
X5163033Y-12912947D01*
X5172557Y-12931995D01*
X5182081Y-12970090D01*
X5182081Y-13017709D01*
X5172557Y-13055804D01*
X5163033Y-13074852D01*
X5153510Y-13084376D01*
X5134462Y-13093899D01*
X5115414Y-13093899D01*
X5096367Y-13084376D01*
X5086843Y-13074852D01*
X5077319Y-13055804D01*
X5067795Y-13017709D01*
X5067795Y-12970090D01*
X5077319Y-12931995D01*
X5086843Y-12912947D01*
X5096367Y-12903423D01*
X5115414Y-12893899D01*
X5267795Y-13074852D02*
X5277319Y-13084376D01*
X5267795Y-13093899D01*
X5258271Y-13084376D01*
X5267795Y-13074852D01*
X5267795Y-13093899D01*
X5458271Y-12893899D02*
X5363033Y-12893899D01*
X5353510Y-12989137D01*
X5363033Y-12979614D01*
X5382081Y-12970090D01*
X5429700Y-12970090D01*
X5448748Y-12979614D01*
X5458271Y-12989137D01*
X5467795Y-13008185D01*
X5467795Y-13055804D01*
X5458271Y-13074852D01*
X5448748Y-13084376D01*
X5429700Y-13093899D01*
X5382081Y-13093899D01*
X5363033Y-13084376D01*
X5353510Y-13074852D01*
X5591605Y-12893899D02*
X5610652Y-12893899D01*
X5629700Y-12903423D01*
X5639224Y-12912947D01*
X5648748Y-12931995D01*
X5658271Y-12970090D01*
X5658271Y-13017709D01*
X5648748Y-13055804D01*
X5639224Y-13074852D01*
X5629700Y-13084376D01*
X5610652Y-13093899D01*
X5591605Y-13093899D01*
X5572557Y-13084376D01*
X5563033Y-13074852D01*
X5553510Y-13055804D01*
X5543986Y-13017709D01*
X5543986Y-12970090D01*
X5553510Y-12931995D01*
X5563033Y-12912947D01*
X5572557Y-12903423D01*
X5591605Y-12893899D01*
X5782081Y-12893899D02*
X5801128Y-12893899D01*
X5820176Y-12903423D01*
X5829700Y-12912947D01*
X5839224Y-12931995D01*
X5848748Y-12970090D01*
X5848748Y-13017709D01*
X5839224Y-13055804D01*
X5829700Y-13074852D01*
X5820176Y-13084376D01*
X5801128Y-13093899D01*
X5782081Y-13093899D01*
X5763033Y-13084376D01*
X5753509Y-13074852D01*
X5743986Y-13055804D01*
X5734462Y-13017709D01*
X5734462Y-12970090D01*
X5743986Y-12931995D01*
X5753509Y-12912947D01*
X5763033Y-12903423D01*
X5782081Y-12893899D01*
X5934462Y-13093899D02*
X5934462Y-12960566D01*
X5934462Y-12979614D02*
X5943986Y-12970090D01*
X5963033Y-12960566D01*
X5991605Y-12960566D01*
X6010652Y-12970090D01*
X6020176Y-12989137D01*
X6020176Y-13093899D01*
X6020176Y-12989137D02*
X6029700Y-12970090D01*
X6048748Y-12960566D01*
X6077319Y-12960566D01*
X6096367Y-12970090D01*
X6105890Y-12989137D01*
X6105890Y-13093899D01*
X6201128Y-13093899D02*
X6201128Y-12960566D01*
X6201128Y-12979614D02*
X6210652Y-12970090D01*
X6229700Y-12960566D01*
X6258271Y-12960566D01*
X6277319Y-12970090D01*
X6286843Y-12989137D01*
X6286843Y-13093899D01*
X6286843Y-12989137D02*
X6296367Y-12970090D01*
X6315414Y-12960566D01*
X6343986Y-12960566D01*
X6363033Y-12970090D01*
X6372557Y-12989137D01*
X6372557Y-13093899D01*
X6763033Y-12884376D02*
X6591605Y-13141518D01*
X7020176Y-12893899D02*
X7039224Y-12893899D01*
X7058271Y-12903423D01*
X7067795Y-12912947D01*
X7077319Y-12931995D01*
X7086843Y-12970090D01*
X7086843Y-13017709D01*
X7077319Y-13055804D01*
X7067795Y-13074852D01*
X7058271Y-13084376D01*
X7039224Y-13093899D01*
X7020176Y-13093899D01*
X7001128Y-13084376D01*
X6991605Y-13074852D01*
X6982081Y-13055804D01*
X6972557Y-13017709D01*
X6972557Y-12970090D01*
X6982081Y-12931995D01*
X6991605Y-12912947D01*
X7001128Y-12903423D01*
X7020176Y-12893899D01*
X7172557Y-13074852D02*
X7182081Y-13084376D01*
X7172557Y-13093899D01*
X7163033Y-13084376D01*
X7172557Y-13074852D01*
X7172557Y-13093899D01*
X7305890Y-12893899D02*
X7324938Y-12893899D01*
X7343986Y-12903423D01*
X7353509Y-12912947D01*
X7363033Y-12931995D01*
X7372557Y-12970090D01*
X7372557Y-13017709D01*
X7363033Y-13055804D01*
X7353509Y-13074852D01*
X7343986Y-13084376D01*
X7324938Y-13093899D01*
X7305890Y-13093899D01*
X7286843Y-13084376D01*
X7277319Y-13074852D01*
X7267795Y-13055804D01*
X7258271Y-13017709D01*
X7258271Y-12970090D01*
X7267795Y-12931995D01*
X7277319Y-12912947D01*
X7286843Y-12903423D01*
X7305890Y-12893899D01*
X7563033Y-13093899D02*
X7448748Y-13093899D01*
X7505890Y-13093899D02*
X7505890Y-12893899D01*
X7486843Y-12922471D01*
X7467795Y-12941518D01*
X7448748Y-12951042D01*
X7658271Y-13093899D02*
X7696367Y-13093899D01*
X7715414Y-13084376D01*
X7724938Y-13074852D01*
X7743986Y-13046280D01*
X7753509Y-13008185D01*
X7753509Y-12931995D01*
X7743986Y-12912947D01*
X7734462Y-12903423D01*
X7715414Y-12893899D01*
X7677319Y-12893899D01*
X7658271Y-12903423D01*
X7648748Y-12912947D01*
X7639224Y-12931995D01*
X7639224Y-12979614D01*
X7648748Y-12998661D01*
X7658271Y-13008185D01*
X7677319Y-13017709D01*
X7715414Y-13017709D01*
X7734462Y-13008185D01*
X7743986Y-12998661D01*
X7753509Y-12979614D01*
X7820176Y-12893899D02*
X7953509Y-12893899D01*
X7867795Y-13093899D01*
X8020176Y-12893899D02*
X8020176Y-12931995D01*
X8096367Y-12893899D02*
X8096367Y-12931995D01*
X8391605Y-13170090D02*
X8382081Y-13160566D01*
X8363033Y-13131995D01*
X8353509Y-13112947D01*
X8343986Y-13084376D01*
X8334462Y-13036757D01*
X8334462Y-12998661D01*
X8343986Y-12951042D01*
X8353509Y-12922471D01*
X8363033Y-12903423D01*
X8382081Y-12874852D01*
X8391605Y-12865328D01*
X8505890Y-12893899D02*
X8524938Y-12893899D01*
X8543986Y-12903423D01*
X8553510Y-12912947D01*
X8563033Y-12931995D01*
X8572557Y-12970090D01*
X8572557Y-13017709D01*
X8563033Y-13055804D01*
X8553510Y-13074852D01*
X8543986Y-13084376D01*
X8524938Y-13093899D01*
X8505890Y-13093899D01*
X8486843Y-13084376D01*
X8477319Y-13074852D01*
X8467795Y-13055804D01*
X8458271Y-13017709D01*
X8458271Y-12970090D01*
X8467795Y-12931995D01*
X8477319Y-12912947D01*
X8486843Y-12903423D01*
X8505890Y-12893899D01*
X8810652Y-13093899D02*
X8810652Y-12893899D01*
X8896367Y-13093899D02*
X8896367Y-12989137D01*
X8886843Y-12970090D01*
X8867795Y-12960566D01*
X8839224Y-12960566D01*
X8820176Y-12970090D01*
X8810652Y-12979614D01*
X9020176Y-13093899D02*
X9001129Y-13084376D01*
X8991605Y-13074852D01*
X8982081Y-13055804D01*
X8982081Y-12998661D01*
X8991605Y-12979614D01*
X9001129Y-12970090D01*
X9020176Y-12960566D01*
X9048748Y-12960566D01*
X9067795Y-12970090D01*
X9077319Y-12979614D01*
X9086843Y-12998661D01*
X9086843Y-13055804D01*
X9077319Y-13074852D01*
X9067795Y-13084376D01*
X9048748Y-13093899D01*
X9020176Y-13093899D01*
X9201129Y-13093899D02*
X9182081Y-13084376D01*
X9172557Y-13065328D01*
X9172557Y-12893899D01*
X9353510Y-13084376D02*
X9334462Y-13093899D01*
X9296367Y-13093899D01*
X9277319Y-13084376D01*
X9267795Y-13065328D01*
X9267795Y-12989137D01*
X9277319Y-12970090D01*
X9296367Y-12960566D01*
X9334462Y-12960566D01*
X9353510Y-12970090D01*
X9363033Y-12989137D01*
X9363033Y-13008185D01*
X9267795Y-13027233D01*
X9439224Y-13084376D02*
X9458271Y-13093899D01*
X9496367Y-13093899D01*
X9515414Y-13084376D01*
X9524938Y-13065328D01*
X9524938Y-13055804D01*
X9515414Y-13036757D01*
X9496367Y-13027233D01*
X9467795Y-13027233D01*
X9448748Y-13017709D01*
X9439224Y-12998661D01*
X9439224Y-12989137D01*
X9448748Y-12970090D01*
X9467795Y-12960566D01*
X9496367Y-12960566D01*
X9515414Y-12970090D01*
X9763033Y-13017709D02*
X9915414Y-13017709D01*
X9839224Y-13093899D02*
X9839224Y-12941518D01*
X10153510Y-12912947D02*
X10163033Y-12903423D01*
X10182081Y-12893899D01*
X10229700Y-12893899D01*
X10248748Y-12903423D01*
X10258271Y-12912947D01*
X10267795Y-12931995D01*
X10267795Y-12951042D01*
X10258271Y-12979614D01*
X10143986Y-13093899D01*
X10267795Y-13093899D01*
X10496367Y-13084376D02*
X10515414Y-13093899D01*
X10553510Y-13093899D01*
X10572557Y-13084376D01*
X10582081Y-13065328D01*
X10582081Y-13055804D01*
X10572557Y-13036757D01*
X10553510Y-13027233D01*
X10524938Y-13027233D01*
X10505890Y-13017709D01*
X10496367Y-12998661D01*
X10496367Y-12989137D01*
X10505890Y-12970090D01*
X10524938Y-12960566D01*
X10553510Y-12960566D01*
X10572557Y-12970090D01*
X10696367Y-13093899D02*
X10677319Y-13084376D01*
X10667795Y-13065328D01*
X10667795Y-12893899D01*
X10801129Y-13093899D02*
X10782081Y-13084376D01*
X10772557Y-13074852D01*
X10763033Y-13055804D01*
X10763033Y-12998661D01*
X10772557Y-12979614D01*
X10782081Y-12970090D01*
X10801129Y-12960566D01*
X10829700Y-12960566D01*
X10848748Y-12970090D01*
X10858271Y-12979614D01*
X10867795Y-12998661D01*
X10867795Y-13055804D01*
X10858271Y-13074852D01*
X10848748Y-13084376D01*
X10829700Y-13093899D01*
X10801129Y-13093899D01*
X10924938Y-12960566D02*
X11001129Y-12960566D01*
X10953510Y-12893899D02*
X10953510Y-13065328D01*
X10963033Y-13084376D01*
X10982081Y-13093899D01*
X11001129Y-13093899D01*
X11058271Y-13084376D02*
X11077319Y-13093899D01*
X11115414Y-13093899D01*
X11134462Y-13084376D01*
X11143986Y-13065328D01*
X11143986Y-13055804D01*
X11134462Y-13036757D01*
X11115414Y-13027233D01*
X11086843Y-13027233D01*
X11067795Y-13017709D01*
X11058271Y-12998661D01*
X11058271Y-12989137D01*
X11067795Y-12970090D01*
X11086843Y-12960566D01*
X11115414Y-12960566D01*
X11134462Y-12970090D01*
X11210652Y-13170090D02*
X11220176Y-13160566D01*
X11239224Y-13131995D01*
X11248748Y-13112947D01*
X11258271Y-13084376D01*
X11267795Y-13036757D01*
X11267795Y-12998661D01*
X11258271Y-12951042D01*
X11248748Y-12922471D01*
X11239224Y-12903423D01*
X11220176Y-12874852D01*
X11210652Y-12865328D01*
D15*
X4764700Y-13239923D02*
X4819700Y-13294923D01*
X4819700Y-13239923D02*
X4764700Y-13294923D01*
X4819700Y-13267423D02*
G75*
G03*
X4819700Y-13267423I-27500J0D01*
G01*
D12*
X5115414Y-13157899D02*
X5134462Y-13157899D01*
X5153510Y-13167423D01*
X5163033Y-13176947D01*
X5172557Y-13195995D01*
X5182081Y-13234090D01*
X5182081Y-13281709D01*
X5172557Y-13319804D01*
X5163033Y-13338852D01*
X5153510Y-13348376D01*
X5134462Y-13357899D01*
X5115414Y-13357899D01*
X5096367Y-13348376D01*
X5086843Y-13338852D01*
X5077319Y-13319804D01*
X5067795Y-13281709D01*
X5067795Y-13234090D01*
X5077319Y-13195995D01*
X5086843Y-13176947D01*
X5096367Y-13167423D01*
X5115414Y-13157899D01*
X5267795Y-13338852D02*
X5277319Y-13348376D01*
X5267795Y-13357899D01*
X5258271Y-13348376D01*
X5267795Y-13338852D01*
X5267795Y-13357899D01*
X5458271Y-13157899D02*
X5363033Y-13157899D01*
X5353510Y-13253137D01*
X5363033Y-13243614D01*
X5382081Y-13234090D01*
X5429700Y-13234090D01*
X5448748Y-13243614D01*
X5458271Y-13253137D01*
X5467795Y-13272185D01*
X5467795Y-13319804D01*
X5458271Y-13338852D01*
X5448748Y-13348376D01*
X5429700Y-13357899D01*
X5382081Y-13357899D01*
X5363033Y-13348376D01*
X5353510Y-13338852D01*
X5648748Y-13157899D02*
X5553510Y-13157899D01*
X5543986Y-13253137D01*
X5553510Y-13243614D01*
X5572557Y-13234090D01*
X5620176Y-13234090D01*
X5639224Y-13243614D01*
X5648748Y-13253137D01*
X5658271Y-13272185D01*
X5658271Y-13319804D01*
X5648748Y-13338852D01*
X5639224Y-13348376D01*
X5620176Y-13357899D01*
X5572557Y-13357899D01*
X5553510Y-13348376D01*
X5543986Y-13338852D01*
X5782081Y-13157899D02*
X5801128Y-13157899D01*
X5820176Y-13167423D01*
X5829700Y-13176947D01*
X5839224Y-13195995D01*
X5848748Y-13234090D01*
X5848748Y-13281709D01*
X5839224Y-13319804D01*
X5829700Y-13338852D01*
X5820176Y-13348376D01*
X5801128Y-13357899D01*
X5782081Y-13357899D01*
X5763033Y-13348376D01*
X5753509Y-13338852D01*
X5743986Y-13319804D01*
X5734462Y-13281709D01*
X5734462Y-13234090D01*
X5743986Y-13195995D01*
X5753509Y-13176947D01*
X5763033Y-13167423D01*
X5782081Y-13157899D01*
X5934462Y-13357899D02*
X5934462Y-13224566D01*
X5934462Y-13243614D02*
X5943986Y-13234090D01*
X5963033Y-13224566D01*
X5991605Y-13224566D01*
X6010652Y-13234090D01*
X6020176Y-13253137D01*
X6020176Y-13357899D01*
X6020176Y-13253137D02*
X6029700Y-13234090D01*
X6048748Y-13224566D01*
X6077319Y-13224566D01*
X6096367Y-13234090D01*
X6105890Y-13253137D01*
X6105890Y-13357899D01*
X6201128Y-13357899D02*
X6201128Y-13224566D01*
X6201128Y-13243614D02*
X6210652Y-13234090D01*
X6229700Y-13224566D01*
X6258271Y-13224566D01*
X6277319Y-13234090D01*
X6286843Y-13253137D01*
X6286843Y-13357899D01*
X6286843Y-13253137D02*
X6296367Y-13234090D01*
X6315414Y-13224566D01*
X6343986Y-13224566D01*
X6363033Y-13234090D01*
X6372557Y-13253137D01*
X6372557Y-13357899D01*
X6763033Y-13148376D02*
X6591605Y-13405518D01*
X7020176Y-13157899D02*
X7039224Y-13157899D01*
X7058271Y-13167423D01*
X7067795Y-13176947D01*
X7077319Y-13195995D01*
X7086843Y-13234090D01*
X7086843Y-13281709D01*
X7077319Y-13319804D01*
X7067795Y-13338852D01*
X7058271Y-13348376D01*
X7039224Y-13357899D01*
X7020176Y-13357899D01*
X7001128Y-13348376D01*
X6991605Y-13338852D01*
X6982081Y-13319804D01*
X6972557Y-13281709D01*
X6972557Y-13234090D01*
X6982081Y-13195995D01*
X6991605Y-13176947D01*
X7001128Y-13167423D01*
X7020176Y-13157899D01*
X7172557Y-13338852D02*
X7182081Y-13348376D01*
X7172557Y-13357899D01*
X7163033Y-13348376D01*
X7172557Y-13338852D01*
X7172557Y-13357899D01*
X7305890Y-13157899D02*
X7324938Y-13157899D01*
X7343986Y-13167423D01*
X7353509Y-13176947D01*
X7363033Y-13195995D01*
X7372557Y-13234090D01*
X7372557Y-13281709D01*
X7363033Y-13319804D01*
X7353509Y-13338852D01*
X7343986Y-13348376D01*
X7324938Y-13357899D01*
X7305890Y-13357899D01*
X7286843Y-13348376D01*
X7277319Y-13338852D01*
X7267795Y-13319804D01*
X7258271Y-13281709D01*
X7258271Y-13234090D01*
X7267795Y-13195995D01*
X7277319Y-13176947D01*
X7286843Y-13167423D01*
X7305890Y-13157899D01*
X7448748Y-13176947D02*
X7458271Y-13167423D01*
X7477319Y-13157899D01*
X7524938Y-13157899D01*
X7543986Y-13167423D01*
X7553509Y-13176947D01*
X7563033Y-13195995D01*
X7563033Y-13215042D01*
X7553509Y-13243614D01*
X7439224Y-13357899D01*
X7563033Y-13357899D01*
X7753509Y-13357899D02*
X7639224Y-13357899D01*
X7696367Y-13357899D02*
X7696367Y-13157899D01*
X7677319Y-13186471D01*
X7658271Y-13205518D01*
X7639224Y-13215042D01*
X7820176Y-13157899D02*
X7953509Y-13157899D01*
X7867795Y-13357899D01*
X8020176Y-13157899D02*
X8020176Y-13195995D01*
X8096367Y-13157899D02*
X8096367Y-13195995D01*
X8391605Y-13434090D02*
X8382081Y-13424566D01*
X8363033Y-13395995D01*
X8353509Y-13376947D01*
X8343986Y-13348376D01*
X8334462Y-13300757D01*
X8334462Y-13262661D01*
X8343986Y-13215042D01*
X8353509Y-13186471D01*
X8363033Y-13167423D01*
X8382081Y-13138852D01*
X8391605Y-13129328D01*
X8505890Y-13157899D02*
X8524938Y-13157899D01*
X8543986Y-13167423D01*
X8553510Y-13176947D01*
X8563033Y-13195995D01*
X8572557Y-13234090D01*
X8572557Y-13281709D01*
X8563033Y-13319804D01*
X8553510Y-13338852D01*
X8543986Y-13348376D01*
X8524938Y-13357899D01*
X8505890Y-13357899D01*
X8486843Y-13348376D01*
X8477319Y-13338852D01*
X8467795Y-13319804D01*
X8458271Y-13281709D01*
X8458271Y-13234090D01*
X8467795Y-13195995D01*
X8477319Y-13176947D01*
X8486843Y-13167423D01*
X8505890Y-13157899D01*
X8810652Y-13357899D02*
X8810652Y-13157899D01*
X8896367Y-13357899D02*
X8896367Y-13253137D01*
X8886843Y-13234090D01*
X8867795Y-13224566D01*
X8839224Y-13224566D01*
X8820176Y-13234090D01*
X8810652Y-13243614D01*
X9020176Y-13357899D02*
X9001129Y-13348376D01*
X8991605Y-13338852D01*
X8982081Y-13319804D01*
X8982081Y-13262661D01*
X8991605Y-13243614D01*
X9001129Y-13234090D01*
X9020176Y-13224566D01*
X9048748Y-13224566D01*
X9067795Y-13234090D01*
X9077319Y-13243614D01*
X9086843Y-13262661D01*
X9086843Y-13319804D01*
X9077319Y-13338852D01*
X9067795Y-13348376D01*
X9048748Y-13357899D01*
X9020176Y-13357899D01*
X9201129Y-13357899D02*
X9182081Y-13348376D01*
X9172557Y-13329328D01*
X9172557Y-13157899D01*
X9353510Y-13348376D02*
X9334462Y-13357899D01*
X9296367Y-13357899D01*
X9277319Y-13348376D01*
X9267795Y-13329328D01*
X9267795Y-13253137D01*
X9277319Y-13234090D01*
X9296367Y-13224566D01*
X9334462Y-13224566D01*
X9353510Y-13234090D01*
X9363033Y-13253137D01*
X9363033Y-13272185D01*
X9267795Y-13291233D01*
X9439224Y-13348376D02*
X9458271Y-13357899D01*
X9496367Y-13357899D01*
X9515414Y-13348376D01*
X9524938Y-13329328D01*
X9524938Y-13319804D01*
X9515414Y-13300757D01*
X9496367Y-13291233D01*
X9467795Y-13291233D01*
X9448748Y-13281709D01*
X9439224Y-13262661D01*
X9439224Y-13253137D01*
X9448748Y-13234090D01*
X9467795Y-13224566D01*
X9496367Y-13224566D01*
X9515414Y-13234090D01*
X9763033Y-13281709D02*
X9915414Y-13281709D01*
X9839224Y-13357899D02*
X9839224Y-13205518D01*
X10153510Y-13176947D02*
X10163033Y-13167423D01*
X10182081Y-13157899D01*
X10229700Y-13157899D01*
X10248748Y-13167423D01*
X10258271Y-13176947D01*
X10267795Y-13195995D01*
X10267795Y-13215042D01*
X10258271Y-13243614D01*
X10143986Y-13357899D01*
X10267795Y-13357899D01*
X10496367Y-13348376D02*
X10515414Y-13357899D01*
X10553510Y-13357899D01*
X10572557Y-13348376D01*
X10582081Y-13329328D01*
X10582081Y-13319804D01*
X10572557Y-13300757D01*
X10553510Y-13291233D01*
X10524938Y-13291233D01*
X10505890Y-13281709D01*
X10496367Y-13262661D01*
X10496367Y-13253137D01*
X10505890Y-13234090D01*
X10524938Y-13224566D01*
X10553510Y-13224566D01*
X10572557Y-13234090D01*
X10696367Y-13357899D02*
X10677319Y-13348376D01*
X10667795Y-13329328D01*
X10667795Y-13157899D01*
X10801129Y-13357899D02*
X10782081Y-13348376D01*
X10772557Y-13338852D01*
X10763033Y-13319804D01*
X10763033Y-13262661D01*
X10772557Y-13243614D01*
X10782081Y-13234090D01*
X10801129Y-13224566D01*
X10829700Y-13224566D01*
X10848748Y-13234090D01*
X10858271Y-13243614D01*
X10867795Y-13262661D01*
X10867795Y-13319804D01*
X10858271Y-13338852D01*
X10848748Y-13348376D01*
X10829700Y-13357899D01*
X10801129Y-13357899D01*
X10924938Y-13224566D02*
X11001129Y-13224566D01*
X10953510Y-13157899D02*
X10953510Y-13329328D01*
X10963033Y-13348376D01*
X10982081Y-13357899D01*
X11001129Y-13357899D01*
X11058271Y-13348376D02*
X11077319Y-13357899D01*
X11115414Y-13357899D01*
X11134462Y-13348376D01*
X11143986Y-13329328D01*
X11143986Y-13319804D01*
X11134462Y-13300757D01*
X11115414Y-13291233D01*
X11086843Y-13291233D01*
X11067795Y-13281709D01*
X11058271Y-13262661D01*
X11058271Y-13253137D01*
X11067795Y-13234090D01*
X11086843Y-13224566D01*
X11115414Y-13224566D01*
X11134462Y-13234090D01*
X11210652Y-13434090D02*
X11220176Y-13424566D01*
X11239224Y-13395995D01*
X11248748Y-13376947D01*
X11258271Y-13348376D01*
X11267795Y-13300757D01*
X11267795Y-13262661D01*
X11258271Y-13215042D01*
X11248748Y-13186471D01*
X11239224Y-13167423D01*
X11220176Y-13138852D01*
X11210652Y-13129328D01*
D16*
X4759700Y-13501423D02*
X4819700Y-13561423D01*
X4819700Y-13501423D02*
X4759700Y-13561423D01*
X4789700Y-13501423D02*
X4789700Y-13561423D01*
X4759700Y-13531423D02*
X4819700Y-13531423D01*
D12*
X5115414Y-13421899D02*
X5134462Y-13421899D01*
X5153510Y-13431423D01*
X5163033Y-13440947D01*
X5172557Y-13459995D01*
X5182081Y-13498090D01*
X5182081Y-13545709D01*
X5172557Y-13583804D01*
X5163033Y-13602852D01*
X5153510Y-13612376D01*
X5134462Y-13621899D01*
X5115414Y-13621899D01*
X5096367Y-13612376D01*
X5086843Y-13602852D01*
X5077319Y-13583804D01*
X5067795Y-13545709D01*
X5067795Y-13498090D01*
X5077319Y-13459995D01*
X5086843Y-13440947D01*
X5096367Y-13431423D01*
X5115414Y-13421899D01*
X5267795Y-13602852D02*
X5277319Y-13612376D01*
X5267795Y-13621899D01*
X5258271Y-13612376D01*
X5267795Y-13602852D01*
X5267795Y-13621899D01*
X5448748Y-13421899D02*
X5410652Y-13421899D01*
X5391605Y-13431423D01*
X5382081Y-13440947D01*
X5363033Y-13469518D01*
X5353510Y-13507614D01*
X5353510Y-13583804D01*
X5363033Y-13602852D01*
X5372557Y-13612376D01*
X5391605Y-13621899D01*
X5429700Y-13621899D01*
X5448748Y-13612376D01*
X5458271Y-13602852D01*
X5467795Y-13583804D01*
X5467795Y-13536185D01*
X5458271Y-13517137D01*
X5448748Y-13507614D01*
X5429700Y-13498090D01*
X5391605Y-13498090D01*
X5372557Y-13507614D01*
X5363033Y-13517137D01*
X5353510Y-13536185D01*
X5591605Y-13421899D02*
X5610652Y-13421899D01*
X5629700Y-13431423D01*
X5639224Y-13440947D01*
X5648748Y-13459995D01*
X5658271Y-13498090D01*
X5658271Y-13545709D01*
X5648748Y-13583804D01*
X5639224Y-13602852D01*
X5629700Y-13612376D01*
X5610652Y-13621899D01*
X5591605Y-13621899D01*
X5572557Y-13612376D01*
X5563033Y-13602852D01*
X5553510Y-13583804D01*
X5543986Y-13545709D01*
X5543986Y-13498090D01*
X5553510Y-13459995D01*
X5563033Y-13440947D01*
X5572557Y-13431423D01*
X5591605Y-13421899D01*
X5782081Y-13421899D02*
X5801128Y-13421899D01*
X5820176Y-13431423D01*
X5829700Y-13440947D01*
X5839224Y-13459995D01*
X5848748Y-13498090D01*
X5848748Y-13545709D01*
X5839224Y-13583804D01*
X5829700Y-13602852D01*
X5820176Y-13612376D01*
X5801128Y-13621899D01*
X5782081Y-13621899D01*
X5763033Y-13612376D01*
X5753509Y-13602852D01*
X5743986Y-13583804D01*
X5734462Y-13545709D01*
X5734462Y-13498090D01*
X5743986Y-13459995D01*
X5753509Y-13440947D01*
X5763033Y-13431423D01*
X5782081Y-13421899D01*
X5934462Y-13621899D02*
X5934462Y-13488566D01*
X5934462Y-13507614D02*
X5943986Y-13498090D01*
X5963033Y-13488566D01*
X5991605Y-13488566D01*
X6010652Y-13498090D01*
X6020176Y-13517137D01*
X6020176Y-13621899D01*
X6020176Y-13517137D02*
X6029700Y-13498090D01*
X6048748Y-13488566D01*
X6077319Y-13488566D01*
X6096367Y-13498090D01*
X6105890Y-13517137D01*
X6105890Y-13621899D01*
X6201128Y-13621899D02*
X6201128Y-13488566D01*
X6201128Y-13507614D02*
X6210652Y-13498090D01*
X6229700Y-13488566D01*
X6258271Y-13488566D01*
X6277319Y-13498090D01*
X6286843Y-13517137D01*
X6286843Y-13621899D01*
X6286843Y-13517137D02*
X6296367Y-13498090D01*
X6315414Y-13488566D01*
X6343986Y-13488566D01*
X6363033Y-13498090D01*
X6372557Y-13517137D01*
X6372557Y-13621899D01*
X6763033Y-13412376D02*
X6591605Y-13669518D01*
X7020176Y-13421899D02*
X7039224Y-13421899D01*
X7058271Y-13431423D01*
X7067795Y-13440947D01*
X7077319Y-13459995D01*
X7086843Y-13498090D01*
X7086843Y-13545709D01*
X7077319Y-13583804D01*
X7067795Y-13602852D01*
X7058271Y-13612376D01*
X7039224Y-13621899D01*
X7020176Y-13621899D01*
X7001128Y-13612376D01*
X6991605Y-13602852D01*
X6982081Y-13583804D01*
X6972557Y-13545709D01*
X6972557Y-13498090D01*
X6982081Y-13459995D01*
X6991605Y-13440947D01*
X7001128Y-13431423D01*
X7020176Y-13421899D01*
X7172557Y-13602852D02*
X7182081Y-13612376D01*
X7172557Y-13621899D01*
X7163033Y-13612376D01*
X7172557Y-13602852D01*
X7172557Y-13621899D01*
X7305890Y-13421899D02*
X7324938Y-13421899D01*
X7343986Y-13431423D01*
X7353509Y-13440947D01*
X7363033Y-13459995D01*
X7372557Y-13498090D01*
X7372557Y-13545709D01*
X7363033Y-13583804D01*
X7353509Y-13602852D01*
X7343986Y-13612376D01*
X7324938Y-13621899D01*
X7305890Y-13621899D01*
X7286843Y-13612376D01*
X7277319Y-13602852D01*
X7267795Y-13583804D01*
X7258271Y-13545709D01*
X7258271Y-13498090D01*
X7267795Y-13459995D01*
X7277319Y-13440947D01*
X7286843Y-13431423D01*
X7305890Y-13421899D01*
X7448748Y-13440947D02*
X7458271Y-13431423D01*
X7477319Y-13421899D01*
X7524938Y-13421899D01*
X7543986Y-13431423D01*
X7553509Y-13440947D01*
X7563033Y-13459995D01*
X7563033Y-13479042D01*
X7553509Y-13507614D01*
X7439224Y-13621899D01*
X7563033Y-13621899D01*
X7629700Y-13421899D02*
X7753509Y-13421899D01*
X7686843Y-13498090D01*
X7715414Y-13498090D01*
X7734462Y-13507614D01*
X7743986Y-13517137D01*
X7753509Y-13536185D01*
X7753509Y-13583804D01*
X7743986Y-13602852D01*
X7734462Y-13612376D01*
X7715414Y-13621899D01*
X7658271Y-13621899D01*
X7639224Y-13612376D01*
X7629700Y-13602852D01*
X7924938Y-13421899D02*
X7886843Y-13421899D01*
X7867795Y-13431423D01*
X7858271Y-13440947D01*
X7839224Y-13469518D01*
X7829700Y-13507614D01*
X7829700Y-13583804D01*
X7839224Y-13602852D01*
X7848748Y-13612376D01*
X7867795Y-13621899D01*
X7905890Y-13621899D01*
X7924938Y-13612376D01*
X7934462Y-13602852D01*
X7943986Y-13583804D01*
X7943986Y-13536185D01*
X7934462Y-13517137D01*
X7924938Y-13507614D01*
X7905890Y-13498090D01*
X7867795Y-13498090D01*
X7848748Y-13507614D01*
X7839224Y-13517137D01*
X7829700Y-13536185D01*
X8020176Y-13421899D02*
X8020176Y-13459995D01*
X8096367Y-13421899D02*
X8096367Y-13459995D01*
X8391605Y-13698090D02*
X8382081Y-13688566D01*
X8363033Y-13659995D01*
X8353509Y-13640947D01*
X8343986Y-13612376D01*
X8334462Y-13564757D01*
X8334462Y-13526661D01*
X8343986Y-13479042D01*
X8353509Y-13450471D01*
X8363033Y-13431423D01*
X8382081Y-13402852D01*
X8391605Y-13393328D01*
X8572557Y-13621899D02*
X8458271Y-13621899D01*
X8515414Y-13621899D02*
X8515414Y-13421899D01*
X8496367Y-13450471D01*
X8477319Y-13469518D01*
X8458271Y-13479042D01*
X8639224Y-13421899D02*
X8763033Y-13421899D01*
X8696367Y-13498090D01*
X8724938Y-13498090D01*
X8743986Y-13507614D01*
X8753510Y-13517137D01*
X8763033Y-13536185D01*
X8763033Y-13583804D01*
X8753510Y-13602852D01*
X8743986Y-13612376D01*
X8724938Y-13621899D01*
X8667795Y-13621899D01*
X8648748Y-13612376D01*
X8639224Y-13602852D01*
X9001129Y-13621899D02*
X9001129Y-13421899D01*
X9086843Y-13621899D02*
X9086843Y-13517137D01*
X9077319Y-13498090D01*
X9058271Y-13488566D01*
X9029700Y-13488566D01*
X9010652Y-13498090D01*
X9001129Y-13507614D01*
X9210652Y-13621899D02*
X9191605Y-13612376D01*
X9182081Y-13602852D01*
X9172557Y-13583804D01*
X9172557Y-13526661D01*
X9182081Y-13507614D01*
X9191605Y-13498090D01*
X9210652Y-13488566D01*
X9239224Y-13488566D01*
X9258271Y-13498090D01*
X9267795Y-13507614D01*
X9277319Y-13526661D01*
X9277319Y-13583804D01*
X9267795Y-13602852D01*
X9258271Y-13612376D01*
X9239224Y-13621899D01*
X9210652Y-13621899D01*
X9391605Y-13621899D02*
X9372557Y-13612376D01*
X9363033Y-13593328D01*
X9363033Y-13421899D01*
X9543986Y-13612376D02*
X9524938Y-13621899D01*
X9486843Y-13621899D01*
X9467795Y-13612376D01*
X9458271Y-13593328D01*
X9458271Y-13517137D01*
X9467795Y-13498090D01*
X9486843Y-13488566D01*
X9524938Y-13488566D01*
X9543986Y-13498090D01*
X9553510Y-13517137D01*
X9553510Y-13536185D01*
X9458271Y-13555233D01*
X9629700Y-13612376D02*
X9648748Y-13621899D01*
X9686843Y-13621899D01*
X9705890Y-13612376D01*
X9715414Y-13593328D01*
X9715414Y-13583804D01*
X9705890Y-13564757D01*
X9686843Y-13555233D01*
X9658271Y-13555233D01*
X9639224Y-13545709D01*
X9629700Y-13526661D01*
X9629700Y-13517137D01*
X9639224Y-13498090D01*
X9658271Y-13488566D01*
X9686843Y-13488566D01*
X9705890Y-13498090D01*
X9782081Y-13698090D02*
X9791605Y-13688566D01*
X9810652Y-13659995D01*
X9820176Y-13640947D01*
X9829700Y-13612376D01*
X9839224Y-13564757D01*
X9839224Y-13526661D01*
X9829700Y-13479042D01*
X9820176Y-13450471D01*
X9810652Y-13431423D01*
X9791605Y-13402852D01*
X9782081Y-13393328D01*
D17*
X4739700Y-13755423D02*
X4819700Y-13835423D01*
X4819700Y-13755423D02*
X4739700Y-13835423D01*
X4807985Y-13823708D02*
X4807985Y-13767139D01*
X4751416Y-13767139D01*
X4751416Y-13823708D01*
X4807985Y-13823708D01*
D12*
X5115414Y-13685899D02*
X5134462Y-13685899D01*
X5153510Y-13695423D01*
X5163033Y-13704947D01*
X5172557Y-13723995D01*
X5182081Y-13762090D01*
X5182081Y-13809709D01*
X5172557Y-13847804D01*
X5163033Y-13866852D01*
X5153510Y-13876376D01*
X5134462Y-13885899D01*
X5115414Y-13885899D01*
X5096367Y-13876376D01*
X5086843Y-13866852D01*
X5077319Y-13847804D01*
X5067795Y-13809709D01*
X5067795Y-13762090D01*
X5077319Y-13723995D01*
X5086843Y-13704947D01*
X5096367Y-13695423D01*
X5115414Y-13685899D01*
X5267795Y-13866852D02*
X5277319Y-13876376D01*
X5267795Y-13885899D01*
X5258271Y-13876376D01*
X5267795Y-13866852D01*
X5267795Y-13885899D01*
X5391605Y-13771614D02*
X5372557Y-13762090D01*
X5363033Y-13752566D01*
X5353510Y-13733518D01*
X5353510Y-13723995D01*
X5363033Y-13704947D01*
X5372557Y-13695423D01*
X5391605Y-13685899D01*
X5429700Y-13685899D01*
X5448748Y-13695423D01*
X5458271Y-13704947D01*
X5467795Y-13723995D01*
X5467795Y-13733518D01*
X5458271Y-13752566D01*
X5448748Y-13762090D01*
X5429700Y-13771614D01*
X5391605Y-13771614D01*
X5372557Y-13781137D01*
X5363033Y-13790661D01*
X5353510Y-13809709D01*
X5353510Y-13847804D01*
X5363033Y-13866852D01*
X5372557Y-13876376D01*
X5391605Y-13885899D01*
X5429700Y-13885899D01*
X5448748Y-13876376D01*
X5458271Y-13866852D01*
X5467795Y-13847804D01*
X5467795Y-13809709D01*
X5458271Y-13790661D01*
X5448748Y-13781137D01*
X5429700Y-13771614D01*
X5591605Y-13685899D02*
X5610652Y-13685899D01*
X5629700Y-13695423D01*
X5639224Y-13704947D01*
X5648748Y-13723995D01*
X5658271Y-13762090D01*
X5658271Y-13809709D01*
X5648748Y-13847804D01*
X5639224Y-13866852D01*
X5629700Y-13876376D01*
X5610652Y-13885899D01*
X5591605Y-13885899D01*
X5572557Y-13876376D01*
X5563033Y-13866852D01*
X5553510Y-13847804D01*
X5543986Y-13809709D01*
X5543986Y-13762090D01*
X5553510Y-13723995D01*
X5563033Y-13704947D01*
X5572557Y-13695423D01*
X5591605Y-13685899D01*
X5782081Y-13685899D02*
X5801128Y-13685899D01*
X5820176Y-13695423D01*
X5829700Y-13704947D01*
X5839224Y-13723995D01*
X5848748Y-13762090D01*
X5848748Y-13809709D01*
X5839224Y-13847804D01*
X5829700Y-13866852D01*
X5820176Y-13876376D01*
X5801128Y-13885899D01*
X5782081Y-13885899D01*
X5763033Y-13876376D01*
X5753509Y-13866852D01*
X5743986Y-13847804D01*
X5734462Y-13809709D01*
X5734462Y-13762090D01*
X5743986Y-13723995D01*
X5753509Y-13704947D01*
X5763033Y-13695423D01*
X5782081Y-13685899D01*
X5934462Y-13885899D02*
X5934462Y-13752566D01*
X5934462Y-13771614D02*
X5943986Y-13762090D01*
X5963033Y-13752566D01*
X5991605Y-13752566D01*
X6010652Y-13762090D01*
X6020176Y-13781137D01*
X6020176Y-13885899D01*
X6020176Y-13781137D02*
X6029700Y-13762090D01*
X6048748Y-13752566D01*
X6077319Y-13752566D01*
X6096367Y-13762090D01*
X6105890Y-13781137D01*
X6105890Y-13885899D01*
X6201128Y-13885899D02*
X6201128Y-13752566D01*
X6201128Y-13771614D02*
X6210652Y-13762090D01*
X6229700Y-13752566D01*
X6258271Y-13752566D01*
X6277319Y-13762090D01*
X6286843Y-13781137D01*
X6286843Y-13885899D01*
X6286843Y-13781137D02*
X6296367Y-13762090D01*
X6315414Y-13752566D01*
X6343986Y-13752566D01*
X6363033Y-13762090D01*
X6372557Y-13781137D01*
X6372557Y-13885899D01*
X6763033Y-13676376D02*
X6591605Y-13933518D01*
X7020176Y-13685899D02*
X7039224Y-13685899D01*
X7058271Y-13695423D01*
X7067795Y-13704947D01*
X7077319Y-13723995D01*
X7086843Y-13762090D01*
X7086843Y-13809709D01*
X7077319Y-13847804D01*
X7067795Y-13866852D01*
X7058271Y-13876376D01*
X7039224Y-13885899D01*
X7020176Y-13885899D01*
X7001128Y-13876376D01*
X6991605Y-13866852D01*
X6982081Y-13847804D01*
X6972557Y-13809709D01*
X6972557Y-13762090D01*
X6982081Y-13723995D01*
X6991605Y-13704947D01*
X7001128Y-13695423D01*
X7020176Y-13685899D01*
X7172557Y-13866852D02*
X7182081Y-13876376D01*
X7172557Y-13885899D01*
X7163033Y-13876376D01*
X7172557Y-13866852D01*
X7172557Y-13885899D01*
X7305890Y-13685899D02*
X7324938Y-13685899D01*
X7343986Y-13695423D01*
X7353509Y-13704947D01*
X7363033Y-13723995D01*
X7372557Y-13762090D01*
X7372557Y-13809709D01*
X7363033Y-13847804D01*
X7353509Y-13866852D01*
X7343986Y-13876376D01*
X7324938Y-13885899D01*
X7305890Y-13885899D01*
X7286843Y-13876376D01*
X7277319Y-13866852D01*
X7267795Y-13847804D01*
X7258271Y-13809709D01*
X7258271Y-13762090D01*
X7267795Y-13723995D01*
X7277319Y-13704947D01*
X7286843Y-13695423D01*
X7305890Y-13685899D01*
X7439224Y-13685899D02*
X7563033Y-13685899D01*
X7496367Y-13762090D01*
X7524938Y-13762090D01*
X7543986Y-13771614D01*
X7553509Y-13781137D01*
X7563033Y-13800185D01*
X7563033Y-13847804D01*
X7553509Y-13866852D01*
X7543986Y-13876376D01*
X7524938Y-13885899D01*
X7467795Y-13885899D01*
X7448748Y-13876376D01*
X7439224Y-13866852D01*
X7753509Y-13885899D02*
X7639224Y-13885899D01*
X7696367Y-13885899D02*
X7696367Y-13685899D01*
X7677319Y-13714471D01*
X7658271Y-13733518D01*
X7639224Y-13743042D01*
X7934462Y-13685899D02*
X7839224Y-13685899D01*
X7829700Y-13781137D01*
X7839224Y-13771614D01*
X7858271Y-13762090D01*
X7905890Y-13762090D01*
X7924938Y-13771614D01*
X7934462Y-13781137D01*
X7943986Y-13800185D01*
X7943986Y-13847804D01*
X7934462Y-13866852D01*
X7924938Y-13876376D01*
X7905890Y-13885899D01*
X7858271Y-13885899D01*
X7839224Y-13876376D01*
X7829700Y-13866852D01*
X8020176Y-13685899D02*
X8020176Y-13723995D01*
X8096367Y-13685899D02*
X8096367Y-13723995D01*
X8391605Y-13962090D02*
X8382081Y-13952566D01*
X8363033Y-13923995D01*
X8353509Y-13904947D01*
X8343986Y-13876376D01*
X8334462Y-13828757D01*
X8334462Y-13790661D01*
X8343986Y-13743042D01*
X8353509Y-13714471D01*
X8363033Y-13695423D01*
X8382081Y-13666852D01*
X8391605Y-13657328D01*
X8572557Y-13885899D02*
X8458271Y-13885899D01*
X8515414Y-13885899D02*
X8515414Y-13685899D01*
X8496367Y-13714471D01*
X8477319Y-13733518D01*
X8458271Y-13743042D01*
X8639224Y-13685899D02*
X8772557Y-13685899D01*
X8686843Y-13885899D01*
X9001129Y-13885899D02*
X9001129Y-13685899D01*
X9086843Y-13885899D02*
X9086843Y-13781137D01*
X9077319Y-13762090D01*
X9058271Y-13752566D01*
X9029700Y-13752566D01*
X9010652Y-13762090D01*
X9001129Y-13771614D01*
X9210652Y-13885899D02*
X9191605Y-13876376D01*
X9182081Y-13866852D01*
X9172557Y-13847804D01*
X9172557Y-13790661D01*
X9182081Y-13771614D01*
X9191605Y-13762090D01*
X9210652Y-13752566D01*
X9239224Y-13752566D01*
X9258271Y-13762090D01*
X9267795Y-13771614D01*
X9277319Y-13790661D01*
X9277319Y-13847804D01*
X9267795Y-13866852D01*
X9258271Y-13876376D01*
X9239224Y-13885899D01*
X9210652Y-13885899D01*
X9391605Y-13885899D02*
X9372557Y-13876376D01*
X9363033Y-13857328D01*
X9363033Y-13685899D01*
X9543986Y-13876376D02*
X9524938Y-13885899D01*
X9486843Y-13885899D01*
X9467795Y-13876376D01*
X9458271Y-13857328D01*
X9458271Y-13781137D01*
X9467795Y-13762090D01*
X9486843Y-13752566D01*
X9524938Y-13752566D01*
X9543986Y-13762090D01*
X9553510Y-13781137D01*
X9553510Y-13800185D01*
X9458271Y-13819233D01*
X9629700Y-13876376D02*
X9648748Y-13885899D01*
X9686843Y-13885899D01*
X9705890Y-13876376D01*
X9715414Y-13857328D01*
X9715414Y-13847804D01*
X9705890Y-13828757D01*
X9686843Y-13819233D01*
X9658271Y-13819233D01*
X9639224Y-13809709D01*
X9629700Y-13790661D01*
X9629700Y-13781137D01*
X9639224Y-13762090D01*
X9658271Y-13752566D01*
X9686843Y-13752566D01*
X9705890Y-13762090D01*
X9953510Y-13809709D02*
X10105890Y-13809709D01*
X10029700Y-13885899D02*
X10029700Y-13733518D01*
X10382081Y-13771614D02*
X10363033Y-13762090D01*
X10353510Y-13752566D01*
X10343986Y-13733518D01*
X10343986Y-13723995D01*
X10353510Y-13704947D01*
X10363033Y-13695423D01*
X10382081Y-13685899D01*
X10420176Y-13685899D01*
X10439224Y-13695423D01*
X10448748Y-13704947D01*
X10458271Y-13723995D01*
X10458271Y-13733518D01*
X10448748Y-13752566D01*
X10439224Y-13762090D01*
X10420176Y-13771614D01*
X10382081Y-13771614D01*
X10363033Y-13781137D01*
X10353510Y-13790661D01*
X10343986Y-13809709D01*
X10343986Y-13847804D01*
X10353510Y-13866852D01*
X10363033Y-13876376D01*
X10382081Y-13885899D01*
X10420176Y-13885899D01*
X10439224Y-13876376D01*
X10448748Y-13866852D01*
X10458271Y-13847804D01*
X10458271Y-13809709D01*
X10448748Y-13790661D01*
X10439224Y-13781137D01*
X10420176Y-13771614D01*
X10686843Y-13876376D02*
X10705890Y-13885899D01*
X10743986Y-13885899D01*
X10763033Y-13876376D01*
X10772557Y-13857328D01*
X10772557Y-13847804D01*
X10763033Y-13828757D01*
X10743986Y-13819233D01*
X10715414Y-13819233D01*
X10696367Y-13809709D01*
X10686843Y-13790661D01*
X10686843Y-13781137D01*
X10696367Y-13762090D01*
X10715414Y-13752566D01*
X10743986Y-13752566D01*
X10763033Y-13762090D01*
X10886843Y-13885899D02*
X10867795Y-13876376D01*
X10858271Y-13857328D01*
X10858271Y-13685899D01*
X10991605Y-13885899D02*
X10972557Y-13876376D01*
X10963033Y-13866852D01*
X10953510Y-13847804D01*
X10953510Y-13790661D01*
X10963033Y-13771614D01*
X10972557Y-13762090D01*
X10991605Y-13752566D01*
X11020176Y-13752566D01*
X11039224Y-13762090D01*
X11048748Y-13771614D01*
X11058271Y-13790661D01*
X11058271Y-13847804D01*
X11048748Y-13866852D01*
X11039224Y-13876376D01*
X11020176Y-13885899D01*
X10991605Y-13885899D01*
X11115414Y-13752566D02*
X11191605Y-13752566D01*
X11143986Y-13685899D02*
X11143986Y-13857328D01*
X11153510Y-13876376D01*
X11172557Y-13885899D01*
X11191605Y-13885899D01*
X11248748Y-13876376D02*
X11267795Y-13885899D01*
X11305890Y-13885899D01*
X11324938Y-13876376D01*
X11334462Y-13857328D01*
X11334462Y-13847804D01*
X11324938Y-13828757D01*
X11305890Y-13819233D01*
X11277319Y-13819233D01*
X11258271Y-13809709D01*
X11248748Y-13790661D01*
X11248748Y-13781137D01*
X11258271Y-13762090D01*
X11277319Y-13752566D01*
X11305890Y-13752566D01*
X11324938Y-13762090D01*
X11401128Y-13962090D02*
X11410652Y-13952566D01*
X11429700Y-13923995D01*
X11439224Y-13904947D01*
X11448748Y-13876376D01*
X11458271Y-13828757D01*
X11458271Y-13790661D01*
X11448748Y-13743042D01*
X11439224Y-13714471D01*
X11429700Y-13695423D01*
X11410652Y-13666852D01*
X11401128Y-13657328D01*
D18*
X4729700Y-14014423D02*
X4819700Y-14104423D01*
X4819700Y-14014423D02*
X4729700Y-14104423D01*
X4774700Y-14104423D02*
X4819700Y-14059423D01*
X4774700Y-14014423D01*
X4729700Y-14059423D01*
X4774700Y-14104423D01*
D12*
X5115414Y-13949899D02*
X5134462Y-13949899D01*
X5153510Y-13959423D01*
X5163033Y-13968947D01*
X5172557Y-13987995D01*
X5182081Y-14026090D01*
X5182081Y-14073709D01*
X5172557Y-14111804D01*
X5163033Y-14130852D01*
X5153510Y-14140376D01*
X5134462Y-14149899D01*
X5115414Y-14149899D01*
X5096367Y-14140376D01*
X5086843Y-14130852D01*
X5077319Y-14111804D01*
X5067795Y-14073709D01*
X5067795Y-14026090D01*
X5077319Y-13987995D01*
X5086843Y-13968947D01*
X5096367Y-13959423D01*
X5115414Y-13949899D01*
X5267795Y-14130852D02*
X5277319Y-14140376D01*
X5267795Y-14149899D01*
X5258271Y-14140376D01*
X5267795Y-14130852D01*
X5267795Y-14149899D01*
X5372557Y-14149899D02*
X5410652Y-14149899D01*
X5429700Y-14140376D01*
X5439224Y-14130852D01*
X5458271Y-14102280D01*
X5467795Y-14064185D01*
X5467795Y-13987995D01*
X5458271Y-13968947D01*
X5448748Y-13959423D01*
X5429700Y-13949899D01*
X5391605Y-13949899D01*
X5372557Y-13959423D01*
X5363033Y-13968947D01*
X5353510Y-13987995D01*
X5353510Y-14035614D01*
X5363033Y-14054661D01*
X5372557Y-14064185D01*
X5391605Y-14073709D01*
X5429700Y-14073709D01*
X5448748Y-14064185D01*
X5458271Y-14054661D01*
X5467795Y-14035614D01*
X5591605Y-13949899D02*
X5610652Y-13949899D01*
X5629700Y-13959423D01*
X5639224Y-13968947D01*
X5648748Y-13987995D01*
X5658271Y-14026090D01*
X5658271Y-14073709D01*
X5648748Y-14111804D01*
X5639224Y-14130852D01*
X5629700Y-14140376D01*
X5610652Y-14149899D01*
X5591605Y-14149899D01*
X5572557Y-14140376D01*
X5563033Y-14130852D01*
X5553510Y-14111804D01*
X5543986Y-14073709D01*
X5543986Y-14026090D01*
X5553510Y-13987995D01*
X5563033Y-13968947D01*
X5572557Y-13959423D01*
X5591605Y-13949899D01*
X5782081Y-13949899D02*
X5801128Y-13949899D01*
X5820176Y-13959423D01*
X5829700Y-13968947D01*
X5839224Y-13987995D01*
X5848748Y-14026090D01*
X5848748Y-14073709D01*
X5839224Y-14111804D01*
X5829700Y-14130852D01*
X5820176Y-14140376D01*
X5801128Y-14149899D01*
X5782081Y-14149899D01*
X5763033Y-14140376D01*
X5753509Y-14130852D01*
X5743986Y-14111804D01*
X5734462Y-14073709D01*
X5734462Y-14026090D01*
X5743986Y-13987995D01*
X5753509Y-13968947D01*
X5763033Y-13959423D01*
X5782081Y-13949899D01*
X5934462Y-14149899D02*
X5934462Y-14016566D01*
X5934462Y-14035614D02*
X5943986Y-14026090D01*
X5963033Y-14016566D01*
X5991605Y-14016566D01*
X6010652Y-14026090D01*
X6020176Y-14045137D01*
X6020176Y-14149899D01*
X6020176Y-14045137D02*
X6029700Y-14026090D01*
X6048748Y-14016566D01*
X6077319Y-14016566D01*
X6096367Y-14026090D01*
X6105890Y-14045137D01*
X6105890Y-14149899D01*
X6201128Y-14149899D02*
X6201128Y-14016566D01*
X6201128Y-14035614D02*
X6210652Y-14026090D01*
X6229700Y-14016566D01*
X6258271Y-14016566D01*
X6277319Y-14026090D01*
X6286843Y-14045137D01*
X6286843Y-14149899D01*
X6286843Y-14045137D02*
X6296367Y-14026090D01*
X6315414Y-14016566D01*
X6343986Y-14016566D01*
X6363033Y-14026090D01*
X6372557Y-14045137D01*
X6372557Y-14149899D01*
X6763033Y-13940376D02*
X6591605Y-14197518D01*
X7020176Y-13949899D02*
X7039224Y-13949899D01*
X7058271Y-13959423D01*
X7067795Y-13968947D01*
X7077319Y-13987995D01*
X7086843Y-14026090D01*
X7086843Y-14073709D01*
X7077319Y-14111804D01*
X7067795Y-14130852D01*
X7058271Y-14140376D01*
X7039224Y-14149899D01*
X7020176Y-14149899D01*
X7001128Y-14140376D01*
X6991605Y-14130852D01*
X6982081Y-14111804D01*
X6972557Y-14073709D01*
X6972557Y-14026090D01*
X6982081Y-13987995D01*
X6991605Y-13968947D01*
X7001128Y-13959423D01*
X7020176Y-13949899D01*
X7172557Y-14130852D02*
X7182081Y-14140376D01*
X7172557Y-14149899D01*
X7163033Y-14140376D01*
X7172557Y-14130852D01*
X7172557Y-14149899D01*
X7305890Y-13949899D02*
X7324938Y-13949899D01*
X7343986Y-13959423D01*
X7353509Y-13968947D01*
X7363033Y-13987995D01*
X7372557Y-14026090D01*
X7372557Y-14073709D01*
X7363033Y-14111804D01*
X7353509Y-14130852D01*
X7343986Y-14140376D01*
X7324938Y-14149899D01*
X7305890Y-14149899D01*
X7286843Y-14140376D01*
X7277319Y-14130852D01*
X7267795Y-14111804D01*
X7258271Y-14073709D01*
X7258271Y-14026090D01*
X7267795Y-13987995D01*
X7277319Y-13968947D01*
X7286843Y-13959423D01*
X7305890Y-13949899D01*
X7439224Y-13949899D02*
X7563033Y-13949899D01*
X7496367Y-14026090D01*
X7524938Y-14026090D01*
X7543986Y-14035614D01*
X7553509Y-14045137D01*
X7563033Y-14064185D01*
X7563033Y-14111804D01*
X7553509Y-14130852D01*
X7543986Y-14140376D01*
X7524938Y-14149899D01*
X7467795Y-14149899D01*
X7448748Y-14140376D01*
X7439224Y-14130852D01*
X7743986Y-13949899D02*
X7648748Y-13949899D01*
X7639224Y-14045137D01*
X7648748Y-14035614D01*
X7667795Y-14026090D01*
X7715414Y-14026090D01*
X7734462Y-14035614D01*
X7743986Y-14045137D01*
X7753509Y-14064185D01*
X7753509Y-14111804D01*
X7743986Y-14130852D01*
X7734462Y-14140376D01*
X7715414Y-14149899D01*
X7667795Y-14149899D01*
X7648748Y-14140376D01*
X7639224Y-14130852D01*
X7924938Y-14016566D02*
X7924938Y-14149899D01*
X7877319Y-13940376D02*
X7829700Y-14083233D01*
X7953509Y-14083233D01*
X8020176Y-13949899D02*
X8020176Y-13987995D01*
X8096367Y-13949899D02*
X8096367Y-13987995D01*
X8391605Y-14226090D02*
X8382081Y-14216566D01*
X8363033Y-14187995D01*
X8353509Y-14168947D01*
X8343986Y-14140376D01*
X8334462Y-14092757D01*
X8334462Y-14054661D01*
X8343986Y-14007042D01*
X8353509Y-13978471D01*
X8363033Y-13959423D01*
X8382081Y-13930852D01*
X8391605Y-13921328D01*
X8572557Y-14149899D02*
X8458271Y-14149899D01*
X8515414Y-14149899D02*
X8515414Y-13949899D01*
X8496367Y-13978471D01*
X8477319Y-13997518D01*
X8458271Y-14007042D01*
X8648748Y-13968947D02*
X8658271Y-13959423D01*
X8677319Y-13949899D01*
X8724938Y-13949899D01*
X8743986Y-13959423D01*
X8753510Y-13968947D01*
X8763033Y-13987995D01*
X8763033Y-14007042D01*
X8753510Y-14035614D01*
X8639224Y-14149899D01*
X8763033Y-14149899D01*
X9001129Y-14149899D02*
X9001129Y-13949899D01*
X9086843Y-14149899D02*
X9086843Y-14045137D01*
X9077319Y-14026090D01*
X9058271Y-14016566D01*
X9029700Y-14016566D01*
X9010652Y-14026090D01*
X9001129Y-14035614D01*
X9210652Y-14149899D02*
X9191605Y-14140376D01*
X9182081Y-14130852D01*
X9172557Y-14111804D01*
X9172557Y-14054661D01*
X9182081Y-14035614D01*
X9191605Y-14026090D01*
X9210652Y-14016566D01*
X9239224Y-14016566D01*
X9258271Y-14026090D01*
X9267795Y-14035614D01*
X9277319Y-14054661D01*
X9277319Y-14111804D01*
X9267795Y-14130852D01*
X9258271Y-14140376D01*
X9239224Y-14149899D01*
X9210652Y-14149899D01*
X9391605Y-14149899D02*
X9372557Y-14140376D01*
X9363033Y-14121328D01*
X9363033Y-13949899D01*
X9543986Y-14140376D02*
X9524938Y-14149899D01*
X9486843Y-14149899D01*
X9467795Y-14140376D01*
X9458271Y-14121328D01*
X9458271Y-14045137D01*
X9467795Y-14026090D01*
X9486843Y-14016566D01*
X9524938Y-14016566D01*
X9543986Y-14026090D01*
X9553510Y-14045137D01*
X9553510Y-14064185D01*
X9458271Y-14083233D01*
X9629700Y-14140376D02*
X9648748Y-14149899D01*
X9686843Y-14149899D01*
X9705890Y-14140376D01*
X9715414Y-14121328D01*
X9715414Y-14111804D01*
X9705890Y-14092757D01*
X9686843Y-14083233D01*
X9658271Y-14083233D01*
X9639224Y-14073709D01*
X9629700Y-14054661D01*
X9629700Y-14045137D01*
X9639224Y-14026090D01*
X9658271Y-14016566D01*
X9686843Y-14016566D01*
X9705890Y-14026090D01*
X9782081Y-14226090D02*
X9791605Y-14216566D01*
X9810652Y-14187995D01*
X9820176Y-14168947D01*
X9829700Y-14140376D01*
X9839224Y-14092757D01*
X9839224Y-14054661D01*
X9829700Y-14007042D01*
X9820176Y-13978471D01*
X9810652Y-13959423D01*
X9791605Y-13930852D01*
X9782081Y-13921328D01*
D11*
X4769700Y-14273423D02*
X4769700Y-14373423D01*
X4719700Y-14323423D02*
X4819700Y-14323423D01*
X4819700Y-14323423D02*
G75*
G03*
X4819700Y-14323423I-50000J0D01*
G01*
D12*
X5182081Y-14413899D02*
X5067795Y-14413899D01*
X5124938Y-14413899D02*
X5124938Y-14213899D01*
X5105890Y-14242471D01*
X5086843Y-14261518D01*
X5067795Y-14271042D01*
X5267795Y-14394852D02*
X5277319Y-14404376D01*
X5267795Y-14413899D01*
X5258271Y-14404376D01*
X5267795Y-14394852D01*
X5267795Y-14413899D01*
X5401129Y-14213899D02*
X5420176Y-14213899D01*
X5439224Y-14223423D01*
X5448748Y-14232947D01*
X5458271Y-14251995D01*
X5467795Y-14290090D01*
X5467795Y-14337709D01*
X5458271Y-14375804D01*
X5448748Y-14394852D01*
X5439224Y-14404376D01*
X5420176Y-14413899D01*
X5401129Y-14413899D01*
X5382081Y-14404376D01*
X5372557Y-14394852D01*
X5363033Y-14375804D01*
X5353510Y-14337709D01*
X5353510Y-14290090D01*
X5363033Y-14251995D01*
X5372557Y-14232947D01*
X5382081Y-14223423D01*
X5401129Y-14213899D01*
X5591605Y-14213899D02*
X5610652Y-14213899D01*
X5629700Y-14223423D01*
X5639224Y-14232947D01*
X5648748Y-14251995D01*
X5658271Y-14290090D01*
X5658271Y-14337709D01*
X5648748Y-14375804D01*
X5639224Y-14394852D01*
X5629700Y-14404376D01*
X5610652Y-14413899D01*
X5591605Y-14413899D01*
X5572557Y-14404376D01*
X5563033Y-14394852D01*
X5553510Y-14375804D01*
X5543986Y-14337709D01*
X5543986Y-14290090D01*
X5553510Y-14251995D01*
X5563033Y-14232947D01*
X5572557Y-14223423D01*
X5591605Y-14213899D01*
X5782081Y-14213899D02*
X5801128Y-14213899D01*
X5820176Y-14223423D01*
X5829700Y-14232947D01*
X5839224Y-14251995D01*
X5848748Y-14290090D01*
X5848748Y-14337709D01*
X5839224Y-14375804D01*
X5829700Y-14394852D01*
X5820176Y-14404376D01*
X5801128Y-14413899D01*
X5782081Y-14413899D01*
X5763033Y-14404376D01*
X5753509Y-14394852D01*
X5743986Y-14375804D01*
X5734462Y-14337709D01*
X5734462Y-14290090D01*
X5743986Y-14251995D01*
X5753509Y-14232947D01*
X5763033Y-14223423D01*
X5782081Y-14213899D01*
X5934462Y-14413899D02*
X5934462Y-14280566D01*
X5934462Y-14299614D02*
X5943986Y-14290090D01*
X5963033Y-14280566D01*
X5991605Y-14280566D01*
X6010652Y-14290090D01*
X6020176Y-14309137D01*
X6020176Y-14413899D01*
X6020176Y-14309137D02*
X6029700Y-14290090D01*
X6048748Y-14280566D01*
X6077319Y-14280566D01*
X6096367Y-14290090D01*
X6105890Y-14309137D01*
X6105890Y-14413899D01*
X6201128Y-14413899D02*
X6201128Y-14280566D01*
X6201128Y-14299614D02*
X6210652Y-14290090D01*
X6229700Y-14280566D01*
X6258271Y-14280566D01*
X6277319Y-14290090D01*
X6286843Y-14309137D01*
X6286843Y-14413899D01*
X6286843Y-14309137D02*
X6296367Y-14290090D01*
X6315414Y-14280566D01*
X6343986Y-14280566D01*
X6363033Y-14290090D01*
X6372557Y-14309137D01*
X6372557Y-14413899D01*
X6763033Y-14204376D02*
X6591605Y-14461518D01*
X7020176Y-14213899D02*
X7039224Y-14213899D01*
X7058271Y-14223423D01*
X7067795Y-14232947D01*
X7077319Y-14251995D01*
X7086843Y-14290090D01*
X7086843Y-14337709D01*
X7077319Y-14375804D01*
X7067795Y-14394852D01*
X7058271Y-14404376D01*
X7039224Y-14413899D01*
X7020176Y-14413899D01*
X7001128Y-14404376D01*
X6991605Y-14394852D01*
X6982081Y-14375804D01*
X6972557Y-14337709D01*
X6972557Y-14290090D01*
X6982081Y-14251995D01*
X6991605Y-14232947D01*
X7001128Y-14223423D01*
X7020176Y-14213899D01*
X7172557Y-14394852D02*
X7182081Y-14404376D01*
X7172557Y-14413899D01*
X7163033Y-14404376D01*
X7172557Y-14394852D01*
X7172557Y-14413899D01*
X7305890Y-14213899D02*
X7324938Y-14213899D01*
X7343986Y-14223423D01*
X7353509Y-14232947D01*
X7363033Y-14251995D01*
X7372557Y-14290090D01*
X7372557Y-14337709D01*
X7363033Y-14375804D01*
X7353509Y-14394852D01*
X7343986Y-14404376D01*
X7324938Y-14413899D01*
X7305890Y-14413899D01*
X7286843Y-14404376D01*
X7277319Y-14394852D01*
X7267795Y-14375804D01*
X7258271Y-14337709D01*
X7258271Y-14290090D01*
X7267795Y-14251995D01*
X7277319Y-14232947D01*
X7286843Y-14223423D01*
X7305890Y-14213899D01*
X7439224Y-14213899D02*
X7563033Y-14213899D01*
X7496367Y-14290090D01*
X7524938Y-14290090D01*
X7543986Y-14299614D01*
X7553509Y-14309137D01*
X7563033Y-14328185D01*
X7563033Y-14375804D01*
X7553509Y-14394852D01*
X7543986Y-14404376D01*
X7524938Y-14413899D01*
X7467795Y-14413899D01*
X7448748Y-14404376D01*
X7439224Y-14394852D01*
X7658271Y-14413899D02*
X7696367Y-14413899D01*
X7715414Y-14404376D01*
X7724938Y-14394852D01*
X7743986Y-14366280D01*
X7753509Y-14328185D01*
X7753509Y-14251995D01*
X7743986Y-14232947D01*
X7734462Y-14223423D01*
X7715414Y-14213899D01*
X7677319Y-14213899D01*
X7658271Y-14223423D01*
X7648748Y-14232947D01*
X7639224Y-14251995D01*
X7639224Y-14299614D01*
X7648748Y-14318661D01*
X7658271Y-14328185D01*
X7677319Y-14337709D01*
X7715414Y-14337709D01*
X7734462Y-14328185D01*
X7743986Y-14318661D01*
X7753509Y-14299614D01*
X7924938Y-14280566D02*
X7924938Y-14413899D01*
X7877319Y-14204376D02*
X7829700Y-14347233D01*
X7953509Y-14347233D01*
X8020176Y-14213899D02*
X8020176Y-14251995D01*
X8096367Y-14213899D02*
X8096367Y-14251995D01*
X8391605Y-14490090D02*
X8382081Y-14480566D01*
X8363033Y-14451995D01*
X8353509Y-14432947D01*
X8343986Y-14404376D01*
X8334462Y-14356757D01*
X8334462Y-14318661D01*
X8343986Y-14271042D01*
X8353509Y-14242471D01*
X8363033Y-14223423D01*
X8382081Y-14194852D01*
X8391605Y-14185328D01*
X8572557Y-14413899D02*
X8458271Y-14413899D01*
X8515414Y-14413899D02*
X8515414Y-14213899D01*
X8496367Y-14242471D01*
X8477319Y-14261518D01*
X8458271Y-14271042D01*
X8763033Y-14413899D02*
X8648748Y-14413899D01*
X8705890Y-14413899D02*
X8705890Y-14213899D01*
X8686843Y-14242471D01*
X8667795Y-14261518D01*
X8648748Y-14271042D01*
X9001129Y-14413899D02*
X9001129Y-14213899D01*
X9086843Y-14413899D02*
X9086843Y-14309137D01*
X9077319Y-14290090D01*
X9058271Y-14280566D01*
X9029700Y-14280566D01*
X9010652Y-14290090D01*
X9001129Y-14299614D01*
X9210652Y-14413899D02*
X9191605Y-14404376D01*
X9182081Y-14394852D01*
X9172557Y-14375804D01*
X9172557Y-14318661D01*
X9182081Y-14299614D01*
X9191605Y-14290090D01*
X9210652Y-14280566D01*
X9239224Y-14280566D01*
X9258271Y-14290090D01*
X9267795Y-14299614D01*
X9277319Y-14318661D01*
X9277319Y-14375804D01*
X9267795Y-14394852D01*
X9258271Y-14404376D01*
X9239224Y-14413899D01*
X9210652Y-14413899D01*
X9391605Y-14413899D02*
X9372557Y-14404376D01*
X9363033Y-14385328D01*
X9363033Y-14213899D01*
X9543986Y-14404376D02*
X9524938Y-14413899D01*
X9486843Y-14413899D01*
X9467795Y-14404376D01*
X9458271Y-14385328D01*
X9458271Y-14309137D01*
X9467795Y-14290090D01*
X9486843Y-14280566D01*
X9524938Y-14280566D01*
X9543986Y-14290090D01*
X9553510Y-14309137D01*
X9553510Y-14328185D01*
X9458271Y-14347233D01*
X9629700Y-14404376D02*
X9648748Y-14413899D01*
X9686843Y-14413899D01*
X9705890Y-14404376D01*
X9715414Y-14385328D01*
X9715414Y-14375804D01*
X9705890Y-14356757D01*
X9686843Y-14347233D01*
X9658271Y-14347233D01*
X9639224Y-14337709D01*
X9629700Y-14318661D01*
X9629700Y-14309137D01*
X9639224Y-14290090D01*
X9658271Y-14280566D01*
X9686843Y-14280566D01*
X9705890Y-14290090D01*
X9782081Y-14490090D02*
X9791605Y-14480566D01*
X9810652Y-14451995D01*
X9820176Y-14432947D01*
X9829700Y-14404376D01*
X9839224Y-14356757D01*
X9839224Y-14318661D01*
X9829700Y-14271042D01*
X9820176Y-14242471D01*
X9810652Y-14223423D01*
X9791605Y-14194852D01*
X9782081Y-14185328D01*
D19*
X4803591Y-14626314D02*
X4803591Y-14548532D01*
X4725809Y-14548532D01*
X4725809Y-14626314D01*
X4803591Y-14626314D01*
X4819700Y-14587423D02*
G75*
G03*
X4819700Y-14587423I-55000J0D01*
G01*
D12*
X5182081Y-14677899D02*
X5067795Y-14677899D01*
X5124938Y-14677899D02*
X5124938Y-14477899D01*
X5105890Y-14506471D01*
X5086843Y-14525518D01*
X5067795Y-14535042D01*
X5267795Y-14658852D02*
X5277319Y-14668376D01*
X5267795Y-14677899D01*
X5258271Y-14668376D01*
X5267795Y-14658852D01*
X5267795Y-14677899D01*
X5467795Y-14677899D02*
X5353510Y-14677899D01*
X5410652Y-14677899D02*
X5410652Y-14477899D01*
X5391605Y-14506471D01*
X5372557Y-14525518D01*
X5353510Y-14535042D01*
X5591605Y-14477899D02*
X5610652Y-14477899D01*
X5629700Y-14487423D01*
X5639224Y-14496947D01*
X5648748Y-14515995D01*
X5658271Y-14554090D01*
X5658271Y-14601709D01*
X5648748Y-14639804D01*
X5639224Y-14658852D01*
X5629700Y-14668376D01*
X5610652Y-14677899D01*
X5591605Y-14677899D01*
X5572557Y-14668376D01*
X5563033Y-14658852D01*
X5553510Y-14639804D01*
X5543986Y-14601709D01*
X5543986Y-14554090D01*
X5553510Y-14515995D01*
X5563033Y-14496947D01*
X5572557Y-14487423D01*
X5591605Y-14477899D01*
X5782081Y-14477899D02*
X5801128Y-14477899D01*
X5820176Y-14487423D01*
X5829700Y-14496947D01*
X5839224Y-14515995D01*
X5848748Y-14554090D01*
X5848748Y-14601709D01*
X5839224Y-14639804D01*
X5829700Y-14658852D01*
X5820176Y-14668376D01*
X5801128Y-14677899D01*
X5782081Y-14677899D01*
X5763033Y-14668376D01*
X5753509Y-14658852D01*
X5743986Y-14639804D01*
X5734462Y-14601709D01*
X5734462Y-14554090D01*
X5743986Y-14515995D01*
X5753509Y-14496947D01*
X5763033Y-14487423D01*
X5782081Y-14477899D01*
X5934462Y-14677899D02*
X5934462Y-14544566D01*
X5934462Y-14563614D02*
X5943986Y-14554090D01*
X5963033Y-14544566D01*
X5991605Y-14544566D01*
X6010652Y-14554090D01*
X6020176Y-14573137D01*
X6020176Y-14677899D01*
X6020176Y-14573137D02*
X6029700Y-14554090D01*
X6048748Y-14544566D01*
X6077319Y-14544566D01*
X6096367Y-14554090D01*
X6105890Y-14573137D01*
X6105890Y-14677899D01*
X6201128Y-14677899D02*
X6201128Y-14544566D01*
X6201128Y-14563614D02*
X6210652Y-14554090D01*
X6229700Y-14544566D01*
X6258271Y-14544566D01*
X6277319Y-14554090D01*
X6286843Y-14573137D01*
X6286843Y-14677899D01*
X6286843Y-14573137D02*
X6296367Y-14554090D01*
X6315414Y-14544566D01*
X6343986Y-14544566D01*
X6363033Y-14554090D01*
X6372557Y-14573137D01*
X6372557Y-14677899D01*
X6763033Y-14468376D02*
X6591605Y-14725518D01*
X7020176Y-14477899D02*
X7039224Y-14477899D01*
X7058271Y-14487423D01*
X7067795Y-14496947D01*
X7077319Y-14515995D01*
X7086843Y-14554090D01*
X7086843Y-14601709D01*
X7077319Y-14639804D01*
X7067795Y-14658852D01*
X7058271Y-14668376D01*
X7039224Y-14677899D01*
X7020176Y-14677899D01*
X7001128Y-14668376D01*
X6991605Y-14658852D01*
X6982081Y-14639804D01*
X6972557Y-14601709D01*
X6972557Y-14554090D01*
X6982081Y-14515995D01*
X6991605Y-14496947D01*
X7001128Y-14487423D01*
X7020176Y-14477899D01*
X7172557Y-14658852D02*
X7182081Y-14668376D01*
X7172557Y-14677899D01*
X7163033Y-14668376D01*
X7172557Y-14658852D01*
X7172557Y-14677899D01*
X7305890Y-14477899D02*
X7324938Y-14477899D01*
X7343986Y-14487423D01*
X7353509Y-14496947D01*
X7363033Y-14515995D01*
X7372557Y-14554090D01*
X7372557Y-14601709D01*
X7363033Y-14639804D01*
X7353509Y-14658852D01*
X7343986Y-14668376D01*
X7324938Y-14677899D01*
X7305890Y-14677899D01*
X7286843Y-14668376D01*
X7277319Y-14658852D01*
X7267795Y-14639804D01*
X7258271Y-14601709D01*
X7258271Y-14554090D01*
X7267795Y-14515995D01*
X7277319Y-14496947D01*
X7286843Y-14487423D01*
X7305890Y-14477899D01*
X7543986Y-14544566D02*
X7543986Y-14677899D01*
X7496367Y-14468376D02*
X7448748Y-14611233D01*
X7572557Y-14611233D01*
X7629700Y-14477899D02*
X7753509Y-14477899D01*
X7686843Y-14554090D01*
X7715414Y-14554090D01*
X7734462Y-14563614D01*
X7743986Y-14573137D01*
X7753509Y-14592185D01*
X7753509Y-14639804D01*
X7743986Y-14658852D01*
X7734462Y-14668376D01*
X7715414Y-14677899D01*
X7658271Y-14677899D01*
X7639224Y-14668376D01*
X7629700Y-14658852D01*
X7820176Y-14477899D02*
X7943986Y-14477899D01*
X7877319Y-14554090D01*
X7905890Y-14554090D01*
X7924938Y-14563614D01*
X7934462Y-14573137D01*
X7943986Y-14592185D01*
X7943986Y-14639804D01*
X7934462Y-14658852D01*
X7924938Y-14668376D01*
X7905890Y-14677899D01*
X7848748Y-14677899D01*
X7829700Y-14668376D01*
X7820176Y-14658852D01*
X8020176Y-14477899D02*
X8020176Y-14515995D01*
X8096367Y-14477899D02*
X8096367Y-14515995D01*
X8391605Y-14754090D02*
X8382081Y-14744566D01*
X8363033Y-14715995D01*
X8353509Y-14696947D01*
X8343986Y-14668376D01*
X8334462Y-14620757D01*
X8334462Y-14582661D01*
X8343986Y-14535042D01*
X8353509Y-14506471D01*
X8363033Y-14487423D01*
X8382081Y-14458852D01*
X8391605Y-14449328D01*
X8553510Y-14544566D02*
X8553510Y-14677899D01*
X8505890Y-14468376D02*
X8458271Y-14611233D01*
X8582081Y-14611233D01*
X8810652Y-14677899D02*
X8810652Y-14477899D01*
X8896367Y-14677899D02*
X8896367Y-14573137D01*
X8886843Y-14554090D01*
X8867795Y-14544566D01*
X8839224Y-14544566D01*
X8820176Y-14554090D01*
X8810652Y-14563614D01*
X9020176Y-14677899D02*
X9001129Y-14668376D01*
X8991605Y-14658852D01*
X8982081Y-14639804D01*
X8982081Y-14582661D01*
X8991605Y-14563614D01*
X9001129Y-14554090D01*
X9020176Y-14544566D01*
X9048748Y-14544566D01*
X9067795Y-14554090D01*
X9077319Y-14563614D01*
X9086843Y-14582661D01*
X9086843Y-14639804D01*
X9077319Y-14658852D01*
X9067795Y-14668376D01*
X9048748Y-14677899D01*
X9020176Y-14677899D01*
X9201129Y-14677899D02*
X9182081Y-14668376D01*
X9172557Y-14649328D01*
X9172557Y-14477899D01*
X9353510Y-14668376D02*
X9334462Y-14677899D01*
X9296367Y-14677899D01*
X9277319Y-14668376D01*
X9267795Y-14649328D01*
X9267795Y-14573137D01*
X9277319Y-14554090D01*
X9296367Y-14544566D01*
X9334462Y-14544566D01*
X9353510Y-14554090D01*
X9363033Y-14573137D01*
X9363033Y-14592185D01*
X9267795Y-14611233D01*
X9439224Y-14668376D02*
X9458271Y-14677899D01*
X9496367Y-14677899D01*
X9515414Y-14668376D01*
X9524938Y-14649328D01*
X9524938Y-14639804D01*
X9515414Y-14620757D01*
X9496367Y-14611233D01*
X9467795Y-14611233D01*
X9448748Y-14601709D01*
X9439224Y-14582661D01*
X9439224Y-14573137D01*
X9448748Y-14554090D01*
X9467795Y-14544566D01*
X9496367Y-14544566D01*
X9515414Y-14554090D01*
X9591605Y-14754090D02*
X9601129Y-14744566D01*
X9620176Y-14715995D01*
X9629700Y-14696947D01*
X9639224Y-14668376D01*
X9648748Y-14620757D01*
X9648748Y-14582661D01*
X9639224Y-14535042D01*
X9629700Y-14506471D01*
X9620176Y-14487423D01*
X9601129Y-14458852D01*
X9591605Y-14449328D01*
D20*
X4744700Y-14926423D02*
X4819700Y-14851423D01*
X4744700Y-14776423D01*
X4669700Y-14851423D01*
X4744700Y-14926423D01*
X4819700Y-14851423D02*
G75*
G03*
X4819700Y-14851423I-75000J0D01*
G01*
D12*
X5182081Y-14941899D02*
X5067795Y-14941899D01*
X5124938Y-14941899D02*
X5124938Y-14741899D01*
X5105890Y-14770471D01*
X5086843Y-14789518D01*
X5067795Y-14799042D01*
X5267795Y-14922852D02*
X5277319Y-14932376D01*
X5267795Y-14941899D01*
X5258271Y-14932376D01*
X5267795Y-14922852D01*
X5267795Y-14941899D01*
X5458271Y-14741899D02*
X5363033Y-14741899D01*
X5353510Y-14837137D01*
X5363033Y-14827614D01*
X5382081Y-14818090D01*
X5429700Y-14818090D01*
X5448748Y-14827614D01*
X5458271Y-14837137D01*
X5467795Y-14856185D01*
X5467795Y-14903804D01*
X5458271Y-14922852D01*
X5448748Y-14932376D01*
X5429700Y-14941899D01*
X5382081Y-14941899D01*
X5363033Y-14932376D01*
X5353510Y-14922852D01*
X5591605Y-14741899D02*
X5610652Y-14741899D01*
X5629700Y-14751423D01*
X5639224Y-14760947D01*
X5648748Y-14779995D01*
X5658271Y-14818090D01*
X5658271Y-14865709D01*
X5648748Y-14903804D01*
X5639224Y-14922852D01*
X5629700Y-14932376D01*
X5610652Y-14941899D01*
X5591605Y-14941899D01*
X5572557Y-14932376D01*
X5563033Y-14922852D01*
X5553510Y-14903804D01*
X5543986Y-14865709D01*
X5543986Y-14818090D01*
X5553510Y-14779995D01*
X5563033Y-14760947D01*
X5572557Y-14751423D01*
X5591605Y-14741899D01*
X5782081Y-14741899D02*
X5801128Y-14741899D01*
X5820176Y-14751423D01*
X5829700Y-14760947D01*
X5839224Y-14779995D01*
X5848748Y-14818090D01*
X5848748Y-14865709D01*
X5839224Y-14903804D01*
X5829700Y-14922852D01*
X5820176Y-14932376D01*
X5801128Y-14941899D01*
X5782081Y-14941899D01*
X5763033Y-14932376D01*
X5753509Y-14922852D01*
X5743986Y-14903804D01*
X5734462Y-14865709D01*
X5734462Y-14818090D01*
X5743986Y-14779995D01*
X5753509Y-14760947D01*
X5763033Y-14751423D01*
X5782081Y-14741899D01*
X5934462Y-14941899D02*
X5934462Y-14808566D01*
X5934462Y-14827614D02*
X5943986Y-14818090D01*
X5963033Y-14808566D01*
X5991605Y-14808566D01*
X6010652Y-14818090D01*
X6020176Y-14837137D01*
X6020176Y-14941899D01*
X6020176Y-14837137D02*
X6029700Y-14818090D01*
X6048748Y-14808566D01*
X6077319Y-14808566D01*
X6096367Y-14818090D01*
X6105890Y-14837137D01*
X6105890Y-14941899D01*
X6201128Y-14941899D02*
X6201128Y-14808566D01*
X6201128Y-14827614D02*
X6210652Y-14818090D01*
X6229700Y-14808566D01*
X6258271Y-14808566D01*
X6277319Y-14818090D01*
X6286843Y-14837137D01*
X6286843Y-14941899D01*
X6286843Y-14837137D02*
X6296367Y-14818090D01*
X6315414Y-14808566D01*
X6343986Y-14808566D01*
X6363033Y-14818090D01*
X6372557Y-14837137D01*
X6372557Y-14941899D01*
X6763033Y-14732376D02*
X6591605Y-14989518D01*
X7020176Y-14741899D02*
X7039224Y-14741899D01*
X7058271Y-14751423D01*
X7067795Y-14760947D01*
X7077319Y-14779995D01*
X7086843Y-14818090D01*
X7086843Y-14865709D01*
X7077319Y-14903804D01*
X7067795Y-14922852D01*
X7058271Y-14932376D01*
X7039224Y-14941899D01*
X7020176Y-14941899D01*
X7001128Y-14932376D01*
X6991605Y-14922852D01*
X6982081Y-14903804D01*
X6972557Y-14865709D01*
X6972557Y-14818090D01*
X6982081Y-14779995D01*
X6991605Y-14760947D01*
X7001128Y-14751423D01*
X7020176Y-14741899D01*
X7172557Y-14922852D02*
X7182081Y-14932376D01*
X7172557Y-14941899D01*
X7163033Y-14932376D01*
X7172557Y-14922852D01*
X7172557Y-14941899D01*
X7305890Y-14741899D02*
X7324938Y-14741899D01*
X7343986Y-14751423D01*
X7353509Y-14760947D01*
X7363033Y-14779995D01*
X7372557Y-14818090D01*
X7372557Y-14865709D01*
X7363033Y-14903804D01*
X7353509Y-14922852D01*
X7343986Y-14932376D01*
X7324938Y-14941899D01*
X7305890Y-14941899D01*
X7286843Y-14932376D01*
X7277319Y-14922852D01*
X7267795Y-14903804D01*
X7258271Y-14865709D01*
X7258271Y-14818090D01*
X7267795Y-14779995D01*
X7277319Y-14760947D01*
X7286843Y-14751423D01*
X7305890Y-14741899D01*
X7553509Y-14741899D02*
X7458271Y-14741899D01*
X7448748Y-14837137D01*
X7458271Y-14827614D01*
X7477319Y-14818090D01*
X7524938Y-14818090D01*
X7543986Y-14827614D01*
X7553509Y-14837137D01*
X7563033Y-14856185D01*
X7563033Y-14903804D01*
X7553509Y-14922852D01*
X7543986Y-14932376D01*
X7524938Y-14941899D01*
X7477319Y-14941899D01*
X7458271Y-14932376D01*
X7448748Y-14922852D01*
X7658271Y-14941899D02*
X7696367Y-14941899D01*
X7715414Y-14932376D01*
X7724938Y-14922852D01*
X7743986Y-14894280D01*
X7753509Y-14856185D01*
X7753509Y-14779995D01*
X7743986Y-14760947D01*
X7734462Y-14751423D01*
X7715414Y-14741899D01*
X7677319Y-14741899D01*
X7658271Y-14751423D01*
X7648748Y-14760947D01*
X7639224Y-14779995D01*
X7639224Y-14827614D01*
X7648748Y-14846661D01*
X7658271Y-14856185D01*
X7677319Y-14865709D01*
X7715414Y-14865709D01*
X7734462Y-14856185D01*
X7743986Y-14846661D01*
X7753509Y-14827614D01*
X7943986Y-14941899D02*
X7829700Y-14941899D01*
X7886843Y-14941899D02*
X7886843Y-14741899D01*
X7867795Y-14770471D01*
X7848748Y-14789518D01*
X7829700Y-14799042D01*
X8020176Y-14741899D02*
X8020176Y-14779995D01*
X8096367Y-14741899D02*
X8096367Y-14779995D01*
X8391605Y-15018090D02*
X8382081Y-15008566D01*
X8363033Y-14979995D01*
X8353509Y-14960947D01*
X8343986Y-14932376D01*
X8334462Y-14884757D01*
X8334462Y-14846661D01*
X8343986Y-14799042D01*
X8353509Y-14770471D01*
X8363033Y-14751423D01*
X8382081Y-14722852D01*
X8391605Y-14713328D01*
X8458271Y-14760947D02*
X8467795Y-14751423D01*
X8486843Y-14741899D01*
X8534462Y-14741899D01*
X8553510Y-14751423D01*
X8563033Y-14760947D01*
X8572557Y-14779995D01*
X8572557Y-14799042D01*
X8563033Y-14827614D01*
X8448748Y-14941899D01*
X8572557Y-14941899D01*
X8810652Y-14941899D02*
X8810652Y-14741899D01*
X8896367Y-14941899D02*
X8896367Y-14837137D01*
X8886843Y-14818090D01*
X8867795Y-14808566D01*
X8839224Y-14808566D01*
X8820176Y-14818090D01*
X8810652Y-14827614D01*
X9020176Y-14941899D02*
X9001129Y-14932376D01*
X8991605Y-14922852D01*
X8982081Y-14903804D01*
X8982081Y-14846661D01*
X8991605Y-14827614D01*
X9001129Y-14818090D01*
X9020176Y-14808566D01*
X9048748Y-14808566D01*
X9067795Y-14818090D01*
X9077319Y-14827614D01*
X9086843Y-14846661D01*
X9086843Y-14903804D01*
X9077319Y-14922852D01*
X9067795Y-14932376D01*
X9048748Y-14941899D01*
X9020176Y-14941899D01*
X9201129Y-14941899D02*
X9182081Y-14932376D01*
X9172557Y-14913328D01*
X9172557Y-14741899D01*
X9353510Y-14932376D02*
X9334462Y-14941899D01*
X9296367Y-14941899D01*
X9277319Y-14932376D01*
X9267795Y-14913328D01*
X9267795Y-14837137D01*
X9277319Y-14818090D01*
X9296367Y-14808566D01*
X9334462Y-14808566D01*
X9353510Y-14818090D01*
X9363033Y-14837137D01*
X9363033Y-14856185D01*
X9267795Y-14875233D01*
X9439224Y-14932376D02*
X9458271Y-14941899D01*
X9496367Y-14941899D01*
X9515414Y-14932376D01*
X9524938Y-14913328D01*
X9524938Y-14903804D01*
X9515414Y-14884757D01*
X9496367Y-14875233D01*
X9467795Y-14875233D01*
X9448748Y-14865709D01*
X9439224Y-14846661D01*
X9439224Y-14837137D01*
X9448748Y-14818090D01*
X9467795Y-14808566D01*
X9496367Y-14808566D01*
X9515414Y-14818090D01*
X9591605Y-15018090D02*
X9601129Y-15008566D01*
X9620176Y-14979995D01*
X9629700Y-14960947D01*
X9639224Y-14932376D01*
X9648748Y-14884757D01*
X9648748Y-14846661D01*
X9639224Y-14799042D01*
X9629700Y-14770471D01*
X9620176Y-14751423D01*
X9601129Y-14722852D01*
X9591605Y-14713328D01*
D21*
X4729700Y-15031423D02*
X4729700Y-15211423D01*
X4639700Y-15121423D02*
X4819700Y-15121423D01*
X4793340Y-15185063D02*
X4793340Y-15057783D01*
X4666060Y-15057783D01*
X4666060Y-15185063D01*
X4793340Y-15185063D01*
D12*
X5182081Y-15211899D02*
X5067795Y-15211899D01*
X5124938Y-15211899D02*
X5124938Y-15011899D01*
X5105890Y-15040471D01*
X5086843Y-15059518D01*
X5067795Y-15069042D01*
X5267795Y-15192852D02*
X5277319Y-15202376D01*
X5267795Y-15211899D01*
X5258271Y-15202376D01*
X5267795Y-15192852D01*
X5267795Y-15211899D01*
X5391605Y-15097614D02*
X5372557Y-15088090D01*
X5363033Y-15078566D01*
X5353510Y-15059518D01*
X5353510Y-15049995D01*
X5363033Y-15030947D01*
X5372557Y-15021423D01*
X5391605Y-15011899D01*
X5429700Y-15011899D01*
X5448748Y-15021423D01*
X5458271Y-15030947D01*
X5467795Y-15049995D01*
X5467795Y-15059518D01*
X5458271Y-15078566D01*
X5448748Y-15088090D01*
X5429700Y-15097614D01*
X5391605Y-15097614D01*
X5372557Y-15107137D01*
X5363033Y-15116661D01*
X5353510Y-15135709D01*
X5353510Y-15173804D01*
X5363033Y-15192852D01*
X5372557Y-15202376D01*
X5391605Y-15211899D01*
X5429700Y-15211899D01*
X5448748Y-15202376D01*
X5458271Y-15192852D01*
X5467795Y-15173804D01*
X5467795Y-15135709D01*
X5458271Y-15116661D01*
X5448748Y-15107137D01*
X5429700Y-15097614D01*
X5591605Y-15011899D02*
X5610652Y-15011899D01*
X5629700Y-15021423D01*
X5639224Y-15030947D01*
X5648748Y-15049995D01*
X5658271Y-15088090D01*
X5658271Y-15135709D01*
X5648748Y-15173804D01*
X5639224Y-15192852D01*
X5629700Y-15202376D01*
X5610652Y-15211899D01*
X5591605Y-15211899D01*
X5572557Y-15202376D01*
X5563033Y-15192852D01*
X5553510Y-15173804D01*
X5543986Y-15135709D01*
X5543986Y-15088090D01*
X5553510Y-15049995D01*
X5563033Y-15030947D01*
X5572557Y-15021423D01*
X5591605Y-15011899D01*
X5782081Y-15011899D02*
X5801128Y-15011899D01*
X5820176Y-15021423D01*
X5829700Y-15030947D01*
X5839224Y-15049995D01*
X5848748Y-15088090D01*
X5848748Y-15135709D01*
X5839224Y-15173804D01*
X5829700Y-15192852D01*
X5820176Y-15202376D01*
X5801128Y-15211899D01*
X5782081Y-15211899D01*
X5763033Y-15202376D01*
X5753509Y-15192852D01*
X5743986Y-15173804D01*
X5734462Y-15135709D01*
X5734462Y-15088090D01*
X5743986Y-15049995D01*
X5753509Y-15030947D01*
X5763033Y-15021423D01*
X5782081Y-15011899D01*
X5934462Y-15211899D02*
X5934462Y-15078566D01*
X5934462Y-15097614D02*
X5943986Y-15088090D01*
X5963033Y-15078566D01*
X5991605Y-15078566D01*
X6010652Y-15088090D01*
X6020176Y-15107137D01*
X6020176Y-15211899D01*
X6020176Y-15107137D02*
X6029700Y-15088090D01*
X6048748Y-15078566D01*
X6077319Y-15078566D01*
X6096367Y-15088090D01*
X6105890Y-15107137D01*
X6105890Y-15211899D01*
X6201128Y-15211899D02*
X6201128Y-15078566D01*
X6201128Y-15097614D02*
X6210652Y-15088090D01*
X6229700Y-15078566D01*
X6258271Y-15078566D01*
X6277319Y-15088090D01*
X6286843Y-15107137D01*
X6286843Y-15211899D01*
X6286843Y-15107137D02*
X6296367Y-15088090D01*
X6315414Y-15078566D01*
X6343986Y-15078566D01*
X6363033Y-15088090D01*
X6372557Y-15107137D01*
X6372557Y-15211899D01*
X6763033Y-15002376D02*
X6591605Y-15259518D01*
X7020176Y-15011899D02*
X7039224Y-15011899D01*
X7058271Y-15021423D01*
X7067795Y-15030947D01*
X7077319Y-15049995D01*
X7086843Y-15088090D01*
X7086843Y-15135709D01*
X7077319Y-15173804D01*
X7067795Y-15192852D01*
X7058271Y-15202376D01*
X7039224Y-15211899D01*
X7020176Y-15211899D01*
X7001128Y-15202376D01*
X6991605Y-15192852D01*
X6982081Y-15173804D01*
X6972557Y-15135709D01*
X6972557Y-15088090D01*
X6982081Y-15049995D01*
X6991605Y-15030947D01*
X7001128Y-15021423D01*
X7020176Y-15011899D01*
X7172557Y-15192852D02*
X7182081Y-15202376D01*
X7172557Y-15211899D01*
X7163033Y-15202376D01*
X7172557Y-15192852D01*
X7172557Y-15211899D01*
X7305890Y-15011899D02*
X7324938Y-15011899D01*
X7343986Y-15021423D01*
X7353509Y-15030947D01*
X7363033Y-15049995D01*
X7372557Y-15088090D01*
X7372557Y-15135709D01*
X7363033Y-15173804D01*
X7353509Y-15192852D01*
X7343986Y-15202376D01*
X7324938Y-15211899D01*
X7305890Y-15211899D01*
X7286843Y-15202376D01*
X7277319Y-15192852D01*
X7267795Y-15173804D01*
X7258271Y-15135709D01*
X7258271Y-15088090D01*
X7267795Y-15049995D01*
X7277319Y-15030947D01*
X7286843Y-15021423D01*
X7305890Y-15011899D01*
X7439224Y-15011899D02*
X7572557Y-15011899D01*
X7486843Y-15211899D01*
X7686843Y-15011899D02*
X7705890Y-15011899D01*
X7724938Y-15021423D01*
X7734462Y-15030947D01*
X7743986Y-15049995D01*
X7753509Y-15088090D01*
X7753509Y-15135709D01*
X7743986Y-15173804D01*
X7734462Y-15192852D01*
X7724938Y-15202376D01*
X7705890Y-15211899D01*
X7686843Y-15211899D01*
X7667795Y-15202376D01*
X7658271Y-15192852D01*
X7648748Y-15173804D01*
X7639224Y-15135709D01*
X7639224Y-15088090D01*
X7648748Y-15049995D01*
X7658271Y-15030947D01*
X7667795Y-15021423D01*
X7686843Y-15011899D01*
X7848748Y-15211899D02*
X7886843Y-15211899D01*
X7905890Y-15202376D01*
X7915414Y-15192852D01*
X7934462Y-15164280D01*
X7943986Y-15126185D01*
X7943986Y-15049995D01*
X7934462Y-15030947D01*
X7924938Y-15021423D01*
X7905890Y-15011899D01*
X7867795Y-15011899D01*
X7848748Y-15021423D01*
X7839224Y-15030947D01*
X7829700Y-15049995D01*
X7829700Y-15097614D01*
X7839224Y-15116661D01*
X7848748Y-15126185D01*
X7867795Y-15135709D01*
X7905890Y-15135709D01*
X7924938Y-15126185D01*
X7934462Y-15116661D01*
X7943986Y-15097614D01*
X8020176Y-15011899D02*
X8020176Y-15049995D01*
X8096367Y-15011899D02*
X8096367Y-15049995D01*
X8391605Y-15288090D02*
X8382081Y-15278566D01*
X8363033Y-15249995D01*
X8353509Y-15230947D01*
X8343986Y-15202376D01*
X8334462Y-15154757D01*
X8334462Y-15116661D01*
X8343986Y-15069042D01*
X8353509Y-15040471D01*
X8363033Y-15021423D01*
X8382081Y-14992852D01*
X8391605Y-14983328D01*
X8505890Y-15011899D02*
X8524938Y-15011899D01*
X8543986Y-15021423D01*
X8553510Y-15030947D01*
X8563033Y-15049995D01*
X8572557Y-15088090D01*
X8572557Y-15135709D01*
X8563033Y-15173804D01*
X8553510Y-15192852D01*
X8543986Y-15202376D01*
X8524938Y-15211899D01*
X8505890Y-15211899D01*
X8486843Y-15202376D01*
X8477319Y-15192852D01*
X8467795Y-15173804D01*
X8458271Y-15135709D01*
X8458271Y-15088090D01*
X8467795Y-15049995D01*
X8477319Y-15030947D01*
X8486843Y-15021423D01*
X8505890Y-15011899D01*
X8810652Y-15211899D02*
X8810652Y-15011899D01*
X8896367Y-15211899D02*
X8896367Y-15107137D01*
X8886843Y-15088090D01*
X8867795Y-15078566D01*
X8839224Y-15078566D01*
X8820176Y-15088090D01*
X8810652Y-15097614D01*
X9020176Y-15211899D02*
X9001129Y-15202376D01*
X8991605Y-15192852D01*
X8982081Y-15173804D01*
X8982081Y-15116661D01*
X8991605Y-15097614D01*
X9001129Y-15088090D01*
X9020176Y-15078566D01*
X9048748Y-15078566D01*
X9067795Y-15088090D01*
X9077319Y-15097614D01*
X9086843Y-15116661D01*
X9086843Y-15173804D01*
X9077319Y-15192852D01*
X9067795Y-15202376D01*
X9048748Y-15211899D01*
X9020176Y-15211899D01*
X9201129Y-15211899D02*
X9182081Y-15202376D01*
X9172557Y-15183328D01*
X9172557Y-15011899D01*
X9353510Y-15202376D02*
X9334462Y-15211899D01*
X9296367Y-15211899D01*
X9277319Y-15202376D01*
X9267795Y-15183328D01*
X9267795Y-15107137D01*
X9277319Y-15088090D01*
X9296367Y-15078566D01*
X9334462Y-15078566D01*
X9353510Y-15088090D01*
X9363033Y-15107137D01*
X9363033Y-15126185D01*
X9267795Y-15145233D01*
X9439224Y-15202376D02*
X9458271Y-15211899D01*
X9496367Y-15211899D01*
X9515414Y-15202376D01*
X9524938Y-15183328D01*
X9524938Y-15173804D01*
X9515414Y-15154757D01*
X9496367Y-15145233D01*
X9467795Y-15145233D01*
X9448748Y-15135709D01*
X9439224Y-15116661D01*
X9439224Y-15107137D01*
X9448748Y-15088090D01*
X9467795Y-15078566D01*
X9496367Y-15078566D01*
X9515414Y-15088090D01*
X9763033Y-15135709D02*
X9915414Y-15135709D01*
X9839224Y-15211899D02*
X9839224Y-15059518D01*
X10248748Y-15078566D02*
X10248748Y-15211899D01*
X10201129Y-15002376D02*
X10153510Y-15145233D01*
X10277319Y-15145233D01*
X10496367Y-15202376D02*
X10515414Y-15211899D01*
X10553510Y-15211899D01*
X10572557Y-15202376D01*
X10582081Y-15183328D01*
X10582081Y-15173804D01*
X10572557Y-15154757D01*
X10553510Y-15145233D01*
X10524938Y-15145233D01*
X10505890Y-15135709D01*
X10496367Y-15116661D01*
X10496367Y-15107137D01*
X10505890Y-15088090D01*
X10524938Y-15078566D01*
X10553510Y-15078566D01*
X10572557Y-15088090D01*
X10696367Y-15211899D02*
X10677319Y-15202376D01*
X10667795Y-15183328D01*
X10667795Y-15011899D01*
X10801129Y-15211899D02*
X10782081Y-15202376D01*
X10772557Y-15192852D01*
X10763033Y-15173804D01*
X10763033Y-15116661D01*
X10772557Y-15097614D01*
X10782081Y-15088090D01*
X10801129Y-15078566D01*
X10829700Y-15078566D01*
X10848748Y-15088090D01*
X10858271Y-15097614D01*
X10867795Y-15116661D01*
X10867795Y-15173804D01*
X10858271Y-15192852D01*
X10848748Y-15202376D01*
X10829700Y-15211899D01*
X10801129Y-15211899D01*
X10924938Y-15078566D02*
X11001129Y-15078566D01*
X10953510Y-15011899D02*
X10953510Y-15183328D01*
X10963033Y-15202376D01*
X10982081Y-15211899D01*
X11001129Y-15211899D01*
X11058271Y-15202376D02*
X11077319Y-15211899D01*
X11115414Y-15211899D01*
X11134462Y-15202376D01*
X11143986Y-15183328D01*
X11143986Y-15173804D01*
X11134462Y-15154757D01*
X11115414Y-15145233D01*
X11086843Y-15145233D01*
X11067795Y-15135709D01*
X11058271Y-15116661D01*
X11058271Y-15107137D01*
X11067795Y-15088090D01*
X11086843Y-15078566D01*
X11115414Y-15078566D01*
X11134462Y-15088090D01*
X11210652Y-15288090D02*
X11220176Y-15278566D01*
X11239224Y-15249995D01*
X11248748Y-15230947D01*
X11258271Y-15202376D01*
X11267795Y-15154757D01*
X11267795Y-15116661D01*
X11258271Y-15069042D01*
X11248748Y-15040471D01*
X11239224Y-15021423D01*
X11220176Y-14992852D01*
X11210652Y-14983328D01*
M02*
