M48
; DRILL file {KiCad (6.0.9)} date Mon Dec 12 22:52:57 2022
; FORMAT={-:-/ absolute / inch / decimal}
; #@! TF.CreationDate,2022-12-12T22:52:57-08:00
; #@! TF.GenerationSoftware,Kicad,Pcbnew,(6.0.9)
; #@! TF.FileFunction,Plated,1,2,PTH
FMAT,2
INCH
; #@! TA.AperFunction,Plated,PTH,ViaDrill
T1C0.0138
; #@! TA.AperFunction,Plated,PTH,ComponentDrill
T2C0.0138
; #@! TA.AperFunction,Plated,PTH,ViaDrill
T3C0.0157
; #@! TA.AperFunction,Plated,PTH,ComponentDrill
T4C0.0157
; #@! TA.AperFunction,Plated,PTH,ComponentDrill
T5C0.0197
; #@! TA.AperFunction,Plated,PTH,ComponentDrill
T6C0.0217
; #@! TA.AperFunction,Plated,PTH,ComponentDrill
T7C0.0236
; #@! TA.AperFunction,Plated,PTH,ComponentDrill
T8C0.0315
; #@! TA.AperFunction,Plated,PTH,ComponentDrill
T9C0.0354
; #@! TA.AperFunction,Plated,PTH,ComponentDrill
T10C0.0394
; #@! TA.AperFunction,Plated,PTH,ComponentDrill
T11C0.0433
; #@! TA.AperFunction,Plated,PTH,ComponentDrill
T12C0.0591
; #@! TA.AperFunction,Plated,PTH,ComponentDrill
T13C0.0709
%
G90
G05
T1
X3.9838Y-1.6388
X4.245Y-1.48
X4.2835Y-1.7746
X4.2913Y-1.2598
X4.3071Y-1.4488
X4.3228Y-1.7746
X4.3543Y-1.4488
X4.3622Y-1.7746
X4.4016Y-1.7746
X4.4134Y-1.5157
X4.468Y-1.392
X4.5472Y-1.4685
T2
X4.2805Y-1.4852
X4.2805Y-1.5354
X4.2805Y-1.5856
X4.3307Y-1.4852
X4.3307Y-1.5354
X4.3307Y-1.5856
X4.3809Y-1.4852
X4.3809Y-1.5354
X4.3809Y-1.5856
T3
X1.9882Y-2.5197
X1.9961Y-2.0157
X2.1555Y-2.2244
X2.2146Y-2.2441
X2.446Y-1.62
X2.5Y-1.9291
X2.5295Y-2.7854
X2.56Y-1.662
X2.584Y-1.378
X2.625Y-2.435
X2.6575Y-1.7717
X2.695Y-2.605
X2.8346Y-2.4213
X2.8858Y-1.4291
X2.8937Y-2.3819
X2.938Y-1.958
X2.938Y-2.038
X2.9528Y-1.3189
X3.0445Y-2.6394
X3.063Y-1.4961
X3.11Y-2.245
X3.1102Y-1.8898
X3.135Y-2.21
X3.1499Y-1.9426
X3.17Y-2.135
X3.1752Y-2.6728
X3.1787Y-3.3201
X3.26Y-2.296
X3.3268Y-1.7913
X3.365Y-3.505
X3.375Y-1.57
X3.3858Y-2.1102
X3.4047Y-1.6539
X3.51Y-0.96
X3.525Y-1.48
X3.54Y-1.035
X3.5551Y-1.6772
X3.585Y-1.37
X3.5866Y-1.6299
X3.6177Y-2.8831
X3.6181Y-1.5827
X3.625Y-1.805
X3.66Y-1.87
X3.6614Y-1.5945
X3.6811Y-2.2087
X3.685Y-1.155
X3.6892Y-2.0842
X3.69Y-1.97
X3.69Y-2.0079
X3.69Y-2.0453
X3.7323Y-1.248
X3.8047Y-3.3201
X3.8189Y-1.4272
X3.8189Y-1.6142
X3.82Y-1.15
X3.8622Y-1.1496
X3.8878Y-1.9587
X3.9016Y-1.563
X3.9016Y-1.6063
X3.952Y-1.414
X3.9528Y-1.248
X3.9862Y-1.3681
X4.0354Y-1.8799
X4.1181Y-1.252
X4.1457Y-1.8031
X4.154Y-1.7032
X4.1654Y-1.252
X4.1929Y-1.7333
X4.194Y-1.774
X4.236Y-2.76
X4.3317Y-1.1909
X4.3406Y-1.1319
X4.404Y-2.718
X4.4495Y-3.1402
X4.4575Y-2.876
X4.474Y-3.056
X4.4882Y-1.2008
X4.5086Y-4.0555
X4.5315Y-1.9055
X4.55Y-1.508
X4.564Y-1.812
X4.6417Y-1.1929
X4.67Y-1.59
X4.678Y-1.466
X4.689Y-1.2402
X4.7244Y-1.1929
X4.7251Y-3.465
X4.7251Y-4.272
X4.7638Y-2.0394
X4.7638Y-2.124
X4.834Y-1.984
X4.836Y-1.468
X4.8406Y-2.1614
X4.864Y-1.566
X4.9213Y-1.1811
X4.9213Y-1.311
X4.9843Y-1.311
X4.9843Y-1.4094
X5.0007Y-3.4453
X5.0007Y-3.5437
X5.0984Y-1.3583
X5.135Y-2.0471
X5.135Y-2.205
X5.1693Y-1.4882
X5.1693Y-1.6181
X5.2257Y-4.0179
X5.296Y-3.7799
X5.3157Y-4.0161
X5.3937Y-2.0177
X5.575Y-2.02
X5.935Y-2.53
X6.0827Y-2.3819
X6.135Y-2.485
X6.2992Y-1.8504
X6.36Y-2.48
X6.36Y-2.565
T4
X5.5063Y-2.4419
X5.6854Y-1.5328
X5.9937Y-2.1803
X6.5919Y-2.0428
T7
X2.6761Y-2.4271
X2.726Y-2.4297
X2.7759Y-2.4323
X3.162Y-2.0847
X3.1646Y-2.0348
X3.1672Y-1.9848
X4.3461Y-2.137
X4.8208Y-3.4647
X4.8708Y-3.4647
X4.9208Y-3.4647
X5.2881Y-3.8321
X5.2881Y-3.8821
X5.2881Y-3.9321
T8
X3.2766Y-2.554
X3.2909Y-1.4224
X3.3554Y-2.554
X3.3854Y-1.4224
X3.4799Y-1.4224
X4.2835Y-1.0079
X4.3622Y-1.0079
X4.9803Y-1.6339
X4.9803Y-1.7126
X4.9803Y-1.7913
X4.9803Y-1.8701
X4.9803Y-1.9488
X4.9803Y-2.0276
X5.2594Y-1.4224
X5.3539Y-1.4224
X5.4484Y-1.4224
X6.725Y-2.5496
X6.725Y-2.6284
T9
X4.542Y-2.3783
X4.542Y-2.4571
X4.542Y-2.5358
X4.542Y-2.6146
X4.542Y-2.6933
X4.542Y-2.772
X6.3511Y-3.119
X6.4299Y-3.119
X6.5086Y-3.119
X6.5874Y-3.119
X6.6661Y-3.119
X6.7449Y-3.119
T10
X1.998Y-2.2622
X1.998Y-2.3622
X3.7004Y-1.0091
X3.7791Y-1.0091
X3.8579Y-1.0091
X3.9366Y-1.0091
X4.0154Y-1.0091
X4.0941Y-1.0091
X4.6378Y-1.0079
X6.725Y-2.325
X6.725Y-2.425
T11
X2.3187Y-1.4421
X2.4721Y-1.3535
X6.2674Y-1.3535
X6.4209Y-1.4421
T12
X6.1756Y-1.4142
X6.4143Y-1.552
T5
G00X2.0039Y-3.0856
M15
G01X2.0039Y-3.1112
M16
G05
G00X2.2795Y-3.0856
M15
G01X2.2795Y-3.1112
M16
G05
T6
G00X2.0374Y-2.9921
M15
G01X2.0492Y-2.9921
M16
G05
G00X2.2343Y-2.9921
M15
G01X2.2461Y-2.9921
M16
G05
T8
G00X2.47Y-2.2369
M15
G01X2.4716Y-2.2054
M16
G05
G00X3.024Y-1.8204
M15
G01X3.0257Y-1.789
M16
G05
G00X3.2142Y-1.889
M15
G01X3.2142Y-1.8614
M16
G05
G00X3.5567Y-1.889
M15
G01X3.5567Y-1.8614
M16
G05
G00X4.6641Y-3.6163
M15
G01X4.6326Y-3.6163
M16
G05
G00X5.109Y-4.1478
M15
G01X5.0775Y-4.1478
M16
G05
G00X5.1827Y-1.889
M15
G01X5.1827Y-1.8614
M16
G05
G00X5.5252Y-1.889
M15
G01X5.5252Y-1.8614
M16
G05
T13
G00X2.5484Y-1.7928
M15
G01X2.5036Y-1.7777
M16
G05
G00X2.9921Y-2.2481
M15
G01X2.9473Y-2.2331
M16
G05
G00X4.6614Y-4.0928
M15
G01X4.6487Y-4.1383
M16
G05
G00X5.0929Y-3.6259
M15
G01X5.0802Y-3.6714
M16
G05
T0
M30
