G04 #@! TF.GenerationSoftware,KiCad,Pcbnew,(6.0.9)*
G04 #@! TF.CreationDate,2022-12-12T22:53:00-08:00*
G04 #@! TF.ProjectId,PhoZL-2.0.2,50686f5a-4c2d-4322-9e30-2e322e6b6963,rev?*
G04 #@! TF.SameCoordinates,Original*
G04 #@! TF.FileFunction,Soldermask,Top*
G04 #@! TF.FilePolarity,Negative*
%FSLAX46Y46*%
G04 Gerber Fmt 4.6, Leading zero omitted, Abs format (unit mm)*
G04 Created by KiCad (PCBNEW (6.0.9)) date 2022-12-12 22:53:00*
%MOMM*%
%LPD*%
G01*
G04 APERTURE LIST*
G04 Aperture macros list*
%AMRoundRect*
0 Rectangle with rounded corners*
0 $1 Rounding radius*
0 $2 $3 $4 $5 $6 $7 $8 $9 X,Y pos of 4 corners*
0 Add a 4 corners polygon primitive as box body*
4,1,4,$2,$3,$4,$5,$6,$7,$8,$9,$2,$3,0*
0 Add four circle primitives for the rounded corners*
1,1,$1+$1,$2,$3*
1,1,$1+$1,$4,$5*
1,1,$1+$1,$6,$7*
1,1,$1+$1,$8,$9*
0 Add four rect primitives between the rounded corners*
20,1,$1+$1,$2,$3,$4,$5,0*
20,1,$1+$1,$4,$5,$6,$7,0*
20,1,$1+$1,$6,$7,$8,$9,0*
20,1,$1+$1,$8,$9,$2,$3,0*%
%AMHorizOval*
0 Thick line with rounded ends*
0 $1 width*
0 $2 $3 position (X,Y) of the first rounded end (center of the circle)*
0 $4 $5 position (X,Y) of the second rounded end (center of the circle)*
0 Add line between two ends*
20,1,$1,$2,$3,$4,$5,0*
0 Add two circle primitives to create the rounded ends*
1,1,$1,$2,$3*
1,1,$1,$4,$5*%
%AMFreePoly0*
4,1,397,1.800000,-0.940000,0.408673,-0.940000,0.403277,-1.027235,0.401356,-1.133531,0.402945,-1.281398,0.411246,-1.393555,0.428015,-1.476550,0.454895,-1.537030,0.493756,-1.582129,0.534103,-1.611203,0.615558,-1.643348,0.697633,-1.653926,0.796329,-1.665641,0.796818,-1.665915,0.797379,-1.665882,0.885602,-1.696499,0.886085,-1.696929,0.886718,-1.697051,0.953945,-1.741469,0.954506,-1.742299,
0.955336,-1.742850,0.991086,-1.795975,0.991245,-1.796757,0.991743,-1.797383,0.992100,-1.798622,0.992059,-1.798988,0.992245,-1.799304,0.998244,-1.841600,0.998195,-1.841790,0.998283,-1.841968,1.003319,-1.917100,1.003293,-1.917176,1.003327,-1.917249,1.006969,-2.015726,1.006949,-2.015779,1.006971,-2.015830,1.008789,-2.128157,1.008776,-2.128189,1.008790,-2.128221,1.008917,-2.166485,
1.009242,-2.278465,1.009223,-2.278512,1.009241,-2.278558,1.007796,-2.371336,1.007717,-2.371520,1.007776,-2.371710,1.000931,-2.447096,1.000725,-2.447490,1.000783,-2.447927,0.984905,-2.507730,0.984444,-2.508334,0.984321,-2.509082,0.955778,-2.555109,0.955023,-2.555652,0.954554,-2.556455,0.909717,-2.590517,0.908982,-2.590710,0.908423,-2.591227,0.843661,-2.615132,0.843193,-2.615114,
0.842798,-2.615365,0.754478,-2.630921,0.754229,-2.630866,0.754000,-2.630982,0.638493,-2.639998,0.638370,-2.639958,0.638251,-2.640011,0.491924,-2.644296,0.491870,-2.644275,0.491816,-2.644298,0.311040,-2.645661,0.311024,-2.645654,0.311008,-2.645661,0.092153,-2.645911,0.051430,-2.645971,-0.178230,-2.646549,-0.178242,-2.646544,-0.178254,-2.646549,-0.369163,-2.646129,-0.369210,-2.646109,
-0.369258,-2.646128,-0.524988,-2.642817,-0.525096,-2.642769,-0.525207,-2.642807,-0.649331,-2.634711,-0.649539,-2.634608,-0.649766,-2.634664,-0.745858,-2.619891,-0.746222,-2.619670,-0.746647,-2.619703,-0.818278,-2.596360,-0.818812,-2.595903,-0.819501,-2.595767,-0.870245,-2.561959,-0.870750,-2.561206,-0.871523,-2.560730,-0.904952,-2.514566,-0.905138,-2.513788,-0.905656,-2.513182,-0.925342,-2.452766,
-0.925303,-2.452268,-0.925550,-2.451833,-0.935068,-2.375274,-0.935002,-2.375036,-0.935104,-2.374811,-0.938024,-2.280213,-0.937994,-2.280133,-0.938026,-2.280055,-0.937923,-2.165521,-0.937833,-2.119370,-0.937834,-1.803410,-0.936369,-1.799874,-0.877066,-1.740572,-0.876576,-1.740369,-0.876278,-1.739930,-0.793514,-1.685525,-0.792729,-1.685375,-0.792098,-1.684883,-0.726694,-1.666833,-0.726373,-1.666873,
-0.726096,-1.666707,-0.548823,-1.640469,-0.453663,-1.607693,-0.402766,-1.569117,-0.345169,-1.511522,-0.345631,-1.136259,-0.347252,-0.974299,-0.348989,-0.940000,-0.800000,-0.940000,-0.800000,-0.215041,-0.836656,-0.193977,-0.946948,-0.164784,-1.072629,-0.163822,-1.220285,-0.190343,-1.370229,-0.234730,-1.737574,-0.379606,-2.090998,-0.562564,-2.427441,-0.780837,-2.743769,-1.031620,-3.036902,-1.312144,
-3.303709,-1.619597,-3.541085,-1.951188,-3.745975,-2.304202,-3.804811,-2.422589,-3.960839,-2.791719,-4.077792,-3.164945,-4.156752,-3.547344,-4.198758,-3.943898,-4.205358,-4.339194,-4.201969,-4.463252,-4.197628,-4.553434,-4.191104,-4.618114,-4.181212,-4.665718,-4.166709,-4.704984,-4.146174,-4.744742,-4.145984,-4.745080,-4.060578,-4.856101,-3.946974,-4.942083,-3.814392,-4.996270,-3.798578,-5.000082,
-3.761170,-5.007830,-3.726466,-5.012262,-3.688540,-5.012498,-3.641363,-5.007587,-3.579075,-4.996539,-3.495925,-4.978393,-3.386079,-4.952190,-3.243882,-4.917022,-3.160107,-4.896099,-3.160090,-4.896102,-3.160075,-4.896091,-2.825551,-4.814926,-2.825504,-4.814933,-2.825465,-4.814906,-2.520338,-4.746536,-2.520279,-4.746546,-2.520229,-4.746513,-2.234186,-4.689082,-2.234119,-4.689095,-2.234060,-4.689058,
-1.956778,-4.640707,-1.956708,-4.640723,-1.956649,-4.640687,-1.677813,-4.599558,-1.677751,-4.599574,-1.677695,-4.599542,-1.386988,-4.563779,-1.386947,-4.563790,-1.386909,-4.563770,-1.208530,-4.544727,-1.208456,-4.544749,-1.208387,-4.544714,-0.788972,-4.512186,-0.788865,-4.512221,-0.788763,-4.512174,-0.344963,-4.496401,-0.344871,-4.496435,-0.344780,-4.496398,0.114330,-4.496895,0.114414,-4.496930,
0.114500,-4.496898,0.579843,-4.513179,0.579925,-4.513216,0.580009,-4.513188,1.042509,-4.544767,1.042591,-4.544808,1.042680,-4.544781,1.493263,-4.591174,1.493353,-4.591222,1.493451,-4.591197,1.923040,-4.651918,1.923142,-4.651978,1.923257,-4.651954,2.322776,-4.726517,2.322840,-4.726559,2.322917,-4.726545,2.366542,-4.735989,2.366779,-4.736153,2.367068,-4.736133,2.514152,-4.785220,
2.514595,-4.785604,2.515171,-4.785694,2.638100,-4.860626,2.638477,-4.861143,2.639066,-4.861393,2.733566,-4.957707,2.733832,-4.958367,2.734386,-4.958814,2.796184,-5.072043,2.796268,-5.072821,2.796700,-5.073470,2.821521,-5.199153,2.821433,-5.199595,2.821615,-5.200009,2.821893,-5.212292,2.821745,-5.212674,2.821850,-5.213070,2.804925,-5.339172,2.804595,-5.339741,2.804598,-5.340396,
2.756011,-5.459423,2.755587,-5.459851,2.755451,-5.460439,2.681433,-5.564066,2.680901,-5.564398,2.680618,-5.564956,2.587399,-5.644860,2.586701,-5.645088,2.586199,-5.645622,2.480009,-5.693477,2.479486,-5.693493,2.479057,-5.693796,2.457728,-5.698617,2.457323,-5.698547,2.456955,-5.698729,2.387087,-5.703343,2.386780,-5.703239,2.386474,-5.703346,2.280533,-5.697312,2.280388,-5.697242,
2.280234,-5.697286,2.136975,-5.680464,2.136894,-5.680419,2.136804,-5.680441,1.954985,-5.652688,1.954937,-5.652659,1.954885,-5.652671,1.775715,-5.621580,1.422750,-5.567304,1.038613,-5.525452,0.632604,-5.496232,0.214024,-5.479852,-0.207803,-5.476527,-0.623559,-5.486465,-1.023796,-5.509873,-1.399392,-5.546974,-1.418991,-5.549396,-1.773556,-5.601353,-2.152156,-5.670741,-2.541796,-5.754671,
-2.929412,-5.850236,-3.301917,-5.954528,-3.460779,-6.003419,-3.460810,-6.003416,-3.460833,-6.003435,-3.663945,-6.063458,-3.664094,-6.063442,-3.664216,-6.063530,-3.834344,-6.103619,-3.834572,-6.103582,-3.834770,-6.103700,-3.976058,-6.124270,-3.976395,-6.124185,-3.976715,-6.124322,-4.093298,-6.125789,-4.093760,-6.125604,-4.094244,-6.125710,-4.190263,-6.108489,-4.190728,-6.108191,-4.191282,-6.108192,
-4.253671,-6.082532,-4.254052,-6.082153,-4.254578,-6.082044,-4.390550,-5.989695,-4.390910,-5.989147,-4.391500,-5.988856,-4.490511,-5.875964,-4.490746,-5.875273,-4.491284,-5.874779,-4.553881,-5.740424,-4.553911,-5.739735,-4.554278,-5.739152,-4.581011,-5.582417,-4.580926,-5.582043,-4.581081,-5.581691,-4.582207,-5.532634,-4.585052,-5.448410,-4.593539,-5.336992,-4.606346,-5.213085,-4.621904,-5.092970,
-4.660414,-4.793081,-4.660386,-4.792977,-4.660436,-4.792880,-4.684051,-4.523303,-4.684011,-4.523176,-4.684067,-4.523053,-4.693275,-4.274662,-4.693222,-4.274518,-4.693277,-4.274377,-4.688570,-4.038046,-4.688527,-4.037948,-4.688562,-4.037846,-4.683262,-3.949808,-4.683212,-3.949705,-4.683245,-3.949595,-4.643853,-3.567529,-4.643760,-3.567356,-4.643802,-3.567164,-4.580385,-3.211057,-4.580266,-3.210871,
-4.580295,-3.210654,-4.490070,-2.869846,-4.489936,-2.869670,-4.489947,-2.869447,-4.370127,-2.533281,-4.369996,-2.533136,-4.369991,-2.532939,-4.230649,-2.217397,-4.230522,-2.217276,-4.230507,-2.217102,-4.055517,-1.882177,-4.055357,-1.882043,-4.055322,-1.881838,-3.864133,-1.576577,-3.863949,-1.576446,-3.863893,-1.576229,-3.648848,-1.289829,-3.648663,-1.289720,-3.648593,-1.289516,-3.402039,-1.011177,
-3.401923,-1.011121,-3.401875,-1.011000,-3.307079,-0.913845,-3.306971,-0.913799,-3.306923,-0.913692,-3.042008,-0.664949,-3.041821,-0.664878,-3.041726,-0.664704,-2.773401,-0.448059,-2.773192,-0.447997,-2.773072,-0.447815,-2.490391,-0.255508,-2.490186,-0.255465,-2.490057,-0.255299,-2.182072,-0.079569,-2.181932,-0.079551,-2.181839,-0.079444,-2.003995,0.009919,-2.003897,0.009926,-2.003830,0.009998,
-1.798346,0.104003,-1.798219,0.104008,-1.798129,0.104096,-1.595978,0.185244,-1.595842,0.185243,-1.595741,0.185332,-1.384936,0.257810,-1.384815,0.257803,-1.384720,0.257879,-1.153282,0.325873,-1.153197,0.325864,-1.153128,0.325916,-0.944671,0.379992,-0.800000,0.417724,-0.800000,1.660000,1.800000,1.660000,1.800000,-0.940000,1.800000,-0.940000,$1*%
%AMFreePoly1*
4,1,466,4.128268,6.138208,4.128693,6.138340,4.221084,6.129783,4.221580,6.129522,4.222136,6.129569,4.303090,6.103861,4.303514,6.103504,4.304063,6.103433,4.379090,6.060442,4.379347,6.060109,4.379750,6.059990,4.454357,5.999588,4.454443,5.999429,4.454613,5.999366,4.475155,5.980289,4.475217,5.980153,4.475355,5.980093,4.535551,5.917527,4.535693,5.917166,4.536021,5.916960,
4.580360,5.854677,4.580476,5.854173,4.580852,5.853817,4.612519,5.782932,4.612532,5.782477,4.612804,5.782110,4.634982,5.693736,4.634940,5.693452,4.635085,5.693204,4.650959,5.578454,4.650926,5.578326,4.650987,5.578209,4.661229,5.462209,4.672755,5.333438,4.687835,5.196765,4.704385,5.069757,4.718284,4.981170,4.718280,4.981155,4.718288,4.981143,4.730835,4.898185,
4.730804,4.898058,4.730865,4.897944,4.740372,4.804730,4.740342,4.804628,4.740389,4.804531,4.747181,4.694391,4.747155,4.694317,4.747187,4.694247,4.751588,4.560508,4.751570,4.560460,4.751590,4.560414,4.753927,4.396403,4.753917,4.396378,4.753928,4.396351,4.754530,4.238019,4.754524,4.238004,4.754530,4.237990,4.754205,4.062905,4.754196,4.062883,4.754205,4.062861,
4.752711,3.922460,4.752693,3.922418,4.752709,3.922376,4.749589,3.809017,4.749559,3.808949,4.749583,3.808879,4.744385,3.714921,4.744340,3.714828,4.744371,3.714729,4.736640,3.632530,4.736587,3.632429,4.736616,3.632318,4.725898,3.554235,4.725849,3.554152,4.725870,3.554060,4.711710,3.472450,4.711689,3.472416,4.711697,3.472376,4.707744,3.451457,4.707678,3.451356,
4.707697,3.451237,4.601013,2.998814,4.600876,2.998624,4.600893,2.998393,4.458156,2.566588,4.458000,2.566407,4.457996,2.566166,4.280044,2.156216,4.279867,2.156045,4.279840,2.155801,4.067508,1.768941,4.067314,1.768785,4.067263,1.768540,3.821388,1.406007,3.821178,1.405869,3.821104,1.405627,3.542521,1.068654,3.542298,1.068536,3.542201,1.068303,3.231746,0.758128,
3.231514,0.758032,3.231397,0.757811,2.889906,0.475668,2.889672,0.475596,2.889538,0.475392,2.527847,0.228688,2.527654,0.228648,2.527534,0.228491,2.274813,0.082318,2.274645,0.082296,2.274533,0.082167,2.015739,-0.046296,2.015564,-0.046308,2.015442,-0.046431,1.742981,-0.160145,1.742817,-0.160145,1.742694,-0.160255,1.448971,-0.262176,1.448830,-0.262168,1.448719,-0.262256,
1.126139,-0.355343,1.126038,-0.355332,1.125956,-0.355392,0.859132,-0.421512,0.715035,-0.463160,0.589378,-0.519345,0.518465,-0.560591,0.493893,-0.575351,0.460705,-0.606956,0.314786,-0.693941,0.200000,-0.731237,0.200000,-1.240000,1.800000,-1.240000,1.800000,-3.840000,-0.800000,-3.840000,-0.800000,-1.240000,-0.200000,-1.240000,-0.200000,-0.733543,-0.343569,-0.680150,-0.485717,-0.587131,
-0.603725,-0.464931,-0.691726,-0.319622,-0.745348,-0.158429,-0.761926,0.010639,-0.740634,0.179178,-0.682532,0.338812,-0.590508,0.481606,-0.469134,0.600464,-0.402247,0.641613,-0.381218,0.685926,-0.363081,0.750183,-0.352297,0.829119,-0.346998,0.930789,-0.345283,1.063231,-0.345166,1.138528,-0.345166,1.509656,-0.412391,1.576650,-0.453385,1.613052,-0.494509,1.635166,-0.550419,1.648609,
-0.633798,1.658206,-0.633815,1.658216,-0.633835,1.658210,-0.735724,1.670718,-0.736025,1.670888,-0.736368,1.670840,-0.813236,1.690732,-0.813815,1.691168,-0.814532,1.691271,-0.869861,1.724049,-0.870477,1.724870,-0.871355,1.725407,-0.908627,1.776578,-0.908828,1.777413,-0.909371,1.778075,-0.932068,1.853142,-0.932021,1.853619,-0.932251,1.854037,-0.943855,1.958506,-0.943794,1.958715,
-0.943884,1.958915,-0.947876,2.098289,-0.947853,2.098349,-0.947878,2.098409,-0.948119,2.153061,-0.948110,2.153083,-0.948119,2.153106,-0.947572,2.274538,-0.947546,2.274600,-0.947570,2.274663,-0.944996,2.362151,-0.944930,2.362299,-0.944978,2.362453,-0.939399,2.424372,-0.939251,2.424654,-0.939309,2.424968,-0.929749,2.469691,-0.929490,2.470067,-0.929494,2.470520,-0.914977,2.506423,
-0.914758,2.506646,-0.914724,2.506956,-0.904316,2.525907,-0.904043,2.526126,-0.903959,2.526465,-0.866993,2.576658,-0.866099,2.577198,-0.865462,2.578026,-0.819733,2.604357,-0.818946,2.604460,-0.818294,2.604911,-0.763406,2.616776,-0.763058,2.616713,-0.762741,2.616874,-0.720082,2.620218,-0.719983,2.620186,-0.719889,2.620229,-0.640375,2.623383,-0.640340,2.623370,-0.640306,2.623385,
-0.529412,2.626248,-0.529393,2.626241,-0.529373,2.626249,-0.392576,2.628720,-0.392563,2.628715,-0.392548,2.628721,-0.235325,2.630702,-0.235313,2.630697,-0.235302,2.630702,-0.063130,2.632091,-0.063120,2.632087,-0.063110,2.632091,0.105645,2.632764,0.105650,2.632762,0.105655,2.632764,0.879570,2.634333,0.879626,2.634310,0.879685,2.634333,0.881406,2.633577,0.883109,2.632876,
0.883133,2.632819,0.883189,2.632794,1.007526,2.503131,1.008191,2.501427,1.008916,2.499764,1.022193,1.790384,1.022004,1.789903,1.022114,1.789397,1.021327,1.788175,1.020796,1.786821,1.020322,1.786614,1.020042,1.786180,0.938079,1.729380,0.937775,1.729314,0.937578,1.729075,0.862966,1.689426,0.862399,1.689371,0.861949,1.689021,0.767087,1.662862,0.766783,1.662900,
0.766522,1.662741,0.611235,1.638723,0.553188,1.621632,0.510108,1.595836,0.482248,1.570604,0.451531,1.536342,0.431798,1.501011,0.419069,1.452589,0.409893,1.379223,0.405065,1.323546,0.398833,1.188821,0.400588,1.050678,0.409490,0.919076,0.424679,0.804120,0.445263,0.715900,0.458644,0.682236,0.496745,0.618693,0.553496,0.536915,0.619501,0.449262,0.685420,0.367950,
0.741929,0.305155,0.760753,0.287115,0.851531,0.220540,0.948976,0.178302,1.058036,0.160336,1.183624,0.166832,1.330474,0.198084,1.503196,0.254343,1.661846,0.316964,2.044001,0.499136,2.404894,0.716821,2.742004,0.967905,3.052698,1.250222,3.334373,1.561614,3.584498,1.900027,3.592635,1.912312,3.804036,2.270847,3.978612,2.648258,4.115389,3.041009,4.213329,3.445469,
4.271390,3.857989,4.288538,4.275045,4.287307,4.346125,4.283718,4.467132,4.279281,4.554489,4.272589,4.616802,4.262257,4.662916,4.246852,4.701835,4.224760,4.742619,4.221734,4.747801,4.145181,4.845771,4.044803,4.927645,3.932151,4.986330,3.818836,5.014661,3.789188,5.016151,3.746621,5.011074,3.669589,4.996666,3.565277,4.974452,3.440528,4.945921,3.302195,4.912567,
3.214437,4.890585,3.214420,4.890587,3.214406,4.890577,2.815024,4.793254,2.814959,4.793264,2.814906,4.793227,2.443760,4.712213,2.443681,4.712227,2.443613,4.712183,2.091318,4.646311,2.091228,4.646330,2.091148,4.646282,1.748319,4.594385,1.748224,4.594409,1.748138,4.594361,1.405393,4.555272,1.405301,4.555298,1.405215,4.555255,1.053168,4.527805,1.053086,4.527832,
1.053008,4.527795,0.682274,4.510818,0.682206,4.510842,0.682141,4.510814,0.283338,4.503143,0.283299,4.503158,0.283261,4.503142,0.093769,4.502415,0.093747,4.502424,0.093725,4.502415,-0.186213,4.503810,-0.186246,4.503824,-0.186279,4.503811,-0.433122,4.508277,-0.433167,4.508297,-0.433215,4.508279,-0.656131,4.516457,-0.656189,4.516484,-0.656249,4.516463,-0.864407,4.528998,
-0.864471,4.529029,-0.864538,4.529008,-1.067106,4.546542,-1.067166,4.546573,-1.067233,4.546554,-1.273381,4.569731,-1.273433,4.569760,-1.273489,4.569745,-1.492384,4.599206,-1.492418,4.599226,-1.492457,4.599216,-1.674406,4.626426,-1.674433,4.626442,-1.674463,4.626435,-1.904357,4.663529,-1.904406,4.663559,-1.904462,4.663547,-2.096151,4.698659,-2.096235,4.698714,-2.096335,4.698696,
-2.253773,4.733682,-2.253909,4.733778,-2.254075,4.733759,-2.381216,4.770476,-2.381422,4.770640,-2.381685,4.770637,-2.482483,4.810940,-2.482761,4.811211,-2.483147,4.811264,-2.561556,4.857008,-2.561866,4.857416,-2.562349,4.857582,-2.622321,4.910623,-2.622566,4.911125,-2.623044,4.911416,-2.668538,4.973609,-2.668653,4.974081,-2.669014,4.974406,-2.703980,5.047608,-2.703997,5.047928,
-2.704208,5.048170,-2.729354,5.122980,-2.729326,5.123385,-2.729544,5.123731,-2.747077,5.226339,-2.746909,5.227077,-2.747109,5.227807,-2.734722,5.326017,-2.734366,5.326642,-2.734357,5.327359,-2.689766,5.431502,-2.689483,5.431778,-2.689419,5.432169,-2.646003,5.502175,-2.645625,5.502446,-2.645470,5.502885,-2.553430,5.605135,-2.552738,5.605466,-2.552280,5.606081,-2.440413,5.672988,
-2.439614,5.673106,-2.438956,5.673572,-2.312193,5.702410,-2.311704,5.702327,-2.311251,5.702532,-2.282333,5.703497,-2.282091,5.703406,-2.281845,5.703490,-2.225873,5.699891,-2.225756,5.699834,-2.225633,5.699869,-2.137511,5.689915,-2.137459,5.689886,-2.137399,5.689902,-2.026618,5.674855,-2.026580,5.674833,-2.026538,5.674843,-1.902592,5.655964,-1.902563,5.655946,-1.902529,5.655954,
-1.813769,5.641264,-1.274400,5.560469,-0.752528,5.506712,-0.233836,5.478924,0.296010,5.476047,0.389909,5.478003,0.903842,5.499723,1.389863,5.540027,1.858776,5.600707,2.321288,5.683551,2.788090,5.790347,3.269958,5.922906,3.532645,6.003440,3.532650,6.003439,3.532656,6.003444,3.725889,6.062200,3.725988,6.062190,3.726068,6.062251,3.885827,6.104373,3.886006,6.104349,
3.886156,6.104448,4.017949,6.129806,4.018242,6.129746,4.018508,6.129881,4.127846,6.138346,4.128268,6.138208,4.128268,6.138208,$1*%
%AMFreePoly2*
4,1,109,2.423048,2.892512,2.446920,2.888310,2.451927,2.883128,2.458779,2.880902,2.473024,2.861296,2.489866,2.843866,2.490871,2.836731,2.495106,2.830902,2.495106,2.806663,2.498486,2.782666,2.471432,2.628953,2.468694,2.623799,2.468851,2.617962,2.380444,2.318632,2.376698,2.313172,2.376028,2.306587,2.250031,2.021036,2.245617,2.016101,2.244110,2.009656,2.203805,1.943010,
2.482545,2.046854,2.491614,2.046526,2.500000,2.050000,4.000000,2.050000,4.035355,2.035355,4.050000,2.000000,4.050000,0.900000,4.035355,0.864645,4.000000,0.850000,2.500000,0.850000,2.491234,0.853631,2.481746,0.853451,1.980546,1.050000,1.361999,1.050000,1.105862,0.905567,1.099374,0.904257,1.094308,0.899996,0.805051,0.782755,0.798448,0.782286,0.792878,0.778709,
0.500000,0.701823,0.500000,0.571170,0.597174,0.473315,0.687196,0.329249,0.743064,0.168820,0.762000,0.000000,0.761703,-0.021276,0.738060,-0.189502,0.677735,-0.348309,0.583726,-0.489804,0.460705,-0.606956,0.314786,-0.693941,0.153221,-0.746436,-0.015958,-0.761833,-0.184344,-0.739365,-0.343569,-0.680150,-0.485717,-0.587131,-0.603725,-0.464931,-0.691726,-0.319622,-0.745348,-0.158429,
-0.761926,0.010639,-0.740634,0.179178,-0.682532,0.338812,-0.590508,0.481606,-0.500000,0.570238,-0.500000,0.701823,-0.792878,0.778709,-0.798448,0.782286,-0.805050,0.782755,-1.094308,0.899996,-1.099374,0.904257,-1.105862,0.905567,-1.344265,1.040000,-1.980989,1.040000,-2.482545,0.853146,-2.491614,0.853474,-2.500000,0.850000,-4.000000,0.850000,-4.035355,0.864645,-4.050000,0.900000,
-4.050000,2.000000,-4.035355,2.035355,-4.000000,2.050000,-2.500000,2.050000,-2.491234,2.046369,-2.481746,2.046549,-2.199479,1.935856,-2.244110,2.009656,-2.245617,2.016101,-2.250031,2.021036,-2.376029,2.306588,-2.376699,2.313174,-2.380443,2.318631,-2.468851,2.617962,-2.468694,2.623799,-2.471432,2.628953,-2.498486,2.782666,-2.495106,2.806663,-2.495106,2.830902,-2.490871,2.836731,
-2.489866,2.843866,-2.473024,2.861296,-2.458779,2.880902,-2.451927,2.883128,-2.446920,2.888310,-2.423048,2.892512,-2.400000,2.900000,2.400000,2.900000,2.423048,2.892512,2.423048,2.892512,$1*%
%AMFreePoly3*
4,1,109,0.174003,0.741867,0.334039,0.684881,0.477472,0.593856,0.597174,0.473315,0.687196,0.329249,0.743064,0.168820,0.762000,0.000000,0.761703,-0.021276,0.738060,-0.189502,0.677735,-0.348309,0.583726,-0.489804,0.500000,-0.569536,0.500000,-0.701823,0.792878,-0.778709,0.798448,-0.782286,0.805051,-0.782755,1.094308,-0.899996,1.099374,-0.904257,1.105862,-0.905567,1.346039,-1.041000,
1.979990,-1.041000,2.481545,-0.854146,2.490614,-0.854474,2.499000,-0.851000,4.000000,-0.851000,4.035355,-0.865645,4.050000,-0.901000,4.050000,-2.001000,4.035355,-2.036355,4.000000,-2.051000,2.499000,-2.051000,2.490234,-2.047369,2.480746,-2.047549,2.200583,-1.937681,2.244110,-2.009656,2.245617,-2.016101,2.250031,-2.021036,2.376028,-2.306587,2.376698,-2.313172,2.380444,-2.318632,
2.468851,-2.617962,2.468694,-2.623799,2.471432,-2.628953,2.498486,-2.782666,2.495106,-2.806663,2.495106,-2.830902,2.490871,-2.836731,2.489866,-2.843866,2.473024,-2.861296,2.458779,-2.880902,2.451927,-2.883128,2.446920,-2.888310,2.423048,-2.892512,2.400000,-2.900000,-2.400000,-2.900000,-2.423048,-2.892512,-2.446920,-2.888310,-2.451927,-2.883128,-2.458779,-2.880902,-2.473024,-2.861296,
-2.489866,-2.843866,-2.490871,-2.836731,-2.495106,-2.830902,-2.495106,-2.806663,-2.498486,-2.782666,-2.471432,-2.628953,-2.468694,-2.623799,-2.468851,-2.617962,-2.380443,-2.318631,-2.376699,-2.313174,-2.376029,-2.306588,-2.250031,-2.021036,-2.245617,-2.016101,-2.244110,-2.009656,-2.203805,-1.943010,-2.482545,-2.046854,-2.491614,-2.046526,-2.500000,-2.050000,-4.000000,-2.050000,-4.035355,-2.035355,
-4.050000,-2.000000,-4.050000,-0.900000,-4.035355,-0.864645,-4.000000,-0.850000,-2.500000,-0.850000,-2.491234,-0.853631,-2.481746,-0.853451,-1.980545,-1.050000,-1.361999,-1.050000,-1.105862,-0.905567,-1.099374,-0.904257,-1.094308,-0.899996,-0.805050,-0.782755,-0.798448,-0.782286,-0.792878,-0.778709,-0.500000,-0.701823,-0.500000,-0.572341,-0.603725,-0.464931,-0.691726,-0.319622,-0.745348,-0.158429,
-0.761926,0.010639,-0.740634,0.179178,-0.682532,0.338812,-0.590508,0.481606,-0.469134,0.600464,-0.324444,0.689478,-0.163628,0.744224,0.005320,0.761981,0.174003,0.741867,0.174003,0.741867,$1*%
%AMFreePoly4*
4,1,52,0.073905,0.494508,0.209726,0.453889,0.328688,0.376782,0.421226,0.269385,0.479903,0.140333,0.500000,0.000000,0.499851,-0.012216,0.493270,-0.051334,2.240667,-0.051334,2.244203,-0.052798,2.245667,-0.056334,2.245667,-5.115167,2.244203,-5.118703,2.240667,-5.120167,1.669167,-5.120167,1.665631,-5.118703,1.664167,-5.115167,1.664167,-0.632834,0.213667,-0.632834,0.213667,-5.115167,
0.212203,-5.118703,0.208667,-5.120167,-0.384000,-5.120167,-0.387536,-5.118703,-0.389000,-5.115167,-0.389000,-0.632834,-1.860666,-0.632834,-1.860666,-5.115167,-1.862130,-5.118703,-1.865666,-5.120167,-2.437166,-5.120167,-2.440702,-5.118703,-2.442166,-5.115167,-2.442166,-0.056334,-2.440702,-0.052798,-2.437166,-0.051334,-0.540331,-0.051334,-0.516310,0.048800,-0.516081,0.049116,-0.516084,0.049507,
-0.478875,0.141542,-0.478152,0.146186,-0.469840,0.163891,-0.466788,0.171439,-0.466264,0.171972,-0.466055,0.172692,-0.465216,0.173739,-0.417904,0.274511,-0.324060,0.380769,-0.204165,0.456417,-0.067858,0.495374,0.073905,0.494508,0.073905,0.494508,$1*%
%AMFreePoly5*
4,1,69,2.426383,5.069651,2.428131,5.068968,2.428153,5.068918,2.428203,5.068897,2.428915,5.067177,2.429666,5.065462,2.429646,5.065411,2.429667,5.065361,2.429667,0.026500,2.428203,0.022964,2.424667,0.021500,1.697721,0.021500,1.514570,0.021092,1.334660,0.019937,1.164978,0.018135,1.012624,0.015784,0.884488,0.012987,0.787775,0.009847,0.749088,0.007927,0.530743,-0.005432,
0.508394,-0.088993,0.508170,-0.089285,0.508167,-0.089653,0.458855,-0.205995,0.458401,-0.206442,0.458241,-0.207057,0.434305,-0.238758,0.414519,-0.279596,0.319384,-0.384700,0.198574,-0.458877,0.061801,-0.496166,-0.079941,-0.493568,-0.215256,-0.451293,-0.333266,-0.372738,-0.424486,-0.264219,-0.481581,-0.134460,-0.499963,0.006109,-0.498457,0.015784,-0.497567,0.021500,-2.253166,0.021500,
-2.256702,0.022964,-2.258166,0.026500,-2.258166,5.064166,-2.256702,5.067702,-2.253166,5.069166,-1.681666,5.069166,-1.678130,5.067702,-1.676666,5.064166,-1.676666,0.581833,-0.205000,0.581833,-0.205000,5.064166,-0.203536,5.067702,-0.200000,5.069166,0.371500,5.069166,0.375036,5.067702,0.376500,5.064166,0.376500,0.581833,1.826819,0.581833,1.837584,5.053595,1.838292,5.055293,
1.838977,5.057047,1.839034,5.057072,1.839057,5.057127,1.840742,5.057820,1.842483,5.058582,2.424566,5.070360,2.424617,5.070340,2.424667,5.070361,2.426383,5.069651,2.426383,5.069651,$1*%
G04 Aperture macros list end*
%ADD10C,3.560000*%
%ADD11C,3.560001*%
%ADD12C,0.814255*%
%ADD13C,2.590494*%
%ADD14C,0.810267*%
%ADD15C,0.010000*%
%ADD16FreePoly0,0.000000*%
%ADD17FreePoly1,0.000000*%
%ADD18C,0.800000*%
%ADD19FreePoly0,41.000000*%
%ADD20FreePoly1,41.000000*%
%ADD21HorizOval,1.700000X0.259808X-0.150000X-0.259808X0.150000X0*%
%ADD22C,2.500000*%
%ADD23FreePoly2,180.000000*%
%ADD24FreePoly3,180.000000*%
%ADD25FreePoly2,270.000000*%
%ADD26FreePoly3,270.000000*%
%ADD27FreePoly2,90.000000*%
%ADD28FreePoly3,90.000000*%
%ADD29C,2.000000*%
%ADD30C,1.600000*%
%ADD31HorizOval,2.800000X-0.568661X0.191376X0.568661X-0.191376X0*%
%ADD32HorizOval,1.600000X0.026168X0.499315X-0.026168X-0.499315X0*%
%ADD33R,0.750000X1.200000*%
%ADD34FreePoly4,0.000000*%
%ADD35C,1.000000*%
%ADD36FreePoly5,0.000000*%
%ADD37FreePoly0,297.000000*%
%ADD38FreePoly1,297.000000*%
%ADD39C,5.200000*%
%ADD40C,1.800000*%
%ADD41C,2.400000*%
%ADD42C,2.200000*%
%ADD43FreePoly0,12.000000*%
%ADD44FreePoly1,12.000000*%
%ADD45O,2.800000X2.200000*%
%ADD46RoundRect,0.250000X-0.375000X-0.625000X0.375000X-0.625000X0.375000X0.625000X-0.375000X0.625000X0*%
%ADD47RoundRect,0.237500X-0.250000X-0.237500X0.250000X-0.237500X0.250000X0.237500X-0.250000X0.237500X0*%
%ADD48RoundRect,0.150000X0.150000X-0.650000X0.150000X0.650000X-0.150000X0.650000X-0.150000X-0.650000X0*%
%ADD49RoundRect,0.135000X-0.135000X-0.185000X0.135000X-0.185000X0.135000X0.185000X-0.135000X0.185000X0*%
%ADD50RoundRect,0.135000X0.135000X0.185000X-0.135000X0.185000X-0.135000X-0.185000X0.135000X-0.185000X0*%
%ADD51RoundRect,0.140000X0.140000X0.170000X-0.140000X0.170000X-0.140000X-0.170000X0.140000X-0.170000X0*%
%ADD52R,2.000000X1.500000*%
%ADD53R,2.000000X3.800000*%
%ADD54RoundRect,0.140000X-0.170000X0.140000X-0.170000X-0.140000X0.170000X-0.140000X0.170000X0.140000X0*%
%ADD55R,1.400000X1.200000*%
%ADD56RoundRect,0.140000X-0.140000X-0.170000X0.140000X-0.170000X0.140000X0.170000X-0.140000X0.170000X0*%
%ADD57RoundRect,0.135000X0.185000X-0.135000X0.185000X0.135000X-0.185000X0.135000X-0.185000X-0.135000X0*%
%ADD58R,1.200000X0.750000*%
%ADD59R,0.750000X1.000000*%
%ADD60RoundRect,0.140000X0.170000X-0.140000X0.170000X0.140000X-0.170000X0.140000X-0.170000X-0.140000X0*%
%ADD61RoundRect,0.150000X0.587500X0.150000X-0.587500X0.150000X-0.587500X-0.150000X0.587500X-0.150000X0*%
%ADD62RoundRect,0.150000X-0.150000X0.587500X-0.150000X-0.587500X0.150000X-0.587500X0.150000X0.587500X0*%
%ADD63RoundRect,0.250000X-0.475000X0.250000X-0.475000X-0.250000X0.475000X-0.250000X0.475000X0.250000X0*%
%ADD64RoundRect,0.135000X-0.185000X0.135000X-0.185000X-0.135000X0.185000X-0.135000X0.185000X0.135000X0*%
%ADD65RoundRect,0.150000X0.150000X-0.825000X0.150000X0.825000X-0.150000X0.825000X-0.150000X-0.825000X0*%
%ADD66RoundRect,0.050000X0.050000X-0.387500X0.050000X0.387500X-0.050000X0.387500X-0.050000X-0.387500X0*%
%ADD67RoundRect,0.050000X0.387500X-0.050000X0.387500X0.050000X-0.387500X0.050000X-0.387500X-0.050000X0*%
%ADD68RoundRect,0.144000X1.456000X-1.456000X1.456000X1.456000X-1.456000X1.456000X-1.456000X-1.456000X0*%
%ADD69RoundRect,0.237500X0.250000X0.237500X-0.250000X0.237500X-0.250000X-0.237500X0.250000X-0.237500X0*%
%ADD70R,1.700000X1.700000*%
%ADD71C,0.787400*%
%ADD72RoundRect,0.237500X-0.237500X0.250000X-0.237500X-0.250000X0.237500X-0.250000X0.237500X0.250000X0*%
%ADD73RoundRect,0.237500X0.237500X-0.250000X0.237500X0.250000X-0.237500X0.250000X-0.237500X-0.250000X0*%
%ADD74RoundRect,0.150000X0.594545X0.119047X-0.578844X0.180542X-0.594545X-0.119047X0.578844X-0.180542X0*%
%ADD75O,2.600000X1.600000*%
%ADD76HorizOval,2.800000X-0.161352X-0.577898X0.161352X0.577898X0*%
%ADD77RoundRect,0.150000X0.119047X-0.594545X0.180542X0.578844X-0.119047X0.594545X-0.180542X-0.578844X0*%
%ADD78R,1.200000X0.900000*%
%ADD79O,1.350000X2.000000*%
%ADD80R,0.900000X1.200000*%
%ADD81R,0.400000X1.350000*%
%ADD82R,1.200000X1.550000*%
%ADD83R,1.500000X1.550000*%
%ADD84O,1.250000X0.950000*%
%ADD85O,0.890000X1.550000*%
%ADD86HorizOval,1.700000X0.259808X0.150000X-0.259808X-0.150000X0*%
%ADD87RoundRect,0.150000X-0.825000X-0.150000X0.825000X-0.150000X0.825000X0.150000X-0.825000X0.150000X0*%
%ADD88RoundRect,0.250000X-0.250000X-0.475000X0.250000X-0.475000X0.250000X0.475000X-0.250000X0.475000X0*%
%ADD89O,2.250000X1.700000*%
%ADD90R,2.250000X1.700000*%
%ADD91O,1.600000X2.500000*%
%ADD92O,1.250000X2.500000*%
%ADD93O,1.400000X2.000000*%
%ADD94R,1.400000X2.000000*%
%ADD95R,2.000000X1.350000*%
%ADD96O,2.000000X1.350000*%
%ADD97R,2.200000X1.350000*%
%ADD98O,2.200000X1.350000*%
%ADD99R,1.350000X2.000000*%
G04 APERTURE END LIST*
G36*
X151440000Y-56620000D02*
G01*
X154040000Y-56620000D01*
X154040000Y-59220000D01*
X151440000Y-59220000D01*
X151440000Y-56620000D01*
G37*
G36*
X151440000Y-45220000D02*
G01*
X154040000Y-45220000D01*
X154040000Y-47820000D01*
X151440000Y-47820000D01*
X151440000Y-45220000D01*
G37*
D10*
X154020000Y-51080000D02*
G75*
G03*
X154020000Y-51080000I-1780000J0D01*
G01*
G36*
X132591726Y-54882249D02*
G01*
X134553971Y-53176496D01*
X136259725Y-55138741D01*
X134297480Y-56844494D01*
X132591726Y-54882249D01*
G37*
G36*
X140070799Y-63485938D02*
G01*
X142033044Y-61780185D01*
X143738798Y-63742430D01*
X141776553Y-65448183D01*
X140070799Y-63485938D01*
G37*
D11*
X138820000Y-58780000D02*
G75*
G03*
X138820000Y-58780000I-1780000J0D01*
G01*
D12*
X81147127Y-77930000D02*
G75*
G03*
X81147127Y-77930000I-407127J0D01*
G01*
D13*
X82035247Y-81130000D02*
G75*
G03*
X82035247Y-81130000I-1295247J0D01*
G01*
D14*
X81145133Y-84330000D02*
G75*
G03*
X81145133Y-84330000I-405133J0D01*
G01*
X92295133Y-73180000D02*
G75*
G03*
X92295133Y-73180000I-405133J0D01*
G01*
D12*
X85897127Y-73180000D02*
G75*
G03*
X85897127Y-73180000I-407127J0D01*
G01*
D13*
X89985247Y-73180000D02*
G75*
G03*
X89985247Y-73180000I-1295247J0D01*
G01*
D14*
X97045133Y-84330000D02*
G75*
G03*
X97045133Y-84330000I-405133J0D01*
G01*
D13*
X97935247Y-81130000D02*
G75*
G03*
X97935247Y-81130000I-1295247J0D01*
G01*
D12*
X97047127Y-77930000D02*
G75*
G03*
X97047127Y-77930000I-407127J0D01*
G01*
D13*
X89985247Y-89080000D02*
G75*
G03*
X89985247Y-89080000I-1295247J0D01*
G01*
D14*
X85895133Y-89080000D02*
G75*
G03*
X85895133Y-89080000I-405133J0D01*
G01*
D12*
X92297127Y-89080000D02*
G75*
G03*
X92297127Y-89080000I-407127J0D01*
G01*
G36*
X113746000Y-54211167D02*
G01*
X110997861Y-54211167D01*
X110660182Y-54211060D01*
X110334207Y-54210749D01*
X110022441Y-54210245D01*
X109727387Y-54209562D01*
X109451550Y-54208713D01*
X109197435Y-54207710D01*
X108967544Y-54206566D01*
X108764382Y-54205295D01*
X108590453Y-54203907D01*
X108448261Y-54202418D01*
X108340310Y-54200838D01*
X108269105Y-54199182D01*
X108237149Y-54197462D01*
X108235611Y-54197056D01*
X108233949Y-54174602D01*
X108232342Y-54112214D01*
X108230802Y-54012290D01*
X108229341Y-53877229D01*
X108227969Y-53709430D01*
X108226697Y-53511290D01*
X108225538Y-53285210D01*
X108224502Y-53033587D01*
X108223600Y-52758820D01*
X108222844Y-52463308D01*
X108222246Y-52149450D01*
X108221815Y-51819644D01*
X108221564Y-51476290D01*
X108221500Y-51191389D01*
X108221500Y-48199834D01*
X113746000Y-48199834D01*
X113746000Y-54211167D01*
G37*
D15*
X113746000Y-54211167D02*
X110997861Y-54211167D01*
X110660182Y-54211060D01*
X110334207Y-54210749D01*
X110022441Y-54210245D01*
X109727387Y-54209562D01*
X109451550Y-54208713D01*
X109197435Y-54207710D01*
X108967544Y-54206566D01*
X108764382Y-54205295D01*
X108590453Y-54203907D01*
X108448261Y-54202418D01*
X108340310Y-54200838D01*
X108269105Y-54199182D01*
X108237149Y-54197462D01*
X108235611Y-54197056D01*
X108233949Y-54174602D01*
X108232342Y-54112214D01*
X108230802Y-54012290D01*
X108229341Y-53877229D01*
X108227969Y-53709430D01*
X108226697Y-53511290D01*
X108225538Y-53285210D01*
X108224502Y-53033587D01*
X108223600Y-52758820D01*
X108222844Y-52463308D01*
X108222246Y-52149450D01*
X108221815Y-51819644D01*
X108221564Y-51476290D01*
X108221500Y-51191389D01*
X108221500Y-48199834D01*
X113746000Y-48199834D01*
X113746000Y-54211167D01*
G36*
X142940631Y-38782302D02*
G01*
X144121007Y-41098919D01*
X141804390Y-42279294D01*
X140624014Y-39962677D01*
X142940631Y-38782302D01*
G37*
G36*
X153098106Y-33606810D02*
G01*
X154278481Y-35923427D01*
X151961864Y-37103803D01*
X150781489Y-34787186D01*
X153098106Y-33606810D01*
G37*
D10*
X150020000Y-36980000D02*
G75*
G03*
X150020000Y-36980000I-1780000J0D01*
G01*
G36*
X166909313Y-53265267D02*
G01*
X169452496Y-52724697D01*
X169993067Y-55267880D01*
X167449883Y-55808451D01*
X166909313Y-53265267D01*
G37*
G36*
X164539119Y-42114384D02*
G01*
X167082303Y-41573814D01*
X167622874Y-44116998D01*
X165079690Y-44657568D01*
X164539119Y-42114384D01*
G37*
X168320000Y-47680000D02*
G75*
G03*
X168320000Y-47680000I-1780000J0D01*
G01*
D16*
X152240000Y-46880000D03*
D17*
X152240000Y-55380000D03*
D18*
X152240000Y-55380000D03*
D19*
X134284552Y-55610220D03*
D18*
X139861054Y-62025251D03*
D20*
X139861054Y-62025251D03*
D21*
X159452694Y-34530000D03*
X162830192Y-36480000D03*
D22*
X162922532Y-39420064D03*
X156860354Y-35920064D03*
D23*
X80740000Y-77930000D03*
D24*
X80740000Y-84330000D03*
D25*
X85490000Y-73180000D03*
D26*
X91890000Y-73180000D03*
D23*
X96640000Y-77930000D03*
D24*
X96640000Y-84330000D03*
D27*
X91890000Y-89080000D03*
D28*
X85490000Y-89080000D03*
D29*
X69651159Y-53874463D03*
D30*
X70068538Y-45910393D03*
D31*
X64160011Y-45345390D03*
X75430155Y-56911074D03*
D32*
X76831531Y-45839243D03*
D30*
X69521628Y-56346071D03*
D32*
X62758635Y-56417221D03*
D29*
X69939007Y-48382001D03*
D18*
X70508581Y-61780172D03*
D33*
X80000000Y-36300000D03*
X80000000Y-38200000D03*
X131318000Y-36190000D03*
X131318000Y-34290000D03*
D34*
X111590000Y-48080000D03*
D35*
X110390000Y-54280000D03*
D36*
X110390000Y-54280000D03*
D37*
X151982227Y-35073240D03*
D38*
X144408672Y-38932159D03*
D18*
X144408672Y-38932159D03*
D39*
X73990000Y-71130000D03*
D29*
X55990000Y-60630000D03*
D40*
X104390000Y-51130000D03*
X117590000Y-51130000D03*
D41*
X157990000Y-41130000D03*
D29*
X165990000Y-60630000D03*
D42*
X59006622Y-40346621D03*
D43*
X165666771Y-43571780D03*
D44*
X167434020Y-51886035D03*
D18*
X167434020Y-51886035D03*
D45*
X170790000Y-76130000D03*
D42*
X80573378Y-61913378D03*
D46*
X74600000Y-31500000D03*
X77400000Y-31500000D03*
D47*
X90277500Y-32230000D03*
X92102500Y-32230000D03*
D48*
X95095000Y-51600000D03*
X96365000Y-51600000D03*
X97635000Y-51600000D03*
X98905000Y-51600000D03*
X98905000Y-44400000D03*
X97635000Y-44400000D03*
X96365000Y-44400000D03*
X95095000Y-44400000D03*
D49*
X89596000Y-51500000D03*
X90616000Y-51500000D03*
D50*
X87116000Y-50300000D03*
X86096000Y-50300000D03*
D51*
X101180000Y-39700000D03*
X100220000Y-39700000D03*
D52*
X51750000Y-66500000D03*
D53*
X58050000Y-68800000D03*
D52*
X51750000Y-68800000D03*
X51750000Y-71100000D03*
D54*
X53250000Y-55540000D03*
X53250000Y-56500000D03*
D55*
X122000000Y-39800000D03*
X119800000Y-39800000D03*
X119800000Y-41500000D03*
X122000000Y-41500000D03*
D56*
X102520000Y-37000000D03*
X103480000Y-37000000D03*
D57*
X88356000Y-51310000D03*
X88356000Y-50290000D03*
D56*
X102520000Y-38000000D03*
X103480000Y-38000000D03*
D58*
X122518000Y-107010000D03*
X120618000Y-107010000D03*
D59*
X99375000Y-29500000D03*
X99375000Y-35500000D03*
X95625000Y-29500000D03*
X95625000Y-35500000D03*
D60*
X105800000Y-33680000D03*
X105800000Y-32720000D03*
D61*
X133268000Y-99560000D03*
X133268000Y-97660000D03*
X131480500Y-98610000D03*
D54*
X102500000Y-45770000D03*
X102500000Y-46730000D03*
D60*
X90551000Y-38834000D03*
X90551000Y-37874000D03*
D62*
X124666000Y-89060000D03*
X122766000Y-89060000D03*
X123716000Y-90847500D03*
D49*
X89596000Y-50300000D03*
X90616000Y-50300000D03*
D54*
X116900000Y-41520000D03*
X116900000Y-42480000D03*
D60*
X107594400Y-72844600D03*
X107594400Y-71884600D03*
D57*
X87056000Y-55010000D03*
X87056000Y-53990000D03*
D63*
X50700000Y-52650000D03*
X50700000Y-54550000D03*
D64*
X86106000Y-51490000D03*
X86106000Y-52510000D03*
D65*
X107613000Y-79885000D03*
X108883000Y-79885000D03*
X110153000Y-79885000D03*
X111423000Y-79885000D03*
X111423000Y-74935000D03*
X110153000Y-74935000D03*
X108883000Y-74935000D03*
X107613000Y-74935000D03*
D56*
X116820000Y-38200000D03*
X117780000Y-38200000D03*
D66*
X107400000Y-42437500D03*
X107800000Y-42437500D03*
X108200000Y-42437500D03*
X108600000Y-42437500D03*
X109000000Y-42437500D03*
X109400000Y-42437500D03*
X109800000Y-42437500D03*
X110200000Y-42437500D03*
X110600000Y-42437500D03*
X111000000Y-42437500D03*
X111400000Y-42437500D03*
X111800000Y-42437500D03*
X112200000Y-42437500D03*
X112600000Y-42437500D03*
D67*
X113437500Y-41600000D03*
X113437500Y-41200000D03*
X113437500Y-40800000D03*
X113437500Y-40400000D03*
X113437500Y-40000000D03*
X113437500Y-39600000D03*
X113437500Y-39200000D03*
X113437500Y-38800000D03*
X113437500Y-38400000D03*
X113437500Y-38000000D03*
X113437500Y-37600000D03*
X113437500Y-37200000D03*
X113437500Y-36800000D03*
X113437500Y-36400000D03*
D66*
X112600000Y-35562500D03*
X112200000Y-35562500D03*
X111800000Y-35562500D03*
X111400000Y-35562500D03*
X111000000Y-35562500D03*
X110600000Y-35562500D03*
X110200000Y-35562500D03*
X109800000Y-35562500D03*
X109400000Y-35562500D03*
X109000000Y-35562500D03*
X108600000Y-35562500D03*
X108200000Y-35562500D03*
X107800000Y-35562500D03*
X107400000Y-35562500D03*
D67*
X106562500Y-36400000D03*
X106562500Y-36800000D03*
X106562500Y-37200000D03*
X106562500Y-37600000D03*
X106562500Y-38000000D03*
X106562500Y-38400000D03*
X106562500Y-38800000D03*
X106562500Y-39200000D03*
X106562500Y-39600000D03*
X106562500Y-40000000D03*
X106562500Y-40400000D03*
X106562500Y-40800000D03*
X106562500Y-41200000D03*
X106562500Y-41600000D03*
D68*
X110000000Y-39000000D03*
D51*
X101180000Y-40800000D03*
X100220000Y-40800000D03*
D62*
X81740000Y-31812500D03*
X79840000Y-31812500D03*
X80790000Y-33687500D03*
D49*
X89596000Y-53900000D03*
X90616000Y-53900000D03*
D69*
X68612500Y-34700000D03*
X66787500Y-34700000D03*
D70*
X117800000Y-25600000D03*
D33*
X115518000Y-99510000D03*
X115518000Y-101410000D03*
D71*
X114757200Y-56279325D03*
X113487200Y-56279325D03*
X116027200Y-58310175D03*
X114757200Y-58310175D03*
X116027200Y-56279325D03*
X113487200Y-58310175D03*
D58*
X69450000Y-42500000D03*
X67550000Y-42500000D03*
D54*
X93599000Y-44605000D03*
X93599000Y-45565000D03*
D72*
X91900000Y-25387500D03*
X91900000Y-27212500D03*
D73*
X115518000Y-97422500D03*
X115518000Y-95597500D03*
D56*
X116820000Y-39400000D03*
X117780000Y-39400000D03*
D49*
X89596000Y-52700000D03*
X90616000Y-52700000D03*
D74*
X79274116Y-52568184D03*
X79373554Y-50670788D03*
X77538785Y-51525935D03*
D30*
X128944000Y-98604552D03*
D75*
X129369000Y-105354552D03*
D29*
X120969000Y-98604552D03*
X126469000Y-98604552D03*
D75*
X118069000Y-91854552D03*
D76*
X129199000Y-92674552D03*
D30*
X118494000Y-98604552D03*
D76*
X118239000Y-104534552D03*
D77*
X68357751Y-60610331D03*
X70255147Y-60709769D03*
X69400000Y-58875000D03*
D47*
X124693000Y-107010000D03*
X126518000Y-107010000D03*
D71*
X111150400Y-56326850D03*
X111150400Y-64126850D03*
X108610400Y-56326850D03*
X109880400Y-64126850D03*
X108610400Y-64126850D03*
X109880400Y-56326850D03*
D72*
X61000000Y-51587500D03*
X61000000Y-53412500D03*
D78*
X61200000Y-66450000D03*
X61200000Y-69750000D03*
D39*
X113719000Y-83754552D03*
D57*
X88356000Y-53410000D03*
X88356000Y-52390000D03*
D60*
X104600000Y-33680000D03*
X104600000Y-32720000D03*
D51*
X103480000Y-36000000D03*
X102520000Y-36000000D03*
D79*
X108800000Y-25800000D03*
X110800000Y-25800000D03*
D61*
X77437500Y-35950000D03*
X77437500Y-34050000D03*
X75562500Y-35000000D03*
D60*
X93000000Y-38480000D03*
X93000000Y-37520000D03*
D56*
X120932000Y-37719000D03*
X121892000Y-37719000D03*
D80*
X80650000Y-65510000D03*
X77350000Y-65510000D03*
D51*
X103480000Y-35000000D03*
X102520000Y-35000000D03*
D29*
X123719000Y-94104552D03*
D81*
X53100000Y-76000000D03*
X53750000Y-76000000D03*
X54400000Y-76000000D03*
X55050000Y-76000000D03*
X55700000Y-76000000D03*
D82*
X51500000Y-78700000D03*
D83*
X55400000Y-78700000D03*
D82*
X57300000Y-78700000D03*
D84*
X56900000Y-76000000D03*
D85*
X50900000Y-78700000D03*
X57900000Y-78700000D03*
D84*
X51900000Y-76000000D03*
D83*
X53400000Y-78700000D03*
D69*
X92102500Y-28830000D03*
X90277500Y-28830000D03*
D54*
X115100000Y-44340000D03*
X115100000Y-45300000D03*
D47*
X71500000Y-42500000D03*
X73325000Y-42500000D03*
D86*
X59153751Y-36480000D03*
X62531249Y-34530000D03*
D29*
X123719000Y-103104552D03*
D87*
X83725000Y-38895000D03*
X83725000Y-40165000D03*
X83725000Y-41435000D03*
X83725000Y-42705000D03*
X88675000Y-42705000D03*
X88675000Y-41435000D03*
X88675000Y-40165000D03*
X88675000Y-38895000D03*
D40*
X109244000Y-99404552D03*
D33*
X61000000Y-49450000D03*
X61000000Y-47550000D03*
D60*
X112250000Y-31480000D03*
X112250000Y-30520000D03*
D88*
X65450000Y-67200000D03*
X67350000Y-67200000D03*
D62*
X72650000Y-32662500D03*
X70750000Y-32662500D03*
X71700000Y-34537500D03*
D69*
X92102500Y-30530000D03*
X90277500Y-30530000D03*
D56*
X116820000Y-37000000D03*
X117780000Y-37000000D03*
D89*
X50750000Y-60000000D03*
D90*
X50750000Y-57460000D03*
D89*
X170815000Y-61595000D03*
D90*
X170815000Y-59055000D03*
D91*
X131640000Y-47630000D03*
X140340000Y-47630000D03*
D92*
X138390000Y-36130000D03*
X135990000Y-36130000D03*
X133590000Y-36130000D03*
D91*
X81640000Y-47630000D03*
X90340000Y-47630000D03*
D92*
X88390000Y-36130000D03*
X85990000Y-36130000D03*
X83590000Y-36130000D03*
D93*
X103990000Y-25830000D03*
X101990000Y-25830000D03*
X99990000Y-25830000D03*
D94*
X97990000Y-25830000D03*
X95990000Y-25830000D03*
X93990000Y-25830000D03*
D95*
X170815000Y-64761000D03*
D96*
X170815000Y-66761000D03*
X126500000Y-51500000D03*
X126500000Y-49500000D03*
X126500000Y-47500000D03*
X126500000Y-45500000D03*
X126500000Y-43500000D03*
D95*
X126500000Y-41500000D03*
D97*
X115366800Y-60410000D03*
D98*
X115366800Y-62410000D03*
X115366800Y-64410000D03*
X115366800Y-66410000D03*
X115366800Y-68410000D03*
X115366800Y-70410000D03*
D99*
X171319200Y-79222600D03*
D79*
X169319200Y-79222600D03*
X167319200Y-79222600D03*
X165319200Y-79222600D03*
X163319200Y-79222600D03*
X161319200Y-79222600D03*
D99*
X83226400Y-64871600D03*
D79*
X85226400Y-64871600D03*
M02*
